<?xml version="1.0" encoding="UTF-8" standalone="no"?>
<!-- Created with Inkscape (http://www.inkscape.org/) -->

<svg
   xmlns:dc="http://purl.org/dc/elements/1.1/"
   xmlns:cc="http://creativecommons.org/ns#"
   xmlns:rdf="http://www.w3.org/1999/02/22-rdf-syntax-ns#"
   xmlns:svg="http://www.w3.org/2000/svg"
   xmlns="http://www.w3.org/2000/svg"
   xmlns:sodipodi="http://sodipodi.sourceforge.net/DTD/sodipodi-0.dtd"
   xmlns:inkscape="http://www.inkscape.org/namespaces/inkscape"
   version="1.1"
   width="743.75"
   height="1052.3622"
   id="svg4118"
   xml:space="preserve"
   inkscape:version="0.48.4 r9939"
   sodipodi:docname="Link-Integration.svg"><sodipodi:namedview
     pagecolor="#ffffff"
     bordercolor="#666666"
     borderopacity="1"
     objecttolerance="10"
     gridtolerance="10"
     guidetolerance="10"
     inkscape:pageopacity="0"
     inkscape:pageshadow="2"
     inkscape:window-width="1873"
     inkscape:window-height="1056"
     id="namedview6631"
     showgrid="false"
     inkscape:zoom="1.1569609"
     inkscape:cx="371.98373"
     inkscape:cy="664.62829"
     inkscape:window-x="47"
     inkscape:window-y="24"
     inkscape:window-maximized="1"
     inkscape:current-layer="g4154" /><metadata
     id="metadata4124"><rdf:RDF><cc:Work
         rdf:about=""><dc:format>image/svg+xml</dc:format><dc:type
           rdf:resource="http://purl.org/dc/dcmitype/StillImage" /><dc:title /></cc:Work></rdf:RDF></metadata><defs
     id="defs4122"><clipPath
       id="clipPath4132"><path
         d="m 0,0 595,0 0,842.29218 -595,0 L 0,0 z"
         id="path4134" /></clipPath><clipPath
       id="clipPath4144"><path
         d="M 595,841.54285 595,0 0,0 l 0,841.54285 595,0 z"
         id="path4146" /></clipPath><clipPath
       id="clipPath4156"><path
         d="m 316.23425,143.87909 -127.39294,0 0,136.38538 127.39294,0 0,-136.38538 z"
         id="path4158" /></clipPath><clipPath
       id="clipPath4216"><path
         d="m 293.75314,169.35768 -79.43324,0 0,79.43324 79.43324,0 0,-79.43324 z"
         id="path4218" /></clipPath><clipPath
       id="clipPath4256"><path
         d="m 284.76071,181.3476 -57.70152,0 0,57.7015 57.70152,0 0,-57.7015 z"
         id="path4258" /></clipPath><clipPath
       id="clipPath4272"><path
         d="M 595,841.54285 595,0 0,0 l 0,841.54285 595,0 z"
         id="path4274" /></clipPath><clipPath
       id="clipPath4280"><path
         d="M 0,0 126,0 126,134 0,134 0,0 z"
         id="path4282" /></clipPath><clipPath
       id="clipPath4284"><path
         d="m 125.3728,0.5201416 -124.39547075,0 0,133.3879084 124.39547075,0 0,-133.3879084 z"
         id="path4286" /></clipPath><clipPath
       id="clipPath4288"><path
         d="m 102.89169,25.249359 -77.185139,0 0,77.185151 77.185139,0 0,-77.185151 z"
         id="path4290" /></clipPath><clipPath
       id="clipPath4292"><path
         d="m 90.15239,36.489929 -53.954659,0 0,53.954651 53.954659,0 0,-53.954651 z"
         id="path4294" /></clipPath><clipPath
       id="clipPath4410"><path
         d="m 501.32874,405.40933 -119.89927,0 0,128.14231 119.89927,0 0,-128.14231 z"
         id="path4412" /></clipPath><clipPath
       id="clipPath4470"><path
         d="m 480.34637,430.88791 -74.93704,0 0,74.93704 74.93704,0 0,-74.93704 z"
         id="path4472" /></clipPath><clipPath
       id="clipPath4510"><path
         d="m 472.10327,441.37909 -58.45087,0 0,53.95465 58.45087,0 0,-53.95465 z"
         id="path4512" /></clipPath><clipPath
       id="clipPath4524"><path
         d="M 595,841.54285 595,0 0,0 l 0,841.54285 595,0 z"
         id="path4526" /></clipPath><clipPath
       id="clipPath4532"><path
         d="M 0,0 125,0 125,136 0,136 0,0 z"
         id="path4534" /></clipPath><clipPath
       id="clipPath4536"><path
         d="m 124.48489,0.94332886 -124.3954735,0 0,133.38791114 124.3954735,0 0,-133.38791114 z"
         id="path4538" /></clipPath><clipPath
       id="clipPath4540"><path
         d="m 101.2544,27.171295 -77.18514,0 0,77.185145 77.18514,0 0,-77.185145 z"
         id="path4542" /></clipPath><clipPath
       id="clipPath4544"><path
         d="m 93.011322,41.409332 -62.197723,0 0,51.706543 62.197723,0 0,-51.706543 z"
         id="path4546" /></clipPath><clipPath
       id="clipPath4658"><path
         d="m 544.79218,35.220402 -128.14231,0 0,137.134758 128.14231,0 0,-137.134758 z"
         id="path4660" /></clipPath><clipPath
       id="clipPath4718"><path
         d="m 521.56171,61.448364 -79.43323,0 0,79.433256 79.43323,0 0,-79.433256 z"
         id="path4720" /></clipPath><clipPath
       id="clipPath4758"><path
         d="m 498.33124,80.182617 -34.47104,0 0,41.215363 34.47104,0 0,-41.215363 z"
         id="path4760" /></clipPath><clipPath
       id="clipPath4770"><path
         d="M 595,841.54285 595,0 0,0 l 0,841.54285 595,0 z"
         id="path4772" /></clipPath><clipPath
       id="clipPath4778"><path
         d="M 0,0 128,0 128,137 0,137 0,0 z"
         id="path4780" /></clipPath><clipPath
       id="clipPath4782"><path
         d="m 127.87154,0.44584656 -127.39294999,0 0,136.38539344 127.39294999,0 0,-136.38539344 z"
         id="path4784" /></clipPath><clipPath
       id="clipPath4786"><path
         d="m 104.64105,26.673805 -79.433241,0 0,79.433255 79.433241,0 0,-79.433255 z"
         id="path4788" /></clipPath><clipPath
       id="clipPath4790"><path
         d="m 91.901764,35.666245 -49.458435,0 0,59.94963 49.458435,0 0,-59.94963 z"
         id="path4792" /></clipPath><clipPath
       id="clipPath4916"><path
         d="m 416.37738,383.32635 -89.49765,-108.80163 -28.35788,23.32651 89.49768,108.80166 28.35785,-23.32654 z"
         id="path4918" /></clipPath><clipPath
       id="clipPath4936"><path
         d="m 384.5686,343.53052 -23.80258,-28.93662 -28.93661,23.80258 23.80258,28.93659 28.93661,-23.80255 z"
         id="path4938" /></clipPath><clipPath
       id="clipPath4952"><path
         d="m 469.2196,376.94995 29.85471,-166.70549 -43.52045,-7.79393 -29.85473,166.70548 43.52047,7.79394 z"
         id="path4954" /></clipPath><clipPath
       id="clipPath4972"><path
         d="m 480.7532,316.60577 7.92603,-44.25808 -44.25809,-7.92603 -7.92602,44.25809 44.25808,7.92602 z"
         id="path4974" /></clipPath></defs><g
     transform="scale(1.25,1.25)"
     id="g4126"><g
       id="g4154"
       clip-path="url(#clipPath4156)"><g
         id="g4160"
         transform="matrix(0.09356616,0,0,0.11692765,228.27641,182.28329)"><path
           inkscape:connector-curvature="0"
           style="fill:#b3e1c1;fill-opacity:1;fill-rule:nonzero;stroke:none"
           id="path4162"
           d="m 48,49 403,0 0,402.10001 -403,0 L 48,49 z" /></g><g
         id="g4164"
         transform="matrix(0.11070996,0,0,0.67351025,227.11063,-57.164154)"><path
           inkscape:connector-curvature="0"
           style="fill:#b3e1c1;fill-opacity:1;fill-rule:nonzero;stroke:none"
           id="path4166"
           d="m 68,431 363,0 0,63 -363,0 0,-63 z" /><path
           inkscape:connector-curvature="0"
           style="fill:#009b31;fill-opacity:1;fill-rule:nonzero;stroke:none"
           id="path4168"
           d="m 68,485 363,0 0,15 -363,0 0,-15 z" /></g><g
         id="g4170"
         transform="matrix(0.67345244,0,0,0.13582018,189.51759,181.01749)"><path
           inkscape:connector-curvature="0"
           style="fill:#b3e1c1;fill-opacity:1;fill-rule:nonzero;stroke:none"
           id="path4172"
           d="M 6,67 68,67 68,433 6,433 6,67 z" /><path
           inkscape:connector-curvature="0"
           style="fill:#009b31;fill-opacity:1;fill-rule:nonzero;stroke:none"
           id="path4174"
           d="M 0,69 15,69 15,431 0,431 0,69 z" /></g><g
         id="g4176"
         transform="matrix(0.67345244,0,0,0.13411881,-21.168259,181.0971)"><path
           inkscape:connector-curvature="0"
           style="fill:#b3e1c1;fill-opacity:1;fill-rule:nonzero;stroke:none"
           id="path4178"
           d="m 431,69 63,0 0,362 -63,0 0,-362 z" /><path
           inkscape:connector-curvature="0"
           style="fill:#009b31;fill-opacity:1;fill-rule:nonzero;stroke:none"
           id="path4180"
           d="m 485,69 15,0 0,362 -15,0 0,-362 z" /></g><g
         id="g4182"
         transform="matrix(0.67345244,0,0,0.67351025,-21.168259,-57.164154)"><path
           inkscape:connector-curvature="0"
           style="fill:#b3e1c1;fill-opacity:1;fill-rule:nonzero;stroke:none"
           id="path4184"
           d="M 434.20001,494 C 467.30002,494 494,467.39999 494,434.20001 L 494,431 l -63,0 0,63 3.20001,0 z" /><path
           inkscape:connector-curvature="0"
           style="fill:#009b31;fill-opacity:1;fill-rule:nonzero;stroke:none"
           id="path4186"
           d="M 432.70001,485 429,485 l 0,15 3.70001,0 C 469.90002,500 500,469.89999 500,432.70001 L 500,429 l -15,0 0,3.70001 C 485,461.60001 461.60001,485 432.70001,485 z" /></g><g
         id="g4188"
         transform="matrix(0.67345244,0,0,0.67351025,189.51759,-57.164154)"><path
           inkscape:connector-curvature="0"
           style="fill:#b3e1c1;fill-opacity:1;fill-rule:nonzero;stroke:none"
           id="path4190"
           d="M 65.800003,494 68,494 l 0,-63 -62,0 0,3.20001 C 6,467.39999 32.599998,494 65.800003,494 z" /><path
           inkscape:connector-curvature="0"
           style="fill:#009b31;fill-opacity:1;fill-rule:nonzero;stroke:none"
           id="path4192"
           d="m 0,437.5 c 2.5,35 31.700001,62.5 67.300003,62.5 L 70,500 l 0,-15 -2.699997,0 C 38.400002,485 15,461.60001 15,432.70001 L 15,429 l -15,0 0,3.70001 c 0,1.59998 -0.1,3.19998 0,4.79999 z" /></g><g
         id="g4194"
         transform="matrix(0.11994363,0,0,0.67351025,221.00376,144.5526)"><path
           inkscape:connector-curvature="0"
           style="fill:#b3e1c1;fill-opacity:1;fill-rule:nonzero;stroke:none"
           id="path4196"
           d="M 66,6 433,6 433,69 66,69 66,6 z" /><path
           inkscape:connector-curvature="0"
           style="fill:#009b31;fill-opacity:1;fill-rule:nonzero;stroke:none"
           id="path4198"
           d="M 67,0 432,0 432,15 67,15 67,0 z" /></g><g
         id="g4200"
         transform="matrix(0.67345244,0,0,0.67351025,-21.168259,144.5526)"><path
           inkscape:connector-curvature="0"
           style="fill:#b3e1c1;fill-opacity:1;fill-rule:nonzero;stroke:none"
           id="path4202"
           d="M 434.20001,6 431,6 l 0,63 63,0 0,-3.199997 C 494,32.599998 467.39999,6 434.20001,6 z" /><path
           inkscape:connector-curvature="0"
           style="fill:#009b31;fill-opacity:1;fill-rule:nonzero;stroke:none"
           id="path4204"
           d="M 485,67.300003 485,71 l 15,0 0,-3.699997 C 500,30.1 469.89999,0 432.70001,0 L 429,0 l 0,15 3.70001,0 C 461.60001,15 485,38.400002 485,67.300003 z" /></g><g
         id="g4206"
         transform="matrix(0.67345244,0,0,0.67351025,189.51759,144.5526)"><path
           inkscape:connector-curvature="0"
           style="fill:#b3e1c1;fill-opacity:1;fill-rule:nonzero;stroke:none"
           id="path4208"
           d="M 6,65.800003 6,69 68,69 68,6 65.800003,6 C 32.599998,6 6,32.599998 6,65.800003 z" /><path
           inkscape:connector-curvature="0"
           style="fill:#009b31;fill-opacity:1;fill-rule:nonzero;stroke:none"
           id="path4210"
           d="M 15,67.300003 C 15,38.400002 38.400002,15 67.300003,15 L 70,15 70,0 67.300003,0 C 31.700001,0 2.5,27.5 0,62.5 l 0,8.5 15,0 0,-3.699997 z" /></g></g><g
       id="g4214"
       clip-path="url(#clipPath4216)"><g
         id="g4220"
         transform="matrix(0.1588665,0,0,0.1588665,214.47876,169.51654)"><path
           inkscape:connector-curvature="0"
           style="fill:#ffffff;fill-opacity:1;fill-rule:nonzero;stroke:none"
           id="path4222"
           d="M 14,66.900002 C 14,38 38,14 66.900002,14 L 72,14 72,-1 66.900002,-1 C 29.700001,-1 -1,29.700001 -1,66.900002 L -1,72 l 15,0 0,-5.099998 z" /></g><g
         id="g4224"
         transform="matrix(0.1588665,0,0,0.1588665,214.16104,169.51654)"><path
           inkscape:connector-curvature="0"
           style="fill:#ffffff;fill-opacity:1;fill-rule:nonzero;stroke:none"
           id="path4226"
           d="M 433.10001,-1 428,-1 l 0,15 5.10001,0 C 462,14 486,38 486,66.900002 L 486,72 l 15,0 0,-5.099998 C 501,29.700001 470.29999,-1 433.10001,-1 z" /></g><g
         id="g4228"
         transform="matrix(0.1588665,0,0,0.1588665,214.3199,169.51654)"><path
           inkscape:connector-curvature="0"
           style="fill:#ffffff;fill-opacity:1;fill-rule:nonzero;stroke:none"
           id="path4230"
           d="m 70,-1 360,0 0,15 -360,0 0,-15 z" /></g><g
         id="g4232"
         transform="matrix(0.1588665,0,0,0.1588665,214.47876,169.35768)"><path
           inkscape:connector-curvature="0"
           style="fill:#ffffff;fill-opacity:1;fill-rule:nonzero;stroke:none"
           id="path4234"
           d="m -1,70 15,0 0,360 -15,0 0,-360 z" /></g><g
         id="g4236"
         transform="matrix(0.1588665,0,0,0.1588665,214.3199,169.19882)"><path
           inkscape:connector-curvature="0"
           style="fill:#ffffff;fill-opacity:1;fill-rule:nonzero;stroke:none"
           id="path4238"
           d="m 70,486 360,0 0,15 -360,0 0,-15 z" /></g><g
         id="g4240"
         transform="matrix(0.1588665,0,0,0.1588665,214.47876,169.19882)"><path
           inkscape:connector-curvature="0"
           style="fill:#ffffff;fill-opacity:1;fill-rule:nonzero;stroke:none"
           id="path4242"
           d="M 66.900002,486 C 38,486 14,462 14,433.10001 L 14,428 l -15,0 0,5.10001 C -1,470.30002 29.700001,501 66.900002,501 L 72,501 l 0,-15 -5.099998,0 z" /></g><g
         id="g4244"
         transform="matrix(0.1588665,0,0,0.1588665,214.16104,169.35768)"><path
           inkscape:connector-curvature="0"
           style="fill:#ffffff;fill-opacity:1;fill-rule:nonzero;stroke:none"
           id="path4246"
           d="m 486,70 15,0 0,360 -15,0 0,-360 z" /></g><g
         id="g4248"
         transform="matrix(0.1588665,0,0,0.1588665,214.16104,169.19882)"><path
           inkscape:connector-curvature="0"
           style="fill:#ffffff;fill-opacity:1;fill-rule:nonzero;stroke:none"
           id="path4250"
           d="M 501,433.10001 501,428 l -15,0 0,5.10001 C 486,462 462,486 433.10001,486 L 428,486 l 0,15 5.10001,0 C 470.29999,501 501,470.29999 501,433.10001 z" /></g></g><g
       id="g4252"><g
         clip-path="url(#clipPath4256)"
         id="g4254"><g
           transform="matrix(0.12454755,0,0,0.12457283,227.06499,181.3476)"
           id="g4260"><path
             d="M 395.36301,67.834 C 351.62,24.091999 293.45999,0 231.597,0 169.73399,0 111.576,24.091999 67.833,67.834 24.091,111.576 0,169.73599 0,231.60001 0,282.353 16.743,331.76801 47.352001,371.95502 L 3.4990001,440.07599 C 0.52699995,444.69098 0.31400013,450.56 2.9430001,455.379 5.572,460.198 10.623,463.19501 16.111,463.19501 l 215.48501,0 c 61.86099,0 120.02099,-24.09 163.76599,-67.83301 C 439.10501,351.62 463.19598,293.461 463.19598,231.59799 463.19601,169.735 439.10599,111.577 395.36301,67.834 z m -163.765,365.36201 -187.991012,0 34.807003,-54.069 c 3.561997,-5.53201 3.102997,-12.73999 -1.134002,-17.77499 -30.487999,-36.242 -47.279,-82.32199 -47.279,-129.75101 0,-111.162 90.437001,-201.598996 201.598001,-201.598996 111.16199,0 201.60001,90.436996 201.60001,201.598996 -0.002,111.15998 -90.44001,201.595 -201.601,201.595 z"
             id="path4262"
             style="fill:#009b31;fill-opacity:1;fill-rule:nonzero;stroke:none" /><path
             d="m 150.252,300.62299 c -8.59,0 -15.371,6.781 -15.371,14.918 0,5.87701 3.16499,10.39801 6.33,12.65798 20.388,14.56202 46.345,24.723 71.73199,28.128 l 0,-29.94001 c -18.401,-3.30099 -36.496,-11.09201 -54.101,-23.05099 -2.261,-1.80896 -5.42599,-2.71298 -8.58999,-2.71298 z"
             id="path4264"
             style="fill:#009b31;fill-opacity:1;fill-rule:nonzero;stroke:none" /><path
             d="m 242.944,220.80299 0,-74.29799 c 14.20902,2.73101 28.67001,8.392 42.479,16.237 1.80802,0.90401 4.521,1.81 7.685,1.81 8.59,0 15.371,-6.781 15.371,-14.919 0,-6.78 -4.069,-11.754 -8.58999,-14.467 -17.34299,-9.363 -37.34299,-16.053 -56.944,-18.666 l 0,-10.053 c 0,-8.284006 -6.71601,-15.000001 -15,-15.000001 -8.284,0 -15,6.716003 -15,15.000001 l 0,9.494 0,10e-4 c -39.61301,4.345 -67.213,29.696 -67.213,66.239 l 0,0.90401 c 0,39.026 33.602,53.042 67.213,63.076 l 0,80.22501 0,29.94 0,10.82599 c 0,8.28399 6.716,15 15,15 8.28399,0 15,-6.71601 15,-15 l 0,-10.14899 c 40.81399,-4.00201 71.41101,-28.99701 71.41101,-69.48999 l 0,-0.90399 C 314.35501,245.97301 278.03101,231.521 242.944,220.80299 z m -30,-9.65699 c -19.39301,-7.20101 -33.759,-16.07201 -33.759,-31.678 l 0,-0.904 c 0,-16.592 12.851,-29.55201 33.759,-32.995 l 0,65.577 z m 68.41,79.98501 c 0,19.82401 -15.651,33.388 -38.40899,36.42301 l 0,-72.46601 c 21.80301,7.36701 38.40899,16.89701 38.40899,35.13901 l 0,0.90399 z"
             id="path4266"
             style="fill:#009b31;fill-opacity:1;fill-rule:nonzero;stroke:none" /></g></g></g><g
       id="g4268"><g
         clip-path="url(#clipPath4272)"
         id="g4270"><g
           transform="translate(26,273)"
           id="g4276"><g
             id="g4278" /><g
             transform="matrix(1,0,0,-1,0,134)"
             id="g4296"><g
               clip-path="url(#clipPath4280)"
               id="g4298"
               style="opacity:0.34901961"><g
                 transform="matrix(1,0,0,-1,0,134)"
                 id="g4300"><g
                   id="g4302"><g
                     clip-path="url(#clipPath4284)"
                     id="g4304"><g
                       transform="matrix(0.09136499,0,0,0.1143578,39.484451,38.080292)"
                       id="g4306"><path
                         d="m 48,49 403,0 0,402.10001 -403,0 L 48,49 z"
                         id="path4308"
                         style="fill:#b3e1c1;fill-opacity:1;fill-rule:nonzero;stroke:none" /></g><g
                       transform="matrix(0.09136499,0,0,0.6587078,39.484451,-196.10455)"
                       id="g4310"><path
                         d="m 68,431 363,0 0,63 -363,0 0,-63 z"
                         id="path4312"
                         style="fill:#b3e1c1;fill-opacity:1;fill-rule:nonzero;stroke:none" /><path
                         d="m 68,485 363,0 0,15 -363,0 0,-15 z"
                         id="path4314"
                         style="fill:#009b31;fill-opacity:1;fill-rule:nonzero;stroke:none" /></g><g
                       transform="matrix(0.65760922,0,0,0.1143578,1.6374493,38.080292)"
                       id="g4316"><path
                         d="M 6,67 68,67 68,433 6,433 6,67 z"
                         id="path4318"
                         style="fill:#b3e1c1;fill-opacity:1;fill-rule:nonzero;stroke:none" /><path
                         d="M 0,69 15,69 15,431 0,431 0,69 z"
                         id="path4320"
                         style="fill:#009b31;fill-opacity:1;fill-rule:nonzero;stroke:none" /></g><g
                       transform="matrix(0.65760922,0,0,0.1143578,-204.09195,38.080292)"
                       id="g4322"><path
                         d="m 431,69 63,0 0,362 -63,0 0,-362 z"
                         id="path4324"
                         style="fill:#b3e1c1;fill-opacity:1;fill-rule:nonzero;stroke:none" /><path
                         d="m 485,69 15,0 0,362 -15,0 0,-362 z"
                         id="path4326"
                         style="fill:#009b31;fill-opacity:1;fill-rule:nonzero;stroke:none" /></g><g
                       transform="matrix(0.65760922,0,0,0.6587078,-204.09195,-196.10455)"
                       id="g4328"><path
                         d="M 434.20001,494 C 467.30002,494 494,467.39999 494,434.20001 L 494,431 l -63,0 0,63 3.20001,0 z"
                         id="path4330"
                         style="fill:#b3e1c1;fill-opacity:1;fill-rule:nonzero;stroke:none" /><path
                         d="M 432.70001,485 429,485 l 0,15 3.70001,0 C 469.90002,500 500,469.89999 500,432.70001 L 500,429 l -15,0 0,3.70001 C 485,461.60001 461.60001,485 432.70001,485 z"
                         id="path4332"
                         style="fill:#009b31;fill-opacity:1;fill-rule:nonzero;stroke:none" /></g><g
                       transform="matrix(0.65760922,0,0,0.6587078,1.6374493,-196.10455)"
                       id="g4334"><path
                         d="M 65.800003,494 68,494 l 0,-63 -62,0 0,3.20001 C 6,467.39999 32.599998,494 65.800003,494 z"
                         id="path4336"
                         style="fill:#b3e1c1;fill-opacity:1;fill-rule:nonzero;stroke:none" /><path
                         d="m 0,437.5 c 2.5,35 31.700001,62.5 67.300003,62.5 L 70,500 l 0,-15 -2.699997,0 C 38.400002,485 15,461.60001 15,432.70001 L 15,429 l -15,0 0,3.70001 c 0,1.59998 -0.1,3.19998 0,4.79999 z"
                         id="path4338"
                         style="fill:#009b31;fill-opacity:1;fill-rule:nonzero;stroke:none" /></g><g
                       transform="matrix(0.09136499,0,0,0.6587078,39.484451,1.1788635)"
                       id="g4340"><path
                         d="M 66,6 433,6 433,69 66,69 66,6 z"
                         id="path4342"
                         style="fill:#b3e1c1;fill-opacity:1;fill-rule:nonzero;stroke:none" /><path
                         d="M 67,0 432,0 432,15 67,15 67,0 z"
                         id="path4344"
                         style="fill:#009b31;fill-opacity:1;fill-rule:nonzero;stroke:none" /></g><g
                       transform="matrix(0.65760922,0,0,0.6587078,-204.09195,1.1788635)"
                       id="g4346"><path
                         d="M 434.20001,6 431,6 l 0,63 63,0 0,-3.199997 C 494,32.599998 467.39999,6 434.20001,6 z"
                         id="path4348"
                         style="fill:#b3e1c1;fill-opacity:1;fill-rule:nonzero;stroke:none" /><path
                         d="M 485,67.300003 485,71 l 15,0 0,-3.699997 C 500,30.1 469.89999,0 432.70001,0 L 429,0 l 0,15 3.70001,0 C 461.60001,15 485,38.400002 485,67.300003 z"
                         id="path4350"
                         style="fill:#009b31;fill-opacity:1;fill-rule:nonzero;stroke:none" /></g><g
                       transform="matrix(0.65760922,0,0,0.6587078,1.6374493,1.1788635)"
                       id="g4352"><path
                         d="M 6,65.800003 6,69 68,69 68,6 65.800003,6 C 32.599998,6 6,32.599998 6,65.800003 z"
                         id="path4354"
                         style="fill:#b3e1c1;fill-opacity:1;fill-rule:nonzero;stroke:none" /><path
                         d="M 15,67.300003 C 15,38.400002 38.400002,15 67.300003,15 L 70,15 70,0 67.300003,0 C 31.700001,0 2.5,27.5 0,62.5 l 0,8.5 15,0 0,-3.699997 z"
                         id="path4356"
                         style="fill:#009b31;fill-opacity:1;fill-rule:nonzero;stroke:none" /></g></g></g><g
                   id="g4358"><g
                     clip-path="url(#clipPath4288)"
                     id="g4360"><g
                       transform="matrix(0.15437028,0,0,0.15437028,25.86092,25.403717)"
                       id="g4362"><path
                         d="M 14,66.900002 C 14,38 38,14 66.900002,14 L 72,14 72,-1 66.900002,-1 C 29.700001,-1 -1,29.700001 -1,66.900002 L -1,72 l 15,0 0,-5.099998 z"
                         id="path4364"
                         style="fill:white;fill-opacity:1;fill-rule:nonzero;stroke:none" /></g><g
                       transform="matrix(0.15437028,0,0,0.15437028,25.552181,25.403717)"
                       id="g4366"><path
                         d="M 433.10001,-1 428,-1 l 0,15 5.10001,0 C 462,14 486,38 486,66.900002 L 486,72 l 15,0 0,-5.099998 C 501,29.700001 470.29999,-1 433.10001,-1 z"
                         id="path4368"
                         style="fill:white;fill-opacity:1;fill-rule:nonzero;stroke:none" /></g><g
                       transform="matrix(0.15437028,0,0,0.15437028,25.706551,25.403717)"
                       id="g4370"><path
                         d="m 70,-1 360,0 0,15 -360,0 0,-15 z"
                         id="path4372"
                         style="fill:white;fill-opacity:1;fill-rule:nonzero;stroke:none" /></g><g
                       transform="matrix(0.15437028,0,0,0.15437028,25.86092,25.249359)"
                       id="g4374"><path
                         d="m -1,70 15,0 0,360 -15,0 0,-360 z"
                         id="path4376"
                         style="fill:white;fill-opacity:1;fill-rule:nonzero;stroke:none" /></g><g
                       transform="matrix(0.15437028,0,0,0.15437028,25.706551,25.095001)"
                       id="g4378"><path
                         d="m 70,486 360,0 0,15 -360,0 0,-15 z"
                         id="path4380"
                         style="fill:white;fill-opacity:1;fill-rule:nonzero;stroke:none" /></g><g
                       transform="matrix(0.15437028,0,0,0.15437028,25.86092,25.095001)"
                       id="g4382"><path
                         d="M 66.900002,486 C 38,486 14,462 14,433.10001 L 14,428 l -15,0 0,5.10001 C -1,470.30002 29.700001,501 66.900002,501 L 72,501 l 0,-15 -5.099998,0 z"
                         id="path4384"
                         style="fill:white;fill-opacity:1;fill-rule:nonzero;stroke:none" /></g><g
                       transform="matrix(0.15437028,0,0,0.15437028,25.552181,25.249359)"
                       id="g4386"><path
                         d="m 486,70 15,0 0,360 -15,0 0,-360 z"
                         id="path4388"
                         style="fill:white;fill-opacity:1;fill-rule:nonzero;stroke:none" /></g><g
                       transform="matrix(0.15437028,0,0,0.15437028,25.552181,25.095001)"
                       id="g4390"><path
                         d="M 501,433.10001 501,428 l -15,0 0,5.10001 C 486,462 462,486 433.10001,486 L 428,486 l 0,15 5.10001,0 C 470.29999,501 501,470.29999 501,433.10001 z"
                         id="path4392"
                         style="fill:white;fill-opacity:1;fill-rule:nonzero;stroke:none" /></g></g></g><g
                   id="g4394"><g
                     clip-path="url(#clipPath4292)"
                     id="g4396"><g
                       transform="matrix(0.44962218,0,0,0.44962218,36.197731,36.489929)"
                       id="g4398"><path
                         d="m 77.5,22.5 c -1.384003,0 -2.5,1.115999 -2.5,2.5 0,9.795998 -0.751999,13.456001 -9.367996,17.764 -1.295998,0.647999 -0.632004,1.203999 -4.632,1.720001 l 0,-12.239998 C 69,31.048004 74.252007,24.916004 74.252007,17.496002 c 0,-8.2720001 -6.351998,-14.9999998 -14.619999,-14.9999998 -8.272,0 -15.068001,6.7280006 -15.068001,14.9999998 0,7.416001 4.436001,13.552 12.436001,14.748001 l 0,11.396 c 0,-0.284 -1.008,-0.551998 -1.668,-0.875999 -8.979999,-4.492001 -10.456001,-8.563999 -10.456001,-17.764 0,-1.384001 -1.056,-2.5 -2.436001,-2.5 -1.380001,0 -2.467998,1.115999 -2.467998,2.5 0,10.32 2.080002,16.596 13.36,22.236 0.32,0.155998 0.616001,0.271999 0.924,0.419998 -5.043999,2.208 -9.256,5.32 -9.256,12.343998 0,4.863998 3.956001,7.764 8.652,10 -4.695999,2.248001 -8.647999,5.139999 -8.647999,10 0,4.867996 3.952,7.764 8.647999,10 -4.695999,2.248001 -8.647999,5.139999 -8.647999,10 0,4.712 3.14,7.64 7.071999,9.468 -0.04,0.18 -0.108002,0.344 -0.108002,0.532 0,1.388 0.876,2.5 2.251999,2.5 0.944,0 2.787998,-0.04 2.787998,-0.132 l 0,2.632 c 0,1.388 0.616001,2.5 2,2.5 1.383999,0 2,-1.112 2,-2.5 l 0,-2.844 c 4,0.328 5.484001,0.344 5.751999,0.344 1.388001,0 2.879997,-1.112 2.879997,-2.5 0,-0.424 0.052,-0.82 -0.143997,-1.172 C 72.616005,106.9 74.916,104.076 74.916,100 c 0,-4.860001 -3.907997,-7.751999 -8.596,-10 4.695999,-2.236 8.671997,-5.132004 8.671997,-10 0,-4.860001 -3.940003,-7.751999 -8.636002,-10 4.695999,-2.236 8.652001,-5.132004 8.652001,-10 0,-6.804001 -3.351998,-9.940002 -7.732003,-12.164001 0.452004,-0.212002 0.904,-0.376 1.356003,-0.599999 C 80.015999,41.543999 80.015999,34.964001 80.015999,25 80,23.615999 78.884003,22.5 77.5,22.5 z M 49.5,60 c 0,-4.507999 3.5,-6.268002 7.5,-8.271999 l 0,14.544002 c -4,-1.748001 -7.5,-3.675999 -7.5,-6.271999 l 0,-4e-6 z m 0,20 c 0,-2.592003 3.5,-4.524002 7.5,-6.264 l 0,12.540001 C 53,84.524002 49.5,82.596001 49.5,80 z m 0,20 c 0,-2.592003 3.5,-4.524002 7.5,-6.264 l 0,12.428 C 53,105.08 49.5,103.188 49.5,100 z m 19,0 c 0,3.568 -3.5,5.432 -7.5,6.416 l 0,-12.683998 c 4,1.744004 7.5,3.676003 7.5,6.267998 z m 0,-20 c 0,2.596001 -3.5,4.524002 -7.5,6.267998 l 0,-12.540001 c 4,1.748001 7.5,3.68 7.5,6.272003 z m 0,-20 c 0,2.596001 -3.5,4.519997 -7.5,6.267998 l 0,-15.116001 c 8,2.208 7.5,3.827999 7.5,8.847999 l 0,4e-6 z"
                         id="path4400"
                         style="fill:#009b31;fill-opacity:1;fill-rule:nonzero;stroke:none" /><path
                         d="m 37.5,15.5 -35,0 c -1.3840001,0 -2.5,0.868 -2.5,2.252001 0,0.788 0.36000001,19.295999 31.712,29.752001 0.256,0.084 0.524,0.064 0.788,0.064 0.712002,0 1.408001,-0.335999 1.891998,-0.891998 0.655999,-0.764 0.796002,-1.872002 0.344002,-2.772 -4.492001,-8.979999 0.236,-18.08 4.844002,-25.004 0.507999,-0.764 0.560001,-1.507999 0.127998,-2.319999 -0.444,-0.82 -1.287998,-1.08 -2.208,-1.08 l 0,-4e-6 z"
                         id="path4402"
                         style="fill:#009b31;fill-opacity:1;fill-rule:nonzero;stroke:none" /><path
                         d="m 117.5,15.5 -35,0 c -0.919998,0 -1.772003,0.256 -2.208,1.072 -0.428002,0.812001 -0.379997,1.676001 0.127998,2.440001 4.608002,6.924 9.335999,15.952 4.844002,24.931999 -0.452004,0.904 -0.311997,1.959999 0.344002,2.728001 0.484001,0.556 1.18,0.844002 1.891998,0.844002 0.260002,0 0.531998,-0.048 0.788002,-0.132 C 119.64,36.932003 120,18.544003 120,17.756002 c 0,-1.384 -1.116,-2.256 -2.5,-2.256 l 0,-2e-6 z"
                         id="path4404"
                         style="fill:#009b31;fill-opacity:1;fill-rule:nonzero;stroke:none" /></g></g></g></g></g></g></g></g></g><g
       id="g4406"><g
         clip-path="url(#clipPath4410)"
         id="g4408"><g
           transform="matrix(0.08806323,0,0,0.10986059,418.54462,441.4924)"
           id="g4414"><path
             d="m 48,49 403,0 0,402.10001 -403,0 L 48,49 z"
             id="path4416"
             style="fill:#b3e1c1;fill-opacity:1;fill-rule:nonzero;stroke:none" /></g><g
           transform="matrix(0.10901677,0,0,0.63280362,417.11978,216.51704)"
           id="g4418"><path
             d="m 68,431 363,0 0,63 -363,0 0,-63 z"
             id="path4420"
             style="fill:#b3e1c1;fill-opacity:1;fill-rule:nonzero;stroke:none"
             inkscape:connector-curvature="0" /><path
             d="m 68,485 363,0 0,15 -363,0 0,-15 z"
             id="path4422"
             style="fill:#009b31;fill-opacity:1;fill-rule:nonzero;stroke:none"
             inkscape:connector-curvature="0" /></g><g
           transform="matrix(0.63384444,0,0,0.10986059,382.06534,441.4924)"
           id="g4424"><path
             d="M 6,67 68,67 68,433 6,433 6,67 z"
             id="path4426"
             style="fill:#b3e1c1;fill-opacity:1;fill-rule:nonzero;stroke:none" /><path
             d="M 0,69 15,69 15,431 0,431 0,69 z"
             id="path4428"
             style="fill:#009b31;fill-opacity:1;fill-rule:nonzero;stroke:none" /></g><g
           transform="matrix(0.63384444,0,0,0.13278214,183.77061,436.45348)"
           id="g4430"><path
             d="m 431,69 63,0 0,362 -63,0 0,-362 z"
             id="path4432"
             style="fill:#b3e1c1;fill-opacity:1;fill-rule:nonzero;stroke:none"
             inkscape:connector-curvature="0" /><path
             d="m 485,69 15,0 0,362 -15,0 0,-362 z"
             id="path4434"
             style="fill:#009b31;fill-opacity:1;fill-rule:nonzero;stroke:none"
             inkscape:connector-curvature="0" /></g><g
           transform="matrix(0.63384444,0,0,0.63280362,183.77061,216.51704)"
           id="g4436"><path
             d="M 434.20001,494 C 467.30002,494 494,467.39999 494,434.20001 L 494,431 l -63,0 0,63 3.20001,0 z"
             id="path4438"
             style="fill:#b3e1c1;fill-opacity:1;fill-rule:nonzero;stroke:none" /><path
             d="M 432.70001,485 429,485 l 0,15 3.70001,0 C 469.90002,500 500,469.89999 500,432.70001 L 500,429 l -15,0 0,3.70001 C 485,461.60001 461.60001,485 432.70001,485 z"
             id="path4440"
             style="fill:#009b31;fill-opacity:1;fill-rule:nonzero;stroke:none" /></g><g
           transform="matrix(0.63384444,0,0,0.63280362,382.06534,216.51704)"
           id="g4442"><path
             d="M 65.800003,494 68,494 l 0,-63 -62,0 0,3.20001 C 6,467.39999 32.599998,494 65.800003,494 z"
             id="path4444"
             style="fill:#b3e1c1;fill-opacity:1;fill-rule:nonzero;stroke:none" /><path
             d="m 0,437.5 c 2.5,35 31.700001,62.5 67.300003,62.5 L 70,500 l 0,-15 -2.699997,0 C 38.400002,485 15,461.60001 15,432.70001 L 15,429 l -15,0 0,3.70001 c 0,1.59998 -0.1,3.19998 0,4.79999 z"
             id="path4446"
             style="fill:#009b31;fill-opacity:1;fill-rule:nonzero;stroke:none" /></g><g
           transform="matrix(0.1106725,0,0,0.63280362,417.05241,406.04214)"
           id="g4448"><path
             d="M 66,6 433,6 433,69 66,69 66,6 z"
             id="path4450"
             style="fill:#b3e1c1;fill-opacity:1;fill-rule:nonzero;stroke:none"
             inkscape:connector-curvature="0" /><path
             d="M 67,0 432,0 432,15 67,15 67,0 z"
             id="path4452"
             style="fill:#009b31;fill-opacity:1;fill-rule:nonzero;stroke:none"
             inkscape:connector-curvature="0" /></g><g
           transform="matrix(0.63384444,0,0,0.63280362,183.77061,406.04214)"
           id="g4454"><path
             d="M 434.20001,6 431,6 l 0,63 63,0 0,-3.199997 C 494,32.599998 467.39999,6 434.20001,6 z"
             id="path4456"
             style="fill:#b3e1c1;fill-opacity:1;fill-rule:nonzero;stroke:none" /><path
             d="M 485,67.300003 485,71 l 15,0 0,-3.699997 C 500,30.1 469.89999,0 432.70001,0 L 429,0 l 0,15 3.70001,0 C 461.60001,15 485,38.400002 485,67.300003 z"
             id="path4458"
             style="fill:#009b31;fill-opacity:1;fill-rule:nonzero;stroke:none" /></g><g
           transform="matrix(0.63384444,0,0,0.63280362,382.06534,406.04214)"
           id="g4460"><path
             d="M 6,65.800003 6,69 68,69 68,6 65.800003,6 C 32.599998,6 6,32.599998 6,65.800003 z"
             id="path4462"
             style="fill:#b3e1c1;fill-opacity:1;fill-rule:nonzero;stroke:none" /><path
             d="M 15,67.300003 C 15,38.400002 38.400002,15 67.300003,15 L 70,15 70,0 67.300003,0 C 31.700001,0 2.5,27.5 0,62.5 l 0,8.5 15,0 0,-3.699997 z"
             id="path4464"
             style="fill:#009b31;fill-opacity:1;fill-rule:nonzero;stroke:none" /></g></g></g><g
       id="g4468"
       clip-path="url(#clipPath4470)"><g
         id="g4474"
         transform="matrix(0.14987406,0,0,0.14987406,405.5592,431.03778)"><path
           inkscape:connector-curvature="0"
           style="fill:#ffffff;fill-opacity:1;fill-rule:nonzero;stroke:none"
           id="path4476"
           d="M 14,66.900002 C 14,38 38,14 66.900002,14 L 72,14 72,-1 66.900002,-1 C 29.700001,-1 -1,29.700001 -1,66.900002 L -1,72 l 15,0 0,-5.099998 z" /></g><g
         id="g4478"
         transform="matrix(0.14987406,0,0,0.14987406,405.25946,431.03778)"><path
           inkscape:connector-curvature="0"
           style="fill:#ffffff;fill-opacity:1;fill-rule:nonzero;stroke:none"
           id="path4480"
           d="M 433.10001,-1 428,-1 l 0,15 5.10001,0 C 462,14 486,38 486,66.900002 L 486,72 l 15,0 0,-5.099998 C 501,29.700001 470.29999,-1 433.10001,-1 z" /></g><g
         id="g4482"
         transform="matrix(0.14987406,0,0,0.14987406,405.40933,431.03778)"><path
           inkscape:connector-curvature="0"
           style="fill:#ffffff;fill-opacity:1;fill-rule:nonzero;stroke:none"
           id="path4484"
           d="m 70,-1 360,0 0,15 -360,0 0,-15 z" /></g><g
         id="g4486"
         transform="matrix(0.14987406,0,0,0.14987406,405.5592,430.88791)"><path
           inkscape:connector-curvature="0"
           style="fill:#ffffff;fill-opacity:1;fill-rule:nonzero;stroke:none"
           id="path4488"
           d="m -1,70 15,0 0,360 -15,0 0,-360 z" /></g><g
         id="g4490"
         transform="matrix(0.14987406,0,0,0.14987406,405.40933,430.73804)"><path
           inkscape:connector-curvature="0"
           style="fill:#ffffff;fill-opacity:1;fill-rule:nonzero;stroke:none"
           id="path4492"
           d="m 70,486 360,0 0,15 -360,0 0,-15 z" /></g><g
         id="g4494"
         transform="matrix(0.14987406,0,0,0.14987406,405.5592,430.73804)"><path
           inkscape:connector-curvature="0"
           style="fill:#ffffff;fill-opacity:1;fill-rule:nonzero;stroke:none"
           id="path4496"
           d="M 66.900002,486 C 38,486 14,462 14,433.10001 L 14,428 l -15,0 0,5.10001 C -1,470.30002 29.700001,501 66.900002,501 L 72,501 l 0,-15 -5.099998,0 z" /></g><g
         id="g4498"
         transform="matrix(0.14987406,0,0,0.14987406,405.25946,430.88791)"><path
           inkscape:connector-curvature="0"
           style="fill:#ffffff;fill-opacity:1;fill-rule:nonzero;stroke:none"
           id="path4500"
           d="m 486,70 15,0 0,360 -15,0 0,-360 z" /></g><g
         id="g4502"
         transform="matrix(0.14987406,0,0,0.14987406,405.25946,430.73804)"><path
           inkscape:connector-curvature="0"
           style="fill:#ffffff;fill-opacity:1;fill-rule:nonzero;stroke:none"
           id="path4504"
           d="M 501,433.10001 501,428 l -15,0 0,5.10001 C 486,462 462,486 433.10001,486 L 428,486 l 0,15 5.10001,0 C 470.29999,501 501,470.29999 501,433.10001 z" /></g></g><g
       id="g4506"><g
         clip-path="url(#clipPath4510)"
         id="g4508"><g
           transform="matrix(0.12382597,0,0,0.12371858,413.65814,441.37909)"
           id="g4514"><path
             d="M 471.827,96.050003 471.827,15 c 0,-8.2840004 -6.71601,-15 -15,-15 L 346.96201,0 c -0.02,0 -0.037,0.003 -0.057,0.003 -0.02,0 -0.037,-0.003 -0.056,-0.003 L 236.981,0 c -0.14799,0 -0.292,0.018 -0.43899,0.022 C 236.395,0.018 236.25101,0 236.103,0 L 126.236,0 c -0.23,0 -0.453,0.024 -0.681,0.034 C 125.328,0.024 125.105,0 124.875,0 L 15.008,0 C 6.724,0 0.00800037,6.7160001 0.00800037,15 l 0,80.428001 c -0.083,4.049004 0.15800001,29.791999 18.58600163,48.785999 0.611999,0.63001 1.243,1.234 1.878,1.833 l 0,275.061 c 0,8.284 6.716,15 14.999998,15 l 394.16399,0 c 8.28399,0 15,-6.716 15,-15 l 0,-269.498 c 4.388,-2.80701 8.33801,-6.11301 11.80499,-9.953 16.25702,-18.002 15.76303,-40.318 15.38602,-45.606997 z m -109.86499,-0.442001 0,-65.608002 79.86499,0 0,66.662003 c 0,0.509002 0.025,1.017997 0.078,1.524002 0.013,0.134002 0.96799,13.734005 -7.72901,23.365995 -6.82501,7.558 -18.39199,11.39101 -34.37698,11.39101 -12.10901,0 -21.39001,-3.18801 -27.578,-9.476 -10.12702,-10.288 -10.26599,-26.436996 -10.26401,-27.459999 0.008,-0.171012 0.005,-0.197013 0.005,-0.399009 z m -109.98101,0 0,-65.608002 79.86699,0 0,66.663002 c 0,0.509003 0.026,1.016998 0.077,1.524002 0.015,0.133003 0.97,13.733006 -7.72901,23.364996 -6.82501,7.558 -18.393,11.39101 -34.37799,11.39101 -12.10998,0 -21.39099,-3.18801 -27.578,-9.476 -10.127,-10.288 -10.26601,-26.436996 -10.26401,-27.459999 0.009,-0.171012 0.005,-0.197013 0.005,-0.399009 z m -110.746,0 0,-65.608002 79.868,0 0,66.662003 c 0,0.508003 0.026,1.016998 0.078,1.523002 0.014,0.133003 0.968,13.735005 -7.731,23.366995 -6.82601,7.558 -18.392,11.39101 -34.377,11.39101 -12.11,0 -21.38901,-3.18801 -27.57801,-9.476 -10.12699,-10.288 -10.266,-26.438003 -10.264,-27.459999 0.007,-0.171012 0.004,-0.197013 0.004,-0.399009 z m -111.227001,0 0,-65.608002 79.865991,0 0,66.662003 c 0,0.508003 0.026,1.016998 0.078,1.523002 0.014,0.133003 0.967,13.735005 -7.73201,23.366995 -6.824993,7.558 -18.390995,11.39101 -34.375996,11.39101 -12.111,0 -21.389,-3.18801 -27.577999,-9.476 -10.126999,-10.288 -10.264999,-26.438003 -10.263,-27.459999 0.007,-0.171012 0.005,-0.197013 0.005,-0.399009 z M 350.23499,406.108 l -70.72901,0 0,-170.641 70.72901,0 0,170.641 z m 64.401,0 -34.4,0 0,-174.379 c 0,-14.47999 -11.781,-26.26199 -26.26199,-26.26199 l -78.20502,0 c -14.48001,0 -26.26199,11.782 -26.26199,26.26199 l 0,174.379 -199.03499,0 0,-244.85901 c 5.424,1.12 11.213001,1.694 17.372002,1.694 24.830002,0 43.886998,-7.16099 56.640998,-21.28399 0.531,-0.588 1.042,-1.18201 1.539,-1.778 1.17501,1.473 2.431,2.923 3.799,4.33299 12.058,12.42799 28.628,18.729 49.25,18.729 24.83,0 43.886,-7.16099 56.64,-21.28399 0.444,-0.491 0.86999,-0.987 1.289,-1.484 1.108,1.372 2.28999,2.72301 3.567,4.04 12.058,12.42799 28.62799,18.729 49.25,18.729 24.83099,0 43.88901,-7.161 56.642,-21.285 0.306,-0.338 0.59399,-0.68201 0.888,-1.023 1.00101,1.21401 2.065,2.41 3.20001,3.579 12.05899,12.42799 28.62799,18.729 49.25,18.729 5.20599,0 10.14401,-0.334 14.83701,-0.96201 l 0,244.12601 -3e-5,0 z"
             id="path4516"
             style="fill:#009b31;fill-opacity:1;fill-rule:nonzero;stroke:none" /><path
             d="m 178.694,200.933 -67.277,0 c -13.612999,0 -24.687996,11.076 -24.687996,24.688 l 0,39.982 0,27.293 0,39.98199 c 0,13.61301 11.074997,24.68799 24.688006,24.68799 l 67.27699,0 c 13.61301,0 24.688,-11.07501 24.687,-24.68799 l 0,-39.944 c 0,-0.013 0.001,-0.025 0.001,-0.038 l 0,-67.275 c 0,-13.613 -11.07499,-24.688 -24.688,-24.688 z m -61.965,30.00101 56.652,0 0,34.66999 0,21.98001 -56.652,0 0,-21.98001 0,-34.66999 z m 0,96.63398 0,-9.983 56.652,0 0,9.983 -56.652,0 z"
             id="path4518"
             style="fill:#009b31;fill-opacity:1;fill-rule:nonzero;stroke:none" /></g></g></g><g
       id="g4520"><g
         clip-path="url(#clipPath4524)"
         id="g4522"><g
           transform="translate(191,364)"
           id="g4528"><g
             id="g4530" /><g
             transform="matrix(1,0,0,-1,0,136)"
             id="g4548"><g
               clip-path="url(#clipPath4532)"
               id="g4550"
               style="opacity:0.34901961"><g
                 transform="matrix(1,0,0,-1,0,136)"
                 id="g4552"><g
                   id="g4554"><g
                     clip-path="url(#clipPath4536)"
                     id="g4556"><g
                       transform="matrix(0.09136499,0,0,0.1143578,38.596527,38.503479)"
                       id="g4558"><path
                         d="m 48,49 403,0 0,402.10001 -403,0 L 48,49 z"
                         id="path4560"
                         style="fill:#b3e1c1;fill-opacity:1;fill-rule:nonzero;stroke:none" /></g><g
                       transform="matrix(0.09136499,0,0,0.6587078,38.596527,-195.68137)"
                       id="g4562"><path
                         d="m 68,431 363,0 0,63 -363,0 0,-63 z"
                         id="path4564"
                         style="fill:#b3e1c1;fill-opacity:1;fill-rule:nonzero;stroke:none" /><path
                         d="m 68,485 363,0 0,15 -363,0 0,-15 z"
                         id="path4566"
                         style="fill:#009b31;fill-opacity:1;fill-rule:nonzero;stroke:none" /></g><g
                       transform="matrix(0.65760922,0,0,0.1143578,0.74952698,38.503479)"
                       id="g4568"><path
                         d="M 6,67 68,67 68,433 6,433 6,67 z"
                         id="path4570"
                         style="fill:#b3e1c1;fill-opacity:1;fill-rule:nonzero;stroke:none" /><path
                         d="M 0,69 15,69 15,431 0,431 0,69 z"
                         id="path4572"
                         style="fill:#009b31;fill-opacity:1;fill-rule:nonzero;stroke:none" /></g><g
                       transform="matrix(0.65760922,0,0,0.1143578,-204.97987,38.503479)"
                       id="g4574"><path
                         d="m 431,69 63,0 0,362 -63,0 0,-362 z"
                         id="path4576"
                         style="fill:#b3e1c1;fill-opacity:1;fill-rule:nonzero;stroke:none" /><path
                         d="m 485,69 15,0 0,362 -15,0 0,-362 z"
                         id="path4578"
                         style="fill:#009b31;fill-opacity:1;fill-rule:nonzero;stroke:none" /></g><g
                       transform="matrix(0.65760922,0,0,0.6587078,-204.97987,-195.68137)"
                       id="g4580"><path
                         d="M 434.20001,494 C 467.30002,494 494,467.39999 494,434.20001 L 494,431 l -63,0 0,63 3.20001,0 z"
                         id="path4582"
                         style="fill:#b3e1c1;fill-opacity:1;fill-rule:nonzero;stroke:none" /><path
                         d="M 432.70001,485 429,485 l 0,15 3.70001,0 C 469.90002,500 500,469.89999 500,432.70001 L 500,429 l -15,0 0,3.70001 C 485,461.60001 461.60001,485 432.70001,485 z"
                         id="path4584"
                         style="fill:#009b31;fill-opacity:1;fill-rule:nonzero;stroke:none" /></g><g
                       transform="matrix(0.65760922,0,0,0.6587078,0.74952698,-195.68137)"
                       id="g4586"><path
                         d="M 65.800003,494 68,494 l 0,-63 -62,0 0,3.20001 C 6,467.39999 32.599998,494 65.800003,494 z"
                         id="path4588"
                         style="fill:#b3e1c1;fill-opacity:1;fill-rule:nonzero;stroke:none" /><path
                         d="m 0,437.5 c 2.5,35 31.700001,62.5 67.300003,62.5 L 70,500 l 0,-15 -2.699997,0 C 38.400002,485 15,461.60001 15,432.70001 L 15,429 l -15,0 0,3.70001 c 0,1.59998 -0.1,3.19998 0,4.79999 z"
                         id="path4590"
                         style="fill:#009b31;fill-opacity:1;fill-rule:nonzero;stroke:none" /></g><g
                       transform="matrix(0.09136499,0,0,0.6587078,38.596527,1.6020508)"
                       id="g4592"><path
                         d="M 66,6 433,6 433,69 66,69 66,6 z"
                         id="path4594"
                         style="fill:#b3e1c1;fill-opacity:1;fill-rule:nonzero;stroke:none" /><path
                         d="M 67,0 432,0 432,15 67,15 67,0 z"
                         id="path4596"
                         style="fill:#009b31;fill-opacity:1;fill-rule:nonzero;stroke:none" /></g><g
                       transform="matrix(0.65760922,0,0,0.6587078,-204.97987,1.6020508)"
                       id="g4598"><path
                         d="M 434.20001,6 431,6 l 0,63 63,0 0,-3.199997 C 494,32.599998 467.39999,6 434.20001,6 z"
                         id="path4600"
                         style="fill:#b3e1c1;fill-opacity:1;fill-rule:nonzero;stroke:none" /><path
                         d="M 485,67.300003 485,71 l 15,0 0,-3.699997 C 500,30.1 469.89999,0 432.70001,0 L 429,0 l 0,15 3.70001,0 C 461.60001,15 485,38.400002 485,67.300003 z"
                         id="path4602"
                         style="fill:#009b31;fill-opacity:1;fill-rule:nonzero;stroke:none" /></g><g
                       transform="matrix(0.65760922,0,0,0.6587078,0.74952698,1.6020508)"
                       id="g4604"><path
                         d="M 6,65.800003 6,69 68,69 68,6 65.800003,6 C 32.599998,6 6,32.599998 6,65.800003 z"
                         id="path4606"
                         style="fill:#b3e1c1;fill-opacity:1;fill-rule:nonzero;stroke:none" /><path
                         d="M 15,67.300003 C 15,38.400002 38.400002,15 67.300003,15 L 70,15 70,0 67.300003,0 C 31.700001,0 2.5,27.5 0,62.5 l 0,8.5 15,0 0,-3.699997 z"
                         id="path4608"
                         style="fill:#009b31;fill-opacity:1;fill-rule:nonzero;stroke:none" /></g></g></g><g
                   id="g4610"><g
                     clip-path="url(#clipPath4540)"
                     id="g4612"><g
                       transform="matrix(0.15437028,0,0,0.15437028,24.223633,27.325653)"
                       id="g4614"><path
                         d="M 14,66.900002 C 14,38 38,14 66.900002,14 L 72,14 72,-1 66.900002,-1 C 29.700001,-1 -1,29.700001 -1,66.900002 L -1,72 l 15,0 0,-5.099998 z"
                         id="path4616"
                         style="fill:white;fill-opacity:1;fill-rule:nonzero;stroke:none" /></g><g
                       transform="matrix(0.15437028,0,0,0.15437028,23.914886,27.325653)"
                       id="g4618"><path
                         d="M 433.10001,-1 428,-1 l 0,15 5.10001,0 C 462,14 486,38 486,66.900002 L 486,72 l 15,0 0,-5.099998 C 501,29.700001 470.29999,-1 433.10001,-1 z"
                         id="path4620"
                         style="fill:white;fill-opacity:1;fill-rule:nonzero;stroke:none" /></g><g
                       transform="matrix(0.15437028,0,0,0.15437028,24.06926,27.325653)"
                       id="g4622"><path
                         d="m 70,-1 360,0 0,15 -360,0 0,-15 z"
                         id="path4624"
                         style="fill:white;fill-opacity:1;fill-rule:nonzero;stroke:none" /></g><g
                       transform="matrix(0.15437028,0,0,0.15437028,24.223633,27.171295)"
                       id="g4626"><path
                         d="m -1,70 15,0 0,360 -15,0 0,-360 z"
                         id="path4628"
                         style="fill:white;fill-opacity:1;fill-rule:nonzero;stroke:none" /></g><g
                       transform="matrix(0.15437028,0,0,0.15437028,24.06926,27.016937)"
                       id="g4630"><path
                         d="m 70,486 360,0 0,15 -360,0 0,-15 z"
                         id="path4632"
                         style="fill:white;fill-opacity:1;fill-rule:nonzero;stroke:none" /></g><g
                       transform="matrix(0.15437028,0,0,0.15437028,24.223633,27.016937)"
                       id="g4634"><path
                         d="M 66.900002,486 C 38,486 14,462 14,433.10001 L 14,428 l -15,0 0,5.10001 C -1,470.30002 29.700001,501 66.900002,501 L 72,501 l 0,-15 -5.099998,0 z"
                         id="path4636"
                         style="fill:white;fill-opacity:1;fill-rule:nonzero;stroke:none" /></g><g
                       transform="matrix(0.15437028,0,0,0.15437028,23.914886,27.171295)"
                       id="g4638"><path
                         d="m 486,70 15,0 0,360 -15,0 0,-360 z"
                         id="path4640"
                         style="fill:white;fill-opacity:1;fill-rule:nonzero;stroke:none" /></g><g
                       transform="matrix(0.15437028,0,0,0.15437028,23.914886,27.016937)"
                       id="g4642"><path
                         d="M 501,433.10001 501,428 l -15,0 0,5.10001 C 486,462 462,486 433.10001,486 L 428,486 l 0,15 5.10001,0 C 470.29999,501 501,470.29999 501,433.10001 z"
                         id="path4644"
                         style="fill:white;fill-opacity:1;fill-rule:nonzero;stroke:none" /></g></g></g><g
                   id="g4646"><g
                     clip-path="url(#clipPath4544)"
                     id="g4648"><g
                       transform="matrix(0.12853502,0,0,0.12944372,29.886993,34.858704)"
                       id="g4650"><path
                         d="m 465.534,183.756 -16.379,0 -47.29801,-122.056999 c -2.591,-6.687999 -9.026,-11.092998 -16.19598,-11.092998 l -264.64901,0 c -6.987,0 -13.293,4.188 -16.006,10.627998 L 53.417,183.756 l -12.148998,0 C 24.825001,183.756 7.25,197.571 7.25,214.612 l 0,126.853 c 0,17.04199 13.331001,30.85199 29.774002,30.85199 l 11.464001,0 c -0.761002,2.63299 -1.188999,5.39999 -1.188999,8.272 l 0,39.69598 c 0,16.44501 13.331001,29.77201 29.774002,29.77201 l 9.924003,0 c 16.443001,0 29.772001,-13.327 29.772001,-29.77201 l 0,-39.69598 c 0,-2.87201 -0.429,-5.64099 -1.188,-8.272 l 267.02598,0 c -0.759,2.63299 -1.18899,5.39999 -1.18899,8.272 l 0,39.69598 c 0,16.44501 13.32901,29.77201 29.77399,29.77201 l 9.92599,0 c 16.44,0 29.771,-13.327 29.771,-29.77201 l 0,-39.69598 c 0,-2.87201 -0.427,-5.64099 -1.18601,-8.272 l 11.58802,0 c 16.445,0 29.77398,-13.81 29.77398,-30.85199 l 0,-126.853 C 491.064,197.57201 481.979,183.756 465.534,183.756 z m -332.98999,-98.414997 241.22302,0 38.13901,98.415997 -320.799038,0 41.437008,-98.415997 z M 84.163002,292.10001 c -18.271004,0 -33.083,-14.80899 -33.083,-33.086 0,-18.269 14.811996,-33.079 33.083,-33.079 18.271008,0 33.082998,14.81101 33.082998,33.079 0.001,18.27698 -14.812,33.086 -33.082998,33.086 z m 329.986988,0 c -18.27301,0 -33.08599,-14.80899 -33.08599,-33.086 0,-18.269 14.81201,-33.079 33.08599,-33.079 18.26999,0 33.081,14.81101 33.081,33.079 0,18.27698 -14.81098,33.086 -33.081,33.086 z"
                         id="path4652"
                         style="fill:#009b31;fill-opacity:1;fill-rule:nonzero;stroke:none" /></g></g></g></g></g></g></g></g></g><g
       transform="matrix(0.09412048,0,0,0.1175701,456.31592,73.835617)"
       id="g4662"><path
         d="m 48,49 403,0 0,402.10001 -403,0 L 48,49 z"
         id="path4664"
         style="fill:#b3e1c1;fill-opacity:1;fill-rule:nonzero;stroke:none"
         inkscape:connector-curvature="0" /></g><g
       transform="matrix(0.10364482,0,0,0.67721087,455.66827,-166.92748)"
       id="g4666"><path
         d="m 68,431 363,0 0,63 -363,0 0,-63 z"
         id="path4668"
         style="fill:#b3e1c1;fill-opacity:1;fill-rule:nonzero;stroke:none"
         inkscape:connector-curvature="0" /><path
         d="m 68,485 363,0 0,15 -363,0 0,-15 z"
         id="path4670"
         style="fill:#009b31;fill-opacity:1;fill-rule:nonzero;stroke:none"
         inkscape:connector-curvature="0" /></g><g
       transform="matrix(0.67744219,0,0,0.13457338,417.32748,72.696397)"
       id="g4672"><path
         d="M 6,67 68,67 68,433 6,433 6,67 z"
         id="path4674"
         style="fill:#b3e1c1;fill-opacity:1;fill-rule:nonzero;stroke:none"
         inkscape:connector-curvature="0" /><path
         d="M 0,69 15,69 15,431 0,431 0,69 z"
         id="path4676"
         style="fill:#009b31;fill-opacity:1;fill-rule:nonzero;stroke:none"
         inkscape:connector-curvature="0" /></g><g
       transform="matrix(0.67744219,0,0,0.13858152,205.39346,68.237028)"
       id="g4678"><path
         d="m 431,69 63,0 0,362 -63,0 0,-362 z"
         id="path4680"
         style="fill:#b3e1c1;fill-opacity:1;fill-rule:nonzero;stroke:none"
         inkscape:connector-curvature="0" /><path
         d="m 485,69 15,0 0,362 -15,0 0,-362 z"
         id="path4682"
         style="fill:#009b31;fill-opacity:1;fill-rule:nonzero;stroke:none"
         inkscape:connector-curvature="0" /></g><g
       transform="matrix(0.67744219,0,0,0.67721087,205.39346,-166.92748)"
       id="g4684"><path
         d="M 434.20001,494 C 467.30002,494 494,467.39999 494,434.20001 L 494,431 l -63,0 0,63 3.20001,0 z"
         id="path4686"
         style="fill:#b3e1c1;fill-opacity:1;fill-rule:nonzero;stroke:none"
         inkscape:connector-curvature="0" /><path
         d="M 432.70001,485 429,485 l 0,15 3.70001,0 C 469.90002,500 500,469.89999 500,432.70001 L 500,429 l -15,0 0,3.70001 C 485,461.60001 461.60001,485 432.70001,485 z"
         id="path4688"
         style="fill:#009b31;fill-opacity:1;fill-rule:nonzero;stroke:none"
         inkscape:connector-curvature="0" /></g><g
       transform="matrix(0.67744219,0,0,0.67721087,417.32748,-166.92748)"
       id="g4690"><path
         d="M 65.800003,494 68,494 l 0,-63 -62,0 0,3.20001 C 6,467.39999 32.599998,494 65.800003,494 z"
         id="path4692"
         style="fill:#b3e1c1;fill-opacity:1;fill-rule:nonzero;stroke:none"
         inkscape:connector-curvature="0" /><path
         d="m 0,437.5 c 2.5,35 31.700001,62.5 67.300003,62.5 L 70,500 l 0,-15 -2.699997,0 C 38.400002,485 15,461.60001 15,432.70001 L 15,429 l -15,0 0,3.70001 c 0,1.59998 -0.1,3.19998 0,4.79999 z"
         id="path4694"
         style="fill:#009b31;fill-opacity:1;fill-rule:nonzero;stroke:none"
         inkscape:connector-curvature="0" /></g><g
       transform="matrix(0.09412048,0,0,0.67721087,456.31592,35.897614)"
       id="g4696"><path
         d="M -0.11951777,6 462.38645,6 l 0,63 -462.50596777,0 0,-63 z"
         id="path4698"
         style="fill:#b3e1c1;fill-opacity:1;fill-rule:nonzero;stroke:none"
         inkscape:connector-curvature="0" /><path
         d="M 67,0 432,0 432,15 67,15 67,0 z"
         id="path4700"
         style="fill:#009b31;fill-opacity:1;fill-rule:nonzero;stroke:none"
         inkscape:connector-curvature="0" /></g><g
       transform="matrix(0.67744219,0,0,0.67721087,205.39346,35.897614)"
       id="g4702"><path
         d="M 434.20001,6 431,6 l 0,63 63,0 0,-3.199997 C 494,32.599998 467.39999,6 434.20001,6 z"
         id="path4704"
         style="fill:#b3e1c1;fill-opacity:1;fill-rule:nonzero;stroke:none"
         inkscape:connector-curvature="0" /><path
         d="M 485,67.300003 485,71 l 15,0 0,-3.699997 C 500,30.1 469.89999,0 432.70001,0 L 429,0 l 0,15 3.70001,0 C 461.60001,15 485,38.400002 485,67.300003 z"
         id="path4706"
         style="fill:#009b31;fill-opacity:1;fill-rule:nonzero;stroke:none"
         inkscape:connector-curvature="0" /></g><g
       transform="matrix(0.67744219,0,0,0.67721087,417.32748,35.897614)"
       id="g4708"><path
         d="M 6,65.800003 6,69 68,69 68,6 65.800003,6 C 32.599998,6 6,32.599998 6,65.800003 z"
         id="path4710"
         style="fill:#b3e1c1;fill-opacity:1;fill-rule:nonzero;stroke:none"
         inkscape:connector-curvature="0" /><path
         d="M 15,67.300003 C 15,38.400002 38.400002,15 67.300003,15 L 70,15 70,0 67.300003,0 C 31.700001,0 2.5,27.5 0,62.5 l 0,8.5 15,0 0,-3.699997 z"
         id="path4712"
         style="fill:#009b31;fill-opacity:1;fill-rule:nonzero;stroke:none"
         inkscape:connector-curvature="0" /></g><g
       id="g4714"><g
         clip-path="url(#clipPath4718)"
         id="g4716"><g
           transform="matrix(0.1588665,0,0,0.1588665,442.28735,61.607231)"
           id="g4722"><path
             d="M 14,66.900002 C 14,38 38,14 66.900002,14 L 72,14 72,-1 66.900002,-1 C 29.700001,-1 -1,29.700001 -1,66.900002 L -1,72 l 15,0 0,-5.099998 z"
             id="path4724"
             style="fill:white;fill-opacity:1;fill-rule:nonzero;stroke:none" /></g><g
           transform="matrix(0.1588665,0,0,0.1588665,441.9696,61.607231)"
           id="g4726"><path
             d="M 433.10001,-1 428,-1 l 0,15 5.10001,0 C 462,14 486,38 486,66.900002 L 486,72 l 15,0 0,-5.099998 C 501,29.700001 470.29999,-1 433.10001,-1 z"
             id="path4728"
             style="fill:white;fill-opacity:1;fill-rule:nonzero;stroke:none" /></g><g
           transform="matrix(0.1588665,0,0,0.1588665,442.12848,61.607231)"
           id="g4730"><path
             d="m 70,-1 360,0 0,15 -360,0 0,-15 z"
             id="path4732"
             style="fill:white;fill-opacity:1;fill-rule:nonzero;stroke:none" /></g><g
           transform="matrix(0.1588665,0,0,0.1588665,442.28735,61.448364)"
           id="g4734"><path
             d="m -1,70 15,0 0,360 -15,0 0,-360 z"
             id="path4736"
             style="fill:white;fill-opacity:1;fill-rule:nonzero;stroke:none" /></g><g
           transform="matrix(0.1588665,0,0,0.1588665,442.12848,61.289497)"
           id="g4738"><path
             d="m 70,486 360,0 0,15 -360,0 0,-15 z"
             id="path4740"
             style="fill:white;fill-opacity:1;fill-rule:nonzero;stroke:none" /></g><g
           transform="matrix(0.1588665,0,0,0.1588665,442.28735,61.289497)"
           id="g4742"><path
             d="M 66.900002,486 C 38,486 14,462 14,433.10001 L 14,428 l -15,0 0,5.10001 C -1,470.30002 29.700001,501 66.900002,501 L 72,501 l 0,-15 -5.099998,0 z"
             id="path4744"
             style="fill:white;fill-opacity:1;fill-rule:nonzero;stroke:none" /></g><g
           transform="matrix(0.1588665,0,0,0.1588665,441.9696,61.448364)"
           id="g4746"><path
             d="m 486,70 15,0 0,360 -15,0 0,-360 z"
             id="path4748"
             style="fill:white;fill-opacity:1;fill-rule:nonzero;stroke:none" /></g><g
           transform="matrix(0.1588665,0,0,0.1588665,441.9696,61.289497)"
           id="g4750"><path
             d="M 501,433.10001 501,428 l -15,0 0,5.10001 C 486,462 462,486 433.10001,486 L 428,486 l 0,15 5.10001,0 C 470.29999,501 501,470.29999 501,433.10001 z"
             id="path4752"
             style="fill:white;fill-opacity:1;fill-rule:nonzero;stroke:none" /></g></g></g><g
       id="g4754"><g
         clip-path="url(#clipPath4758)"
         id="g4756"><g
           transform="matrix(0.08612212,0,0,0.08563556,463.86441,80.182617)"
           id="g4762"><path
             d="m 400.146,381.36401 0.014,-0.43798 -0.011,-0.43799 c -0.31101,-12.159 -4.79999,-36.65302 -15.513,-50.58899 -31.223,-40.814 -68.72,-60.05402 -129.263,-66.26001 -2.81301,-0.90701 -5.151,-4.95099 -6.95,-12.034 l -0.164,-0.644 -0.219,-0.623 c -1.17399,-3.35 -2.337,-7.162 -3.128,-10.14 48.79001,-18.85299 80.59701,-66.24299 79.40298,-118.757 C 323.57101,88.756042 310.28,58.182041 286.89099,35.350037 262.85898,11.889036 230.95599,-0.74996185 197.25198,0.03303528 164.06799,0.78803527 133.16399,14.420035 110.23299,38.418034 87.301987,62.416031 75.087982,93.909035 75.842987,127.09204 c 1.130997,49.73801 31.570003,93.758 77.635013,112.403 -0.377,3.907 -1.26,9.451 -1.93,12.98801 -2.01199,10.53001 -6.02099,11.22801 -7.84399,11.45399 -59.934006,6.318 -97.071999,25.42999 -128.154007,65.93399 C 4.829,343.827 0.33000001,368.31799 0.014,380.479 L 0,380.892 l 0.016,0.44101 c 0.062,2.39499 0.02700001,30.074 -0.008,46.991 0,29.20401 23.76,52.96398 52.963001,52.96398 l 294.218999,0 c 29.20401,0 52.96302,-23.76001 52.96302,-52.996 -0.034,-16.88299 -0.067,-44.56299 -0.007,-46.92798 z m -52.95499,69.926 -294.21801,0 c -12.661999,0 -22.963,-10.302 -22.963,-22.93201 0.021,-10.04901 0.081,-42.00699 0.004,-47.39599 0.336,-10.06202 4.438,-26.443 9.334,-32.81501 26.208999,-34.155 55.379005,-48.89599 107.62499,-54.38299 l 0.239,-0.027 c 17.567,-2.13199 29.892,-15.11401 33.812,-35.638 0.44099,-2.325 2.643,-14.29601 2.643,-21.62399 0,-14.91201 -14.367,-22.666 -17.24699,-24.068 l -1.041,-0.459 c -35.305,-13.995 -58.675,-47.56802 -59.537,-85.533 -0.573,-25.173 8.691,-49.062008 26.087,-67.267002 17.39601,-18.204994 40.838,-28.545 66.01,-29.118 51.791,-1.181 95.21499,40.576 96.389,92.098002 0.92099,40.506 -24.03299,76.993 -62.09399,90.79199 l -0.91499,0.366 c -8.402,3.687 -17.38201,11.577 -17.38201,22.666 0,6.566 3.40199,17.424 5.584,23.709 6.28501,23.888 19.97,31.414 30.392,33.51001 l 0.729,0.146 0.739,0.074 c 53.31201,5.31299 82.97,20.14899 109.45099,54.767 4.89401,6.367 8.99201,22.746 9.319,32.80099 -0.077,5.375 -0.018,37.349 0.004,47.36899 -10e-4,12.659 -10.301,22.96201 -22.96399,22.96201 z"
             id="path4764"
             style="fill:#009b31;fill-opacity:1;fill-rule:nonzero;stroke:none" /></g></g></g><g
       id="g4766"><g
         clip-path="url(#clipPath4770)"
         id="g4768"><g
           transform="translate(25,64)"
           id="g4774"><g
             id="g4776" /><g
             transform="matrix(1,0,0,-1,0,137)"
             id="g4794"><g
               clip-path="url(#clipPath4778)"
               id="g4796"
               style="opacity:0.34901961"><g
                 transform="matrix(1,0,0,-1,0,137)"
                 id="g4798"><g
                   id="g4800"><g
                     clip-path="url(#clipPath4782)"
                     id="g4802"><g
                       transform="matrix(0.09356616,0,0,0.11692765,39.913689,38.850052)"
                       id="g4804"><path
                         d="m 48,49 403,0 0,402.10001 -403,0 L 48,49 z"
                         id="path4806"
                         style="fill:#b3e1c1;fill-opacity:1;fill-rule:nonzero;stroke:none" /></g><g
                       transform="matrix(0.09356616,0,0,0.67351025,39.913689,-200.5974)"
                       id="g4808"><path
                         d="m 68,431 363,0 0,63 -363,0 0,-63 z"
                         id="path4810"
                         style="fill:#b3e1c1;fill-opacity:1;fill-rule:nonzero;stroke:none" /><path
                         d="m 68,485 363,0 0,15 -363,0 0,-15 z"
                         id="path4812"
                         style="fill:#009b31;fill-opacity:1;fill-rule:nonzero;stroke:none" /></g><g
                       transform="matrix(0.67345244,0,0,0.11692765,1.1548767,38.850052)"
                       id="g4814"><path
                         d="M 6,67 68,67 68,433 6,433 6,67 z"
                         id="path4816"
                         style="fill:#b3e1c1;fill-opacity:1;fill-rule:nonzero;stroke:none" /><path
                         d="M 0,69 15,69 15,431 0,431 0,69 z"
                         id="path4818"
                         style="fill:#009b31;fill-opacity:1;fill-rule:nonzero;stroke:none" /></g><g
                       transform="matrix(0.67345244,0,0,0.11692765,-209.53098,38.850052)"
                       id="g4820"><path
                         d="m 431,69 63,0 0,362 -63,0 0,-362 z"
                         id="path4822"
                         style="fill:#b3e1c1;fill-opacity:1;fill-rule:nonzero;stroke:none" /><path
                         d="m 485,69 15,0 0,362 -15,0 0,-362 z"
                         id="path4824"
                         style="fill:#009b31;fill-opacity:1;fill-rule:nonzero;stroke:none" /></g><g
                       transform="matrix(0.67345244,0,0,0.67351025,-209.53098,-200.5974)"
                       id="g4826"><path
                         d="M 434.20001,494 C 467.30002,494 494,467.39999 494,434.20001 L 494,431 l -63,0 0,63 3.20001,0 z"
                         id="path4828"
                         style="fill:#b3e1c1;fill-opacity:1;fill-rule:nonzero;stroke:none" /><path
                         d="M 432.70001,485 429,485 l 0,15 3.70001,0 C 469.90002,500 500,469.89999 500,432.70001 L 500,429 l -15,0 0,3.70001 C 485,461.60001 461.60001,485 432.70001,485 z"
                         id="path4830"
                         style="fill:#009b31;fill-opacity:1;fill-rule:nonzero;stroke:none" /></g><g
                       transform="matrix(0.67345244,0,0,0.67351025,1.1548767,-200.5974)"
                       id="g4832"><path
                         d="M 65.800003,494 68,494 l 0,-63 -62,0 0,3.20001 C 6,467.39999 32.599998,494 65.800003,494 z"
                         id="path4834"
                         style="fill:#b3e1c1;fill-opacity:1;fill-rule:nonzero;stroke:none" /><path
                         d="m 0,437.5 c 2.5,35 31.700001,62.5 67.300003,62.5 L 70,500 l 0,-15 -2.699997,0 C 38.400002,485 15,461.60001 15,432.70001 L 15,429 l -15,0 0,3.70001 c 0,1.59998 -0.1,3.19998 0,4.79999 z"
                         id="path4836"
                         style="fill:#009b31;fill-opacity:1;fill-rule:nonzero;stroke:none" /></g><g
                       transform="matrix(0.09356616,0,0,0.67351025,39.913689,1.1193542)"
                       id="g4838"><path
                         d="M 66,6 433,6 433,69 66,69 66,6 z"
                         id="path4840"
                         style="fill:#b3e1c1;fill-opacity:1;fill-rule:nonzero;stroke:none" /><path
                         d="M 67,0 432,0 432,15 67,15 67,0 z"
                         id="path4842"
                         style="fill:#009b31;fill-opacity:1;fill-rule:nonzero;stroke:none" /></g><g
                       transform="matrix(0.67345244,0,0,0.67351025,-209.53098,1.1193542)"
                       id="g4844"><path
                         d="M 434.20001,6 431,6 l 0,63 63,0 0,-3.199997 C 494,32.599998 467.39999,6 434.20001,6 z"
                         id="path4846"
                         style="fill:#b3e1c1;fill-opacity:1;fill-rule:nonzero;stroke:none" /><path
                         d="M 485,67.300003 485,71 l 15,0 0,-3.699997 C 500,30.1 469.89999,0 432.70001,0 L 429,0 l 0,15 3.70001,0 C 461.60001,15 485,38.400002 485,67.300003 z"
                         id="path4848"
                         style="fill:#009b31;fill-opacity:1;fill-rule:nonzero;stroke:none" /></g><g
                       transform="matrix(0.67345244,0,0,0.67351025,1.1548767,1.1193542)"
                       id="g4850"><path
                         d="M 6,65.800003 6,69 68,69 68,6 65.800003,6 C 32.599998,6 6,32.599998 6,65.800003 z"
                         id="path4852"
                         style="fill:#b3e1c1;fill-opacity:1;fill-rule:nonzero;stroke:none" /><path
                         d="M 15,67.300003 C 15,38.400002 38.400002,15 67.300003,15 L 70,15 70,0 67.300003,0 C 31.700001,0 2.5,27.5 0,62.5 l 0,8.5 15,0 0,-3.699997 z"
                         id="path4854"
                         style="fill:#009b31;fill-opacity:1;fill-rule:nonzero;stroke:none" /></g></g></g><g
                   id="g4856"><g
                     clip-path="url(#clipPath4786)"
                     id="g4858"><g
                       transform="matrix(0.1588665,0,0,0.1588665,25.366676,26.832672)"
                       id="g4860"><path
                         d="M 14,66.900002 C 14,38 38,14 66.900002,14 L 72,14 72,-1 66.900002,-1 C 29.700001,-1 -1,29.700001 -1,66.900002 L -1,72 l 15,0 0,-5.099998 z"
                         id="path4862"
                         style="fill:white;fill-opacity:1;fill-rule:nonzero;stroke:none" /></g><g
                       transform="matrix(0.1588665,0,0,0.1588665,25.048943,26.832672)"
                       id="g4864"><path
                         d="M 433.10001,-1 428,-1 l 0,15 5.10001,0 C 462,14 486,38 486,66.900002 L 486,72 l 15,0 0,-5.099998 C 501,29.700001 470.29999,-1 433.10001,-1 z"
                         id="path4866"
                         style="fill:white;fill-opacity:1;fill-rule:nonzero;stroke:none" /></g><g
                       transform="matrix(0.1588665,0,0,0.1588665,25.207809,26.832672)"
                       id="g4868"><path
                         d="m 70,-1 360,0 0,15 -360,0 0,-15 z"
                         id="path4870"
                         style="fill:white;fill-opacity:1;fill-rule:nonzero;stroke:none" /></g><g
                       transform="matrix(0.1588665,0,0,0.1588665,25.366676,26.673805)"
                       id="g4872"><path
                         d="m -1,70 15,0 0,360 -15,0 0,-360 z"
                         id="path4874"
                         style="fill:white;fill-opacity:1;fill-rule:nonzero;stroke:none" /></g><g
                       transform="matrix(0.1588665,0,0,0.1588665,25.207809,26.514938)"
                       id="g4876"><path
                         d="m 70,486 360,0 0,15 -360,0 0,-15 z"
                         id="path4878"
                         style="fill:white;fill-opacity:1;fill-rule:nonzero;stroke:none" /></g><g
                       transform="matrix(0.1588665,0,0,0.1588665,25.366676,26.514938)"
                       id="g4880"><path
                         d="M 66.900002,486 C 38,486 14,462 14,433.10001 L 14,428 l -15,0 0,5.10001 C -1,470.30002 29.700001,501 66.900002,501 L 72,501 l 0,-15 -5.099998,0 z"
                         id="path4882"
                         style="fill:white;fill-opacity:1;fill-rule:nonzero;stroke:none" /></g><g
                       transform="matrix(0.1588665,0,0,0.1588665,25.048943,26.673805)"
                       id="g4884"><path
                         d="m 486,70 15,0 0,360 -15,0 0,-360 z"
                         id="path4886"
                         style="fill:white;fill-opacity:1;fill-rule:nonzero;stroke:none" /></g><g
                       transform="matrix(0.1588665,0,0,0.1588665,25.048943,26.514938)"
                       id="g4888"><path
                         d="M 501,433.10001 501,428 l -15,0 0,5.10001 C 486,462 462,486 433.10001,486 L 428,486 l 0,15 5.10001,0 C 470.29999,501 501,470.29999 501,433.10001 z"
                         id="path4890"
                         style="fill:white;fill-opacity:1;fill-rule:nonzero;stroke:none" /></g></g></g><g
                   id="g4892"><g
                     clip-path="url(#clipPath4790)"
                     id="g4894"><g
                       transform="matrix(0.11823596,0,0,0.1180515,42.447395,35.666245)"
                       id="g4896"><path
                         d="m 331.55899,109.503 -62.78101,0 0,32.917 c 0,3.86999 -3.031,6.901 -6.89898,6.901 l -105.52001,0 c -3.86999,0 -6.90199,-3.03101 -6.90199,-6.901 l 0,-32.917 -62.779998,0 c -20.348999,0 -36.902,16.554 -36.902,36.90099 l 0,274.74701 c 0,20.34799 16.555,36.90201 36.902,36.90201 l 244.882998,0 c 20.34799,0 36.90201,-16.556 36.90201,-36.90201 l 0,-274.74699 C 368.461,126.056 351.90601,109.503 331.55899,109.503 z m 6.90201,311.648 c 0,3.87 -3.03201,6.90201 -6.90201,6.90201 l -244.882987,0 c -3.871003,0 -6.902001,-3.03201 -6.902001,-6.90201 l 0,-274.74699 c 0,-3.87 3.030998,-6.901 6.902001,-6.901 l 32.779997,0 0,2.917 c 0,20.34799 16.55599,36.901 36.902,36.901 l 105.51901,0 c 20.34699,0 36.89899,-16.554 36.89899,-36.901 l 0,-2.917 32.78101,0 c 3.86999,0 6.901,3.031 6.901,6.901 l 0,274.74699 0.003,0 z"
                         id="path4898"
                         style="fill:#009b31;fill-opacity:1;fill-rule:nonzero;stroke:none" /><path
                         d="m 209.117,103.548 c 14.825,0 26.887,-12.062008 26.887,-26.887005 0,-14.824996 -12.062,-26.887001 -26.887,-26.887001 -14.824,0 -26.88699,12.062001 -26.88699,26.887001 0,14.824997 12.06099,26.887005 26.88699,26.887005 z m 0,-30.000003 c 1.717,0 3.11301,1.396003 3.11301,3.112998 0,1.716996 -1.396,3.112999 -3.11301,3.112999 -1.71701,0 -3.113,-1.396003 -3.113,-3.112999 0,-1.716995 1.39599,-3.112998 3.113,-3.112998 z"
                         id="path4900"
                         style="fill:#009b31;fill-opacity:1;fill-rule:nonzero;stroke:none" /><path
                         d="m 363.41599,59.729 -69.75199,0 C 281.20499,24.482 247.423,0 209.117,0 170.80801,0 137.02701,24.481001 124.57001,59.729 l -69.75001,0 C 24.591999,59.729 0,84.32 0,114.547 l 0,338.45901 c 0,30.22901 24.593,54.819 54.82,54.819 l 308.59602,0 c 30.22699,0 54.81799,-24.59201 54.81799,-54.819 l 0,-338.45999 c 0,-30.225021 -24.591,-54.81702 -54.81802,-54.81702 z m 24.81802,393.279 c 0,13.68701 -11.134,24.819 -24.81799,24.819 l -308.59602,0 C 41.133999,477.827 30,466.69299 30,453.008 l 0,-338.46 C 30,100.863 41.136002,89.729996 54.82,89.729996 l 93.411,0 2.427,-12.036003 c 5.571,-27.635003 30.15601,-47.693001 58.459,-47.693001 28.301,0 52.88901,20.057998 58.46,47.693001 l 2.427,12.034996 93.41202,0 c 13.686,0 24.81799,11.133001 24.81799,24.818001 l 0,338.46101 z"
                         id="path4902"
                         style="fill:#009b31;fill-opacity:1;fill-rule:nonzero;stroke:none" /><path
                         d="m 168.617,233.827 78,0 c 8.284,0 15,-6.71601 15,-15 0,-8.284 -6.716,-15 -15,-15 l -78,0 c -8.283,0 -15,6.716 -15,15 0,8.28399 6.715,15 15,15 z"
                         id="path4904"
                         style="fill:#009b31;fill-opacity:1;fill-rule:nonzero;stroke:none" /><path
                         d="m 295.617,258.89899 -172,0 c -8.28299,0 -15,6.716 -15,15 0,8.28299 6.71701,15 15,15 l 172,0 c 8.284,0 15,-6.71701 15,-15 0,-8.284 -6.716,-15 -15,-15 z"
                         id="path4906"
                         style="fill:#009b31;fill-opacity:1;fill-rule:nonzero;stroke:none" /><path
                         d="m 294.617,311.827 -172,0 c -8.28299,0 -15,6.716 -15,15 0,8.28399 6.71701,15 15,15 l 172,0 c 8.284,0 15,-6.71601 15,-15 0,-8.284 -6.716,-15 -15,-15 z"
                         id="path4908"
                         style="fill:#009b31;fill-opacity:1;fill-rule:nonzero;stroke:none" /><path
                         d="m 294.617,361.827 -172,0 c -8.28299,0 -15,6.716 -15,15 0,8.28399 6.71701,15 15,15 l 172,0 c 8.284,0 15,-6.71601 15,-15 0,-8.284 -6.716,-15 -15,-15 z"
                         id="path4910"
                         style="fill:#009b31;fill-opacity:1;fill-rule:nonzero;stroke:none" /></g></g></g></g></g></g></g></g></g><g
       id="g4912"><g
         clip-path="url(#clipPath4916)"
         id="g4914"><g
           transform="matrix(0.13326298,0.16200681,-0.16278546,0.13390347,326.85413,274.82535)"
           id="g4920"><path
             d="M 150.865,44.016998 150.865,0 0,87.099998 150.865,174.201 l 0,-41.44101 10.80401,0 0,-88.742992 -10.80401,0 z"
             id="path4922"
             style="fill:#009b31;fill-opacity:1;fill-rule:nonzero;stroke:none" /></g><g
           transform="matrix(0.13152321,0.15989178,-0.16278546,0.13390347,327.00211,275.00528)"
           id="g4924"><path
             d="m 339.32101,44.016998 -2.484,0 -175.168,0 0,88.742992 175.168,0.003 2.484,0 176.81998,0 0,-88.746002 -176.81998,0 z"
             id="path4926"
             style="fill:#009b31;fill-opacity:1;fill-rule:nonzero;stroke:none" /></g><g
           transform="matrix(0.13326298,0.16200681,-0.16278546,0.13390347,325.97089,273.75162)"
           id="g4928"><path
             d="M 525.29498,174.20399 676.15601,87.099998 525.29498,0 l 0,44.016998 -9.15399,0 0,88.746002 9.15399,0 0,41.44099 z"
             id="path4930"
             style="fill:#009b31;fill-opacity:1;fill-rule:nonzero;stroke:none" /></g></g></g><g
       id="g4932"><g
         clip-path="url(#clipPath4936)"
         id="g4934"><g
           transform="matrix(0.06799632,0.08266262,-0.08284384,0.06814539,360.76794,314.59625)"
           id="g4940"><path
             d="m 224.911,243.597 c -5.56,0 -11.077,-2.09399 -15.271,-6.32401 l -96.293,-96.285 c -8.46,-8.425 -8.46,-22.069 0,-30.494 8.39,-8.42501 22.056,-8.42501 30.459,0 l 96.285,96.278 c 8.46001,8.432 8.46001,22.069 0,30.50099 -4.195,4.23003 -9.70601,6.32402 -15.18,6.32402 z"
             id="path4942"
             style="fill:#35b729;fill-opacity:1;fill-rule:nonzero;stroke:none" /><path
             d="m 200.25301,146.55099 c 2.05799,-6.89999 3.466,-14.03799 3.466,-21.454 0,-20.797 -8.10001,-40.357999 -22.798,-55.021001 L 132.983,22.06699 C 103.536,-7.355011 52.251999,-7.355011 22.819,22.06699 8.1129999,36.785999 0,56.313 0,77.144997 0,97.948997 8.1269999,117.475 22.798,132.166 l 47.994,48.009 c 14.721,14.685 34.278,22.791 55.075,22.791 8.60201,0 16.849,-1.72599 24.736,-4.371 l -47.46401,-47.457 c -0.127,-0.116 -0.198,-0.336 -0.32499,-0.48801 -0.474,-0.432 -1.118,-0.55499 -1.514,-0.97599 L 53.312996,101.673 C 46.783997,95.136993 43.140995,86.393997 43.140995,77.144997 c 0,-9.305001 3.643002,-18.048001 10.172001,-24.584 6.549999,-6.547001 15.292999,-10.160999 24.553001,-10.160999 9.293999,0 18.043999,3.613998 24.587003,10.160999 l 40.73,40.743996"
             id="path4944"
             style="fill:#35b729;fill-opacity:1;fill-rule:nonzero;stroke:none" /><path
             d="m 257.746,207.868 38.99701,38.98899 c 6.53601,6.543 10.15,15.28602 10.15,24.56601 0,9.28699 -3.61402,17.98801 -10.15,24.56601 -13.13598,13.09299 -36.01901,13.09299 -49.091,0 L 199.651,247.98102 c -0.31799,-0.28301 -0.43201,-0.75 -0.715,-1.05499 l -48.234,-48.206 c -2.63901,7.89501 -4.357,16.142 -4.357,24.72901 0,20.811 8.106,40.354 22.799,55.03201 l 47.994,48.00101 c 14.698,14.72799 34.25,22.806 55.039,22.806 20.81101,0 40.34799,-8.07801 55.03201,-22.806 C 341.957,311.75699 350,292.228 350,271.42401 c 0,-20.824 -8.043,-40.36099 -22.79102,-55.067 l -47.944,-47.974 C 259.39499,148.479 229.72098,142.77 203.37898,149.73102"
             id="path4946"
             style="fill:#35b729;fill-opacity:1;fill-rule:nonzero;stroke:none" /></g></g></g><g
       id="g4948"><g
         clip-path="url(#clipPath4952)"
         id="g4950"><g
           transform="matrix(-0.04445589,0.24823682,-0.24982467,-0.04474026,498.77936,210.45168)"
           id="g4956"><path
             d="M 150.865,44.016998 150.865,0 0,87.099998 150.865,174.201 l 0,-41.44101 10.80401,0 0,-88.742992 -10.80401,0 z"
             id="path4958"
             style="fill:#009b31;fill-opacity:1;fill-rule:nonzero;stroke:none" /></g><g
           transform="matrix(-0.04387551,0.24499604,-0.24982467,-0.04474026,498.72998,210.72737)"
           id="g4960"><path
             d="m 339.32101,44.016998 -2.484,0 -175.168,0 0,88.742992 175.168,0.003 2.484,0 176.81998,0 0,-88.746002 -176.81998,0 z"
             id="path4962"
             style="fill:#009b31;fill-opacity:1;fill-rule:nonzero;stroke:none" /></g><g
           transform="matrix(-0.04445589,0.24823682,-0.24982467,-0.04474026,499.07401,208.80644)"
           id="g4964"><path
             d="M 525.29498,174.20399 676.15601,87.099998 525.29498,0 l 0,44.016998 -9.15399,0 0,88.746002 9.15399,0 0,41.44099 z"
             id="path4966"
             style="fill:#009b31;fill-opacity:1;fill-rule:nonzero;stroke:none" /></g></g></g><g
       id="g4968"><g
         clip-path="url(#clipPath4972)"
         id="g4970"><g
           transform="matrix(-0.0226445,0.1264444,-0.12670837,-0.02269178,488.67902,272.34897)"
           id="g4976"><path
             d="m 224.911,243.597 c -5.56,0 -11.077,-2.09399 -15.271,-6.32401 l -96.293,-96.285 c -8.46,-8.425 -8.46,-22.069 0,-30.494 8.39,-8.42501 22.056,-8.42501 30.459,0 l 96.285,96.278 c 8.46001,8.432 8.46001,22.069 0,30.50099 -4.195,4.23003 -9.70601,6.32402 -15.18,6.32402 z"
             id="path4978"
             style="fill:#35b729;fill-opacity:1;fill-rule:nonzero;stroke:none" /><path
             d="m 200.25301,146.55099 c 2.05799,-6.89999 3.466,-14.03799 3.466,-21.454 0,-20.797 -8.10001,-40.357999 -22.798,-55.021001 L 132.983,22.06699 C 103.536,-7.355011 52.251999,-7.355011 22.819,22.06699 8.1129999,36.785999 0,56.313 0,77.144997 0,97.948997 8.1269999,117.475 22.798,132.166 l 47.994,48.009 c 14.721,14.685 34.278,22.791 55.075,22.791 8.60201,0 16.849,-1.72599 24.736,-4.371 l -47.46401,-47.457 c -0.127,-0.116 -0.198,-0.336 -0.32499,-0.48801 -0.474,-0.432 -1.118,-0.55499 -1.514,-0.97599 L 53.312996,101.673 C 46.783997,95.136993 43.140995,86.393997 43.140995,77.144997 c 0,-9.305001 3.643002,-18.048001 10.172001,-24.584 6.549999,-6.547001 15.292999,-10.160999 24.553001,-10.160999 9.293999,0 18.043999,3.613998 24.587003,10.160999 l 40.73,40.743996"
             id="path4980"
             style="fill:#35b729;fill-opacity:1;fill-rule:nonzero;stroke:none" /><path
             d="m 257.746,207.868 38.99701,38.98899 c 6.53601,6.543 10.15,15.28602 10.15,24.56601 0,9.28699 -3.61402,17.98801 -10.15,24.56601 -13.13598,13.09299 -36.01901,13.09299 -49.091,0 L 199.651,247.98102 c -0.31799,-0.28301 -0.43201,-0.75 -0.715,-1.05499 l -48.234,-48.206 c -2.63901,7.89501 -4.357,16.142 -4.357,24.72901 0,20.811 8.106,40.354 22.799,55.03201 l 47.994,48.00101 c 14.698,14.72799 34.25,22.806 55.039,22.806 20.81101,0 40.34799,-8.07801 55.03201,-22.806 C 341.957,311.75699 350,292.228 350,271.42401 c 0,-20.824 -8.043,-40.36099 -22.79102,-55.067 l -47.944,-47.974 C 259.39499,148.479 229.72098,142.77 203.37898,149.73102"
             id="path4982"
             style="fill:#35b729;fill-opacity:1;fill-rule:nonzero;stroke:none" /></g></g></g></g></svg>