<?xml version="1.0" encoding="UTF-8" standalone="no"?>
<!-- Created with Inkscape (http://www.inkscape.org/) -->

<svg xmlns:dc="http://purl.org/dc/elements/1.1/" xmlns:cc="http://creativecommons.org/ns#" xmlns:rdf="http://www.w3.org/1999/02/22-rdf-syntax-ns#" xmlns:svg="http://www.w3.org/2000/svg" xmlns="http://www.w3.org/2000/svg" version="1.1" width="743.75" height="1052.3622" id="svg8597" xml:space="preserve"><metadata id="metadata8603"><rdf:RDF><cc:Work rdf:about=""><dc:format>image/svg+xml</dc:format><dc:type rdf:resource="http://purl.org/dc/dcmitype/StillImage" /><dc:title></dc:title></cc:Work></rdf:RDF></metadata><defs id="defs8601"><clipPath id="clipPath8611"><path d="m 0,0 595,0 0,842.29218 -595,0 L 0,0 z" id="path8613" /></clipPath><clipPath id="clipPath8623"><path d="M 595,841.54285 595,0 0,0 l 0,841.54285 595,0 z" id="path8625" /></clipPath><clipPath id="clipPath8635"><path d="m 1.4987405,0 0,438.38162 514.0679695,0 L 515.56671,0 1.4987405,0 z" id="path8637" /></clipPath><clipPath id="clipPath8695"><path d="M 595,841.54285 595,0 0,0 l 0,841.54285 595,0 z" id="path8697" /></clipPath><clipPath id="clipPath8703"><path d="M 0,0 121,0 121,122 0,122 0,0 z" id="path8705" /></clipPath><clipPath id="clipPath8707"><path d="m 119.34509,0.96725464 -119.14987668,0 0,119.14987536 119.14987668,0 0,-119.14987536 z" id="path8709" /></clipPath><clipPath id="clipPath8711"><path d="m 100.61084,11.458439 -80.931999,0 0,98.167511 80.931999,0 0,-98.167511 z" id="path8713" /></clipPath><clipPath id="clipPath8781"><path d="m 319.98111,38.967255 -119.14987,0 0,119.149875 119.14987,0 0,-119.149875 z" id="path8783" /></clipPath><clipPath id="clipPath8821"><path d="m 304.99371,53.205292 -90.67381,0 0,90.673798 90.67381,0 0,-90.673798 z" id="path8823" /></clipPath><clipPath id="clipPath8837"><path d="M 595,841.54285 595,0 0,0 l 0,841.54285 595,0 z" id="path8839" /></clipPath><clipPath id="clipPath8845"><path d="M 0,0 121,0 121,121 0,121 0,0 z" id="path8847" /></clipPath><clipPath id="clipPath8849"><path d="m 120.59572,0.28210449 -119.89924783,0 0,119.89922551 119.89924783,0 0,-119.89922551 z" id="path8851" /></clipPath><clipPath id="clipPath8853"><path d="m 104.85895,17.517609 -84.678851,0 0,84.678831 84.678851,0 0,-84.678831 z" id="path8855" /></clipPath><clipPath id="clipPath8915"><path d="m 451.87027,256.28464 -120.64862,0 0,120.64862 120.64862,0 0,-120.64862 z" id="path8917" /></clipPath><clipPath id="clipPath8955"><path d="m 440.6297,278.01636 -97.41812,0 0,80.18261 97.41812,0 0,-80.18261 z" id="path8957" /></clipPath><clipPath id="clipPath8967"><path d="M 595,841.54285 595,0 0,0 l 0,841.54285 595,0 z" id="path8969" /></clipPath><clipPath id="clipPath8975"><path d="M 0,0 121,0 121,122 0,122 0,0 z" id="path8977" /></clipPath><clipPath id="clipPath8979"><path d="m 120.73047,0.53274536 -120.6486066,0 0,120.64862464 120.6486066,0 0,-120.64862464 z" id="path8981" /></clipPath><clipPath id="clipPath8983"><path d="m 108.74054,17.76825 -94.420639,0 0,86.92694 94.420639,0 0,-86.92694 z" id="path8985" /></clipPath><clipPath id="clipPath9043"><path d="m 462.36145,38.967255 -119.89923,0 0,119.899245 119.89923,0 0,-119.899245 z" id="path9045" /></clipPath><clipPath id="clipPath9083"><path d="m 429.38916,66.693954 -54.70404,0 0,65.944596 54.70404,0 0,-65.944596 z" id="path9085" /></clipPath><clipPath id="clipPath9095"><path d="m 402.56592,159.42102 -16.758,92.16007 2.94913,0.53625 16.758,-92.16007 -2.94913,-0.53625 z" id="path9097" /></clipPath><clipPath id="clipPath9159"><path d="m 262.12265,165.36301 114.25195,83.70082 2.2143,-3.02254 -114.25192,-83.70082 -2.21433,3.02254 z" id="path9161" /></clipPath></defs><g transform="scale(1.25,1.25)" id="g8605"><g id="g8631"><g clip-path="url(#clipPath8635)" id="g8633"><g transform="matrix(1.0283432,0,0,0.81822264,1.4481089,14.426045)" id="g8639"><path d="m 48,49 403,0 0,402.10001 -403,0 L 48,49 z" id="path8641" style="fill:#b3e1c1;fill-opacity:1;fill-rule:nonzero;stroke:none" /></g><g transform="matrix(1.0283432,0,0,1.0272958,1.4481089,-76.29361)" id="g8643"><path d="m 68,431 363,0 0,63 -363,0 0,-63 z" id="path8645" style="fill:#b3e1c1;fill-opacity:1;fill-rule:nonzero;stroke:none" /><path d="m 68,485 363,0 0,15 -363,0 0,-15 z" id="path8647" style="fill:#009b31;fill-opacity:1;fill-rule:nonzero;stroke:none" /></g><g transform="matrix(1.0275702,0,0,0.81822264,2.5282378,14.426045)" id="g8649"><path d="M 6,67 68,67 68,433 6,433 6,67 z" id="path8651" style="fill:#b3e1c1;fill-opacity:1;fill-rule:nonzero;stroke:none" /><path d="M 0,69 15,69 15,431 0,431 0,69 z" id="path8653" style="fill:#009b31;fill-opacity:1;fill-rule:nonzero;stroke:none" /></g><g transform="matrix(1.0275702,0,0,0.81822264,0.75212139,14.426045)" id="g8655"><path d="m 431,69 63,0 0,362 -63,0 0,-362 z" id="path8657" style="fill:#b3e1c1;fill-opacity:1;fill-rule:nonzero;stroke:none" /><path d="m 485,69 15,0 0,362 -15,0 0,-362 z" id="path8659" style="fill:#009b31;fill-opacity:1;fill-rule:nonzero;stroke:none" /></g><g transform="matrix(1.0275702,0,0,1.0272958,0.75212139,-76.29361)" id="g8661"><path d="M 434.20001,494 C 467.30002,494 494,467.39999 494,434.20001 L 494,431 l -63,0 0,63 3.20001,0 z" id="path8663" style="fill:#b3e1c1;fill-opacity:1;fill-rule:nonzero;stroke:none" /><path d="M 432.70001,485 429,485 l 0,15 3.70001,0 C 469.90002,500 500,469.89999 500,432.70001 L 500,429 l -15,0 0,3.70001 C 485,461.60001 461.60001,485 432.70001,485 z" id="path8665" style="fill:#009b31;fill-opacity:1;fill-rule:nonzero;stroke:none" /></g><g transform="matrix(1.0275702,0,0,1.0272958,2.5282378,-76.29361)" id="g8667"><path d="M 65.800003,494 68,494 l 0,-63 -62,0 0,3.20001 C 6,467.39999 32.599998,494 65.800003,494 z" id="path8669" style="fill:#b3e1c1;fill-opacity:1;fill-rule:nonzero;stroke:none" /><path d="m 0,437.5 c 2.5,35 31.700001,62.5 67.300003,62.5 L 70,500 l 0,-15 -2.699997,0 C 38.400002,485 15,461.60001 15,432.70001 L 15,429 l -15,0 0,3.70001 c 0,1.59998 -0.1,3.19998 0,4.79999 z" id="path8671" style="fill:#009b31;fill-opacity:1;fill-rule:nonzero;stroke:none" /></g><g transform="matrix(1.0283432,0,0,1.0272958,1.4481089,1.0272958)" id="g8673"><path d="M 66,6 433,6 433,69 66,69 66,6 z" id="path8675" style="fill:#b3e1c1;fill-opacity:1;fill-rule:nonzero;stroke:none" /><path d="M 67,0 432,0 432,15 67,15 67,0 z" id="path8677" style="fill:#009b31;fill-opacity:1;fill-rule:nonzero;stroke:none" /></g><g transform="matrix(1.0275702,0,0,1.0272958,0.75212139,1.0272958)" id="g8679"><path d="M 434.20001,6 431,6 l 0,63 63,0 0,-3.199997 C 494,32.599998 467.39999,6 434.20001,6 z" id="path8681" style="fill:#b3e1c1;fill-opacity:1;fill-rule:nonzero;stroke:none" /><path d="M 485,67.300003 485,71 l 15,0 0,-3.699997 C 500,30.1 469.89999,0 432.70001,0 L 429,0 l 0,15 3.70001,0 C 461.60001,15 485,38.400002 485,67.300003 z" id="path8683" style="fill:#009b31;fill-opacity:1;fill-rule:nonzero;stroke:none" /></g><g transform="matrix(1.0275702,0,0,1.0272958,2.5282378,1.0272958)" id="g8685"><path d="M 6,65.800003 6,69 68,69 68,6 65.800003,6 C 32.599998,6 6,32.599998 6,65.800003 z" id="path8687" style="fill:#b3e1c1;fill-opacity:1;fill-rule:nonzero;stroke:none" /><path d="M 15,67.300003 C 15,38.400002 38.400002,15 67.300003,15 L 70,15 70,0 67.300003,0 C 31.700001,0 2.5,27.5 0,62.5 l 0,8.5 15,0 0,-3.699997 z" id="path8689" style="fill:#009b31;fill-opacity:1;fill-rule:nonzero;stroke:none" /></g></g></g><g id="g8691"><g clip-path="url(#clipPath8695)" id="g8693"><g transform="translate(65,38)" id="g8699"><g id="g8701" /><g transform="matrix(1,0,0,-1,0,122)" id="g8715"><g clip-path="url(#clipPath8703)" id="g8717" style="opacity:0.34901961"><g transform="matrix(1,0,0,-1,0,122)" id="g8719"><g id="g8721"><g clip-path="url(#clipPath8707)" id="g8723"><g transform="matrix(0.23829974,0,0,0.23829974,0.43350983,1.205555)" id="g8725"><path d="M 14,66.900002 C 14,38 38,14 66.900002,14 L 72,14 72,-1 66.900002,-1 C 29.700001,-1 -1,29.700001 -1,66.900002 L -1,72 l 15,0 0,-5.099998 z" id="path8727" style="fill:white;fill-opacity:1;fill-rule:nonzero;stroke:none" /></g><g transform="matrix(0.23829974,0,0,0.23829974,-0.04308319,1.205555)" id="g8729"><path d="M 433.10001,-1 428,-1 l 0,15 5.10001,0 C 462,14 486,38 486,66.900002 L 486,72 l 15,0 0,-5.099998 C 501,29.700001 470.29999,-1 433.10001,-1 z" id="path8731" style="fill:white;fill-opacity:1;fill-rule:nonzero;stroke:none" /></g><g transform="matrix(0.23829974,0,0,0.23829974,0.19521332,1.205555)" id="g8733"><path d="m 70,-1 360,0 0,15 -360,0 0,-15 z" id="path8735" style="fill:white;fill-opacity:1;fill-rule:nonzero;stroke:none" /></g><g transform="matrix(0.23829974,0,0,0.23829974,0.43350983,0.96725464)" id="g8737"><path d="m -1,70 15,0 0,360 -15,0 0,-360 z" id="path8739" style="fill:white;fill-opacity:1;fill-rule:nonzero;stroke:none" /></g><g transform="matrix(0.23829974,0,0,0.23829974,0.19521332,0.72895432)" id="g8741"><path d="m 70,486 360,0 0,15 -360,0 0,-15 z" id="path8743" style="fill:white;fill-opacity:1;fill-rule:nonzero;stroke:none" /></g><g transform="matrix(0.23829974,0,0,0.23829974,0.43350983,0.72895432)" id="g8745"><path d="M 66.900002,486 C 38,486 14,462 14,433.10001 L 14,428 l -15,0 0,5.10001 C -1,470.30002 29.700001,501 66.900002,501 L 72,501 l 0,-15 -5.099998,0 z" id="path8747" style="fill:white;fill-opacity:1;fill-rule:nonzero;stroke:none" /></g><g transform="matrix(0.23829974,0,0,0.23829974,-0.04308319,0.96725464)" id="g8749"><path d="m 486,70 15,0 0,360 -15,0 0,-360 z" id="path8751" style="fill:white;fill-opacity:1;fill-rule:nonzero;stroke:none" /></g><g transform="matrix(0.23829974,0,0,0.23829974,-0.04308319,0.72895432)" id="g8753"><path d="M 501,433.10001 501,428 l -15,0 0,5.10001 C 486,462 462,486 433.10001,486 L 428,486 l 0,15 5.10001,0 C 470.29999,501 501,470.29999 501,433.10001 z" id="path8755" style="fill:white;fill-opacity:1;fill-rule:nonzero;stroke:none" /></g></g></g><g id="g8757"><g clip-path="url(#clipPath8711)" id="g8759"><g transform="matrix(0.19349378,0,0,0.19330934,19.681992,11.458439)" id="g8761"><path d="m 331.55899,109.503 -62.78101,0 0,32.917 c 0,3.86999 -3.031,6.901 -6.89898,6.901 l -105.52001,0 c -3.86999,0 -6.90199,-3.03101 -6.90199,-6.901 l 0,-32.917 -62.779998,0 c -20.348999,0 -36.902,16.554 -36.902,36.90099 l 0,274.74701 c 0,20.34799 16.555,36.90201 36.902,36.90201 l 244.882998,0 c 20.34799,0 36.90201,-16.556 36.90201,-36.90201 l 0,-274.74699 C 368.461,126.056 351.90601,109.503 331.55899,109.503 z m 6.90201,311.648 c 0,3.87 -3.03201,6.90201 -6.90201,6.90201 l -244.882987,0 c -3.871003,0 -6.902001,-3.03201 -6.902001,-6.90201 l 0,-274.74699 c 0,-3.87 3.030998,-6.901 6.902001,-6.901 l 32.779997,0 0,2.917 c 0,20.34799 16.55599,36.901 36.902,36.901 l 105.51901,0 c 20.34699,0 36.89899,-16.554 36.89899,-36.901 l 0,-2.917 32.78101,0 c 3.86999,0 6.901,3.031 6.901,6.901 l 0,274.74699 0.003,0 z" id="path8763" style="fill:#009b31;fill-opacity:1;fill-rule:nonzero;stroke:none" /><path d="m 209.117,103.548 c 14.825,0 26.887,-12.062008 26.887,-26.887005 0,-14.824996 -12.062,-26.887001 -26.887,-26.887001 -14.824,0 -26.88699,12.062001 -26.88699,26.887001 0,14.824997 12.06099,26.887005 26.88699,26.887005 z m 0,-30.000003 c 1.717,0 3.11301,1.396003 3.11301,3.112998 0,1.716996 -1.396,3.112999 -3.11301,3.112999 -1.71701,0 -3.113,-1.396003 -3.113,-3.112999 0,-1.716995 1.39599,-3.112998 3.113,-3.112998 z" id="path8765" style="fill:#009b31;fill-opacity:1;fill-rule:nonzero;stroke:none" /><path d="m 363.41599,59.729 -69.75199,0 C 281.20499,24.482 247.423,0 209.117,0 170.80801,0 137.02701,24.481001 124.57001,59.729 l -69.75001,0 C 24.591999,59.729 0,84.32 0,114.547 l 0,338.45901 c 0,30.22901 24.593,54.819 54.82,54.819 l 308.59602,0 c 30.22699,0 54.81799,-24.59201 54.81799,-54.819 l 0,-338.45999 c 0,-30.225021 -24.591,-54.81702 -54.81802,-54.81702 z m 24.81802,393.279 c 0,13.68701 -11.134,24.819 -24.81799,24.819 l -308.59602,0 C 41.133999,477.827 30,466.69299 30,453.008 l 0,-338.46 C 30,100.863 41.136002,89.729996 54.82,89.729996 l 93.411,0 2.427,-12.036003 c 5.571,-27.635003 30.15601,-47.693001 58.459,-47.693001 28.301,0 52.88901,20.057998 58.46,47.693001 l 2.427,12.034996 93.41202,0 c 13.686,0 24.81799,11.133001 24.81799,24.818001 l 0,338.46101 z" id="path8767" style="fill:#009b31;fill-opacity:1;fill-rule:nonzero;stroke:none" /><path d="m 168.617,233.827 78,0 c 8.284,0 15,-6.71601 15,-15 0,-8.284 -6.716,-15 -15,-15 l -78,0 c -8.283,0 -15,6.716 -15,15 0,8.28399 6.715,15 15,15 z" id="path8769" style="fill:#009b31;fill-opacity:1;fill-rule:nonzero;stroke:none" /><path d="m 295.617,258.89899 -172,0 c -8.28299,0 -15,6.716 -15,15 0,8.28299 6.71701,15 15,15 l 172,0 c 8.284,0 15,-6.71701 15,-15 0,-8.284 -6.716,-15 -15,-15 z" id="path8771" style="fill:#009b31;fill-opacity:1;fill-rule:nonzero;stroke:none" /><path d="m 294.617,311.827 -172,0 c -8.28299,0 -15,6.716 -15,15 0,8.28399 6.71701,15 15,15 l 172,0 c 8.284,0 15,-6.71601 15,-15 0,-8.284 -6.716,-15 -15,-15 z" id="path8773" style="fill:#009b31;fill-opacity:1;fill-rule:nonzero;stroke:none" /><path d="m 294.617,361.827 -172,0 c -8.28299,0 -15,6.716 -15,15 0,8.28399 6.71701,15 15,15 l 172,0 c 8.284,0 15,-6.71601 15,-15 0,-8.284 -6.716,-15 -15,-15 z" id="path8775" style="fill:#009b31;fill-opacity:1;fill-rule:nonzero;stroke:none" /></g></g></g></g></g></g></g></g></g><g id="g8777"><g clip-path="url(#clipPath8781)" id="g8779"><g transform="matrix(0.23829974,0,0,0.23829974,201.06953,39.205555)" id="g8785"><path d="M 14,66.900002 C 14,38 38,14 66.900002,14 L 72,14 72,-1 66.900002,-1 C 29.700001,-1 -1,29.700001 -1,66.900002 L -1,72 l 15,0 0,-5.099998 z" id="path8787" style="fill:white;fill-opacity:1;fill-rule:nonzero;stroke:none" /></g><g transform="matrix(0.23829974,0,0,0.23829974,200.59294,39.205555)" id="g8789"><path d="M 433.10001,-1 428,-1 l 0,15 5.10001,0 C 462,14 486,38 486,66.900002 L 486,72 l 15,0 0,-5.099998 C 501,29.700001 470.29999,-1 433.10001,-1 z" id="path8791" style="fill:white;fill-opacity:1;fill-rule:nonzero;stroke:none" /></g><g transform="matrix(0.23829974,0,0,0.23829974,200.83124,39.205555)" id="g8793"><path d="m 70,-1 360,0 0,15 -360,0 0,-15 z" id="path8795" style="fill:white;fill-opacity:1;fill-rule:nonzero;stroke:none" /></g><g transform="matrix(0.23829974,0,0,0.23829974,201.06953,38.967255)" id="g8797"><path d="m -1,70 15,0 0,360 -15,0 0,-360 z" id="path8799" style="fill:white;fill-opacity:1;fill-rule:nonzero;stroke:none" /></g><g transform="matrix(0.23829974,0,0,0.23829974,200.83124,38.728954)" id="g8801"><path d="m 70,486 360,0 0,15 -360,0 0,-15 z" id="path8803" style="fill:white;fill-opacity:1;fill-rule:nonzero;stroke:none" /></g><g transform="matrix(0.23829974,0,0,0.23829974,201.06953,38.728954)" id="g8805"><path d="M 66.900002,486 C 38,486 14,462 14,433.10001 L 14,428 l -15,0 0,5.10001 C -1,470.30002 29.700001,501 66.900002,501 L 72,501 l 0,-15 -5.099998,0 z" id="path8807" style="fill:white;fill-opacity:1;fill-rule:nonzero;stroke:none" /></g><g transform="matrix(0.23829974,0,0,0.23829974,200.59294,38.967255)" id="g8809"><path d="m 486,70 15,0 0,360 -15,0 0,-360 z" id="path8811" style="fill:white;fill-opacity:1;fill-rule:nonzero;stroke:none" /></g><g transform="matrix(0.23829974,0,0,0.23829974,200.59294,38.728954)" id="g8813"><path d="M 501,433.10001 501,428 l -15,0 0,5.10001 C 486,462 462,486 433.10001,486 L 428,486 l 0,15 5.10001,0 C 470.29999,501 501,470.29999 501,433.10001 z" id="path8815" style="fill:white;fill-opacity:1;fill-rule:nonzero;stroke:none" /></g></g></g><g id="g8817"><g clip-path="url(#clipPath8821)" id="g8819"><g transform="matrix(0.19573201,0,0,0.1957573,214.32565,53.205292)" id="g8825"><path d="M 395.36301,67.834 C 351.62,24.091999 293.45999,0 231.597,0 169.73399,0 111.576,24.091999 67.833,67.834 24.091,111.576 0,169.73599 0,231.60001 0,282.353 16.743,331.76801 47.352001,371.95502 L 3.4990001,440.07599 C 0.52699995,444.69098 0.31400013,450.56 2.9430001,455.379 5.572,460.198 10.623,463.19501 16.111,463.19501 l 215.48501,0 c 61.86099,0 120.02099,-24.09 163.76599,-67.83301 C 439.10501,351.62 463.19598,293.461 463.19598,231.59799 463.19601,169.735 439.10599,111.577 395.36301,67.834 z m -163.765,365.36201 -187.991012,0 34.807003,-54.069 c 3.561997,-5.53201 3.102997,-12.73999 -1.134002,-17.77499 -30.487999,-36.242 -47.279,-82.32199 -47.279,-129.75101 0,-111.162 90.437001,-201.598996 201.598001,-201.598996 111.16199,0 201.60001,90.436996 201.60001,201.598996 -0.002,111.15998 -90.44001,201.595 -201.601,201.595 z" id="path8827" style="fill:#009b31;fill-opacity:1;fill-rule:nonzero;stroke:none" /><path d="m 150.252,300.62299 c -8.59,0 -15.371,6.781 -15.371,14.918 0,5.87701 3.16499,10.39801 6.33,12.65798 20.388,14.56202 46.345,24.723 71.73199,28.128 l 0,-29.94001 c -18.401,-3.30099 -36.496,-11.09201 -54.101,-23.05099 -2.261,-1.80896 -5.42599,-2.71298 -8.58999,-2.71298 z" id="path8829" style="fill:#009b31;fill-opacity:1;fill-rule:nonzero;stroke:none" /><path d="m 242.944,220.80299 0,-74.29799 c 14.20902,2.73101 28.67001,8.392 42.479,16.237 1.80802,0.90401 4.521,1.81 7.685,1.81 8.59,0 15.371,-6.781 15.371,-14.919 0,-6.78 -4.069,-11.754 -8.58999,-14.467 -17.34299,-9.363 -37.34299,-16.053 -56.944,-18.666 l 0,-10.053 c 0,-8.284006 -6.71601,-15.000001 -15,-15.000001 -8.284,0 -15,6.716003 -15,15.000001 l 0,9.494 0,10e-4 c -39.61301,4.345 -67.213,29.696 -67.213,66.239 l 0,0.90401 c 0,39.026 33.602,53.042 67.213,63.076 l 0,80.22501 0,29.94 0,10.82599 c 0,8.28399 6.716,15 15,15 8.28399,0 15,-6.71601 15,-15 l 0,-10.14899 c 40.81399,-4.00201 71.41101,-28.99701 71.41101,-69.48999 l 0,-0.90399 C 314.35501,245.97301 278.03101,231.521 242.944,220.80299 z m -30,-9.65699 c -19.39301,-7.20101 -33.759,-16.07201 -33.759,-31.678 l 0,-0.904 c 0,-16.592 12.851,-29.55201 33.759,-32.995 l 0,65.577 z m 68.41,79.98501 c 0,19.82401 -15.651,33.388 -38.40899,36.42301 l 0,-72.46601 c 21.80301,7.36701 38.40899,16.89701 38.40899,35.13901 l 0,0.90399 z" id="path8831" style="fill:#009b31;fill-opacity:1;fill-rule:nonzero;stroke:none" /></g></g></g><g id="g8833"><g clip-path="url(#clipPath8837)" id="g8835"><g transform="translate(63,259)" id="g8841"><g id="g8843" /><g transform="matrix(1,0,0,-1,0,121)" id="g8857"><g clip-path="url(#clipPath8845)" id="g8859" style="opacity:0.34901961"><g transform="matrix(1,0,0,-1,0,121)" id="g8861"><g id="g8863"><g clip-path="url(#clipPath8849)" id="g8865"><g transform="matrix(0.23979849,0,0,0.23979849,0.93627167,0.52191162)" id="g8867"><path d="M 14,66.900002 C 14,38 38,14 66.900002,14 L 72,14 72,-1 66.900002,-1 C 29.700001,-1 -1,29.700001 -1,66.900002 L -1,72 l 15,0 0,-5.099998 z" id="path8869" style="fill:white;fill-opacity:1;fill-rule:nonzero;stroke:none" /></g><g transform="matrix(0.23979849,0,0,0.23979849,0.45667267,0.52191162)" id="g8871"><path d="M 433.10001,-1 428,-1 l 0,15 5.10001,0 C 462,14 486,38 486,66.900002 L 486,72 l 15,0 0,-5.099998 C 501,29.700001 470.29999,-1 433.10001,-1 z" id="path8873" style="fill:white;fill-opacity:1;fill-rule:nonzero;stroke:none" /></g><g transform="matrix(0.23979849,0,0,0.23979849,0.69647217,0.52191162)" id="g8875"><path d="m 70,-1 360,0 0,15 -360,0 0,-15 z" id="path8877" style="fill:white;fill-opacity:1;fill-rule:nonzero;stroke:none" /></g><g transform="matrix(0.23979849,0,0,0.23979849,0.93627167,0.28210449)" id="g8879"><path d="m -1,70 15,0 0,360 -15,0 0,-360 z" id="path8881" style="fill:white;fill-opacity:1;fill-rule:nonzero;stroke:none" /></g><g transform="matrix(0.23979849,0,0,0.23979849,0.69647217,0.04229736)" id="g8883"><path d="m 70,486 360,0 0,15 -360,0 0,-15 z" id="path8885" style="fill:white;fill-opacity:1;fill-rule:nonzero;stroke:none" /></g><g transform="matrix(0.23979849,0,0,0.23979849,0.93627167,0.04229736)" id="g8887"><path d="M 66.900002,486 C 38,486 14,462 14,433.10001 L 14,428 l -15,0 0,5.10001 C -1,470.30002 29.700001,501 66.900002,501 L 72,501 l 0,-15 -5.099998,0 z" id="path8889" style="fill:white;fill-opacity:1;fill-rule:nonzero;stroke:none" /></g><g transform="matrix(0.23979849,0,0,0.23979849,0.45667267,0.28210449)" id="g8891"><path d="m 486,70 15,0 0,360 -15,0 0,-360 z" id="path8893" style="fill:white;fill-opacity:1;fill-rule:nonzero;stroke:none" /></g><g transform="matrix(0.23979849,0,0,0.23979849,0.45667267,0.04229736)" id="g8895"><path d="M 501,433.10001 501,428 l -15,0 0,5.10001 C 486,462 462,486 433.10001,486 L 428,486 l 0,15 5.10001,0 C 470.29999,501 501,470.29999 501,433.10001 z" id="path8897" style="fill:white;fill-opacity:1;fill-rule:nonzero;stroke:none" /></g></g></g><g id="g8899"><g clip-path="url(#clipPath8853)" id="g8901"><g transform="matrix(0.70565701,0,0,0.70565701,20.180099,17.517609)" id="g8903"><path d="m 77.5,22.5 c -1.384003,0 -2.5,1.115999 -2.5,2.5 0,9.795998 -0.751999,13.456001 -9.367996,17.764 -1.295998,0.647999 -0.632004,1.203999 -4.632,1.720001 l 0,-12.239998 C 69,31.048004 74.252007,24.916004 74.252007,17.496002 c 0,-8.2720001 -6.351998,-14.9999998 -14.619999,-14.9999998 -8.272,0 -15.068001,6.7280006 -15.068001,14.9999998 0,7.416001 4.436001,13.552 12.436001,14.748001 l 0,11.396 c 0,-0.284 -1.008,-0.551998 -1.668,-0.875999 -8.979999,-4.492001 -10.456001,-8.563999 -10.456001,-17.764 0,-1.384001 -1.056,-2.5 -2.436001,-2.5 -1.380001,0 -2.467998,1.115999 -2.467998,2.5 0,10.32 2.080002,16.596 13.36,22.236 0.32,0.155998 0.616001,0.271999 0.924,0.419998 -5.043999,2.208 -9.256,5.32 -9.256,12.343998 0,4.863998 3.956001,7.764 8.652,10 -4.695999,2.248001 -8.647999,5.139999 -8.647999,10 0,4.867996 3.952,7.764 8.647999,10 -4.695999,2.248001 -8.647999,5.139999 -8.647999,10 0,4.712 3.14,7.64 7.071999,9.468 -0.04,0.18 -0.108002,0.344 -0.108002,0.532 0,1.388 0.876,2.5 2.251999,2.5 0.944,0 2.787998,-0.04 2.787998,-0.132 l 0,2.632 c 0,1.388 0.616001,2.5 2,2.5 1.383999,0 2,-1.112 2,-2.5 l 0,-2.844 c 4,0.328 5.484001,0.344 5.751999,0.344 1.388001,0 2.879997,-1.112 2.879997,-2.5 0,-0.424 0.052,-0.82 -0.143997,-1.172 C 72.616005,106.9 74.916,104.076 74.916,100 c 0,-4.860001 -3.907997,-7.751999 -8.596,-10 4.695999,-2.236 8.671997,-5.132004 8.671997,-10 0,-4.860001 -3.940003,-7.751999 -8.636002,-10 4.695999,-2.236 8.652001,-5.132004 8.652001,-10 0,-6.804001 -3.351998,-9.940002 -7.732003,-12.164001 0.452004,-0.212002 0.904,-0.376 1.356003,-0.599999 C 80.015999,41.543999 80.015999,34.964001 80.015999,25 80,23.615999 78.884003,22.5 77.5,22.5 z M 49.5,60 c 0,-4.507999 3.5,-6.268002 7.5,-8.271999 l 0,14.544002 c -4,-1.748001 -7.5,-3.675999 -7.5,-6.271999 l 0,-4e-6 z m 0,20 c 0,-2.592003 3.5,-4.524002 7.5,-6.264 l 0,12.540001 C 53,84.524002 49.5,82.596001 49.5,80 z m 0,20 c 0,-2.592003 3.5,-4.524002 7.5,-6.264 l 0,12.428 C 53,105.08 49.5,103.188 49.5,100 z m 19,0 c 0,3.568 -3.5,5.432 -7.5,6.416 l 0,-12.683998 c 4,1.744004 7.5,3.676003 7.5,6.267998 z m 0,-20 c 0,2.596001 -3.5,4.524002 -7.5,6.267998 l 0,-12.540001 c 4,1.748001 7.5,3.68 7.5,6.272003 z m 0,-20 c 0,2.596001 -3.5,4.519997 -7.5,6.267998 l 0,-15.116001 c 8,2.208 7.5,3.827999 7.5,8.847999 l 0,4e-6 z" id="path8905" style="fill:#009b31;fill-opacity:1;fill-rule:nonzero;stroke:none" /><path d="m 37.5,15.5 -35,0 c -1.3840001,0 -2.5,0.868 -2.5,2.252001 0,0.788 0.36000001,19.295999 31.712,29.752001 0.256,0.084 0.524,0.064 0.788,0.064 0.712002,0 1.408001,-0.335999 1.891998,-0.891998 0.655999,-0.764 0.796002,-1.872002 0.344002,-2.772 -4.492001,-8.979999 0.236,-18.08 4.844002,-25.004 0.507999,-0.764 0.560001,-1.507999 0.127998,-2.319999 -0.444,-0.82 -1.287998,-1.08 -2.208,-1.08 l 0,-4e-6 z" id="path8907" style="fill:#009b31;fill-opacity:1;fill-rule:nonzero;stroke:none" /><path d="m 117.5,15.5 -35,0 c -0.919998,0 -1.772003,0.256 -2.208,1.072 -0.428002,0.812001 -0.379997,1.676001 0.127998,2.440001 4.608002,6.924 9.335999,15.952 4.844002,24.931999 -0.452004,0.904 -0.311997,1.959999 0.344002,2.728001 0.484001,0.556 1.18,0.844002 1.891998,0.844002 0.260002,0 0.531998,-0.048 0.788002,-0.132 C 119.64,36.932003 120,18.544003 120,17.756002 c 0,-1.384 -1.116,-2.256 -2.5,-2.256 l 0,-2e-6 z" id="path8909" style="fill:#009b31;fill-opacity:1;fill-rule:nonzero;stroke:none" /></g></g></g></g></g></g></g></g></g><g id="g8911"><g clip-path="url(#clipPath8915)" id="g8913"><g transform="matrix(0.24129723,0,0,0.24129723,331.46295,256.52594)" id="g8919"><path d="M 14,66.900002 C 14,38 38,14 66.900002,14 L 72,14 72,-1 66.900002,-1 C 29.700001,-1 -1,29.700001 -1,66.900002 L -1,72 l 15,0 0,-5.099998 z" id="path8921" style="fill:white;fill-opacity:1;fill-rule:nonzero;stroke:none" /></g><g transform="matrix(0.24129723,0,0,0.24129723,330.98035,256.52594)" id="g8923"><path d="M 433.10001,-1 428,-1 l 0,15 5.10001,0 C 462,14 486,38 486,66.900002 L 486,72 l 15,0 0,-5.099998 C 501,29.700001 470.29999,-1 433.10001,-1 z" id="path8925" style="fill:white;fill-opacity:1;fill-rule:nonzero;stroke:none" /></g><g transform="matrix(0.24129723,0,0,0.24129723,331.22165,256.52594)" id="g8927"><path d="m 70,-1 360,0 0,15 -360,0 0,-15 z" id="path8929" style="fill:white;fill-opacity:1;fill-rule:nonzero;stroke:none" /></g><g transform="matrix(0.24129723,0,0,0.24129723,331.46295,256.28464)" id="g8931"><path d="m -1,70 15,0 0,360 -15,0 0,-360 z" id="path8933" style="fill:white;fill-opacity:1;fill-rule:nonzero;stroke:none" /></g><g transform="matrix(0.24129723,0,0,0.24129723,331.22165,256.04333)" id="g8935"><path d="m 70,486 360,0 0,15 -360,0 0,-15 z" id="path8937" style="fill:white;fill-opacity:1;fill-rule:nonzero;stroke:none" /></g><g transform="matrix(0.24129723,0,0,0.24129723,331.46295,256.04333)" id="g8939"><path d="M 66.900002,486 C 38,486 14,462 14,433.10001 L 14,428 l -15,0 0,5.10001 C -1,470.30002 29.700001,501 66.900002,501 L 72,501 l 0,-15 -5.099998,0 z" id="path8941" style="fill:white;fill-opacity:1;fill-rule:nonzero;stroke:none" /></g><g transform="matrix(0.24129723,0,0,0.24129723,330.98035,256.28464)" id="g8943"><path d="m 486,70 15,0 0,360 -15,0 0,-360 z" id="path8945" style="fill:white;fill-opacity:1;fill-rule:nonzero;stroke:none" /></g><g transform="matrix(0.24129723,0,0,0.24129723,330.98035,256.04333)" id="g8947"><path d="M 501,433.10001 501,428 l -15,0 0,5.10001 C 486,462 462,486 433.10001,486 L 428,486 l 0,15 5.10001,0 C 470.29999,501 501,470.29999 501,433.10001 z" id="path8949" style="fill:white;fill-opacity:1;fill-rule:nonzero;stroke:none" /></g></g></g><g id="g8951"><g clip-path="url(#clipPath8955)" id="g8953"><g transform="matrix(0.20134711,0,0,0.20073155,341.75351,267.85812)" id="g8959"><path d="m 465.534,183.756 -16.379,0 -47.29801,-122.056999 c -2.591,-6.687999 -9.026,-11.092998 -16.19598,-11.092998 l -264.64901,0 c -6.987,0 -13.293,4.188 -16.006,10.627998 L 53.417,183.756 l -12.148998,0 C 24.825001,183.756 7.25,197.571 7.25,214.612 l 0,126.853 c 0,17.04199 13.331001,30.85199 29.774002,30.85199 l 11.464001,0 c -0.761002,2.63299 -1.188999,5.39999 -1.188999,8.272 l 0,39.69598 c 0,16.44501 13.331001,29.77201 29.774002,29.77201 l 9.924003,0 c 16.443001,0 29.772001,-13.327 29.772001,-29.77201 l 0,-39.69598 c 0,-2.87201 -0.429,-5.64099 -1.188,-8.272 l 267.02598,0 c -0.759,2.63299 -1.18899,5.39999 -1.18899,8.272 l 0,39.69598 c 0,16.44501 13.32901,29.77201 29.77399,29.77201 l 9.92599,0 c 16.44,0 29.771,-13.327 29.771,-29.77201 l 0,-39.69598 c 0,-2.87201 -0.427,-5.64099 -1.18601,-8.272 l 11.58802,0 c 16.445,0 29.77398,-13.81 29.77398,-30.85199 l 0,-126.853 C 491.064,197.57201 481.979,183.756 465.534,183.756 z m -332.98999,-98.414997 241.22302,0 38.13901,98.415997 -320.799038,0 41.437008,-98.415997 z M 84.163002,292.10001 c -18.271004,0 -33.083,-14.80899 -33.083,-33.086 0,-18.269 14.811996,-33.079 33.083,-33.079 18.271008,0 33.082998,14.81101 33.082998,33.079 0.001,18.27698 -14.812,33.086 -33.082998,33.086 z m 329.986988,0 c -18.27301,0 -33.08599,-14.80899 -33.08599,-33.086 0,-18.269 14.81201,-33.079 33.08599,-33.079 18.26999,0 33.081,14.81101 33.081,33.079 0,18.27698 -14.81098,33.086 -33.081,33.086 z" id="path8961" style="fill:#009b31;fill-opacity:1;fill-rule:nonzero;stroke:none" /></g></g></g><g id="g8963"><g clip-path="url(#clipPath8967)" id="g8965"><g transform="translate(200,258)" id="g8971"><g id="g8973" /><g transform="matrix(1,0,0,-1,0,122)" id="g8987"><g clip-path="url(#clipPath8975)" id="g8989" style="opacity:0.34901961"><g transform="matrix(1,0,0,-1,0,122)" id="g8991"><g id="g8993"><g clip-path="url(#clipPath8979)" id="g8995"><g transform="matrix(0.24129723,0,0,0.24129723,0.32316589,0.77404785)" id="g8997"><path d="M 14,66.900002 C 14,38 38,14 66.900002,14 L 72,14 72,-1 66.900002,-1 C 29.700001,-1 -1,29.700001 -1,66.900002 L -1,72 l 15,0 0,-5.099998 z" id="path8999" style="fill:white;fill-opacity:1;fill-rule:nonzero;stroke:none" /></g><g transform="matrix(0.24129723,0,0,0.24129723,-0.15943909,0.77404785)" id="g9001"><path d="M 433.10001,-1 428,-1 l 0,15 5.10001,0 C 462,14 486,38 486,66.900002 L 486,72 l 15,0 0,-5.099998 C 501,29.700001 470.29999,-1 433.10001,-1 z" id="path9003" style="fill:white;fill-opacity:1;fill-rule:nonzero;stroke:none" /></g><g transform="matrix(0.24129723,0,0,0.24129723,0.0818634,0.77404785)" id="g9005"><path d="m 70,-1 360,0 0,15 -360,0 0,-15 z" id="path9007" style="fill:white;fill-opacity:1;fill-rule:nonzero;stroke:none" /></g><g transform="matrix(0.24129723,0,0,0.24129723,0.32316589,0.53274536)" id="g9009"><path d="m -1,70 15,0 0,360 -15,0 0,-360 z" id="path9011" style="fill:white;fill-opacity:1;fill-rule:nonzero;stroke:none" /></g><g transform="matrix(0.24129723,0,0,0.24129723,0.0818634,0.29144287)" id="g9013"><path d="m 70,486 360,0 0,15 -360,0 0,-15 z" id="path9015" style="fill:white;fill-opacity:1;fill-rule:nonzero;stroke:none" /></g><g transform="matrix(0.24129723,0,0,0.24129723,0.32316589,0.29144287)" id="g9017"><path d="M 66.900002,486 C 38,486 14,462 14,433.10001 L 14,428 l -15,0 0,5.10001 C -1,470.30002 29.700001,501 66.900002,501 L 72,501 l 0,-15 -5.099998,0 z" id="path9019" style="fill:white;fill-opacity:1;fill-rule:nonzero;stroke:none" /></g><g transform="matrix(0.24129723,0,0,0.24129723,-0.15943909,0.53274536)" id="g9021"><path d="m 486,70 15,0 0,360 -15,0 0,-360 z" id="path9023" style="fill:white;fill-opacity:1;fill-rule:nonzero;stroke:none" /></g><g transform="matrix(0.24129723,0,0,0.24129723,-0.15943909,0.29144287)" id="g9025"><path d="M 501,433.10001 501,428 l -15,0 0,5.10001 C 486,462 462,486 433.10001,486 L 428,486 l 0,15 5.10001,0 C 470.29999,501 501,470.29999 501,433.10001 z" id="path9027" style="fill:white;fill-opacity:1;fill-rule:nonzero;stroke:none" /></g></g></g><g id="g9029"><g clip-path="url(#clipPath8983)" id="g9031"><g transform="matrix(0.20004927,0,0,0.19932437,14.323792,17.76825)" id="g9033"><path d="M 471.827,96.050003 471.827,15 c 0,-8.2840004 -6.71601,-15 -15,-15 L 346.96201,0 c -0.02,0 -0.037,0.003 -0.057,0.003 -0.02,0 -0.037,-0.003 -0.056,-0.003 L 236.981,0 c -0.14799,0 -0.292,0.018 -0.43899,0.022 C 236.395,0.018 236.25101,0 236.103,0 L 126.236,0 c -0.23,0 -0.453,0.024 -0.681,0.034 C 125.328,0.024 125.105,0 124.875,0 L 15.008,0 C 6.724,0 0.00800037,6.7160001 0.00800037,15 l 0,80.428001 c -0.083,4.049004 0.15800001,29.791999 18.58600163,48.785999 0.611999,0.63001 1.243,1.234 1.878,1.833 l 0,275.061 c 0,8.284 6.716,15 14.999998,15 l 394.16399,0 c 8.28399,0 15,-6.716 15,-15 l 0,-269.498 c 4.388,-2.80701 8.33801,-6.11301 11.80499,-9.953 16.25702,-18.002 15.76303,-40.318 15.38602,-45.606997 z m -109.86499,-0.442001 0,-65.608002 79.86499,0 0,66.662003 c 0,0.509002 0.025,1.017997 0.078,1.524002 0.013,0.134002 0.96799,13.734005 -7.72901,23.365995 -6.82501,7.558 -18.39199,11.39101 -34.37698,11.39101 -12.10901,0 -21.39001,-3.18801 -27.578,-9.476 -10.12702,-10.288 -10.26599,-26.436996 -10.26401,-27.459999 0.008,-0.171012 0.005,-0.197013 0.005,-0.399009 z m -109.98101,0 0,-65.608002 79.86699,0 0,66.663002 c 0,0.509003 0.026,1.016998 0.077,1.524002 0.015,0.133003 0.97,13.733006 -7.72901,23.364996 -6.82501,7.558 -18.393,11.39101 -34.37799,11.39101 -12.10998,0 -21.39099,-3.18801 -27.578,-9.476 -10.127,-10.288 -10.26601,-26.436996 -10.26401,-27.459999 0.009,-0.171012 0.005,-0.197013 0.005,-0.399009 z m -110.746,0 0,-65.608002 79.868,0 0,66.662003 c 0,0.508003 0.026,1.016998 0.078,1.523002 0.014,0.133003 0.968,13.735005 -7.731,23.366995 -6.82601,7.558 -18.392,11.39101 -34.377,11.39101 -12.11,0 -21.38901,-3.18801 -27.57801,-9.476 -10.12699,-10.288 -10.266,-26.438003 -10.264,-27.459999 0.007,-0.171012 0.004,-0.197013 0.004,-0.399009 z m -111.227001,0 0,-65.608002 79.865991,0 0,66.662003 c 0,0.508003 0.026,1.016998 0.078,1.523002 0.014,0.133003 0.967,13.735005 -7.73201,23.366995 -6.824993,7.558 -18.390995,11.39101 -34.375996,11.39101 -12.111,0 -21.389,-3.18801 -27.577999,-9.476 -10.126999,-10.288 -10.264999,-26.438003 -10.263,-27.459999 0.007,-0.171012 0.005,-0.197013 0.005,-0.399009 z M 350.23499,406.108 l -70.72901,0 0,-170.641 70.72901,0 0,170.641 z m 64.401,0 -34.4,0 0,-174.379 c 0,-14.47999 -11.781,-26.26199 -26.26199,-26.26199 l -78.20502,0 c -14.48001,0 -26.26199,11.782 -26.26199,26.26199 l 0,174.379 -199.03499,0 0,-244.85901 c 5.424,1.12 11.213001,1.694 17.372002,1.694 24.830002,0 43.886998,-7.16099 56.640998,-21.28399 0.531,-0.588 1.042,-1.18201 1.539,-1.778 1.17501,1.473 2.431,2.923 3.799,4.33299 12.058,12.42799 28.628,18.729 49.25,18.729 24.83,0 43.886,-7.16099 56.64,-21.28399 0.444,-0.491 0.86999,-0.987 1.289,-1.484 1.108,1.372 2.28999,2.72301 3.567,4.04 12.058,12.42799 28.62799,18.729 49.25,18.729 24.83099,0 43.88901,-7.161 56.642,-21.285 0.306,-0.338 0.59399,-0.68201 0.888,-1.023 1.00101,1.21401 2.065,2.41 3.20001,3.579 12.05899,12.42799 28.62799,18.729 49.25,18.729 5.20599,0 10.14401,-0.334 14.83701,-0.96201 l 0,244.12601 -3e-5,0 z" id="path9035" style="fill:#009b31;fill-opacity:1;fill-rule:nonzero;stroke:none" /><path d="m 178.694,200.933 -67.277,0 c -13.612999,0 -24.687996,11.076 -24.687996,24.688 l 0,39.982 0,27.293 0,39.98199 c 0,13.61301 11.074997,24.68799 24.688006,24.68799 l 67.27699,0 c 13.61301,0 24.688,-11.07501 24.687,-24.68799 l 0,-39.944 c 0,-0.013 0.001,-0.025 0.001,-0.038 l 0,-67.275 c 0,-13.613 -11.07499,-24.688 -24.688,-24.688 z m -61.965,30.00101 56.652,0 0,34.66999 0,21.98001 -56.652,0 0,-21.98001 0,-34.66999 z m 0,96.63398 0,-9.983 56.652,0 0,9.983 -56.652,0 z" id="path9037" style="fill:#009b31;fill-opacity:1;fill-rule:nonzero;stroke:none" /></g></g></g></g></g></g></g></g></g><g id="g9039"><g clip-path="url(#clipPath9043)" id="g9041"><g transform="matrix(0.23979849,0,0,0.23979849,342.70203,39.207054)" id="g9047"><path d="M 14,66.900002 C 14,38 38,14 66.900002,14 L 72,14 72,-1 66.900002,-1 C 29.700001,-1 -1,29.700001 -1,66.900002 L -1,72 l 15,0 0,-5.099998 z" id="path9049" style="fill:white;fill-opacity:1;fill-rule:nonzero;stroke:none" /></g><g transform="matrix(0.23979849,0,0,0.23979849,342.22241,39.207054)" id="g9051"><path d="M 433.10001,-1 428,-1 l 0,15 5.10001,0 C 462,14 486,38 486,66.900002 L 486,72 l 15,0 0,-5.099998 C 501,29.700001 470.29999,-1 433.10001,-1 z" id="path9053" style="fill:white;fill-opacity:1;fill-rule:nonzero;stroke:none" /></g><g transform="matrix(0.23979849,0,0,0.23979849,342.46222,39.207054)" id="g9055"><path d="m 70,-1 360,0 0,15 -360,0 0,-15 z" id="path9057" style="fill:white;fill-opacity:1;fill-rule:nonzero;stroke:none" /></g><g transform="matrix(0.23979849,0,0,0.23979849,342.70203,38.967255)" id="g9059"><path d="m -1,70 15,0 0,360 -15,0 0,-360 z" id="path9061" style="fill:white;fill-opacity:1;fill-rule:nonzero;stroke:none" /></g><g transform="matrix(0.23979849,0,0,0.23979849,342.46222,38.727455)" id="g9063"><path d="m 70,486 360,0 0,15 -360,0 0,-15 z" id="path9065" style="fill:white;fill-opacity:1;fill-rule:nonzero;stroke:none" /></g><g transform="matrix(0.23979849,0,0,0.23979849,342.70203,38.727455)" id="g9067"><path d="M 66.900002,486 C 38,486 14,462 14,433.10001 L 14,428 l -15,0 0,5.10001 C -1,470.30002 29.700001,501 66.900002,501 L 72,501 l 0,-15 -5.099998,0 z" id="path9069" style="fill:white;fill-opacity:1;fill-rule:nonzero;stroke:none" /></g><g transform="matrix(0.23979849,0,0,0.23979849,342.22241,38.967255)" id="g9071"><path d="m 486,70 15,0 0,360 -15,0 0,-360 z" id="path9073" style="fill:white;fill-opacity:1;fill-rule:nonzero;stroke:none" /></g><g transform="matrix(0.23979849,0,0,0.23979849,342.22241,38.727455)" id="g9075"><path d="M 501,433.10001 501,428 l -15,0 0,5.10001 C 486,462 462,486 433.10001,486 L 428,486 l 0,15 5.10001,0 C 470.29999,501 501,470.29999 501,433.10001 z" id="path9077" style="fill:white;fill-opacity:1;fill-rule:nonzero;stroke:none" /></g></g></g><g id="g9079"><g clip-path="url(#clipPath9083)" id="g9081"><g transform="matrix(0.13670062,0,0,0.13701689,374.68607,66.693954)" id="g9087"><path d="m 400.146,381.36401 0.014,-0.43798 -0.011,-0.43799 c -0.31101,-12.159 -4.79999,-36.65302 -15.513,-50.58899 -31.223,-40.814 -68.72,-60.05402 -129.263,-66.26001 -2.81301,-0.90701 -5.151,-4.95099 -6.95,-12.034 l -0.164,-0.644 -0.219,-0.623 c -1.17399,-3.35 -2.337,-7.162 -3.128,-10.14 48.79001,-18.85299 80.59701,-66.24299 79.40298,-118.757 C 323.57101,88.756042 310.28,58.182041 286.89099,35.350037 262.85898,11.889036 230.95599,-0.74996185 197.25198,0.03303528 164.06799,0.78803527 133.16399,14.420035 110.23299,38.418034 87.301987,62.416031 75.087982,93.909035 75.842987,127.09204 c 1.130997,49.73801 31.570003,93.758 77.635013,112.403 -0.377,3.907 -1.26,9.451 -1.93,12.98801 -2.01199,10.53001 -6.02099,11.22801 -7.84399,11.45399 -59.934006,6.318 -97.071999,25.42999 -128.154007,65.93399 C 4.829,343.827 0.33000001,368.31799 0.014,380.479 L 0,380.892 l 0.016,0.44101 c 0.062,2.39499 0.02700001,30.074 -0.008,46.991 0,29.20401 23.76,52.96398 52.963001,52.96398 l 294.218999,0 c 29.20401,0 52.96302,-23.76001 52.96302,-52.996 -0.034,-16.88299 -0.067,-44.56299 -0.007,-46.92798 z m -52.95499,69.926 -294.21801,0 c -12.661999,0 -22.963,-10.302 -22.963,-22.93201 0.021,-10.04901 0.081,-42.00699 0.004,-47.39599 0.336,-10.06202 4.438,-26.443 9.334,-32.81501 26.208999,-34.155 55.379005,-48.89599 107.62499,-54.38299 l 0.239,-0.027 c 17.567,-2.13199 29.892,-15.11401 33.812,-35.638 0.44099,-2.325 2.643,-14.29601 2.643,-21.62399 0,-14.91201 -14.367,-22.666 -17.24699,-24.068 l -1.041,-0.459 c -35.305,-13.995 -58.675,-47.56802 -59.537,-85.533 -0.573,-25.173 8.691,-49.062008 26.087,-67.267002 17.39601,-18.204994 40.838,-28.545 66.01,-29.118 51.791,-1.181 95.21499,40.576 96.389,92.098002 0.92099,40.506 -24.03299,76.993 -62.09399,90.79199 l -0.91499,0.366 c -8.402,3.687 -17.38201,11.577 -17.38201,22.666 0,6.566 3.40199,17.424 5.584,23.709 6.28501,23.888 19.97,31.414 30.392,33.51001 l 0.729,0.146 0.739,0.074 c 53.31201,5.31299 82.97,20.14899 109.45099,54.767 4.89401,6.367 8.99201,22.746 9.319,32.80099 -0.077,5.375 -0.018,37.349 0.004,47.36899 -10e-4,12.659 -10.301,22.96201 -22.96399,22.96201 z" id="path9089" style="fill:#009b31;fill-opacity:1;fill-rule:nonzero;stroke:none" /></g></g></g><g id="g9091"><g clip-path="url(#clipPath9095)" id="g9093"><g transform="matrix(0.00942637,-0.05184005,0.05898245,0.01072511,385.83167,251.4505)" id="g9099"><path d="m 886.383,0 c -13.81299,0 -25,11.192 -25,25 0,13.805 11.18798,25 25,25 13.80499,0 25,-11.195 25,-25 0,-13.808 -11.19599,-25 -25,-25 z" id="path9101" style="fill:#009b31;fill-opacity:1;fill-rule:nonzero;stroke:none" /><path d="M 961.02399,1.2539999 C 947.91101,1.2539999 937.28101,11.884 937.28198,25 c 0,13.111 10.63001,23.749001 23.74201,23.749001 13.11902,0 23.74902,-10.638001 23.74902,-23.749001 0,-13.117 -10.63,-23.7460001 -23.74902,-23.7460001 z" id="path9103" style="fill:#009b31;fill-opacity:1;fill-rule:nonzero;stroke:none" /><path d="M 1027.937,2.5019999 C 1015.516,2.5019999 1005.44,12.576 1005.44,25 c 0,12.420998 10.076,22.497002 22.497,22.497002 12.428,0 22.497,-10.076001 22.497,-22.497 0,-12.424002 -10.069,-22.4980021 -22.497,-22.4980021 z" id="path9105" style="fill:#009b31;fill-opacity:1;fill-rule:nonzero;stroke:none" /><path d="m 1116.111,24.997999 c -2e-4,2.817658 -0.5392,5.528076 -1.6175,8.131258 -1.0783,2.603176 -2.6136,4.900955 -4.6059,6.893345 -1.9925,1.992386 -4.2903,3.527714 -6.8935,4.605984 -2.6031,1.07827 -5.3134,1.617409 -8.1311,1.617412 -2.8177,-3e-6 -5.5282,-0.539142 -8.1313,-1.617412 -2.6033,-1.07827 -4.9011,-2.613598 -6.8934,-4.605984 -1.9925,-1.99239 -3.5279,-4.290169 -4.6061,-6.893345 -1.0783,-2.603182 -1.6173,-5.3136 -1.6172,-8.131258 -10e-5,-2.817659 0.5389,-5.52808 1.6172,-8.131258 1.0782,-2.603179 2.6136,-4.900961 4.6061,-6.8933466 1.9923,-1.9923868 4.2901,-3.5277157 6.8933,-4.6059876 C 1089.3348,4.2891355 1092.0453,3.75 1094.863,3.75 c 2.8177,0 5.528,0.5391355 8.131,1.6174068 2.6033,1.0782719 4.9011,2.6136008 6.8935,4.6059876 1.9923,1.9923856 3.5275,4.2901676 4.6058,6.8933466 1.0784,2.603178 1.6175,5.313599 1.6177,8.131258 z" id="path9107" style="fill:#009b31;fill-opacity:1;fill-rule:nonzero;stroke:none" /><path d="m 1181.77,25 c -10e-5,2.651499 -0.5074,5.202082 -1.5222,7.651749 -1.0148,2.449669 -2.4595,4.61195 -4.3342,6.486847 -1.875,1.874897 -4.0374,3.319686 -6.487,4.334373 -2.4497,1.014687 -5.0002,1.52203 -7.6516,1.522034 -2.6516,-4e-6 -5.2022,-0.507347 -7.6518,-1.522038 -2.4497,-1.014683 -4.612,-2.459472 -6.4868,-4.334366 -1.875,-1.874897 -3.3199,-4.037178 -4.3345,-6.48685 -1.0148,-2.449667 -1.522,-5.00025 -1.5219,-7.651749 -10e-5,-2.651503 0.5071,-5.202089 1.5219,-7.651758 1.0146,-2.449668 2.4595,-4.611949 4.3345,-6.486843 1.8748,-1.8748964 4.0371,-3.3196862 6.4868,-4.3343714 2.4496,-1.0146856 5.0002,-1.5220284 7.6518,-1.5220284 2.6514,0 5.2019,0.5073423 7.6516,1.5220279 2.4496,1.0146857 4.612,2.4594755 6.487,4.3343719 1.8747,1.874894 3.3194,4.037175 4.3342,6.486843 1.0148,2.449669 1.5221,5.000255 1.5222,7.651758 z" id="path9109" style="fill:#009b31;fill-opacity:1;fill-rule:nonzero;stroke:none" /><path d="m 1228.681,6.25 c -10.354,0 -18.75,8.398 -18.75,18.75 0,10.352001 8.396,18.743 18.75,18.743 10.3531,0 18.75,-8.389999 18.75,-18.743 0,-10.353 -8.3969,-18.75 -18.75,-18.75 z" id="path9111" style="fill:#009b31;fill-opacity:1;fill-rule:nonzero;stroke:none" /><path d="m 1295.594,7.4980001 c -9.667,0 -17.499,7.8369999 -17.498,17.5019999 0,9.667999 7.8299,17.499001 17.498,17.499001 9.6681,0 17.499,-7.831002 17.499,-17.499001 10e-4,-9.665 -7.831,-17.5019999 -17.499,-17.5019999 z" id="path9113" style="fill:#009b31;fill-opacity:1;fill-rule:nonzero;stroke:none" /><path d="m 1378.766,25 c -10e-5,4.488417 -1.587,8.319519 -4.7607,11.493309 -3.1739,3.17379 -7.0049,4.760685 -11.4933,4.760689 -4.4886,-4e-6 -8.3197,-1.586899 -11.4934,-4.760689 -3.1739,-3.17379 -4.7608,-7.004892 -4.7607,-11.493309 -10e-5,-4.488419 1.5868,-8.319523 4.7607,-11.493314 3.1737,-3.173791 7.0048,-4.7606857 11.4934,-4.7606857 4.4884,0 8.3194,1.5868947 11.4933,4.7606847 3.1737,3.173792 4.7606,7.004896 4.7607,11.493315 z" id="path9115" style="fill:#009b31;fill-opacity:1;fill-rule:nonzero;stroke:none" /><path d="m 1444.433,25.002001 c -10e-5,4.14241 -1.4647,7.678179 -4.3938,10.607305 -2.9291,2.929131 -6.4649,4.393696 -10.6072,4.393696 -4.1424,0 -7.6783,-1.464565 -10.6074,-4.393696 -2.9291,-2.929126 -4.3937,-6.464895 -4.3936,-10.607305 -10e-5,-4.142412 1.4645,-7.678183 4.3936,-10.60731 2.9291,-2.929127 6.465,-4.393691 10.6074,-4.393691 4.1423,0 7.6781,1.464564 10.6072,4.393692 2.9291,2.929126 4.3937,6.464897 4.3938,10.607309 z" id="path9117" style="fill:#009b31;fill-opacity:1;fill-rule:nonzero;stroke:none" /><path d="m 1510.0919,25 c -10e-5,3.797232 -1.3426,7.038372 -4.0276,9.723423 -2.685,2.685047 -5.9261,4.027573 -9.7234,4.027576 -3.7972,-3e-6 -7.0384,-1.342529 -9.7236,-4.027576 C 1483.9324,32.038372 1482.59,28.797232 1482.59,25 c 0,-3.797235 1.3424,-7.038378 4.0273,-9.723427 2.6852,-2.685049 5.9264,-4.027573 9.7236,-4.027573 3.7973,0 7.0384,1.342524 9.7234,4.027573 2.685,2.685049 4.0275,5.926192 4.0276,9.723427 z" id="path9119" style="fill:#009b31;fill-opacity:1;fill-rule:nonzero;stroke:none" /><path d="m 1563.2629,12.503 c -6.901,0 -12.5,5.595 -12.5,12.497 0,6.902 5.599,12.5 12.5,12.5 6.892,0 12.4931,-5.598 12.4931,-12.5 10e-4,-6.902 -5.5969,-12.497 -12.4931,-12.497 z" id="path9121" style="fill:#009b31;fill-opacity:1;fill-rule:nonzero;stroke:none" /><path d="m 1630.177,13.751 c -6.218,0 -11.25,5.034999 -11.249,11.249 0,6.216999 5.031,11.249001 11.249,11.249001 6.21,0 11.2481,-5.032 11.2481,-11.249001 9e-4,-6.214001 -5.0381,-11.249 -11.2481,-11.249 z" id="path9123" style="fill:#009b31;fill-opacity:1;fill-rule:nonzero;stroke:none" /><path d="m 1697.092,15.006 c -5.521,0 -9.9969,4.475998 -9.9969,9.994 0,5.518 4.4759,9.997002 9.9969,9.997002 5.516,0 9.9871,-4.479 9.9871,-9.997 C 1707.079,19.482 1702.611,15.006 1697.092,15.006 z" id="path9125" style="fill:#009b31;fill-opacity:1;fill-rule:nonzero;stroke:none" /><path d="m 1763.994,16.254 c -4.834,0 -8.745,3.914999 -8.745,8.746 0,4.834 3.911,8.746002 8.745,8.746002 4.827,0 8.746,-3.912 8.746,-8.746 0,-4.831001 -3.919,-8.746002 -8.746,-8.746002 z" id="path9127" style="fill:#009b31;fill-opacity:1;fill-rule:nonzero;stroke:none" /><path d="M 811.72198,1.2539999 C 798.60999,1.2539999 787.974,11.884 787.974,25 c 0,13.111 10.63599,23.749001 23.74798,23.749001 13.112,0 23.74305,-10.638001 23.74305,-23.749001 0,-13.117 -10.63001,-23.7460001 -23.74305,-23.7460001 z" id="path9129" style="fill:#009b31;fill-opacity:1;fill-rule:nonzero;stroke:none" /><path d="M 744.81,2.5019999 C 732.38501,2.5019999 722.31201,12.576 722.31201,25 c 0,12.420998 10.07001,22.497002 22.49799,22.497002 12.42102,0 22.49701,-10.076001 22.49701,-22.497 C 767.30701,12.576 757.23102,2.5019999 744.81,2.5019999 z" id="path9131" style="fill:#009b31;fill-opacity:1;fill-rule:nonzero;stroke:none" /><path d="m 699.14496,24.997999 c -6e-5,2.817658 -0.53919,5.528076 -1.61749,8.131258 -1.07831,2.603176 -2.61359,4.900955 -4.60596,6.893345 -1.99237,1.992386 -4.29016,3.527714 -6.89337,4.605984 -2.60321,1.07827 -5.3136,1.617409 -8.13117,1.617412 -2.81769,-3e-6 -5.52813,-0.539142 -8.13134,-1.617412 -2.60322,-1.07827 -4.90094,-2.613598 -6.89332,-4.605984 -1.99237,-1.99239 -3.52771,-4.290169 -4.60601,-6.893345 -1.07831,-2.603182 -1.61737,-5.3136 -1.61731,-8.131258 -6e-5,-2.817659 0.539,-5.52808 1.61731,-8.131258 1.0783,-2.603179 2.61364,-4.900961 4.60608,-6.8933466 1.99231,-1.9923868 4.29003,-3.5277157 6.89325,-4.6059876 C 672.36884,4.2891355 675.07928,3.75 677.89697,3.75 c 2.81757,0 5.52796,0.5391355 8.13117,1.6174068 2.60321,1.0782719 4.901,2.6136008 6.89337,4.6059876 1.99237,1.9923856 3.52765,4.2901676 4.60596,6.8933466 1.0783,2.603178 1.61743,5.313599 1.61749,8.131258 z" id="path9133" style="fill:#009b31;fill-opacity:1;fill-rule:nonzero;stroke:none" /><path d="M 610.97803,5.0050001 C 599.93402,5.0050001 590.97705,13.955 590.97705,25 c 0,11.044998 8.95697,19.995003 20.00098,19.995003 11.03802,0 19.99499,-8.950001 19.99499,-19.995001 0,-11.045 -8.95703,-19.9950019 -19.99499,-19.9950019 z" id="path9135" style="fill:#009b31;fill-opacity:1;fill-rule:nonzero;stroke:none" /><path d="m 544.06598,6.25 c -10.35101,0 -18.74402,8.398 -18.74402,18.75 0,10.352001 8.39099,18.743 18.74402,18.743 10.35901,0 18.75,-8.389999 18.75,-18.743 0,-10.353 -8.38995,-18.75 -18.75,-18.75 z" id="path9137" style="fill:#009b31;fill-opacity:1;fill-rule:nonzero;stroke:none" /><path d="m 494.64102,24.999001 c -3e-5,2.319845 -0.44394,4.551399 -1.33172,6.694662 -0.88776,2.143259 -2.1518,4.035078 -3.79215,5.675462 -1.64041,1.640377 -3.53229,2.90445 -5.67557,3.792221 -2.14322,0.887768 -4.37475,1.33165 -6.69455,1.331654 -2.31991,-4e-6 -4.55148,-0.443886 -6.69473,-1.331654 -2.14328,-0.887771 -4.03506,-2.151847 -5.67541,-3.792224 -1.64042,-1.640381 -2.90451,-3.5322 -3.7923,-5.675461 -0.88773,-2.143261 -1.33161,-4.374815 -1.33157,-6.69466 -4e-5,-2.319849 0.44384,-4.551405 1.33157,-6.694664 0.88779,-2.143261 2.15188,-4.035083 3.7923,-5.675463 1.64035,-1.640381 3.53213,-2.9044554 5.67541,-3.7922222 2.14325,-0.8877673 4.37482,-1.3316507 6.69473,-1.3316507 2.3198,0 4.55133,0.4438839 6.69455,1.3316517 2.14328,0.8877668 4.0351,2.1518402 5.67551,3.7922212 1.64035,1.64038 2.90442,3.532202 3.79221,5.675463 0.88778,2.143259 1.33169,4.374815 1.33172,6.694664 z" id="path9139" style="fill:#009b31;fill-opacity:1;fill-rule:nonzero;stroke:none" /><path d="m 410.23401,8.7530003 c -8.97,0 -16.24701,7.2730007 -16.24701,16.2469997 0,8.970001 7.27701,16.247002 16.24701,16.247002 8.97699,0 16.24701,-7.277001 16.24701,-16.247 -3e-5,-8.974003 -7.26703,-16.2470017 -16.24701,-16.2470017 z" id="path9141" style="fill:#009b31;fill-opacity:1;fill-rule:nonzero;stroke:none" /><path d="m 343.32199,10.001 c -8.28601,0 -14.996,6.714 -14.996,14.999 0,8.285 6.711,15.002998 14.996,15.002998 8.284,0 14.996,-6.717998 14.996,-15.003 0,-8.285002 -6.712,-14.998998 -14.996,-14.998998 z" id="path9143" style="fill:#009b31;fill-opacity:1;fill-rule:nonzero;stroke:none" /><path d="m 290.16,25 c -3e-5,3.797232 -1.34256,7.038372 -4.02761,9.723423 -2.68503,2.685047 -5.92618,4.027573 -9.72339,4.027576 -3.79724,-3e-6 -7.03839,-1.342529 -9.72345,-4.027576 -2.68503,-2.685051 -4.02756,-5.926191 -4.02756,-9.723423 0,-3.797235 1.34253,-7.038378 4.02756,-9.723427 2.68506,-2.685049 5.92621,-4.027573 9.72345,-4.027573 3.79721,0 7.03836,1.342524 9.72342,4.027573 2.68502,2.685049 4.02755,5.926192 4.02758,9.723427 z" id="path9145" style="fill:#009b31;fill-opacity:1;fill-rule:nonzero;stroke:none" /><path d="m 209.49699,12.503 c -6.90199,0 -12.5,5.595 -12.5,12.497 0,6.902 5.601,12.5 12.5,12.5 6.9,0 12.49201,-5.598 12.49201,-12.5 0,-6.902 -5.592,-12.497 -12.49201,-12.497 z" id="path9147" style="fill:#009b31;fill-opacity:1;fill-rule:nonzero;stroke:none" /><path d="m 142.584,13.751 c -6.217,0 -11.24899,5.034999 -11.24899,11.249 0,6.216999 5.03199,11.249001 11.24899,11.249001 6.211,0 11.24899,-5.032 11.24899,-11.249001 0,-6.214001 -5.03799,-11.249 -11.24899,-11.249 z" id="path9149" style="fill:#009b31;fill-opacity:1;fill-rule:nonzero;stroke:none" /><path d="m 75.665001,14.999 c -5.525002,0 -10.003998,4.475998 -10.003998,10.001 0,5.518 4.481003,9.997002 10.003998,9.997002 5.519997,0 9.998001,-4.478001 9.998001,-9.997 C 85.663002,19.475 81.185997,14.999 75.665001,14.999 z" id="path9151" style="fill:#009b31;fill-opacity:1;fill-rule:nonzero;stroke:none" /><path d="M 8.7460003,16.254 C 3.918,16.254 0,20.169001 0,25 c 0,4.834 3.918,8.746002 8.7460003,8.746002 4.8339997,0 8.7520007,-3.912 8.7520007,-8.746 C 17.497999,20.169001 13.58,16.254 8.7460003,16.254 z" id="path9153" style="fill:#009b31;fill-opacity:1;fill-rule:nonzero;stroke:none" /></g></g></g><g id="g9155"><g clip-path="url(#clipPath9159)" id="g9157"><g transform="matrix(-0.06441785,-0.04719243,0.04428615,-0.06045077,376.34668,249.04337)" id="g9163"><path d="m 886.383,0 c -13.81299,0 -25,11.192 -25,25 0,13.805 11.18798,25 25,25 13.80499,0 25,-11.195 25,-25 0,-13.808 -11.19599,-25 -25,-25 z" id="path9165" style="fill:#009b31;fill-opacity:1;fill-rule:nonzero;stroke:none" /><path d="M 961.02399,1.2539999 C 947.91101,1.2539999 937.28101,11.884 937.28198,25 c 0,13.111 10.63001,23.749001 23.74201,23.749001 13.11902,0 23.74902,-10.638001 23.74902,-23.749001 0,-13.117 -10.63,-23.7460001 -23.74902,-23.7460001 z" id="path9167" style="fill:#009b31;fill-opacity:1;fill-rule:nonzero;stroke:none" /><path d="M 1027.937,2.5019999 C 1015.516,2.5019999 1005.44,12.576 1005.44,25 c 0,12.420998 10.076,22.497002 22.497,22.497002 12.428,0 22.497,-10.076001 22.497,-22.497 0,-12.424002 -10.069,-22.4980021 -22.497,-22.4980021 z" id="path9169" style="fill:#009b31;fill-opacity:1;fill-rule:nonzero;stroke:none" /><path d="m 1116.111,24.997999 c -2e-4,2.817658 -0.5392,5.528076 -1.6175,8.131258 -1.0783,2.603176 -2.6136,4.900955 -4.6059,6.893345 -1.9925,1.992386 -4.2903,3.527714 -6.8935,4.605984 -2.6031,1.07827 -5.3134,1.617409 -8.1311,1.617412 -2.8177,-3e-6 -5.5282,-0.539142 -8.1313,-1.617412 -2.6033,-1.07827 -4.9011,-2.613598 -6.8934,-4.605984 -1.9925,-1.99239 -3.5279,-4.290169 -4.6061,-6.893345 -1.0783,-2.603182 -1.6173,-5.3136 -1.6172,-8.131258 -10e-5,-2.817659 0.5389,-5.52808 1.6172,-8.131258 1.0782,-2.603179 2.6136,-4.900961 4.6061,-6.8933466 1.9923,-1.9923868 4.2901,-3.5277157 6.8933,-4.6059876 C 1089.3348,4.2891355 1092.0453,3.75 1094.863,3.75 c 2.8177,0 5.528,0.5391355 8.131,1.6174068 2.6033,1.0782719 4.9011,2.6136008 6.8935,4.6059876 1.9923,1.9923856 3.5275,4.2901676 4.6058,6.8933466 1.0784,2.603178 1.6175,5.313599 1.6177,8.131258 z" id="path9171" style="fill:#009b31;fill-opacity:1;fill-rule:nonzero;stroke:none" /><path d="m 1181.77,25 c -10e-5,2.651499 -0.5074,5.202082 -1.5222,7.651749 -1.0148,2.449669 -2.4595,4.61195 -4.3342,6.486847 -1.875,1.874897 -4.0374,3.319686 -6.487,4.334373 -2.4497,1.014687 -5.0002,1.52203 -7.6516,1.522034 -2.6516,-4e-6 -5.2022,-0.507347 -7.6518,-1.522038 -2.4497,-1.014683 -4.612,-2.459472 -6.4868,-4.334366 -1.875,-1.874897 -3.3199,-4.037178 -4.3345,-6.48685 -1.0148,-2.449667 -1.522,-5.00025 -1.5219,-7.651749 -10e-5,-2.651503 0.5071,-5.202089 1.5219,-7.651758 1.0146,-2.449668 2.4595,-4.611949 4.3345,-6.486843 1.8748,-1.8748964 4.0371,-3.3196862 6.4868,-4.3343714 2.4496,-1.0146856 5.0002,-1.5220284 7.6518,-1.5220284 2.6514,0 5.2019,0.5073423 7.6516,1.5220279 2.4496,1.0146857 4.612,2.4594755 6.487,4.3343719 1.8747,1.874894 3.3194,4.037175 4.3342,6.486843 1.0148,2.449669 1.5221,5.000255 1.5222,7.651758 z" id="path9173" style="fill:#009b31;fill-opacity:1;fill-rule:nonzero;stroke:none" /><path d="m 1228.681,6.25 c -10.354,0 -18.75,8.398 -18.75,18.75 0,10.352001 8.396,18.743 18.75,18.743 10.3531,0 18.75,-8.389999 18.75,-18.743 0,-10.353 -8.3969,-18.75 -18.75,-18.75 z" id="path9175" style="fill:#009b31;fill-opacity:1;fill-rule:nonzero;stroke:none" /><path d="m 1295.594,7.4980001 c -9.667,0 -17.499,7.8369999 -17.498,17.5019999 0,9.667999 7.8299,17.499001 17.498,17.499001 9.6681,0 17.499,-7.831002 17.499,-17.499001 10e-4,-9.665 -7.831,-17.5019999 -17.499,-17.5019999 z" id="path9177" style="fill:#009b31;fill-opacity:1;fill-rule:nonzero;stroke:none" /><path d="m 1378.766,25 c -10e-5,4.488417 -1.587,8.319519 -4.7607,11.493309 -3.1739,3.17379 -7.0049,4.760685 -11.4933,4.760689 -4.4886,-4e-6 -8.3197,-1.586899 -11.4934,-4.760689 -3.1739,-3.17379 -4.7608,-7.004892 -4.7607,-11.493309 -10e-5,-4.488419 1.5868,-8.319523 4.7607,-11.493314 3.1737,-3.173791 7.0048,-4.7606857 11.4934,-4.7606857 4.4884,0 8.3194,1.5868947 11.4933,4.7606847 3.1737,3.173792 4.7606,7.004896 4.7607,11.493315 z" id="path9179" style="fill:#009b31;fill-opacity:1;fill-rule:nonzero;stroke:none" /><path d="m 1444.433,25.002001 c -10e-5,4.14241 -1.4647,7.678179 -4.3938,10.607305 -2.9291,2.929131 -6.4649,4.393696 -10.6072,4.393696 -4.1424,0 -7.6783,-1.464565 -10.6074,-4.393696 -2.9291,-2.929126 -4.3937,-6.464895 -4.3936,-10.607305 -10e-5,-4.142412 1.4645,-7.678183 4.3936,-10.60731 2.9291,-2.929127 6.465,-4.393691 10.6074,-4.393691 4.1423,0 7.6781,1.464564 10.6072,4.393692 2.9291,2.929126 4.3937,6.464897 4.3938,10.607309 z" id="path9181" style="fill:#009b31;fill-opacity:1;fill-rule:nonzero;stroke:none" /><path d="m 1510.0919,25 c -10e-5,3.797232 -1.3426,7.038372 -4.0276,9.723423 -2.685,2.685047 -5.9261,4.027573 -9.7234,4.027576 -3.7972,-3e-6 -7.0384,-1.342529 -9.7236,-4.027576 C 1483.9324,32.038372 1482.59,28.797232 1482.59,25 c 0,-3.797235 1.3424,-7.038378 4.0273,-9.723427 2.6852,-2.685049 5.9264,-4.027573 9.7236,-4.027573 3.7973,0 7.0384,1.342524 9.7234,4.027573 2.685,2.685049 4.0275,5.926192 4.0276,9.723427 z" id="path9183" style="fill:#009b31;fill-opacity:1;fill-rule:nonzero;stroke:none" /><path d="m 1563.2629,12.503 c -6.901,0 -12.5,5.595 -12.5,12.497 0,6.902 5.599,12.5 12.5,12.5 6.892,0 12.4931,-5.598 12.4931,-12.5 10e-4,-6.902 -5.5969,-12.497 -12.4931,-12.497 z" id="path9185" style="fill:#009b31;fill-opacity:1;fill-rule:nonzero;stroke:none" /><path d="m 1630.177,13.751 c -6.218,0 -11.25,5.034999 -11.249,11.249 0,6.216999 5.031,11.249001 11.249,11.249001 6.21,0 11.2481,-5.032 11.2481,-11.249001 9e-4,-6.214001 -5.0381,-11.249 -11.2481,-11.249 z" id="path9187" style="fill:#009b31;fill-opacity:1;fill-rule:nonzero;stroke:none" /><path d="m 1697.092,15.006 c -5.521,0 -9.9969,4.475998 -9.9969,9.994 0,5.518 4.4759,9.997002 9.9969,9.997002 5.516,0 9.9871,-4.479 9.9871,-9.997 C 1707.079,19.482 1702.611,15.006 1697.092,15.006 z" id="path9189" style="fill:#009b31;fill-opacity:1;fill-rule:nonzero;stroke:none" /><path d="m 1763.994,16.254 c -4.834,0 -8.745,3.914999 -8.745,8.746 0,4.834 3.911,8.746002 8.745,8.746002 4.827,0 8.746,-3.912 8.746,-8.746 0,-4.831001 -3.919,-8.746002 -8.746,-8.746002 z" id="path9191" style="fill:#009b31;fill-opacity:1;fill-rule:nonzero;stroke:none" /><path d="M 811.72198,1.2539999 C 798.60999,1.2539999 787.974,11.884 787.974,25 c 0,13.111 10.63599,23.749001 23.74798,23.749001 13.112,0 23.74305,-10.638001 23.74305,-23.749001 0,-13.117 -10.63001,-23.7460001 -23.74305,-23.7460001 z" id="path9193" style="fill:#009b31;fill-opacity:1;fill-rule:nonzero;stroke:none" /><path d="M 744.81,2.5019999 C 732.38501,2.5019999 722.31201,12.576 722.31201,25 c 0,12.420998 10.07001,22.497002 22.49799,22.497002 12.42102,0 22.49701,-10.076001 22.49701,-22.497 C 767.30701,12.576 757.23102,2.5019999 744.81,2.5019999 z" id="path9195" style="fill:#009b31;fill-opacity:1;fill-rule:nonzero;stroke:none" /><path d="m 699.14496,24.997999 c -6e-5,2.817658 -0.53919,5.528076 -1.61749,8.131258 -1.07831,2.603176 -2.61359,4.900955 -4.60596,6.893345 -1.99237,1.992386 -4.29016,3.527714 -6.89337,4.605984 -2.60321,1.07827 -5.3136,1.617409 -8.13117,1.617412 -2.81769,-3e-6 -5.52813,-0.539142 -8.13134,-1.617412 -2.60322,-1.07827 -4.90094,-2.613598 -6.89332,-4.605984 -1.99237,-1.99239 -3.52771,-4.290169 -4.60601,-6.893345 -1.07831,-2.603182 -1.61737,-5.3136 -1.61731,-8.131258 -6e-5,-2.817659 0.539,-5.52808 1.61731,-8.131258 1.0783,-2.603179 2.61364,-4.900961 4.60608,-6.8933466 1.99231,-1.9923868 4.29003,-3.5277157 6.89325,-4.6059876 C 672.36884,4.2891355 675.07928,3.75 677.89697,3.75 c 2.81757,0 5.52796,0.5391355 8.13117,1.6174068 2.60321,1.0782719 4.901,2.6136008 6.89337,4.6059876 1.99237,1.9923856 3.52765,4.2901676 4.60596,6.8933466 1.0783,2.603178 1.61743,5.313599 1.61749,8.131258 z" id="path9197" style="fill:#009b31;fill-opacity:1;fill-rule:nonzero;stroke:none" /><path d="M 610.97803,5.0050001 C 599.93402,5.0050001 590.97705,13.955 590.97705,25 c 0,11.044998 8.95697,19.995003 20.00098,19.995003 11.03802,0 19.99499,-8.950001 19.99499,-19.995001 0,-11.045 -8.95703,-19.9950019 -19.99499,-19.9950019 z" id="path9199" style="fill:#009b31;fill-opacity:1;fill-rule:nonzero;stroke:none" /><path d="m 544.06598,6.25 c -10.35101,0 -18.74402,8.398 -18.74402,18.75 0,10.352001 8.39099,18.743 18.74402,18.743 10.35901,0 18.75,-8.389999 18.75,-18.743 0,-10.353 -8.38995,-18.75 -18.75,-18.75 z" id="path9201" style="fill:#009b31;fill-opacity:1;fill-rule:nonzero;stroke:none" /><path d="m 494.64102,24.999001 c -3e-5,2.319845 -0.44394,4.551399 -1.33172,6.694662 -0.88776,2.143259 -2.1518,4.035078 -3.79215,5.675462 -1.64041,1.640377 -3.53229,2.90445 -5.67557,3.792221 -2.14322,0.887768 -4.37475,1.33165 -6.69455,1.331654 -2.31991,-4e-6 -4.55148,-0.443886 -6.69473,-1.331654 -2.14328,-0.887771 -4.03506,-2.151847 -5.67541,-3.792224 -1.64042,-1.640381 -2.90451,-3.5322 -3.7923,-5.675461 -0.88773,-2.143261 -1.33161,-4.374815 -1.33157,-6.69466 -4e-5,-2.319849 0.44384,-4.551405 1.33157,-6.694664 0.88779,-2.143261 2.15188,-4.035083 3.7923,-5.675463 1.64035,-1.640381 3.53213,-2.9044554 5.67541,-3.7922222 2.14325,-0.8877673 4.37482,-1.3316507 6.69473,-1.3316507 2.3198,0 4.55133,0.4438839 6.69455,1.3316517 2.14328,0.8877668 4.0351,2.1518402 5.67551,3.7922212 1.64035,1.64038 2.90442,3.532202 3.79221,5.675463 0.88778,2.143259 1.33169,4.374815 1.33172,6.694664 z" id="path9203" style="fill:#009b31;fill-opacity:1;fill-rule:nonzero;stroke:none" /><path d="m 410.23401,8.7530003 c -8.97,0 -16.24701,7.2730007 -16.24701,16.2469997 0,8.970001 7.27701,16.247002 16.24701,16.247002 8.97699,0 16.24701,-7.277001 16.24701,-16.247 -3e-5,-8.974003 -7.26703,-16.2470017 -16.24701,-16.2470017 z" id="path9205" style="fill:#009b31;fill-opacity:1;fill-rule:nonzero;stroke:none" /><path d="m 343.32199,10.001 c -8.28601,0 -14.996,6.714 -14.996,14.999 0,8.285 6.711,15.002998 14.996,15.002998 8.284,0 14.996,-6.717998 14.996,-15.003 0,-8.285002 -6.712,-14.998998 -14.996,-14.998998 z" id="path9207" style="fill:#009b31;fill-opacity:1;fill-rule:nonzero;stroke:none" /><path d="m 290.16,25 c -3e-5,3.797232 -1.34256,7.038372 -4.02761,9.723423 -2.68503,2.685047 -5.92618,4.027573 -9.72339,4.027576 -3.79724,-3e-6 -7.03839,-1.342529 -9.72345,-4.027576 -2.68503,-2.685051 -4.02756,-5.926191 -4.02756,-9.723423 0,-3.797235 1.34253,-7.038378 4.02756,-9.723427 2.68506,-2.685049 5.92621,-4.027573 9.72345,-4.027573 3.79721,0 7.03836,1.342524 9.72342,4.027573 2.68502,2.685049 4.02755,5.926192 4.02758,9.723427 z" id="path9209" style="fill:#009b31;fill-opacity:1;fill-rule:nonzero;stroke:none" /><path d="m 209.49699,12.503 c -6.90199,0 -12.5,5.595 -12.5,12.497 0,6.902 5.601,12.5 12.5,12.5 6.9,0 12.49201,-5.598 12.49201,-12.5 0,-6.902 -5.592,-12.497 -12.49201,-12.497 z" id="path9211" style="fill:#009b31;fill-opacity:1;fill-rule:nonzero;stroke:none" /><path d="m 142.584,13.751 c -6.217,0 -11.24899,5.034999 -11.24899,11.249 0,6.216999 5.03199,11.249001 11.24899,11.249001 6.211,0 11.24899,-5.032 11.24899,-11.249001 0,-6.214001 -5.03799,-11.249 -11.24899,-11.249 z" id="path9213" style="fill:#009b31;fill-opacity:1;fill-rule:nonzero;stroke:none" /><path d="m 75.665001,14.999 c -5.525002,0 -10.003998,4.475998 -10.003998,10.001 0,5.518 4.481003,9.997002 10.003998,9.997002 5.519997,0 9.998001,-4.478001 9.998001,-9.997 C 85.663002,19.475 81.185997,14.999 75.665001,14.999 z" id="path9215" style="fill:#009b31;fill-opacity:1;fill-rule:nonzero;stroke:none" /><path d="M 8.7460003,16.254 C 3.918,16.254 0,20.169001 0,25 c 0,4.834 3.918,8.746002 8.7460003,8.746002 4.8339997,0 8.7520007,-3.912 8.7520007,-8.746 C 17.497999,20.169001 13.58,16.254 8.7460003,16.254 z" id="path9217" style="fill:#009b31;fill-opacity:1;fill-rule:nonzero;stroke:none" /></g></g></g></g></svg>