<?xml version="1.0" encoding="UTF-8" standalone="no"?>
<!-- Created with Inkscape (http://www.inkscape.org/) -->

<svg
   xmlns:dc="http://purl.org/dc/elements/1.1/"
   xmlns:cc="http://creativecommons.org/ns#"
   xmlns:rdf="http://www.w3.org/1999/02/22-rdf-syntax-ns#"
   xmlns:svg="http://www.w3.org/2000/svg"
   xmlns="http://www.w3.org/2000/svg"
   xmlns:sodipodi="http://sodipodi.sourceforge.net/DTD/sodipodi-0.dtd"
   xmlns:inkscape="http://www.inkscape.org/namespaces/inkscape"
   version="1.1"
   width="743.75"
   height="1052.3622"
   id="svg3004"
   xml:space="preserve"
   inkscape:version="0.48.4 r9939"
   sodipodi:docname="MPA.svg"><sodipodi:namedview
     pagecolor="#ffffff"
     bordercolor="#666666"
     borderopacity="1"
     objecttolerance="10"
     gridtolerance="10"
     guidetolerance="10"
     inkscape:pageopacity="0"
     inkscape:pageshadow="2"
     inkscape:window-width="1873"
     inkscape:window-height="1056"
     id="namedview5165"
     showgrid="false"
     inkscape:zoom="1.66"
     inkscape:cx="371.875"
     inkscape:cy="694.85579"
     inkscape:window-x="47"
     inkscape:window-y="24"
     inkscape:window-maximized="1"
     inkscape:current-layer="g3576" /><metadata
     id="metadata3010"><rdf:RDF><cc:Work
         rdf:about=""><dc:format>image/svg+xml</dc:format><dc:type
           rdf:resource="http://purl.org/dc/dcmitype/StillImage" /><dc:title /></cc:Work></rdf:RDF></metadata><defs
     id="defs3008"><clipPath
       id="clipPath3018"><path
         d="m 0,0 595,0 0,842.29218 -595,0 L 0,0 z"
         id="path3020" /></clipPath><clipPath
       id="clipPath3030"><path
         d="M 595,841.54285 595,0 0,0 l 0,841.54285 595,0 z"
         id="path3032" /></clipPath><clipPath
       id="clipPath3040"><path
         d="M 0,0 595,0 595,566 0,566 0,0 z"
         id="path3042" /></clipPath><clipPath
       id="clipPath3044"><path
         d="M 595,0 0,0 l 0,565.02521 595,0 L 595,0 z"
         id="path3046" /></clipPath><clipPath
       id="clipPath3094"><path
         d="m 574.76697,311.73804 -172.35514,0 0,172.35516 172.35514,0 0,-172.35516 z"
         id="path3096" /></clipPath><clipPath
       id="clipPath3106"><path
         d="m 551.49902,335.00732 -125.81924,0 0,125.81653 125.81924,0 0,-125.8165 0,-3e-5 z"
         id="path3108" /></clipPath><clipPath
       id="clipPath3118"><path
         d="m 550.03778,331.97104 -124.39548,0 0,133.38791 124.39548,0 0,-133.38791 z"
         id="path3120" /></clipPath><clipPath
       id="clipPath3178"><path
         d="m 527.5567,358.94836 -77.18515,0 0,77.18512 77.18515,0 0,-77.18512 z"
         id="path3180" /></clipPath><clipPath
       id="clipPath3218"><path
         d="m 519.3136,372.43704 -62.19772,0 0,51.70655 62.19772,0 0,-51.70655 z"
         id="path3220" /></clipPath><clipPath
       id="clipPath3230"><path
         d="M 595,841.54285 595,0 0,0 l 0,841.54285 595,0 z"
         id="path3232" /></clipPath><clipPath
       id="clipPath3238"><path
         d="M 0,0 184,0 184,184 0,184 0,0 z"
         id="path3240" /></clipPath><clipPath
       id="clipPath3242"><path
         d="m 183.07935,0.69143677 -182.09698153,0 0,182.09698323 182.09698153,0 0,-182.09698323 z"
         id="path3244" /></clipPath><clipPath
       id="clipPath3246"><path
         d="m 25.56546,25.275986 132.93079,0 0,132.927874 -132.93079,0 0,-132.927874 z"
         id="path3248" /></clipPath><clipPath
       id="clipPath3250"><path
         d="m 156.10202,23.172546 -127.392952,0 0,136.385394 127.392952,0 0,-136.385394 z"
         id="path3252" /></clipPath><clipPath
       id="clipPath3254"><path
         d="m 120.13225,57.643578 -49.458445,0 0,59.949622 49.458445,0 0,-59.949622 z"
         id="path3256" /></clipPath><clipPath
       id="clipPath3258"><path
         d="m 133.62091,49.400505 -79.433257,0 0,79.433245 79.433257,0 0,-79.433245 z"
         id="path3260" /></clipPath><clipPath
       id="clipPath3400"><path
         d="M 0,0 183,0 183,184 0,184 0,0 z"
         id="path3402" /></clipPath><clipPath
       id="clipPath3404"><path
         d="m 182.92065,0.19017792 -182.09696531,0 0,182.09699208 182.09696531,0 0,-182.09699208 z"
         id="path3406" /></clipPath><clipPath
       id="clipPath3408"><path
         d="m 25.406769,24.774727 132.930821,0 0,132.927883 -132.930821,0 0,-132.927883 z"
         id="path3410" /></clipPath><clipPath
       id="clipPath3412"><path
         d="m 155.19397,21.172546 -127.39296,0 0,136.385394 127.39296,0 0,-136.385394 z"
         id="path3414" /></clipPath><clipPath
       id="clipPath3416"><path
         d="m 132.71286,46.651138 -79.433258,0 0,79.433242 79.433258,0 0,-79.433242 z"
         id="path3418" /></clipPath><clipPath
       id="clipPath3420"><path
         d="m 123.7204,58.641052 -57.70151,0 0,57.701508 57.70151,0 0,-57.701508 z"
         id="path3422" /></clipPath><clipPath
       id="clipPath3554"><path
         d="m 578.51385,71.190178 -182.09698,0 0,182.096992 182.09698,0 0,-182.096992 z"
         id="path3556" /></clipPath><clipPath
       id="clipPath3566"><path
         d="m 420.99997,95.774727 132.93082,0 0,132.927883 -132.93082,0 0,-132.927883 z"
         id="path3568" /></clipPath><clipPath
       id="clipPath3578"><path
         d="m 553.03528,92.172546 -128.14234,0 0,137.134764 128.14234,0 0,-137.134764 z"
         id="path3580" /></clipPath><clipPath
       id="clipPath3638"><path
         d="m 529.80475,118.40051 -79.43323,0 0,79.43325 79.43323,0 0,-79.43325 z"
         id="path3640" /></clipPath><clipPath
       id="clipPath3678"><path
         d="m 506.57431,137.13477 -34.47104,0 0,41.21536 34.47104,0 0,-41.21536 z"
         id="path3680" /></clipPath><clipPath
       id="clipPath3690"><path
         d="M 595,841.54285 595,0 0,0 l 0,841.54285 595,0 z"
         id="path3692" /></clipPath><clipPath
       id="clipPath3698"><path
         d="M 0,0 173,0 173,174 0,174 0,0 z"
         id="path3700" /></clipPath><clipPath
       id="clipPath3702"><path
         d="m 172.83879,0.98864746 -172.35516268,0 0,172.35516254 172.35516268,0 0,-172.35516254 z"
         id="path3704" /></clipPath><clipPath
       id="clipPath3706"><path
         d="m 23.751572,24.257965 125.819278,0 0,125.816495 -125.819278,0 0,-125.816495 z"
         id="path3708" /></clipPath><clipPath
       id="clipPath3710"><path
         d="m 148.85895,19.7229 -124.395472,0 0,133.38791 124.395472,0 0,-133.38791 z"
         id="path3712" /></clipPath><clipPath
       id="clipPath3714"><path
         d="m 126.37784,44.452148 -77.185144,0 0,77.185122 77.185144,0 0,-77.185122 z"
         id="path3716" /></clipPath><clipPath
       id="clipPath3718"><path
         d="m 113.63855,55.692688 -53.954666,0 0,53.954652 53.954666,0 0,-53.954652 z"
         id="path3720" /></clipPath><clipPath
       id="clipPath3852"><path
         d="M 0,0 168,0 168,169 0,169 0,0 z"
         id="path3854" /></clipPath><clipPath
       id="clipPath3856"><path
         d="m 167.93073,0.98614502 -167.10957827,0 0,167.10955498 167.10957827,0 0,-167.10955498 z"
         id="path3858" /></clipPath><clipPath
       id="clipPath3860"><path
         d="m 23.380951,145.53461 121.989989,0 0,-121.987338 -121.989989,0 0,121.987338 z"
         id="path3862" /></clipPath><clipPath
       id="clipPath3864"><path
         d="m 145.44961,20.469788 -119.899241,0 0,128.142332 119.899241,0 0,-128.142332 z"
         id="path3866" /></clipPath><clipPath
       id="clipPath3868"><path
         d="m 124.46722,45.948364 -74.937008,0 0,74.937016 74.937008,0 0,-74.937016 z"
         id="path3870" /></clipPath><clipPath
       id="clipPath3872"><path
         d="m 116.97357,56.439545 -58.450895,0 0,53.954655 58.450895,0 0,-53.954655 z"
         id="path3874" /></clipPath><clipPath
       id="clipPath4004"><path
         d="m 594.62531,348.08252 -17.98487,0 0,33.72165 17.98487,0 0,-33.72165 z"
         id="path4006" /></clipPath><clipPath
       id="clipPath4024"><path
         d="m 588.66034,428.50958 -50.70154,16.12943 5.67938,17.85266 50.70154,-16.12943 -5.67938,-17.85266 z"
         id="path4026" /></clipPath><clipPath
       id="clipPath4044"><path
         d="m 542.02423,214.64117 42.38593,24.0001 8.86157,-15.6502 -42.38593,-24.0001 -8.86157,15.6502 z"
         id="path4046" /></clipPath><clipPath
       id="clipPath4064"><path
         d="m 594.62531,267.15051 -17.98487,0 0,33.72165 17.98487,0 0,-33.72165 z"
         id="path4066" /></clipPath></defs><g
     transform="scale(1.25,1.25)"
     id="g3012"><g
       id="g3028"
       clip-path="url(#clipPath3030)"
       transform="translate(0.95695691,16.268268)"><g
         id="g3038" /><g
         id="g3048"
         transform="matrix(1,0,0,-1,0,566)"><g
           style="opacity:0.34901961"
           id="g3050"
           clip-path="url(#clipPath3040)"><g
             id="g3052"
             transform="matrix(1,0,0,-1,0,566)"><g
               id="g3054"><g
                 id="g3056"
                 clip-path="url(#clipPath3044)"><g
                   id="g3058"
                   transform="matrix(0.94199049,0,0,0.9419319,30.357672,-1.0758969)"><path
                     inkscape:connector-curvature="0"
                     style="fill:#009b31;fill-opacity:1;fill-rule:nonzero;stroke:none"
                     id="path3060"
                     d="m 582.20001,582.20001 17.79999,0 0,17.79999 -17.79999,0 0,-17.79999 z" /></g><g
                   id="g3062"
                   transform="matrix(0.94199049,0,0,0.94169444,0.94676787,0.00427396)"><path
                     inkscape:connector-curvature="0"
                     style="fill:#009b31;fill-opacity:1;fill-rule:nonzero;stroke:none"
                     id="path3064"
                     d="m 0,18 18,0 0,564.20001 -18,0 L 0,18 z" /></g><g
                   id="g3066"
                   transform="matrix(0.94199049,0,0,0.9419319,0.94676787,-1.0758969)"><path
                     inkscape:connector-curvature="0"
                     style="fill:#009b31;fill-opacity:1;fill-rule:nonzero;stroke:none"
                     id="path3068"
                     d="m 0,582.20001 18,0 L 18,600 0,600 0,582.20001 z" /></g><g
                   id="g3070"
                   transform="matrix(0.94199049,0,0,0.94169444,30.357672,0.00427396)"><path
                     inkscape:connector-curvature="0"
                     style="fill:#009b31;fill-opacity:1;fill-rule:nonzero;stroke:none"
                     id="path3072"
                     d="M 582.20001,18 600,18 l 0,564.20001 -17.79999,0 0,-564.20001 z" /></g><g
                   id="g3074"
                   transform="matrix(0.99745822,0,0,0.9419319,-0.99364144,-1.0758969)"><path
                     inkscape:connector-curvature="0"
                     style="fill:#009b31;fill-opacity:1;fill-rule:nonzero;stroke:none"
                     id="path3076"
                     d="m 18,582.20001 564.20001,0 0,17.79999 L 18,600 18,582.20001 z" /></g><g
                   id="g3078"
                   transform="matrix(0.94199049,0,0,0.9419319,30.357672,0.9419319)"><path
                     inkscape:connector-curvature="0"
                     style="fill:#009b31;fill-opacity:1;fill-rule:nonzero;stroke:none"
                     id="path3080"
                     d="M 582.20001,0 600,0 l 0,18 -17.79999,0 0,-18 z" /></g><g
                   id="g3082"
                   transform="matrix(0.94199049,0,0,0.9419319,0.94676787,0.9419319)"><path
                     inkscape:connector-curvature="0"
                     style="fill:#009b31;fill-opacity:1;fill-rule:nonzero;stroke:none"
                     id="path3084"
                     d="M 0,0 18,0 18,18 0,18 0,0 z" /></g><g
                   id="g3086"
                   transform="matrix(0.99745822,0,0,0.9419319,-0.99364144,0.9419319)"><path
                     inkscape:connector-curvature="0"
                     style="fill:#009b31;fill-opacity:1;fill-rule:nonzero;stroke:none"
                     id="path3088"
                     d="m 18,0 564.20001,0 0,18 L 18,18 18,0 z" /></g></g></g></g></g></g></g><g
       id="g3090"><g
         clip-path="url(#clipPath3094)"
         id="g3092"><g
           transform="matrix(0.34471032,0,0,0.34471032,402.41183,311.73804)"
           id="g3098"><path
             d="m 482.47601,395.25 c 11.24701,19.13199 12.16501,43.60001 0.276,64.189 -17.59298,30.46701 -56.553,40.906 -87.01501,23.31298 C 349.202,455.383 288.98199,462.97198 250.00999,500 l -0.027,0 c -38.237,-36.33801 -97.162,-44.99701 -145.237,-17.52701 -19.127996,11.25 -43.602998,12.168 -64.19,0.275 C 10.094,465.159 -0.34400177,426.202 17.242001,395.73599 44.618,349.20901 37.022999,288.98401 0,250.013 L 0,249.99 C 36.334,211.75 44.986,152.83101 17.52,104.75401 6.2700005,85.622009 5.3550005,61.154015 17.248001,40.568016 34.837002,10.094015 73.796997,-0.34498215 104.259,17.245016 150.791,44.613998 211.015,37.027 249.987,0 l 0.027,0 c 39.40001,37.432999 98.65898,44.346001 145.72899,17.245001 30.46201,-17.59300057 69.422,-7.154 87.01502,23.315 11.889,20.590001 10.971,45.062001 -0.28,64.196999 -27.46701,48.07801 -18.80799,106.989 17.522,145.22899 l 0,0.023 C 463.66299,288.254 455.01099,347.173 482.47601,395.25 M 72.407997,72.412003 c 0,118.387997 0,236.783007 0,355.176007 118.396003,0 236.788993,0 355.183983,0 0,-118.393 0,-236.78799 0,-355.175992 -118.39499,-1.5e-5 -236.79198,-1.5e-5 -355.183983,-1.5e-5 z"
             id="path3100"
             style="fill:#ffbd4a;fill-opacity:1;fill-rule:nonzero;stroke:none" /></g></g></g><g
       id="g3102"><g
         clip-path="url(#clipPath3106)"
         id="g3104"><g
           transform="matrix(323.07901,0,0,-125.81658,327.04993,460.82391)"
           id="g3110" /></g></g><g
       id="g3114"><g
         id="g3122"
         transform="matrix(0.09136499,0,0,0.1143578,464.14941,369.53119)"><path
           inkscape:connector-curvature="0"
           style="fill:#b3e1c1;fill-opacity:1;fill-rule:nonzero;stroke:none"
           id="path3124"
           d="m 48,49 403,0 0,402.10001 -403,0 L 48,49 z" /></g><g
         id="g3126"
         transform="matrix(0.09136499,0,0,0.6587078,464.14941,135.34634)"><path
           inkscape:connector-curvature="0"
           style="fill:#b3e1c1;fill-opacity:1;fill-rule:nonzero;stroke:none"
           id="path3128"
           d="m 68,431 363,0 0,63 -363,0 0,-63 z" /><path
           inkscape:connector-curvature="0"
           style="fill:#009b31;fill-opacity:1;fill-rule:nonzero;stroke:none"
           id="path3130"
           d="m 68,485 363,0 0,15 -363,0 0,-15 z" /></g><g
         id="g3132"
         transform="matrix(0.65760922,0,0,0.123575,426.30243,368.91364)"><path
           inkscape:connector-curvature="0"
           style="fill:#b3e1c1;fill-opacity:1;fill-rule:nonzero;stroke:none"
           id="path3134"
           d="M 6,67 68,67 68,433 6,433 6,67 z" /><path
           inkscape:connector-curvature="0"
           style="fill:#009b31;fill-opacity:1;fill-rule:nonzero;stroke:none"
           id="path3136"
           d="M 0,69 15,69 15,431 0,431 0,69 z" /></g><g
         id="g3138"
         transform="matrix(0.65760922,0,0,0.1143578,220.57301,369.53119)"><path
           inkscape:connector-curvature="0"
           style="fill:#b3e1c1;fill-opacity:1;fill-rule:nonzero;stroke:none"
           id="path3140"
           d="m 431,69 63,0 0,362 -63,0 0,-362 z" /><path
           inkscape:connector-curvature="0"
           style="fill:#009b31;fill-opacity:1;fill-rule:nonzero;stroke:none"
           id="path3142"
           d="m 485,69 15,0 0,362 -15,0 0,-362 z" /></g><g
         id="g3144"
         transform="matrix(0.69833551,0,0,0.69264637,200.20987,118.37705)"><path
           inkscape:connector-curvature="0"
           style="fill:#b3e1c1;fill-opacity:1;fill-rule:nonzero;stroke:none"
           id="path3146"
           d="M 434.20001,494 C 467.30002,494 494,467.39999 494,434.20001 L 494,431 l -63,0 0,63 3.20001,0 z" /><path
           inkscape:connector-curvature="0"
           style="fill:#009b31;fill-opacity:1;fill-rule:nonzero;stroke:none"
           id="path3148"
           d="M 432.70001,485 429,485 l 0,15 3.70001,0 C 469.90002,500 500,469.89999 500,432.70001 L 500,429 l -15,0 0,3.70001 C 485,461.60001 461.60001,485 432.70001,485 z" /></g><g
         id="g3150"
         transform="matrix(0.65760922,0,0,0.6587078,426.30243,135.34634)"><path
           inkscape:connector-curvature="0"
           style="fill:#b3e1c1;fill-opacity:1;fill-rule:nonzero;stroke:none"
           id="path3152"
           d="M 65.800003,494 68,494 l 0,-63 -62,0 0,3.20001 C 6,467.39999 32.599998,494 65.800003,494 z" /><path
           inkscape:connector-curvature="0"
           style="fill:#009b31;fill-opacity:1;fill-rule:nonzero;stroke:none"
           id="path3154"
           d="m 0,437.5 c 2.5,35 31.700001,62.5 67.300003,62.5 L 70,500 l 0,-15 -2.699997,0 C 38.400002,485 15,461.60001 15,432.70001 L 15,429 l -15,0 0,3.70001 c 0,1.59998 -0.1,3.19998 0,4.79999 z" /></g><g
         id="g3156"
         transform="matrix(0.09661761,0,0,0.6587078,463.80274,332.62976)"><path
           inkscape:connector-curvature="0"
           style="fill:#b3e1c1;fill-opacity:1;fill-rule:nonzero;stroke:none"
           id="path3158"
           d="M 66,6 433,6 433,69 66,69 66,6 z" /><path
           inkscape:connector-curvature="0"
           style="fill:#009b31;fill-opacity:1;fill-rule:nonzero;stroke:none"
           id="path3160"
           d="M 67,0 432,0 432,15 67,15 67,0 z" /></g><g
         id="g3162"
         transform="matrix(0.65760922,0,0,0.6587078,220.57301,332.62976)"><path
           inkscape:connector-curvature="0"
           style="fill:#b3e1c1;fill-opacity:1;fill-rule:nonzero;stroke:none"
           id="path3164"
           d="M 434.20001,6 431,6 l 0,63 63,0 0,-3.199997 C 494,32.599998 467.39999,6 434.20001,6 z" /><path
           inkscape:connector-curvature="0"
           style="fill:#009b31;fill-opacity:1;fill-rule:nonzero;stroke:none"
           id="path3166"
           d="M 485,67.300003 485,71 l 15,0 0,-3.699997 C 500,30.1 469.89999,0 432.70001,0 L 429,0 l 0,15 3.70001,0 C 461.60001,15 485,38.400002 485,67.300003 z" /></g><g
         id="g3168"
         transform="matrix(0.65760922,0,0,0.6587078,426.30243,332.62976)"><path
           inkscape:connector-curvature="0"
           style="fill:#b3e1c1;fill-opacity:1;fill-rule:nonzero;stroke:none"
           id="path3170"
           d="M 6,65.800003 6,69 68,69 68,6 65.800003,6 C 32.599998,6 6,32.599998 6,65.800003 z" /><path
           inkscape:connector-curvature="0"
           style="fill:#009b31;fill-opacity:1;fill-rule:nonzero;stroke:none"
           id="path3172"
           d="M 15,67.300003 C 15,38.400002 38.400002,15 67.300003,15 L 70,15 70,0 67.300003,0 C 31.700001,0 2.5,27.5 0,62.5 l 0,8.5 15,0 0,-3.699997 z" /></g></g><g
       id="g3174"><g
         clip-path="url(#clipPath3178)"
         id="g3176"><g
           transform="matrix(0.15437028,0,0,0.15437028,450.52591,359.10272)"
           id="g3182"><path
             d="M 14,66.900002 C 14,38 38,14 66.900002,14 L 72,14 72,-1 66.900002,-1 C 29.700001,-1 -1,29.700001 -1,66.900002 L -1,72 l 15,0 0,-5.099998 z"
             id="path3184"
             style="fill:white;fill-opacity:1;fill-rule:nonzero;stroke:none" /></g><g
           transform="matrix(0.15437028,0,0,0.15437028,450.21719,359.10272)"
           id="g3186"><path
             d="M 433.10001,-1 428,-1 l 0,15 5.10001,0 C 462,14 486,38 486,66.900002 L 486,72 l 15,0 0,-5.099998 C 501,29.700001 470.29999,-1 433.10001,-1 z"
             id="path3188"
             style="fill:white;fill-opacity:1;fill-rule:nonzero;stroke:none" /></g><g
           transform="matrix(0.15437028,0,0,0.15437028,450.37155,359.10272)"
           id="g3190"><path
             d="m 70,-1 360,0 0,15 -360,0 0,-15 z"
             id="path3192"
             style="fill:white;fill-opacity:1;fill-rule:nonzero;stroke:none" /></g><g
           transform="matrix(0.15437028,0,0,0.15437028,450.52591,358.94836)"
           id="g3194"><path
             d="m -1,70 15,0 0,360 -15,0 0,-360 z"
             id="path3196"
             style="fill:white;fill-opacity:1;fill-rule:nonzero;stroke:none" /></g><g
           transform="matrix(0.15437028,0,0,0.15437028,450.37155,358.79401)"
           id="g3198"><path
             d="m 70,486 360,0 0,15 -360,0 0,-15 z"
             id="path3200"
             style="fill:white;fill-opacity:1;fill-rule:nonzero;stroke:none" /></g><g
           transform="matrix(0.15437028,0,0,0.15437028,450.52591,358.79401)"
           id="g3202"><path
             d="M 66.900002,486 C 38,486 14,462 14,433.10001 L 14,428 l -15,0 0,5.10001 C -1,470.30002 29.700001,501 66.900002,501 L 72,501 l 0,-15 -5.099998,0 z"
             id="path3204"
             style="fill:white;fill-opacity:1;fill-rule:nonzero;stroke:none" /></g><g
           transform="matrix(0.15437028,0,0,0.15437028,450.21719,358.94836)"
           id="g3206"><path
             d="m 486,70 15,0 0,360 -15,0 0,-360 z"
             id="path3208"
             style="fill:white;fill-opacity:1;fill-rule:nonzero;stroke:none" /></g><g
           transform="matrix(0.15437028,0,0,0.15437028,450.21719,358.79401)"
           id="g3210"><path
             d="M 501,433.10001 501,428 l -15,0 0,5.10001 C 486,462 462,486 433.10001,486 L 428,486 l 0,15 5.10001,0 C 470.29999,501 501,470.29999 501,433.10001 z"
             id="path3212"
             style="fill:white;fill-opacity:1;fill-rule:nonzero;stroke:none" /></g></g></g><g
       id="g3214"><g
         clip-path="url(#clipPath3218)"
         id="g3216"><g
           transform="matrix(0.12853502,0,0,0.12944372,456.18927,365.88641)"
           id="g3222"><path
             d="m 465.534,183.756 -16.379,0 -47.29801,-122.056999 c -2.591,-6.687999 -9.026,-11.092998 -16.19598,-11.092998 l -264.64901,0 c -6.987,0 -13.293,4.188 -16.006,10.627998 L 53.417,183.756 l -12.148998,0 C 24.825001,183.756 7.25,197.571 7.25,214.612 l 0,126.853 c 0,17.04199 13.331001,30.85199 29.774002,30.85199 l 11.464001,0 c -0.761002,2.63299 -1.188999,5.39999 -1.188999,8.272 l 0,39.69598 c 0,16.44501 13.331001,29.77201 29.774002,29.77201 l 9.924003,0 c 16.443001,0 29.772001,-13.327 29.772001,-29.77201 l 0,-39.69598 c 0,-2.87201 -0.429,-5.64099 -1.188,-8.272 l 267.02598,0 c -0.759,2.63299 -1.18899,5.39999 -1.18899,8.272 l 0,39.69598 c 0,16.44501 13.32901,29.77201 29.77399,29.77201 l 9.92599,0 c 16.44,0 29.771,-13.327 29.771,-29.77201 l 0,-39.69598 c 0,-2.87201 -0.427,-5.64099 -1.18601,-8.272 l 11.58802,0 c 16.445,0 29.77398,-13.81 29.77398,-30.85199 l 0,-126.853 C 491.064,197.57201 481.979,183.756 465.534,183.756 z m -332.98999,-98.414997 241.22302,0 38.13901,98.415997 -320.799038,0 41.437008,-98.415997 z M 84.163002,292.10001 c -18.271004,0 -33.083,-14.80899 -33.083,-33.086 0,-18.269 14.811996,-33.079 33.083,-33.079 18.271008,0 33.082998,14.81101 33.082998,33.079 0.001,18.27698 -14.812,33.086 -33.082998,33.086 z m 329.986988,0 c -18.27301,0 -33.08599,-14.80899 -33.08599,-33.086 0,-18.269 14.81201,-33.079 33.08599,-33.079 18.26999,0 33.081,14.81101 33.081,33.079 0,18.27698 -14.81098,33.086 -33.081,33.086 z"
             id="path3224"
             style="fill:#009b31;fill-opacity:1;fill-rule:nonzero;stroke:none" /></g></g></g><g
       id="g3226"><g
         clip-path="url(#clipPath3230)"
         id="g3228"><g
           transform="translate(20,69)"
           id="g3234"><g
             id="g3236" /><g
             transform="matrix(1,0,0,-1,0,184)"
             id="g3262"><g
               clip-path="url(#clipPath3238)"
               id="g3264"
               style="opacity:0.34901961"><g
                 transform="matrix(1,0,0,-1,0,184)"
                 id="g3266"><g
                   id="g3268"><g
                     clip-path="url(#clipPath3242)"
                     id="g3270"><g
                       transform="matrix(0.36419395,0,0,0.36419395,0.98236847,0.69143677)"
                       id="g3272"><path
                         d="m 482.47601,395.25 c 11.24701,19.13199 12.16501,43.60001 0.276,64.189 -17.59298,30.46701 -56.553,40.906 -87.01501,23.31298 C 349.202,455.383 288.98199,462.97198 250.00999,500 l -0.027,0 c -38.237,-36.33801 -97.162,-44.99701 -145.237,-17.52701 -19.127996,11.25 -43.602998,12.168 -64.19,0.275 C 10.094,465.159 -0.34400177,426.202 17.242001,395.73599 44.618,349.20901 37.022999,288.98401 0,250.013 L 0,249.99 C 36.334,211.75 44.986,152.83101 17.52,104.75401 6.2700005,85.622009 5.3550005,61.154015 17.248001,40.568016 34.837002,10.094015 73.796997,-0.34498215 104.259,17.245016 150.791,44.613998 211.015,37.027 249.987,0 l 0.027,0 c 39.40001,37.432999 98.65898,44.346001 145.72899,17.245001 30.46201,-17.59300057 69.422,-7.154 87.01502,23.315 11.889,20.590001 10.971,45.062001 -0.28,64.196999 -27.46701,48.07801 -18.80799,106.989 17.522,145.22899 l 0,0.023 C 463.66299,288.254 455.01099,347.173 482.47601,395.25 M 72.407997,72.412003 c 0,118.387997 0,236.783007 0,355.176007 118.396003,0 236.788993,0 355.183983,0 0,-118.393 0,-236.78799 0,-355.175992 -118.39499,-1.5e-5 -236.79198,-1.5e-5 -355.183983,-1.5e-5 z"
                         id="path3274"
                         style="fill:#ffbd4a;fill-opacity:1;fill-rule:nonzero;stroke:none" /></g></g></g><g
                   id="g3276"><g
                     clip-path="url(#clipPath3246)"
                     id="g3278"><g
                       transform="matrix(341.34,0,0,-132.92795,-78.639122,158.2039)"
                       id="g3280">&gt;</g></g></g><g
                   id="g3284"><g
                     clip-path="url(#clipPath3250)"
                     id="g3286"><g
                       transform="matrix(0.09356616,0,0,0.11692765,68.144165,61.576752)"
                       id="g3288"><path
                         d="m 48,49 403,0 0,402.10001 -403,0 L 48,49 z"
                         id="path3290"
                         style="fill:#b3e1c1;fill-opacity:1;fill-rule:nonzero;stroke:none" /></g><g
                       transform="matrix(0.09356616,0,0,0.67351025,68.144165,-177.8707)"
                       id="g3292"><path
                         d="m 68,431 363,0 0,63 -363,0 0,-63 z"
                         id="path3294"
                         style="fill:#b3e1c1;fill-opacity:1;fill-rule:nonzero;stroke:none" /><path
                         d="m 68,485 363,0 0,15 -363,0 0,-15 z"
                         id="path3296"
                         style="fill:#009b31;fill-opacity:1;fill-rule:nonzero;stroke:none" /></g><g
                       transform="matrix(0.67345244,0,0,0.11692765,29.385357,61.576752)"
                       id="g3298"><path
                         d="M 6,67 68,67 68,433 6,433 6,67 z"
                         id="path3300"
                         style="fill:#b3e1c1;fill-opacity:1;fill-rule:nonzero;stroke:none" /><path
                         d="M 0,69 15,69 15,431 0,431 0,69 z"
                         id="path3302"
                         style="fill:#009b31;fill-opacity:1;fill-rule:nonzero;stroke:none" /></g><g
                       transform="matrix(0.67345244,0,0,0.11692765,-181.30051,61.576752)"
                       id="g3304"><path
                         d="m 431,69 63,0 0,362 -63,0 0,-362 z"
                         id="path3306"
                         style="fill:#b3e1c1;fill-opacity:1;fill-rule:nonzero;stroke:none" /><path
                         d="m 485,69 15,0 0,362 -15,0 0,-362 z"
                         id="path3308"
                         style="fill:#009b31;fill-opacity:1;fill-rule:nonzero;stroke:none" /></g><g
                       transform="matrix(0.67345244,0,0,0.67351025,-181.30051,-177.8707)"
                       id="g3310"><path
                         d="M 434.20001,494 C 467.30002,494 494,467.39999 494,434.20001 L 494,431 l -63,0 0,63 3.20001,0 z"
                         id="path3312"
                         style="fill:#b3e1c1;fill-opacity:1;fill-rule:nonzero;stroke:none" /><path
                         d="M 432.70001,485 429,485 l 0,15 3.70001,0 C 469.90002,500 500,469.89999 500,432.70001 L 500,429 l -15,0 0,3.70001 C 485,461.60001 461.60001,485 432.70001,485 z"
                         id="path3314"
                         style="fill:#009b31;fill-opacity:1;fill-rule:nonzero;stroke:none" /></g><g
                       transform="matrix(0.67345244,0,0,0.67351025,29.385357,-177.8707)"
                       id="g3316"><path
                         d="M 65.800003,494 68,494 l 0,-63 -62,0 0,3.20001 C 6,467.39999 32.599998,494 65.800003,494 z"
                         id="path3318"
                         style="fill:#b3e1c1;fill-opacity:1;fill-rule:nonzero;stroke:none" /><path
                         d="m 0,437.5 c 2.5,35 31.700001,62.5 67.300003,62.5 L 70,500 l 0,-15 -2.699997,0 C 38.400002,485 15,461.60001 15,432.70001 L 15,429 l -15,0 0,3.70001 c 0,1.59998 -0.1,3.19998 0,4.79999 z"
                         id="path3320"
                         style="fill:#009b31;fill-opacity:1;fill-rule:nonzero;stroke:none" /></g><g
                       transform="matrix(0.09356616,0,0,0.67351025,68.144165,23.846054)"
                       id="g3322"><path
                         d="M 66,6 433,6 433,69 66,69 66,6 z"
                         id="path3324"
                         style="fill:#b3e1c1;fill-opacity:1;fill-rule:nonzero;stroke:none" /><path
                         d="M 67,0 432,0 432,15 67,15 67,0 z"
                         id="path3326"
                         style="fill:#009b31;fill-opacity:1;fill-rule:nonzero;stroke:none" /></g><g
                       transform="matrix(0.67345244,0,0,0.67351025,-181.30051,23.846054)"
                       id="g3328"><path
                         d="M 434.20001,6 431,6 l 0,63 63,0 0,-3.199997 C 494,32.599998 467.39999,6 434.20001,6 z"
                         id="path3330"
                         style="fill:#b3e1c1;fill-opacity:1;fill-rule:nonzero;stroke:none" /><path
                         d="M 485,67.300003 485,71 l 15,0 0,-3.699997 C 500,30.1 469.89999,0 432.70001,0 L 429,0 l 0,15 3.70001,0 C 461.60001,15 485,38.400002 485,67.300003 z"
                         id="path3332"
                         style="fill:#009b31;fill-opacity:1;fill-rule:nonzero;stroke:none" /></g><g
                       transform="matrix(0.67345244,0,0,0.67351025,29.385357,23.846054)"
                       id="g3334"><path
                         d="M 6,65.800003 6,69 68,69 68,6 65.800003,6 C 32.599998,6 6,32.599998 6,65.800003 z"
                         id="path3336"
                         style="fill:#b3e1c1;fill-opacity:1;fill-rule:nonzero;stroke:none" /><path
                         d="M 15,67.300003 C 15,38.400002 38.400002,15 67.300003,15 L 70,15 70,0 67.300003,0 C 31.700001,0 2.5,27.5 0,62.5 l 0,8.5 15,0 0,-3.699997 z"
                         id="path3338"
                         style="fill:#009b31;fill-opacity:1;fill-rule:nonzero;stroke:none" /></g></g></g><g
                   id="g3340"><g
                     clip-path="url(#clipPath3254)"
                     id="g3342"><g
                       transform="matrix(0.11823596,0,0,0.1180515,70.677872,57.643578)"
                       id="g3344"><path
                         d="m 331.55899,109.503 -62.78101,0 0,32.917 c 0,3.86999 -3.031,6.901 -6.89898,6.901 l -105.52001,0 c -3.86999,0 -6.90199,-3.03101 -6.90199,-6.901 l 0,-32.917 -62.779998,0 c -20.348999,0 -36.902,16.554 -36.902,36.90099 l 0,274.74701 c 0,20.34799 16.555,36.90201 36.902,36.90201 l 244.882998,0 c 20.34799,0 36.90201,-16.556 36.90201,-36.90201 l 0,-274.74699 C 368.461,126.056 351.90601,109.503 331.55899,109.503 z m 6.90201,311.648 c 0,3.87 -3.03201,6.90201 -6.90201,6.90201 l -244.882987,0 c -3.871003,0 -6.902001,-3.03201 -6.902001,-6.90201 l 0,-274.74699 c 0,-3.87 3.030998,-6.901 6.902001,-6.901 l 32.779997,0 0,2.917 c 0,20.34799 16.55599,36.901 36.902,36.901 l 105.51901,0 c 20.34699,0 36.89899,-16.554 36.89899,-36.901 l 0,-2.917 32.78101,0 c 3.86999,0 6.901,3.031 6.901,6.901 l 0,274.74699 0.003,0 z"
                         id="path3346"
                         style="fill:#009b31;fill-opacity:1;fill-rule:nonzero;stroke:none" /><path
                         d="m 209.117,103.548 c 14.825,0 26.887,-12.062008 26.887,-26.887005 0,-14.824996 -12.062,-26.887001 -26.887,-26.887001 -14.824,0 -26.88699,12.062001 -26.88699,26.887001 0,14.824997 12.06099,26.887005 26.88699,26.887005 z m 0,-30.000003 c 1.717,0 3.11301,1.396003 3.11301,3.112998 0,1.716996 -1.396,3.112999 -3.11301,3.112999 -1.71701,0 -3.113,-1.396003 -3.113,-3.112999 0,-1.716995 1.39599,-3.112998 3.113,-3.112998 z"
                         id="path3348"
                         style="fill:#009b31;fill-opacity:1;fill-rule:nonzero;stroke:none" /><path
                         d="m 363.41599,59.729 -69.75199,0 C 281.20499,24.482 247.423,0 209.117,0 170.80801,0 137.02701,24.481001 124.57001,59.729 l -69.75001,0 C 24.591999,59.729 0,84.32 0,114.547 l 0,338.45901 c 0,30.22901 24.593,54.819 54.82,54.819 l 308.59602,0 c 30.22699,0 54.81799,-24.59201 54.81799,-54.819 l 0,-338.45999 c 0,-30.225021 -24.591,-54.81702 -54.81802,-54.81702 z m 24.81802,393.279 c 0,13.68701 -11.134,24.819 -24.81799,24.819 l -308.59602,0 C 41.133999,477.827 30,466.69299 30,453.008 l 0,-338.46 C 30,100.863 41.136002,89.729996 54.82,89.729996 l 93.411,0 2.427,-12.036003 c 5.571,-27.635003 30.15601,-47.693001 58.459,-47.693001 28.301,0 52.88901,20.057998 58.46,47.693001 l 2.427,12.034996 93.41202,0 c 13.686,0 24.81799,11.133001 24.81799,24.818001 l 0,338.46101 z"
                         id="path3350"
                         style="fill:#009b31;fill-opacity:1;fill-rule:nonzero;stroke:none" /><path
                         d="m 168.617,233.827 78,0 c 8.284,0 15,-6.71601 15,-15 0,-8.284 -6.716,-15 -15,-15 l -78,0 c -8.283,0 -15,6.716 -15,15 0,8.28399 6.715,15 15,15 z"
                         id="path3352"
                         style="fill:#009b31;fill-opacity:1;fill-rule:nonzero;stroke:none" /><path
                         d="m 295.617,258.89899 -172,0 c -8.28299,0 -15,6.716 -15,15 0,8.28299 6.71701,15 15,15 l 172,0 c 8.284,0 15,-6.71701 15,-15 0,-8.284 -6.716,-15 -15,-15 z"
                         id="path3354"
                         style="fill:#009b31;fill-opacity:1;fill-rule:nonzero;stroke:none" /><path
                         d="m 294.617,311.827 -172,0 c -8.28299,0 -15,6.716 -15,15 0,8.28399 6.71701,15 15,15 l 172,0 c 8.284,0 15,-6.71601 15,-15 0,-8.284 -6.716,-15 -15,-15 z"
                         id="path3356"
                         style="fill:#009b31;fill-opacity:1;fill-rule:nonzero;stroke:none" /><path
                         d="m 294.617,361.827 -172,0 c -8.28299,0 -15,6.716 -15,15 0,8.28399 6.71701,15 15,15 l 172,0 c 8.284,0 15,-6.71601 15,-15 0,-8.284 -6.716,-15 -15,-15 z"
                         id="path3358"
                         style="fill:#009b31;fill-opacity:1;fill-rule:nonzero;stroke:none" /></g></g></g><g
                   id="g3360"><g
                     clip-path="url(#clipPath3258)"
                     id="g3362"><g
                       transform="matrix(0.1588665,0,0,0.1588665,54.346519,49.559372)"
                       id="g3364"><path
                         d="M 14,66.900002 C 14,38 38,14 66.900002,14 L 72,14 72,-1 66.900002,-1 C 29.700001,-1 -1,29.700001 -1,66.900002 L -1,72 l 15,0 0,-5.099998 z"
                         id="path3366"
                         style="fill:white;fill-opacity:1;fill-rule:nonzero;stroke:none" /></g><g
                       transform="matrix(0.1588665,0,0,0.1588665,54.028786,49.559372)"
                       id="g3368"><path
                         d="M 433.10001,-1 428,-1 l 0,15 5.10001,0 C 462,14 486,38 486,66.900002 L 486,72 l 15,0 0,-5.099998 C 501,29.700001 470.29999,-1 433.10001,-1 z"
                         id="path3370"
                         style="fill:white;fill-opacity:1;fill-rule:nonzero;stroke:none" /></g><g
                       transform="matrix(0.1588665,0,0,0.1588665,54.187653,49.559372)"
                       id="g3372"><path
                         d="m 70,-1 360,0 0,15 -360,0 0,-15 z"
                         id="path3374"
                         style="fill:white;fill-opacity:1;fill-rule:nonzero;stroke:none" /></g><g
                       transform="matrix(0.1588665,0,0,0.1588665,54.346519,49.400505)"
                       id="g3376"><path
                         d="m -1,70 15,0 0,360 -15,0 0,-360 z"
                         id="path3378"
                         style="fill:white;fill-opacity:1;fill-rule:nonzero;stroke:none" /></g><g
                       transform="matrix(0.1588665,0,0,0.1588665,54.187653,49.241638)"
                       id="g3380"><path
                         d="m 70,486 360,0 0,15 -360,0 0,-15 z"
                         id="path3382"
                         style="fill:white;fill-opacity:1;fill-rule:nonzero;stroke:none" /></g><g
                       transform="matrix(0.1588665,0,0,0.1588665,54.346519,49.241638)"
                       id="g3384"><path
                         d="M 66.900002,486 C 38,486 14,462 14,433.10001 L 14,428 l -15,0 0,5.10001 C -1,470.30002 29.700001,501 66.900002,501 L 72,501 l 0,-15 -5.099998,0 z"
                         id="path3386"
                         style="fill:white;fill-opacity:1;fill-rule:nonzero;stroke:none" /></g><g
                       transform="matrix(0.1588665,0,0,0.1588665,54.028786,49.400505)"
                       id="g3388"><path
                         d="m 486,70 15,0 0,360 -15,0 0,-360 z"
                         id="path3390"
                         style="fill:white;fill-opacity:1;fill-rule:nonzero;stroke:none" /></g><g
                       transform="matrix(0.1588665,0,0,0.1588665,54.028786,49.241638)"
                       id="g3392"><path
                         d="M 501,433.10001 501,428 l -15,0 0,5.10001 C 486,462 462,486 433.10001,486 L 428,486 l 0,15 5.10001,0 C 470.29999,501 501,470.29999 501,433.10001 z"
                         id="path3394"
                         style="fill:white;fill-opacity:1;fill-rule:nonzero;stroke:none" /></g></g></g></g></g></g></g><g
           transform="translate(209,71)"
           id="g3396"><g
             id="g3398" /><g
             transform="matrix(1,0,0,-1,0,184)"
             id="g3424"><g
               clip-path="url(#clipPath3400)"
               id="g3426"
               style="opacity:0.34901961"><g
                 transform="matrix(1,0,0,-1,0,184)"
                 id="g3428"><g
                   id="g3430"><g
                     clip-path="url(#clipPath3404)"
                     id="g3432"><g
                       transform="matrix(0.36419395,0,0,0.36419395,0.82368469,0.19017792)"
                       id="g3434"><path
                         d="m 482.47601,395.25 c 11.24701,19.13199 12.16501,43.60001 0.276,64.189 -17.59298,30.46701 -56.553,40.906 -87.01501,23.31298 C 349.202,455.383 288.98199,462.97198 250.00999,500 l -0.027,0 c -38.237,-36.33801 -97.162,-44.99701 -145.237,-17.52701 -19.127996,11.25 -43.602998,12.168 -64.19,0.275 C 10.094,465.159 -0.34400177,426.202 17.242001,395.73599 44.618,349.20901 37.022999,288.98401 0,250.013 L 0,249.99 C 36.334,211.75 44.986,152.83101 17.52,104.75401 6.2700005,85.622009 5.3550005,61.154015 17.248001,40.568016 34.837002,10.094015 73.796997,-0.34498215 104.259,17.245016 150.791,44.613998 211.015,37.027 249.987,0 l 0.027,0 c 39.40001,37.432999 98.65898,44.346001 145.72899,17.245001 30.46201,-17.59300057 69.422,-7.154 87.01502,23.315 11.889,20.590001 10.971,45.062001 -0.28,64.196999 -27.46701,48.07801 -18.80799,106.989 17.522,145.22899 l 0,0.023 C 463.66299,288.254 455.01099,347.173 482.47601,395.25 M 72.407997,72.412003 c 0,118.387997 0,236.783007 0,355.176007 118.396003,0 236.788993,0 355.183983,0 0,-118.393 0,-236.78799 0,-355.175992 -118.39499,-1.5e-5 -236.79198,-1.5e-5 -355.183983,-1.5e-5 z"
                         id="path3436"
                         style="fill:#ffbd4a;fill-opacity:1;fill-rule:nonzero;stroke:none" /></g></g></g><g
                   id="g3438"><g
                     clip-path="url(#clipPath3408)"
                     id="g3440"><g
                       transform="matrix(341.34,0,0,-132.92795,-78.797806,157.70264)"
                       id="g3442">&gt;</g></g></g><g
                   id="g3446"><g
                     clip-path="url(#clipPath3412)"
                     id="g3448"><g
                       transform="matrix(0.09356616,0,0,0.11692765,67.236115,59.576752)"
                       id="g3450"><path
                         d="m 48,49 403,0 0,402.10001 -403,0 L 48,49 z"
                         id="path3452"
                         style="fill:#b3e1c1;fill-opacity:1;fill-rule:nonzero;stroke:none" /></g><g
                       transform="matrix(0.09356616,0,0,0.67351025,67.236115,-179.8707)"
                       id="g3454"><path
                         d="m 68,431 363,0 0,63 -363,0 0,-63 z"
                         id="path3456"
                         style="fill:#b3e1c1;fill-opacity:1;fill-rule:nonzero;stroke:none" /><path
                         d="m 68,485 363,0 0,15 -363,0 0,-15 z"
                         id="path3458"
                         style="fill:#009b31;fill-opacity:1;fill-rule:nonzero;stroke:none" /></g><g
                       transform="matrix(0.67345244,0,0,0.11692765,28.477295,59.576752)"
                       id="g3460"><path
                         d="M 6,67 68,67 68,433 6,433 6,67 z"
                         id="path3462"
                         style="fill:#b3e1c1;fill-opacity:1;fill-rule:nonzero;stroke:none" /><path
                         d="M 0,69 15,69 15,431 0,431 0,69 z"
                         id="path3464"
                         style="fill:#009b31;fill-opacity:1;fill-rule:nonzero;stroke:none" /></g><g
                       transform="matrix(0.67345244,0,0,0.11692765,-182.20856,59.576752)"
                       id="g3466"><path
                         d="m 431,69 63,0 0,362 -63,0 0,-362 z"
                         id="path3468"
                         style="fill:#b3e1c1;fill-opacity:1;fill-rule:nonzero;stroke:none" /><path
                         d="m 485,69 15,0 0,362 -15,0 0,-362 z"
                         id="path3470"
                         style="fill:#009b31;fill-opacity:1;fill-rule:nonzero;stroke:none" /></g><g
                       transform="matrix(0.67345244,0,0,0.67351025,-182.20856,-179.8707)"
                       id="g3472"><path
                         d="M 434.20001,494 C 467.30002,494 494,467.39999 494,434.20001 L 494,431 l -63,0 0,63 3.20001,0 z"
                         id="path3474"
                         style="fill:#b3e1c1;fill-opacity:1;fill-rule:nonzero;stroke:none" /><path
                         d="M 432.70001,485 429,485 l 0,15 3.70001,0 C 469.90002,500 500,469.89999 500,432.70001 L 500,429 l -15,0 0,3.70001 C 485,461.60001 461.60001,485 432.70001,485 z"
                         id="path3476"
                         style="fill:#009b31;fill-opacity:1;fill-rule:nonzero;stroke:none" /></g><g
                       transform="matrix(0.67345244,0,0,0.67351025,28.477295,-179.8707)"
                       id="g3478"><path
                         d="M 65.800003,494 68,494 l 0,-63 -62,0 0,3.20001 C 6,467.39999 32.599998,494 65.800003,494 z"
                         id="path3480"
                         style="fill:#b3e1c1;fill-opacity:1;fill-rule:nonzero;stroke:none" /><path
                         d="m 0,437.5 c 2.5,35 31.700001,62.5 67.300003,62.5 L 70,500 l 0,-15 -2.699997,0 C 38.400002,485 15,461.60001 15,432.70001 L 15,429 l -15,0 0,3.70001 c 0,1.59998 -0.1,3.19998 0,4.79999 z"
                         id="path3482"
                         style="fill:#009b31;fill-opacity:1;fill-rule:nonzero;stroke:none" /></g><g
                       transform="matrix(0.09356616,0,0,0.67351025,67.236115,21.846054)"
                       id="g3484"><path
                         d="M 66,6 433,6 433,69 66,69 66,6 z"
                         id="path3486"
                         style="fill:#b3e1c1;fill-opacity:1;fill-rule:nonzero;stroke:none" /><path
                         d="M 67,0 432,0 432,15 67,15 67,0 z"
                         id="path3488"
                         style="fill:#009b31;fill-opacity:1;fill-rule:nonzero;stroke:none" /></g><g
                       transform="matrix(0.67345244,0,0,0.67351025,-182.20856,21.846054)"
                       id="g3490"><path
                         d="M 434.20001,6 431,6 l 0,63 63,0 0,-3.199997 C 494,32.599998 467.39999,6 434.20001,6 z"
                         id="path3492"
                         style="fill:#b3e1c1;fill-opacity:1;fill-rule:nonzero;stroke:none" /><path
                         d="M 485,67.300003 485,71 l 15,0 0,-3.699997 C 500,30.1 469.89999,0 432.70001,0 L 429,0 l 0,15 3.70001,0 C 461.60001,15 485,38.400002 485,67.300003 z"
                         id="path3494"
                         style="fill:#009b31;fill-opacity:1;fill-rule:nonzero;stroke:none" /></g><g
                       transform="matrix(0.67345244,0,0,0.67351025,28.477295,21.846054)"
                       id="g3496"><path
                         d="M 6,65.800003 6,69 68,69 68,6 65.800003,6 C 32.599998,6 6,32.599998 6,65.800003 z"
                         id="path3498"
                         style="fill:#b3e1c1;fill-opacity:1;fill-rule:nonzero;stroke:none" /><path
                         d="M 15,67.300003 C 15,38.400002 38.400002,15 67.300003,15 L 70,15 70,0 67.300003,0 C 31.700001,0 2.5,27.5 0,62.5 l 0,8.5 15,0 0,-3.699997 z"
                         id="path3500"
                         style="fill:#009b31;fill-opacity:1;fill-rule:nonzero;stroke:none" /></g></g></g><g
                   id="g3502"><g
                     clip-path="url(#clipPath3416)"
                     id="g3504"><g
                       transform="matrix(0.1588665,0,0,0.1588665,53.438477,46.810005)"
                       id="g3506"><path
                         d="M 14,66.900002 C 14,38 38,14 66.900002,14 L 72,14 72,-1 66.900002,-1 C 29.700001,-1 -1,29.700001 -1,66.900002 L -1,72 l 15,0 0,-5.099998 z"
                         id="path3508"
                         style="fill:white;fill-opacity:1;fill-rule:nonzero;stroke:none" /></g><g
                       transform="matrix(0.1588665,0,0,0.1588665,53.120728,46.810005)"
                       id="g3510"><path
                         d="M 433.10001,-1 428,-1 l 0,15 5.10001,0 C 462,14 486,38 486,66.900002 L 486,72 l 15,0 0,-5.099998 C 501,29.700001 470.29999,-1 433.10001,-1 z"
                         id="path3512"
                         style="fill:white;fill-opacity:1;fill-rule:nonzero;stroke:none" /></g><g
                       transform="matrix(0.1588665,0,0,0.1588665,53.279602,46.810005)"
                       id="g3514"><path
                         d="m 70,-1 360,0 0,15 -360,0 0,-15 z"
                         id="path3516"
                         style="fill:white;fill-opacity:1;fill-rule:nonzero;stroke:none" /></g><g
                       transform="matrix(0.1588665,0,0,0.1588665,53.438477,46.651138)"
                       id="g3518"><path
                         d="m -1,70 15,0 0,360 -15,0 0,-360 z"
                         id="path3520"
                         style="fill:white;fill-opacity:1;fill-rule:nonzero;stroke:none" /></g><g
                       transform="matrix(0.1588665,0,0,0.1588665,53.279602,46.492271)"
                       id="g3522"><path
                         d="m 70,486 360,0 0,15 -360,0 0,-15 z"
                         id="path3524"
                         style="fill:white;fill-opacity:1;fill-rule:nonzero;stroke:none" /></g><g
                       transform="matrix(0.1588665,0,0,0.1588665,53.438477,46.492271)"
                       id="g3526"><path
                         d="M 66.900002,486 C 38,486 14,462 14,433.10001 L 14,428 l -15,0 0,5.10001 C -1,470.30002 29.700001,501 66.900002,501 L 72,501 l 0,-15 -5.099998,0 z"
                         id="path3528"
                         style="fill:white;fill-opacity:1;fill-rule:nonzero;stroke:none" /></g><g
                       transform="matrix(0.1588665,0,0,0.1588665,53.120728,46.651138)"
                       id="g3530"><path
                         d="m 486,70 15,0 0,360 -15,0 0,-360 z"
                         id="path3532"
                         style="fill:white;fill-opacity:1;fill-rule:nonzero;stroke:none" /></g><g
                       transform="matrix(0.1588665,0,0,0.1588665,53.120728,46.492271)"
                       id="g3534"><path
                         d="M 501,433.10001 501,428 l -15,0 0,5.10001 C 486,462 462,486 433.10001,486 L 428,486 l 0,15 5.10001,0 C 470.29999,501 501,470.29999 501,433.10001 z"
                         id="path3536"
                         style="fill:white;fill-opacity:1;fill-rule:nonzero;stroke:none" /></g></g></g><g
                   id="g3538"><g
                     clip-path="url(#clipPath3420)"
                     id="g3540"><g
                       transform="matrix(0.12454755,0,0,0.12457283,66.024689,58.641052)"
                       id="g3542"><path
                         d="M 395.36301,67.834 C 351.62,24.091999 293.45999,0 231.597,0 169.73399,0 111.576,24.091999 67.833,67.834 24.091,111.576 0,169.73599 0,231.60001 0,282.353 16.743,331.76801 47.352001,371.95502 L 3.4990001,440.07599 C 0.52699995,444.69098 0.31400013,450.56 2.9430001,455.379 5.572,460.198 10.623,463.19501 16.111,463.19501 l 215.48501,0 c 61.86099,0 120.02099,-24.09 163.76599,-67.83301 C 439.10501,351.62 463.19598,293.461 463.19598,231.59799 463.19601,169.735 439.10599,111.577 395.36301,67.834 z m -163.765,365.36201 -187.991012,0 34.807003,-54.069 c 3.561997,-5.53201 3.102997,-12.73999 -1.134002,-17.77499 -30.487999,-36.242 -47.279,-82.32199 -47.279,-129.75101 0,-111.162 90.437001,-201.598996 201.598001,-201.598996 111.16199,0 201.60001,90.436996 201.60001,201.598996 -0.002,111.15998 -90.44001,201.595 -201.601,201.595 z"
                         id="path3544"
                         style="fill:#009b31;fill-opacity:1;fill-rule:nonzero;stroke:none" /><path
                         d="m 150.252,300.62299 c -8.59,0 -15.371,6.781 -15.371,14.918 0,5.87701 3.16499,10.39801 6.33,12.65798 20.388,14.56202 46.345,24.723 71.73199,28.128 l 0,-29.94001 c -18.401,-3.30099 -36.496,-11.09201 -54.101,-23.05099 -2.261,-1.80896 -5.42599,-2.71298 -8.58999,-2.71298 z"
                         id="path3546"
                         style="fill:#009b31;fill-opacity:1;fill-rule:nonzero;stroke:none" /><path
                         d="m 242.944,220.80299 0,-74.29799 c 14.20902,2.73101 28.67001,8.392 42.479,16.237 1.80802,0.90401 4.521,1.81 7.685,1.81 8.59,0 15.371,-6.781 15.371,-14.919 0,-6.78 -4.069,-11.754 -8.58999,-14.467 -17.34299,-9.363 -37.34299,-16.053 -56.944,-18.666 l 0,-10.053 c 0,-8.284006 -6.71601,-15.000001 -15,-15.000001 -8.284,0 -15,6.716003 -15,15.000001 l 0,9.494 0,10e-4 c -39.61301,4.345 -67.213,29.696 -67.213,66.239 l 0,0.90401 c 0,39.026 33.602,53.042 67.213,63.076 l 0,80.22501 0,29.94 0,10.82599 c 0,8.28399 6.716,15 15,15 8.28399,0 15,-6.71601 15,-15 l 0,-10.14899 c 40.81399,-4.00201 71.41101,-28.99701 71.41101,-69.48999 l 0,-0.90399 C 314.35501,245.97301 278.03101,231.521 242.944,220.80299 z m -30,-9.65699 c -19.39301,-7.20101 -33.759,-16.07201 -33.759,-31.678 l 0,-0.904 c 0,-16.592 12.851,-29.55201 33.759,-32.995 l 0,65.577 z m 68.41,79.98501 c 0,19.82401 -15.651,33.388 -38.40899,36.42301 l 0,-72.46601 c 21.80301,7.36701 38.40899,16.89701 38.40899,35.13901 l 0,0.90399 z"
                         id="path3548"
                         style="fill:#009b31;fill-opacity:1;fill-rule:nonzero;stroke:none" /></g></g></g></g></g></g></g></g></g><g
       id="g3550"><g
         clip-path="url(#clipPath3554)"
         id="g3552"><g
           transform="matrix(0.36419395,0,0,0.36419395,396.41687,71.190178)"
           id="g3558"><path
             d="m 482.47601,395.25 c 11.24701,19.13199 12.16501,43.60001 0.276,64.189 -17.59298,30.46701 -56.553,40.906 -87.01501,23.31298 C 349.202,455.383 288.98199,462.97198 250.00999,500 l -0.027,0 c -38.237,-36.33801 -97.162,-44.99701 -145.237,-17.52701 -19.127996,11.25 -43.602998,12.168 -64.19,0.275 C 10.094,465.159 -0.34400177,426.202 17.242001,395.73599 44.618,349.20901 37.022999,288.98401 0,250.013 L 0,249.99 C 36.334,211.75 44.986,152.83101 17.52,104.75401 6.2700005,85.622009 5.3550005,61.154015 17.248001,40.568016 34.837002,10.094015 73.796997,-0.34498215 104.259,17.245016 150.791,44.613998 211.015,37.027 249.987,0 l 0.027,0 c 39.40001,37.432999 98.65898,44.346001 145.72899,17.245001 30.46201,-17.59300057 69.422,-7.154 87.01502,23.315 11.889,20.590001 10.971,45.062001 -0.28,64.196999 -27.46701,48.07801 -18.80799,106.989 17.522,145.22899 l 0,0.023 C 463.66299,288.254 455.01099,347.173 482.47601,395.25 M 72.407997,72.412003 c 0,118.387997 0,236.783007 0,355.176007 118.396003,0 236.788993,0 355.183983,0 0,-118.393 0,-236.78799 0,-355.175992 -118.39499,-1.5e-5 -236.79198,-1.5e-5 -355.183983,-1.5e-5 z"
             id="path3560"
             style="fill:#ffbd4a;fill-opacity:1;fill-rule:nonzero;stroke:none" /></g></g></g><g
       id="g3562"><g
         clip-path="url(#clipPath3566)"
         id="g3564"><g
           transform="matrix(341.34,0,0,-132.92795,316.79538,228.70264)"
           id="g3570">&gt;</g></g></g><g
       id="g3574"><g
         clip-path="url(#clipPath3578)"
         id="g3576"><g
           transform="matrix(0.09412048,0,0,0.1175701,464.55899,130.78775)"
           id="g3582"><path
             d="m 48,49 403,0 0,402.10001 -403,0 L 48,49 z"
             id="path3584"
             style="fill:#b3e1c1;fill-opacity:1;fill-rule:nonzero;stroke:none" /></g><g
           transform="matrix(0.09412048,0,0,0.67721087,464.55899,-109.97533)"
           id="g3586"><path
             d="m 68,431 363,0 0,63 -363,0 0,-63 z"
             id="path3588"
             style="fill:#b3e1c1;fill-opacity:1;fill-rule:nonzero;stroke:none" /><path
             d="m 68,485 363,0 0,15 -363,0 0,-15 z"
             id="path3590"
             style="fill:#009b31;fill-opacity:1;fill-rule:nonzero;stroke:none" /></g><g
           transform="matrix(0.67744219,0,0,0.12942078,425.57056,129.99375)"
           id="g3592"><path
             d="M 6,67 68,67 68,433 6,433 6,67 z"
             id="path3594"
             style="fill:#b3e1c1;fill-opacity:1;fill-rule:nonzero;stroke:none"
             inkscape:connector-curvature="0" /><path
             d="M 0,69 15,69 15,431 0,431 0,69 z"
             id="path3596"
             style="fill:#009b31;fill-opacity:1;fill-rule:nonzero;stroke:none"
             inkscape:connector-curvature="0" /></g><g
           transform="matrix(0.67744219,0,0,0.1175701,213.63654,130.78775)"
           id="g3598"><path
             d="m 431,69 63,0 0,362 -63,0 0,-362 z"
             id="path3600"
             style="fill:#b3e1c1;fill-opacity:1;fill-rule:nonzero;stroke:none" /><path
             d="m 485,69 15,0 0,362 -15,0 0,-362 z"
             id="path3602"
             style="fill:#009b31;fill-opacity:1;fill-rule:nonzero;stroke:none" /></g><g
           transform="matrix(0.71138076,0,0,0.71793716,196.66725,-130.33847)"
           id="g3604"><path
             d="M 434.20001,494 C 467.30002,494 494,467.39999 494,434.20001 L 494,431 l -63,0 0,63 3.20001,0 z"
             id="path3606"
             style="fill:#b3e1c1;fill-opacity:1;fill-rule:nonzero;stroke:none"
             inkscape:connector-curvature="0" /><path
             d="M 432.70001,485 429,485 l 0,15 3.70001,0 C 469.90002,500 500,469.89999 500,432.70001 L 500,429 l -15,0 0,3.70001 C 485,461.60001 461.60001,485 432.70001,485 z"
             id="path3608"
             style="fill:#009b31;fill-opacity:1;fill-rule:nonzero;stroke:none"
             inkscape:connector-curvature="0" /></g><g
           transform="matrix(0.67744219,0,0,0.67721087,425.57056,-109.97533)"
           id="g3610"><path
             d="M 65.800003,494 68,494 l 0,-63 -62,0 0,3.20001 C 6,467.39999 32.599998,494 65.800003,494 z"
             id="path3612"
             style="fill:#b3e1c1;fill-opacity:1;fill-rule:nonzero;stroke:none" /><path
             d="m 0,437.5 c 2.5,35 31.700001,62.5 67.300003,62.5 L 70,500 l 0,-15 -2.699997,0 C 38.400002,485 15,461.60001 15,432.70001 L 15,429 l -15,0 0,3.70001 c 0,1.59998 -0.1,3.19998 0,4.79999 z"
             id="path3614"
             style="fill:#009b31;fill-opacity:1;fill-rule:nonzero;stroke:none" /></g><g
           transform="matrix(0.09412048,0,0,0.67721087,464.55899,92.849754)"
           id="g3616"><path
             d="M 66,6 433,6 433,69 66,69 66,6 z"
             id="path3618"
             style="fill:#b3e1c1;fill-opacity:1;fill-rule:nonzero;stroke:none" /><path
             d="M 67,0 432,0 432,15 67,15 67,0 z"
             id="path3620"
             style="fill:#009b31;fill-opacity:1;fill-rule:nonzero;stroke:none" /></g><g
           transform="matrix(0.71816848,0,0,0.67721087,193.2734,92.849754)"
           id="g3622"><path
             d="M 434.20001,6 431,6 l 0,63 63,0 0,-3.199997 C 494,32.599998 467.39999,6 434.20001,6 z"
             id="path3624"
             style="fill:#b3e1c1;fill-opacity:1;fill-rule:nonzero;stroke:none"
             inkscape:connector-curvature="0" /><path
             d="M 485,67.300003 485,71 l 15,0 0,-3.699997 C 500,30.1 469.89999,0 432.70001,0 L 429,0 l 0,15 3.70001,0 C 461.60001,15 485,38.400002 485,67.300003 z"
             id="path3626"
             style="fill:#009b31;fill-opacity:1;fill-rule:nonzero;stroke:none"
             inkscape:connector-curvature="0" /></g><g
           transform="matrix(0.67744219,0,0,0.67721087,425.57056,92.849754)"
           id="g3628"><path
             d="M 6,65.800003 6,69 68,69 68,6 65.800003,6 C 32.599998,6 6,32.599998 6,65.800003 z"
             id="path3630"
             style="fill:#b3e1c1;fill-opacity:1;fill-rule:nonzero;stroke:none" /><path
             d="M 15,67.300003 C 15,38.400002 38.400002,15 67.300003,15 L 70,15 70,0 67.300003,0 C 31.700001,0 2.5,27.5 0,62.5 l 0,8.5 15,0 0,-3.699997 z"
             id="path3632"
             style="fill:#009b31;fill-opacity:1;fill-rule:nonzero;stroke:none" /></g></g></g><g
       id="g3634"><g
         clip-path="url(#clipPath3638)"
         id="g3636"><g
           transform="matrix(0.1588665,0,0,0.1588665,450.5304,118.55937)"
           id="g3642"><path
             d="M 14,66.900002 C 14,38 38,14 66.900002,14 L 72,14 72,-1 66.900002,-1 C 29.700001,-1 -1,29.700001 -1,66.900002 L -1,72 l 15,0 0,-5.099998 z"
             id="path3644"
             style="fill:white;fill-opacity:1;fill-rule:nonzero;stroke:none" /></g><g
           transform="matrix(0.1588665,0,0,0.1588665,450.21265,118.55937)"
           id="g3646"><path
             d="M 433.10001,-1 428,-1 l 0,15 5.10001,0 C 462,14 486,38 486,66.900002 L 486,72 l 15,0 0,-5.099998 C 501,29.700001 470.29999,-1 433.10001,-1 z"
             id="path3648"
             style="fill:white;fill-opacity:1;fill-rule:nonzero;stroke:none" /></g><g
           transform="matrix(0.1588665,0,0,0.1588665,450.37152,118.55937)"
           id="g3650"><path
             d="m 70,-1 360,0 0,15 -360,0 0,-15 z"
             id="path3652"
             style="fill:white;fill-opacity:1;fill-rule:nonzero;stroke:none" /></g><g
           transform="matrix(0.1588665,0,0,0.1588665,450.5304,118.40051)"
           id="g3654"><path
             d="m -1,70 15,0 0,360 -15,0 0,-360 z"
             id="path3656"
             style="fill:white;fill-opacity:1;fill-rule:nonzero;stroke:none" /></g><g
           transform="matrix(0.1588665,0,0,0.1588665,450.37152,118.24164)"
           id="g3658"><path
             d="m 70,486 360,0 0,15 -360,0 0,-15 z"
             id="path3660"
             style="fill:white;fill-opacity:1;fill-rule:nonzero;stroke:none" /></g><g
           transform="matrix(0.1588665,0,0,0.1588665,450.5304,118.24164)"
           id="g3662"><path
             d="M 66.900002,486 C 38,486 14,462 14,433.10001 L 14,428 l -15,0 0,5.10001 C -1,470.30002 29.700001,501 66.900002,501 L 72,501 l 0,-15 -5.099998,0 z"
             id="path3664"
             style="fill:white;fill-opacity:1;fill-rule:nonzero;stroke:none" /></g><g
           transform="matrix(0.1588665,0,0,0.1588665,450.21265,118.40051)"
           id="g3666"><path
             d="m 486,70 15,0 0,360 -15,0 0,-360 z"
             id="path3668"
             style="fill:white;fill-opacity:1;fill-rule:nonzero;stroke:none" /></g><g
           transform="matrix(0.1588665,0,0,0.1588665,450.21265,118.24164)"
           id="g3670"><path
             d="M 501,433.10001 501,428 l -15,0 0,5.10001 C 486,462 462,486 433.10001,486 L 428,486 l 0,15 5.10001,0 C 470.29999,501 501,470.29999 501,433.10001 z"
             id="path3672"
             style="fill:white;fill-opacity:1;fill-rule:nonzero;stroke:none" /></g></g></g><g
       id="g3674"><g
         clip-path="url(#clipPath3678)"
         id="g3676"><g
           transform="matrix(0.08612212,0,0,0.08563556,472.10748,137.13477)"
           id="g3682"><path
             d="m 400.146,381.36401 0.014,-0.43798 -0.011,-0.43799 c -0.31101,-12.159 -4.79999,-36.65302 -15.513,-50.58899 -31.223,-40.814 -68.72,-60.05402 -129.263,-66.26001 -2.81301,-0.90701 -5.151,-4.95099 -6.95,-12.034 l -0.164,-0.644 -0.219,-0.623 c -1.17399,-3.35 -2.337,-7.162 -3.128,-10.14 48.79001,-18.85299 80.59701,-66.24299 79.40298,-118.757 C 323.57101,88.756042 310.28,58.182041 286.89099,35.350037 262.85898,11.889036 230.95599,-0.74996185 197.25198,0.03303528 164.06799,0.78803527 133.16399,14.420035 110.23299,38.418034 87.301987,62.416031 75.087982,93.909035 75.842987,127.09204 c 1.130997,49.73801 31.570003,93.758 77.635013,112.403 -0.377,3.907 -1.26,9.451 -1.93,12.98801 -2.01199,10.53001 -6.02099,11.22801 -7.84399,11.45399 -59.934006,6.318 -97.071999,25.42999 -128.154007,65.93399 C 4.829,343.827 0.33000001,368.31799 0.014,380.479 L 0,380.892 l 0.016,0.44101 c 0.062,2.39499 0.02700001,30.074 -0.008,46.991 0,29.20401 23.76,52.96398 52.963001,52.96398 l 294.218999,0 c 29.20401,0 52.96302,-23.76001 52.96302,-52.996 -0.034,-16.88299 -0.067,-44.56299 -0.007,-46.92798 z m -52.95499,69.926 -294.21801,0 c -12.661999,0 -22.963,-10.302 -22.963,-22.93201 0.021,-10.04901 0.081,-42.00699 0.004,-47.39599 0.336,-10.06202 4.438,-26.443 9.334,-32.81501 26.208999,-34.155 55.379005,-48.89599 107.62499,-54.38299 l 0.239,-0.027 c 17.567,-2.13199 29.892,-15.11401 33.812,-35.638 0.44099,-2.325 2.643,-14.29601 2.643,-21.62399 0,-14.91201 -14.367,-22.666 -17.24699,-24.068 l -1.041,-0.459 c -35.305,-13.995 -58.675,-47.56802 -59.537,-85.533 -0.573,-25.173 8.691,-49.062008 26.087,-67.267002 17.39601,-18.204994 40.838,-28.545 66.01,-29.118 51.791,-1.181 95.21499,40.576 96.389,92.098002 0.92099,40.506 -24.03299,76.993 -62.09399,90.79199 l -0.91499,0.366 c -8.402,3.687 -17.38201,11.577 -17.38201,22.666 0,6.566 3.40199,17.424 5.584,23.709 6.28501,23.888 19.97,31.414 30.392,33.51001 l 0.729,0.146 0.739,0.074 c 53.31201,5.31299 82.97,20.14899 109.45099,54.767 4.89401,6.367 8.99201,22.746 9.319,32.80099 -0.077,5.375 -0.018,37.349 0.004,47.36899 -10e-4,12.659 -10.301,22.96201 -22.96399,22.96201 z"
             id="path3684"
             style="fill:#009b31;fill-opacity:1;fill-rule:nonzero;stroke:none" /></g></g></g><g
       id="g3686"><g
         clip-path="url(#clipPath3690)"
         id="g3688"><g
           transform="translate(19,310)"
           id="g3694"><g
             id="g3696" /><g
             transform="matrix(1,0,0,-1,0,174)"
             id="g3722"><g
               clip-path="url(#clipPath3698)"
               id="g3724"
               style="opacity:0.34901961"><g
                 transform="matrix(1,0,0,-1,0,174)"
                 id="g3726"><g
                   id="g3728"><g
                     clip-path="url(#clipPath3702)"
                     id="g3730"><g
                       transform="matrix(0.34471032,0,0,0.34471032,0.48362732,0.98864746)"
                       id="g3732"><path
                         d="m 482.47601,395.25 c 11.24701,19.13199 12.16501,43.60001 0.276,64.189 -17.59298,30.46701 -56.553,40.906 -87.01501,23.31298 C 349.202,455.383 288.98199,462.97198 250.00999,500 l -0.027,0 c -38.237,-36.33801 -97.162,-44.99701 -145.237,-17.52701 -19.127996,11.25 -43.602998,12.168 -64.19,0.275 C 10.094,465.159 -0.34400177,426.202 17.242001,395.73599 44.618,349.20901 37.022999,288.98401 0,250.013 L 0,249.99 C 36.334,211.75 44.986,152.83101 17.52,104.75401 6.2700005,85.622009 5.3550005,61.154015 17.248001,40.568016 34.837002,10.094015 73.796997,-0.34498215 104.259,17.245016 150.791,44.613998 211.015,37.027 249.987,0 l 0.027,0 c 39.40001,37.432999 98.65898,44.346001 145.72899,17.245001 30.46201,-17.59300057 69.422,-7.154 87.01502,23.315 11.889,20.590001 10.971,45.062001 -0.28,64.196999 -27.46701,48.07801 -18.80799,106.989 17.522,145.22899 l 0,0.023 C 463.66299,288.254 455.01099,347.173 482.47601,395.25 M 72.407997,72.412003 c 0,118.387997 0,236.783007 0,355.176007 118.396003,0 236.788993,0 355.183983,0 0,-118.393 0,-236.78799 0,-355.175992 -118.39499,-1.5e-5 -236.79198,-1.5e-5 -355.183983,-1.5e-5 z"
                         id="path3734"
                         style="fill:#ffbd4a;fill-opacity:1;fill-rule:nonzero;stroke:none" /></g></g></g><g
                   id="g3736"><g
                     clip-path="url(#clipPath3706)"
                     id="g3738"><g
                       transform="matrix(323.07901,0,0,-125.81658,-74.878281,150.07452)"
                       id="g3740">&gt;</g></g></g><g
                   id="g3744"><g
                     clip-path="url(#clipPath3710)"
                     id="g3746"><g
                       transform="matrix(0.09136499,0,0,0.1143578,62.970596,57.283051)"
                       id="g3748"><path
                         d="m 48,49 403,0 0,402.10001 -403,0 L 48,49 z"
                         id="path3750"
                         style="fill:#b3e1c1;fill-opacity:1;fill-rule:nonzero;stroke:none" /></g><g
                       transform="matrix(0.09136499,0,0,0.6587078,62.970596,-176.90179)"
                       id="g3752"><path
                         d="m 68,431 363,0 0,63 -363,0 0,-63 z"
                         id="path3754"
                         style="fill:#b3e1c1;fill-opacity:1;fill-rule:nonzero;stroke:none" /><path
                         d="m 68,485 363,0 0,15 -363,0 0,-15 z"
                         id="path3756"
                         style="fill:#009b31;fill-opacity:1;fill-rule:nonzero;stroke:none" /></g><g
                       transform="matrix(0.65760922,0,0,0.1143578,25.123596,57.283051)"
                       id="g3758"><path
                         d="M 6,67 68,67 68,433 6,433 6,67 z"
                         id="path3760"
                         style="fill:#b3e1c1;fill-opacity:1;fill-rule:nonzero;stroke:none" /><path
                         d="M 0,69 15,69 15,431 0,431 0,69 z"
                         id="path3762"
                         style="fill:#009b31;fill-opacity:1;fill-rule:nonzero;stroke:none" /></g><g
                       transform="matrix(0.65760922,0,0,0.1143578,-180.6058,57.283051)"
                       id="g3764"><path
                         d="m 431,69 63,0 0,362 -63,0 0,-362 z"
                         id="path3766"
                         style="fill:#b3e1c1;fill-opacity:1;fill-rule:nonzero;stroke:none" /><path
                         d="m 485,69 15,0 0,362 -15,0 0,-362 z"
                         id="path3768"
                         style="fill:#009b31;fill-opacity:1;fill-rule:nonzero;stroke:none" /></g><g
                       transform="matrix(0.65760922,0,0,0.6587078,-180.6058,-176.90179)"
                       id="g3770"><path
                         d="M 434.20001,494 C 467.30002,494 494,467.39999 494,434.20001 L 494,431 l -63,0 0,63 3.20001,0 z"
                         id="path3772"
                         style="fill:#b3e1c1;fill-opacity:1;fill-rule:nonzero;stroke:none" /><path
                         d="M 432.70001,485 429,485 l 0,15 3.70001,0 C 469.90002,500 500,469.89999 500,432.70001 L 500,429 l -15,0 0,3.70001 C 485,461.60001 461.60001,485 432.70001,485 z"
                         id="path3774"
                         style="fill:#009b31;fill-opacity:1;fill-rule:nonzero;stroke:none" /></g><g
                       transform="matrix(0.65760922,0,0,0.6587078,25.123596,-176.90179)"
                       id="g3776"><path
                         d="M 65.800003,494 68,494 l 0,-63 -62,0 0,3.20001 C 6,467.39999 32.599998,494 65.800003,494 z"
                         id="path3778"
                         style="fill:#b3e1c1;fill-opacity:1;fill-rule:nonzero;stroke:none" /><path
                         d="m 0,437.5 c 2.5,35 31.700001,62.5 67.300003,62.5 L 70,500 l 0,-15 -2.699997,0 C 38.400002,485 15,461.60001 15,432.70001 L 15,429 l -15,0 0,3.70001 c 0,1.59998 -0.1,3.19998 0,4.79999 z"
                         id="path3780"
                         style="fill:#009b31;fill-opacity:1;fill-rule:nonzero;stroke:none" /></g><g
                       transform="matrix(0.09136499,0,0,0.6587078,62.970596,20.381622)"
                       id="g3782"><path
                         d="M 66,6 433,6 433,69 66,69 66,6 z"
                         id="path3784"
                         style="fill:#b3e1c1;fill-opacity:1;fill-rule:nonzero;stroke:none" /><path
                         d="M 67,0 432,0 432,15 67,15 67,0 z"
                         id="path3786"
                         style="fill:#009b31;fill-opacity:1;fill-rule:nonzero;stroke:none" /></g><g
                       transform="matrix(0.65760922,0,0,0.6587078,-180.6058,20.381622)"
                       id="g3788"><path
                         d="M 434.20001,6 431,6 l 0,63 63,0 0,-3.199997 C 494,32.599998 467.39999,6 434.20001,6 z"
                         id="path3790"
                         style="fill:#b3e1c1;fill-opacity:1;fill-rule:nonzero;stroke:none" /><path
                         d="M 485,67.300003 485,71 l 15,0 0,-3.699997 C 500,30.1 469.89999,0 432.70001,0 L 429,0 l 0,15 3.70001,0 C 461.60001,15 485,38.400002 485,67.300003 z"
                         id="path3792"
                         style="fill:#009b31;fill-opacity:1;fill-rule:nonzero;stroke:none" /></g><g
                       transform="matrix(0.65760922,0,0,0.6587078,25.123596,20.381622)"
                       id="g3794"><path
                         d="M 6,65.800003 6,69 68,69 68,6 65.800003,6 C 32.599998,6 6,32.599998 6,65.800003 z"
                         id="path3796"
                         style="fill:#b3e1c1;fill-opacity:1;fill-rule:nonzero;stroke:none" /><path
                         d="M 15,67.300003 C 15,38.400002 38.400002,15 67.300003,15 L 70,15 70,0 67.300003,0 C 31.700001,0 2.5,27.5 0,62.5 l 0,8.5 15,0 0,-3.699997 z"
                         id="path3798"
                         style="fill:#009b31;fill-opacity:1;fill-rule:nonzero;stroke:none" /></g></g></g><g
                   id="g3800"><g
                     clip-path="url(#clipPath3714)"
                     id="g3802"><g
                       transform="matrix(0.15437028,0,0,0.15437028,49.347069,44.606506)"
                       id="g3804"><path
                         d="M 14,66.900002 C 14,38 38,14 66.900002,14 L 72,14 72,-1 66.900002,-1 C 29.700001,-1 -1,29.700001 -1,66.900002 L -1,72 l 15,0 0,-5.099998 z"
                         id="path3806"
                         style="fill:white;fill-opacity:1;fill-rule:nonzero;stroke:none" /></g><g
                       transform="matrix(0.15437028,0,0,0.15437028,49.038322,44.606506)"
                       id="g3808"><path
                         d="M 433.10001,-1 428,-1 l 0,15 5.10001,0 C 462,14 486,38 486,66.900002 L 486,72 l 15,0 0,-5.099998 C 501,29.700001 470.29999,-1 433.10001,-1 z"
                         id="path3810"
                         style="fill:white;fill-opacity:1;fill-rule:nonzero;stroke:none" /></g><g
                       transform="matrix(0.15437028,0,0,0.15437028,49.192696,44.606506)"
                       id="g3812"><path
                         d="m 70,-1 360,0 0,15 -360,0 0,-15 z"
                         id="path3814"
                         style="fill:white;fill-opacity:1;fill-rule:nonzero;stroke:none" /></g><g
                       transform="matrix(0.15437028,0,0,0.15437028,49.347069,44.452148)"
                       id="g3816"><path
                         d="m -1,70 15,0 0,360 -15,0 0,-360 z"
                         id="path3818"
                         style="fill:white;fill-opacity:1;fill-rule:nonzero;stroke:none" /></g><g
                       transform="matrix(0.15437028,0,0,0.15437028,49.192696,44.297791)"
                       id="g3820"><path
                         d="m 70,486 360,0 0,15 -360,0 0,-15 z"
                         id="path3822"
                         style="fill:white;fill-opacity:1;fill-rule:nonzero;stroke:none" /></g><g
                       transform="matrix(0.15437028,0,0,0.15437028,49.347069,44.297791)"
                       id="g3824"><path
                         d="M 66.900002,486 C 38,486 14,462 14,433.10001 L 14,428 l -15,0 0,5.10001 C -1,470.30002 29.700001,501 66.900002,501 L 72,501 l 0,-15 -5.099998,0 z"
                         id="path3826"
                         style="fill:white;fill-opacity:1;fill-rule:nonzero;stroke:none" /></g><g
                       transform="matrix(0.15437028,0,0,0.15437028,49.038322,44.452148)"
                       id="g3828"><path
                         d="m 486,70 15,0 0,360 -15,0 0,-360 z"
                         id="path3830"
                         style="fill:white;fill-opacity:1;fill-rule:nonzero;stroke:none" /></g><g
                       transform="matrix(0.15437028,0,0,0.15437028,49.038322,44.297791)"
                       id="g3832"><path
                         d="M 501,433.10001 501,428 l -15,0 0,5.10001 C 486,462 462,486 433.10001,486 L 428,486 l 0,15 5.10001,0 C 470.29999,501 501,470.29999 501,433.10001 z"
                         id="path3834"
                         style="fill:white;fill-opacity:1;fill-rule:nonzero;stroke:none" /></g></g></g><g
                   id="g3836"><g
                     clip-path="url(#clipPath3718)"
                     id="g3838"><g
                       transform="matrix(0.44962218,0,0,0.44962218,59.683884,55.692688)"
                       id="g3840"><path
                         d="m 77.5,22.5 c -1.384003,0 -2.5,1.115999 -2.5,2.5 0,9.795998 -0.751999,13.456001 -9.367996,17.764 -1.295998,0.647999 -0.632004,1.203999 -4.632,1.720001 l 0,-12.239998 C 69,31.048004 74.252007,24.916004 74.252007,17.496002 c 0,-8.2720001 -6.351998,-14.9999998 -14.619999,-14.9999998 -8.272,0 -15.068001,6.7280006 -15.068001,14.9999998 0,7.416001 4.436001,13.552 12.436001,14.748001 l 0,11.396 c 0,-0.284 -1.008,-0.551998 -1.668,-0.875999 -8.979999,-4.492001 -10.456001,-8.563999 -10.456001,-17.764 0,-1.384001 -1.056,-2.5 -2.436001,-2.5 -1.380001,0 -2.467998,1.115999 -2.467998,2.5 0,10.32 2.080002,16.596 13.36,22.236 0.32,0.155998 0.616001,0.271999 0.924,0.419998 -5.043999,2.208 -9.256,5.32 -9.256,12.343998 0,4.863998 3.956001,7.764 8.652,10 -4.695999,2.248001 -8.647999,5.139999 -8.647999,10 0,4.867996 3.952,7.764 8.647999,10 -4.695999,2.248001 -8.647999,5.139999 -8.647999,10 0,4.712 3.14,7.64 7.071999,9.468 -0.04,0.18 -0.108002,0.344 -0.108002,0.532 0,1.388 0.876,2.5 2.251999,2.5 0.944,0 2.787998,-0.04 2.787998,-0.132 l 0,2.632 c 0,1.388 0.616001,2.5 2,2.5 1.383999,0 2,-1.112 2,-2.5 l 0,-2.844 c 4,0.328 5.484001,0.344 5.751999,0.344 1.388001,0 2.879997,-1.112 2.879997,-2.5 0,-0.424 0.052,-0.82 -0.143997,-1.172 C 72.616005,106.9 74.916,104.076 74.916,100 c 0,-4.860001 -3.907997,-7.751999 -8.596,-10 4.695999,-2.236 8.671997,-5.132004 8.671997,-10 0,-4.860001 -3.940003,-7.751999 -8.636002,-10 4.695999,-2.236 8.652001,-5.132004 8.652001,-10 0,-6.804001 -3.351998,-9.940002 -7.732003,-12.164001 0.452004,-0.212002 0.904,-0.376 1.356003,-0.599999 C 80.015999,41.543999 80.015999,34.964001 80.015999,25 80,23.615999 78.884003,22.5 77.5,22.5 z M 49.5,60 c 0,-4.507999 3.5,-6.268002 7.5,-8.271999 l 0,14.544002 c -4,-1.748001 -7.5,-3.675999 -7.5,-6.271999 l 0,-4e-6 z m 0,20 c 0,-2.592003 3.5,-4.524002 7.5,-6.264 l 0,12.540001 C 53,84.524002 49.5,82.596001 49.5,80 z m 0,20 c 0,-2.592003 3.5,-4.524002 7.5,-6.264 l 0,12.428 C 53,105.08 49.5,103.188 49.5,100 z m 19,0 c 0,3.568 -3.5,5.432 -7.5,6.416 l 0,-12.683998 c 4,1.744004 7.5,3.676003 7.5,6.267998 z m 0,-20 c 0,2.596001 -3.5,4.524002 -7.5,6.267998 l 0,-12.540001 c 4,1.748001 7.5,3.68 7.5,6.272003 z m 0,-20 c 0,2.596001 -3.5,4.519997 -7.5,6.267998 l 0,-15.116001 c 8,2.208 7.5,3.827999 7.5,8.847999 l 0,4e-6 z"
                         id="path3842"
                         style="fill:#009b31;fill-opacity:1;fill-rule:nonzero;stroke:none" /><path
                         d="m 37.5,15.5 -35,0 c -1.3840001,0 -2.5,0.868 -2.5,2.252001 0,0.788 0.36000001,19.295999 31.712,29.752001 0.256,0.084 0.524,0.064 0.788,0.064 0.712002,0 1.408001,-0.335999 1.891998,-0.891998 0.655999,-0.764 0.796002,-1.872002 0.344002,-2.772 -4.492001,-8.979999 0.236,-18.08 4.844002,-25.004 0.507999,-0.764 0.560001,-1.507999 0.127998,-2.319999 -0.444,-0.82 -1.287998,-1.08 -2.208,-1.08 l 0,-4e-6 z"
                         id="path3844"
                         style="fill:#009b31;fill-opacity:1;fill-rule:nonzero;stroke:none" /><path
                         d="m 117.5,15.5 -35,0 c -0.919998,0 -1.772003,0.256 -2.208,1.072 -0.428002,0.812001 -0.379997,1.676001 0.127998,2.440001 4.608002,6.924 9.335999,15.952 4.844002,24.931999 -0.452004,0.904 -0.311997,1.959999 0.344002,2.728001 0.484001,0.556 1.18,0.844002 1.891998,0.844002 0.260002,0 0.531998,-0.048 0.788002,-0.132 C 119.64,36.932003 120,18.544003 120,17.756002 c 0,-1.384 -1.116,-2.256 -2.5,-2.256 l 0,-2e-6 z"
                         id="path3846"
                         style="fill:#009b31;fill-opacity:1;fill-rule:nonzero;stroke:none" /></g></g></g></g></g></g></g><g
           transform="translate(212,313)"
           id="g3848"><g
             id="g3850" /><g
             transform="matrix(1,0,0,-1,0,169)"
             id="g3876"><g
               clip-path="url(#clipPath3852)"
               id="g3878"
               style="opacity:0.34901961"><g
                 transform="matrix(1,0,0,-1,0,169)"
                 id="g3880"><g
                   id="g3882"><g
                     clip-path="url(#clipPath3856)"
                     id="g3884"><g
                       transform="matrix(0.33421916,0,0,0.33421916,0.82115173,0.98614502)"
                       id="g3886"><path
                         d="m 482.47601,395.25 c 11.24701,19.13199 12.16501,43.60001 0.276,64.189 -17.59298,30.46701 -56.553,40.906 -87.01501,23.31298 C 349.202,455.383 288.98199,462.97198 250.00999,500 l -0.027,0 c -38.237,-36.33801 -97.162,-44.99701 -145.237,-17.52701 -19.127996,11.25 -43.602998,12.168 -64.19,0.275 C 10.094,465.159 -0.34400177,426.202 17.242001,395.73599 44.618,349.20901 37.022999,288.98401 0,250.013 L 0,249.99 C 36.334,211.75 44.986,152.83101 17.52,104.75401 6.2700005,85.622009 5.3550005,61.154015 17.248001,40.568016 34.837002,10.094015 73.796997,-0.34498215 104.259,17.245016 150.791,44.613998 211.015,37.027 249.987,0 l 0.027,0 c 39.40001,37.432999 98.65898,44.346001 145.72899,17.245001 30.46201,-17.59300057 69.422,-7.154 87.01502,23.315 11.889,20.590001 10.971,45.062001 -0.28,64.196999 -27.46701,48.07801 -18.80799,106.989 17.522,145.22899 l 0,0.023 C 463.66299,288.254 455.01099,347.173 482.47601,395.25 M 72.407997,72.412003 c 0,118.387997 0,236.783007 0,355.176007 118.396003,0 236.788993,0 355.183983,0 0,-118.393 0,-236.78799 0,-355.175992 -118.39499,-1.5e-5 -236.79198,-1.5e-5 -355.183983,-1.5e-5 z"
                         id="path3888"
                         style="fill:#ffbd4a;fill-opacity:1;fill-rule:nonzero;stroke:none" /></g></g></g><g
                   id="g3890"><g
                     clip-path="url(#clipPath3860)"
                     id="g3892"><g
                       transform="matrix(313.24619,0,0,-121.98739,-72.247131,145.53464)"
                       id="g3894">&gt;</g></g></g><g
                   id="g3898"><g
                     clip-path="url(#clipPath3864)"
                     id="g3900"><g
                       transform="matrix(0.08806323,0,0,0.10986059,62.665527,56.552856)"
                       id="g3902"><path
                         d="m 48,49 403,0 0,402.10001 -403,0 L 48,49 z"
                         id="path3904"
                         style="fill:#b3e1c1;fill-opacity:1;fill-rule:nonzero;stroke:none" /></g><g
                       transform="matrix(0.08806323,0,0,0.63280362,62.665527,-168.4225)"
                       id="g3906"><path
                         d="m 68,431 363,0 0,63 -363,0 0,-63 z"
                         id="path3908"
                         style="fill:#b3e1c1;fill-opacity:1;fill-rule:nonzero;stroke:none" /><path
                         d="m 68,485 363,0 0,15 -363,0 0,-15 z"
                         id="path3910"
                         style="fill:#009b31;fill-opacity:1;fill-rule:nonzero;stroke:none" /></g><g
                       transform="matrix(0.63384444,0,0,0.10986059,26.186249,56.552856)"
                       id="g3912"><path
                         d="M 6,67 68,67 68,433 6,433 6,67 z"
                         id="path3914"
                         style="fill:#b3e1c1;fill-opacity:1;fill-rule:nonzero;stroke:none" /><path
                         d="M 0,69 15,69 15,431 0,431 0,69 z"
                         id="path3916"
                         style="fill:#009b31;fill-opacity:1;fill-rule:nonzero;stroke:none" /></g><g
                       transform="matrix(0.63384444,0,0,0.10986059,-172.10847,56.552856)"
                       id="g3918"><path
                         d="m 431,69 63,0 0,362 -63,0 0,-362 z"
                         id="path3920"
                         style="fill:#b3e1c1;fill-opacity:1;fill-rule:nonzero;stroke:none" /><path
                         d="m 485,69 15,0 0,362 -15,0 0,-362 z"
                         id="path3922"
                         style="fill:#009b31;fill-opacity:1;fill-rule:nonzero;stroke:none" /></g><g
                       transform="matrix(0.63384444,0,0,0.63280362,-172.10847,-168.4225)"
                       id="g3924"><path
                         d="M 434.20001,494 C 467.30002,494 494,467.39999 494,434.20001 L 494,431 l -63,0 0,63 3.20001,0 z"
                         id="path3926"
                         style="fill:#b3e1c1;fill-opacity:1;fill-rule:nonzero;stroke:none" /><path
                         d="M 432.70001,485 429,485 l 0,15 3.70001,0 C 469.90002,500 500,469.89999 500,432.70001 L 500,429 l -15,0 0,3.70001 C 485,461.60001 461.60001,485 432.70001,485 z"
                         id="path3928"
                         style="fill:#009b31;fill-opacity:1;fill-rule:nonzero;stroke:none" /></g><g
                       transform="matrix(0.63384444,0,0,0.63280362,26.186249,-168.4225)"
                       id="g3930"><path
                         d="M 65.800003,494 68,494 l 0,-63 -62,0 0,3.20001 C 6,467.39999 32.599998,494 65.800003,494 z"
                         id="path3932"
                         style="fill:#b3e1c1;fill-opacity:1;fill-rule:nonzero;stroke:none" /><path
                         d="m 0,437.5 c 2.5,35 31.700001,62.5 67.300003,62.5 L 70,500 l 0,-15 -2.699997,0 C 38.400002,485 15,461.60001 15,432.70001 L 15,429 l -15,0 0,3.70001 c 0,1.59998 -0.1,3.19998 0,4.79999 z"
                         id="path3934"
                         style="fill:#009b31;fill-opacity:1;fill-rule:nonzero;stroke:none" /></g><g
                       transform="matrix(0.08806323,0,0,0.63280362,62.665527,21.1026)"
                       id="g3936"><path
                         d="M 66,6 433,6 433,69 66,69 66,6 z"
                         id="path3938"
                         style="fill:#b3e1c1;fill-opacity:1;fill-rule:nonzero;stroke:none" /><path
                         d="M 67,0 432,0 432,15 67,15 67,0 z"
                         id="path3940"
                         style="fill:#009b31;fill-opacity:1;fill-rule:nonzero;stroke:none" /></g><g
                       transform="matrix(0.63384444,0,0,0.63280362,-172.10847,21.1026)"
                       id="g3942"><path
                         d="M 434.20001,6 431,6 l 0,63 63,0 0,-3.199997 C 494,32.599998 467.39999,6 434.20001,6 z"
                         id="path3944"
                         style="fill:#b3e1c1;fill-opacity:1;fill-rule:nonzero;stroke:none" /><path
                         d="M 485,67.300003 485,71 l 15,0 0,-3.699997 C 500,30.1 469.89999,0 432.70001,0 L 429,0 l 0,15 3.70001,0 C 461.60001,15 485,38.400002 485,67.300003 z"
                         id="path3946"
                         style="fill:#009b31;fill-opacity:1;fill-rule:nonzero;stroke:none" /></g><g
                       transform="matrix(0.63384444,0,0,0.63280362,26.186249,21.1026)"
                       id="g3948"><path
                         d="M 6,65.800003 6,69 68,69 68,6 65.800003,6 C 32.599998,6 6,32.599998 6,65.800003 z"
                         id="path3950"
                         style="fill:#b3e1c1;fill-opacity:1;fill-rule:nonzero;stroke:none" /><path
                         d="M 15,67.300003 C 15,38.400002 38.400002,15 67.300003,15 L 70,15 70,0 67.300003,0 C 31.700001,0 2.5,27.5 0,62.5 l 0,8.5 15,0 0,-3.699997 z"
                         id="path3952"
                         style="fill:#009b31;fill-opacity:1;fill-rule:nonzero;stroke:none" /></g></g></g><g
                   id="g3954"><g
                     clip-path="url(#clipPath3868)"
                     id="g3956"><g
                       transform="matrix(0.14987406,0,0,0.14987406,49.680084,46.098236)"
                       id="g3958"><path
                         d="M 14,66.900002 C 14,38 38,14 66.900002,14 L 72,14 72,-1 66.900002,-1 C 29.700001,-1 -1,29.700001 -1,66.900002 L -1,72 l 15,0 0,-5.099998 z"
                         id="path3960"
                         style="fill:white;fill-opacity:1;fill-rule:nonzero;stroke:none" /></g><g
                       transform="matrix(0.14987406,0,0,0.14987406,49.380341,46.098236)"
                       id="g3962"><path
                         d="M 433.10001,-1 428,-1 l 0,15 5.10001,0 C 462,14 486,38 486,66.900002 L 486,72 l 15,0 0,-5.099998 C 501,29.700001 470.29999,-1 433.10001,-1 z"
                         id="path3964"
                         style="fill:white;fill-opacity:1;fill-rule:nonzero;stroke:none" /></g><g
                       transform="matrix(0.14987406,0,0,0.14987406,49.530212,46.098236)"
                       id="g3966"><path
                         d="m 70,-1 360,0 0,15 -360,0 0,-15 z"
                         id="path3968"
                         style="fill:white;fill-opacity:1;fill-rule:nonzero;stroke:none" /></g><g
                       transform="matrix(0.14987406,0,0,0.14987406,49.680084,45.948364)"
                       id="g3970"><path
                         d="m -1,70 15,0 0,360 -15,0 0,-360 z"
                         id="path3972"
                         style="fill:white;fill-opacity:1;fill-rule:nonzero;stroke:none" /></g><g
                       transform="matrix(0.14987406,0,0,0.14987406,49.530212,45.798492)"
                       id="g3974"><path
                         d="m 70,486 360,0 0,15 -360,0 0,-15 z"
                         id="path3976"
                         style="fill:white;fill-opacity:1;fill-rule:nonzero;stroke:none" /></g><g
                       transform="matrix(0.14987406,0,0,0.14987406,49.680084,45.798492)"
                       id="g3978"><path
                         d="M 66.900002,486 C 38,486 14,462 14,433.10001 L 14,428 l -15,0 0,5.10001 C -1,470.30002 29.700001,501 66.900002,501 L 72,501 l 0,-15 -5.099998,0 z"
                         id="path3980"
                         style="fill:white;fill-opacity:1;fill-rule:nonzero;stroke:none" /></g><g
                       transform="matrix(0.14987406,0,0,0.14987406,49.380341,45.948364)"
                       id="g3982"><path
                         d="m 486,70 15,0 0,360 -15,0 0,-360 z"
                         id="path3984"
                         style="fill:white;fill-opacity:1;fill-rule:nonzero;stroke:none" /></g><g
                       transform="matrix(0.14987406,0,0,0.14987406,49.380341,45.798492)"
                       id="g3986"><path
                         d="M 501,433.10001 501,428 l -15,0 0,5.10001 C 486,462 462,486 433.10001,486 L 428,486 l 0,15 5.10001,0 C 470.29999,501 501,470.29999 501,433.10001 z"
                         id="path3988"
                         style="fill:white;fill-opacity:1;fill-rule:nonzero;stroke:none" /></g></g></g><g
                   id="g3990"><g
                     clip-path="url(#clipPath3872)"
                     id="g3992"><g
                       transform="matrix(0.12382597,0,0,0.12371858,58.528412,56.439545)"
                       id="g3994"><path
                         d="M 471.827,96.050003 471.827,15 c 0,-8.2840004 -6.71601,-15 -15,-15 L 346.96201,0 c -0.02,0 -0.037,0.003 -0.057,0.003 -0.02,0 -0.037,-0.003 -0.056,-0.003 L 236.981,0 c -0.14799,0 -0.292,0.018 -0.43899,0.022 C 236.395,0.018 236.25101,0 236.103,0 L 126.236,0 c -0.23,0 -0.453,0.024 -0.681,0.034 C 125.328,0.024 125.105,0 124.875,0 L 15.008,0 C 6.724,0 0.00800037,6.7160001 0.00800037,15 l 0,80.428001 c -0.083,4.049004 0.15800001,29.791999 18.58600163,48.785999 0.611999,0.63001 1.243,1.234 1.878,1.833 l 0,275.061 c 0,8.284 6.716,15 14.999998,15 l 394.16399,0 c 8.28399,0 15,-6.716 15,-15 l 0,-269.498 c 4.388,-2.80701 8.33801,-6.11301 11.80499,-9.953 16.25702,-18.002 15.76303,-40.318 15.38602,-45.606997 z m -109.86499,-0.442001 0,-65.608002 79.86499,0 0,66.662003 c 0,0.509002 0.025,1.017997 0.078,1.524002 0.013,0.134002 0.96799,13.734005 -7.72901,23.365995 -6.82501,7.558 -18.39199,11.39101 -34.37698,11.39101 -12.10901,0 -21.39001,-3.18801 -27.578,-9.476 -10.12702,-10.288 -10.26599,-26.436996 -10.26401,-27.459999 0.008,-0.171012 0.005,-0.197013 0.005,-0.399009 z m -109.98101,0 0,-65.608002 79.86699,0 0,66.663002 c 0,0.509003 0.026,1.016998 0.077,1.524002 0.015,0.133003 0.97,13.733006 -7.72901,23.364996 -6.82501,7.558 -18.393,11.39101 -34.37799,11.39101 -12.10998,0 -21.39099,-3.18801 -27.578,-9.476 -10.127,-10.288 -10.26601,-26.436996 -10.26401,-27.459999 0.009,-0.171012 0.005,-0.197013 0.005,-0.399009 z m -110.746,0 0,-65.608002 79.868,0 0,66.662003 c 0,0.508003 0.026,1.016998 0.078,1.523002 0.014,0.133003 0.968,13.735005 -7.731,23.366995 -6.82601,7.558 -18.392,11.39101 -34.377,11.39101 -12.11,0 -21.38901,-3.18801 -27.57801,-9.476 -10.12699,-10.288 -10.266,-26.438003 -10.264,-27.459999 0.007,-0.171012 0.004,-0.197013 0.004,-0.399009 z m -111.227001,0 0,-65.608002 79.865991,0 0,66.662003 c 0,0.508003 0.026,1.016998 0.078,1.523002 0.014,0.133003 0.967,13.735005 -7.73201,23.366995 -6.824993,7.558 -18.390995,11.39101 -34.375996,11.39101 -12.111,0 -21.389,-3.18801 -27.577999,-9.476 -10.126999,-10.288 -10.264999,-26.438003 -10.263,-27.459999 0.007,-0.171012 0.005,-0.197013 0.005,-0.399009 z M 350.23499,406.108 l -70.72901,0 0,-170.641 70.72901,0 0,170.641 z m 64.401,0 -34.4,0 0,-174.379 c 0,-14.47999 -11.781,-26.26199 -26.26199,-26.26199 l -78.20502,0 c -14.48001,0 -26.26199,11.782 -26.26199,26.26199 l 0,174.379 -199.03499,0 0,-244.85901 c 5.424,1.12 11.213001,1.694 17.372002,1.694 24.830002,0 43.886998,-7.16099 56.640998,-21.28399 0.531,-0.588 1.042,-1.18201 1.539,-1.778 1.17501,1.473 2.431,2.923 3.799,4.33299 12.058,12.42799 28.628,18.729 49.25,18.729 24.83,0 43.886,-7.16099 56.64,-21.28399 0.444,-0.491 0.86999,-0.987 1.289,-1.484 1.108,1.372 2.28999,2.72301 3.567,4.04 12.058,12.42799 28.62799,18.729 49.25,18.729 24.83099,0 43.88901,-7.161 56.642,-21.285 0.306,-0.338 0.59399,-0.68201 0.888,-1.023 1.00101,1.21401 2.065,2.41 3.20001,3.579 12.05899,12.42799 28.62799,18.729 49.25,18.729 5.20599,0 10.14401,-0.334 14.83701,-0.96201 l 0,244.12601 -3e-5,0 z"
                         id="path3996"
                         style="fill:#009b31;fill-opacity:1;fill-rule:nonzero;stroke:none" /><path
                         d="m 178.694,200.933 -67.277,0 c -13.612999,0 -24.687996,11.076 -24.687996,24.688 l 0,39.982 0,27.293 0,39.98199 c 0,13.61301 11.074997,24.68799 24.688006,24.68799 l 67.27699,0 c 13.61301,0 24.688,-11.07501 24.687,-24.68799 l 0,-39.944 c 0,-0.013 0.001,-0.025 0.001,-0.038 l 0,-67.275 c 0,-13.613 -11.07499,-24.688 -24.688,-24.688 z m -61.965,30.00101 56.652,0 0,34.66999 0,21.98001 -56.652,0 0,-21.98001 0,-34.66999 z m 0,96.63398 0,-9.983 56.652,0 0,9.983 -56.652,0 z"
                         id="path3998"
                         style="fill:#009b31;fill-opacity:1;fill-rule:nonzero;stroke:none" /></g></g></g></g></g></g></g></g></g><g
       id="g4000"><g
         clip-path="url(#clipPath4004)"
         id="g4002"><g
           transform="matrix(0,-0.06707308,0.06703129,0,582.31641,381.77472)"
           id="g4008"><path
             d="m 37.147999,1.3890001 204.138001,0 0,97.2249979 -204.138001,0 0,-97.2249979 z"
             id="path4010"
             style="fill:#666;fill-opacity:1;fill-rule:nonzero;stroke:none" /></g><g
           transform="matrix(0,-0.06764226,0.06703129,0,582.31641,381.72821)"
           id="g4012"><path
             d="m 0.001,1.3890001 37.150002,0 0,97.2249979 -37.150002,0 0,-97.2249979 z"
             id="path4014"
             style="fill:#666;fill-opacity:1;fill-rule:nonzero;stroke:none" /></g><g
           transform="matrix(0,-0.06764226,0.06703129,0,582.31641,381.97971)"
           id="g4016"><path
             d="m 352.836,-83.677002 -85.849,0 93.64899,85.0660021 -119.34499,0 0,97.2249979 119.34499,0 -93.64899,85.063992 85.849,0 L 500.00101,50 352.836,-83.677002 z"
             id="path4018"
             style="fill:#666;fill-opacity:1;fill-rule:nonzero;stroke:none" /></g></g></g><g
       id="g4020"><g
         clip-path="url(#clipPath4024)"
         id="g4022"><g
           transform="matrix(0.15196165,-0.04834279,0.02116754,0.06653843,536.5885,451.27939)"
           id="g4028"><path
             d="m 37.147999,1.3890001 204.138001,0 0,97.2249979 -204.138001,0 0,-97.2249979 z"
             id="path4030"
             style="fill:#666;fill-opacity:1;fill-rule:nonzero;stroke:none" /></g><g
           transform="matrix(0.06641368,-0.02112785,0.02116754,0.06653843,539.83289,450.24728)"
           id="g4032"><path
             d="m 0.001,1.3890001 37.150002,0 0,97.2249979 -37.150002,0 0,-97.2249979 z"
             id="path4034"
             style="fill:#666;fill-opacity:1;fill-rule:nonzero;stroke:none" /></g><g
           transform="matrix(0.06641368,-0.02112785,0.02116754,0.06653843,557.16406,444.7338)"
           id="g4036"><path
             d="m 352.836,-83.677002 -85.849,0 93.64899,85.0660021 -119.34499,0 0,97.2249979 119.34499,0 -93.64899,85.063992 85.849,0 L 500.00101,50 352.836,-83.677002 z"
             id="path4038"
             style="fill:#666;fill-opacity:1;fill-rule:nonzero;stroke:none" /></g></g></g><g
       id="g4040"><g
         clip-path="url(#clipPath4044)"
         id="g4042"><g
           transform="matrix(-0.12215091,-0.06916522,0.03302788,-0.0583297,589.55304,235.03056)"
           id="g4048"><path
             d="m 37.147999,1.3890001 204.138001,0 0,97.2249979 -204.138001,0 0,-97.2249979 z"
             id="path4050"
             style="fill:#666;fill-opacity:1;fill-rule:nonzero;stroke:none" /></g><g
           transform="matrix(-0.05897528,-0.03339343,0.03302788,-0.0583297,587.14722,233.66832)"
           id="g4052"><path
             d="m 0.001,1.3890001 37.150002,0 0,97.2249979 -37.150002,0 0,-97.2249979 z"
             id="path4054"
             style="fill:#666;fill-opacity:1;fill-rule:nonzero;stroke:none" /></g><g
           transform="matrix(-0.05897528,-0.03339343,0.03302788,-0.0583297,574.36829,226.43254)"
           id="g4056"><path
             d="m 352.836,-83.677002 -85.849,0 93.64899,85.0660021 -119.34499,0 0,97.2249979 119.34499,0 -93.64899,85.063992 85.849,0 L 500.00101,50 352.836,-83.677002 z"
             id="path4058"
             style="fill:#666;fill-opacity:1;fill-rule:nonzero;stroke:none" /></g></g></g><g
       id="g4060"><g
         clip-path="url(#clipPath4064)"
         id="g4062"><g
           transform="matrix(0,-0.06707308,0.06703129,0,582.31641,300.84271)"
           id="g4068"><path
             d="m 37.147999,1.3890001 204.138001,0 0,97.2249979 -204.138001,0 0,-97.2249979 z"
             id="path4070"
             style="fill:#666;fill-opacity:1;fill-rule:nonzero;stroke:none" /></g><g
           transform="matrix(0,-0.06764226,0.06703129,0,582.31641,300.7962)"
           id="g4072"><path
             d="m 0.001,1.3890001 37.150002,0 0,97.2249979 -37.150002,0 0,-97.2249979 z"
             id="path4074"
             style="fill:#666;fill-opacity:1;fill-rule:nonzero;stroke:none" /></g><g
           transform="matrix(0,-0.06764226,0.06703129,0,582.31641,301.0477)"
           id="g4076"><path
             d="m 352.836,-83.677002 -85.849,0 93.64899,85.0660021 -119.34499,0 0,97.2249979 119.34499,0 -93.64899,85.063992 85.849,0 L 500.00101,50 352.836,-83.677002 z"
             id="path4078"
             style="fill:#666;fill-opacity:1;fill-rule:nonzero;stroke:none" /></g></g></g></g></svg>