<?xml version="1.0" encoding="UTF-8" standalone="no"?>
<!-- Created with Inkscape (http://www.inkscape.org/) -->

<svg xmlns:dc="http://purl.org/dc/elements/1.1/" xmlns:cc="http://creativecommons.org/ns#" xmlns:rdf="http://www.w3.org/1999/02/22-rdf-syntax-ns#" xmlns:svg="http://www.w3.org/2000/svg" xmlns="http://www.w3.org/2000/svg" version="1.1" width="881.25" height="738.75" id="svg9939" xml:space="preserve"><metadata id="metadata9945"><rdf:RDF><cc:Work rdf:about=""><dc:format>image/svg+xml</dc:format><dc:type rdf:resource="http://purl.org/dc/dcmitype/StillImage" /><dc:title></dc:title></cc:Work></rdf:RDF></metadata><defs id="defs9943"><clipPath id="clipPath9953"><path d="m 0,0 705,0 0,591.75 -705,0 L 0,0 z" id="path9955" /></clipPath><clipPath id="clipPath9965"><path d="M 705,591 705,0 0,0 l 0,591 705,0 z" id="path9967" /></clipPath><clipPath id="clipPath9977"><path d="m 621.75,76.5 -569.25,0 0,420 569.25,0 0,-420 z" id="path9979" /></clipPath><clipPath id="clipPath9989"><path d="m 190.5,159 -122.25,0 0,303.75 122.25,0 0,-303.75 z" id="path9991" /></clipPath><clipPath id="clipPath10001"><path d="m 603,89.25 -534.75,0 0,61.5 534.75,0 0,-61.5 z" id="path10003" /></clipPath><clipPath id="clipPath10013"><path d="m 600.75,159 -400.5,0 0,303.75 400.5,0 0,-303.75 z" id="path10015" /></clipPath><clipPath id="clipPath10025"><path d="M 705,591 705,0 0,0 l 0,591 705,0 z" id="path10027" /></clipPath><clipPath id="clipPath10309"><path d="m 527.95074,197.25 0,-10.81044 -215.90145,0 0,10.81044 215.90145,0 z" id="path10311" /></clipPath><clipPath id="clipPath10325"><path d="m 527.20074,246 0,-10.81044 -215.90145,0 0,10.81044 215.90145,0 z" id="path10327" /></clipPath><clipPath id="clipPath10341"><path d="m 414.73169,216.75 0,-11.53114 -102.71341,0 0,11.53114 102.71341,0 z" id="path10343" /></clipPath><clipPath id="clipPath10355"><path d="m 384.74146,277.5 0,-11.53113 -72.73292,0 0,11.53113 72.73292,0 z" id="path10357" /></clipPath><clipPath id="clipPath10369"><path d="m 461.97772,306.75 0,-11.53113 -149.95544,0 0,11.53113 149.95544,0 z" id="path10371" /></clipPath><clipPath id="clipPath10383"><path d="m 274.5,189.75 -61.5,0 0,3 61.5,0 0,-3 z" id="path10385" /></clipPath><clipPath id="clipPath10395"><path d="m 273.75,237.75 -61.5,0 0,3 61.5,0 0,-3 z" id="path10397" /></clipPath><clipPath id="clipPath10407"><path d="m 274.5,270 -61.5,0 0,3 61.5,0 0,-3 z" id="path10409" /></clipPath><clipPath id="clipPath10419"><path d="m 274.5,298.5 -61.5,0 0,3 61.5,0 0,-3 z" id="path10421" /></clipPath><clipPath id="clipPath10431"><path d="m 259.5,441 -46.5,0 0,16.5 46.5,0 0,-16.5 z" id="path10433" /></clipPath><clipPath id="clipPath10475"><path d="m 311.25,441 -46.5,0 0,16.5 46.5,0 0,-16.5 z" id="path10477" /></clipPath><clipPath id="clipPath10519"><path d="m 366.75,442.5 -46.5,0 0,16.5 46.5,0 0,-16.5 z" id="path10521" /></clipPath></defs><g transform="matrix(1.25,0,0,1.25,-2.6263296e-5,0)" id="g9947"><g id="g9973"><g clip-path="url(#clipPath9977)" id="g9975"><g transform="matrix(1.1384834,0,0,0.84000009,52.504158,76.5)" id="g9981"><path d="M 0,0 500,0 500,500 0,500 0,0 z" id="path9983" style="fill:#009b31;fill-opacity:1;fill-rule:nonzero;stroke:none" /></g></g></g><g id="g9985"><g clip-path="url(#clipPath9989)" id="g9987"><g transform="matrix(0.24449176,0,0,0.60749996,68.252068,159)" id="g9993"><path d="M 0,0 500,0 500,500 0,500 0,0 z" id="path9995" style="fill:#d9d9d9;fill-opacity:1;fill-rule:nonzero;stroke:none" /></g></g></g><g id="g9997"><g clip-path="url(#clipPath10001)" id="g9999"><g transform="matrix(1.0694603,0,0,0.12299999,68.259949,89.25)" id="g10005"><path d="M 0,0 500,0 500,500 0,500 0,0 z" id="path10007" style="fill:#99e265;fill-opacity:1;fill-rule:nonzero;stroke:none" /></g></g></g><g id="g10009"><g clip-path="url(#clipPath10013)" id="g10011"><g transform="matrix(0.8009699,0,0,0.60749996,200.25754,159)" id="g10017"><path d="M 0,0 500,0 500,500 0,500 0,0 z" id="path10019" style="fill:#d9d9d9;fill-opacity:1;fill-rule:nonzero;stroke:none" /></g></g></g><g id="g10021"><g clip-path="url(#clipPath10025)" id="g10023"><g transform="matrix(0.75,0,0,0.75,68.25,98.25)" id="g10029"><text transform="translate(29.3125,19)" id="text10031"><tspan x="0" y="0" id="tspan10033" style="font-size:18.78000069px;font-variant:normal;font-weight:normal;writing-mode:lr-tb;fill:#666;fill-opacity:1;fill-rule:nonzero;stroke:none;font-family:Arimo;-inkscape-font-specification:Arimo">M</tspan></text>
<text transform="translate(44.9375,19)" id="text10035"><tspan x="0" y="0" id="tspan10037" style="font-size:18.78000069px;font-variant:normal;font-weight:normal;writing-mode:lr-tb;fill:#666;fill-opacity:1;fill-rule:nonzero;stroke:none;font-family:Arimo;-inkscape-font-specification:Arimo">a</tspan></text>
<text transform="translate(55.359375,19)" id="text10039"><tspan x="0" y="0" id="tspan10041" style="font-size:18.78000069px;font-variant:normal;font-weight:normal;writing-mode:lr-tb;fill:#666;fill-opacity:1;fill-rule:nonzero;stroke:none;font-family:Arimo;-inkscape-font-specification:Arimo">x</tspan></text>
<text transform="translate(69.9375,19)" id="text10043"><tspan x="0" y="0" id="tspan10045" style="font-size:18.78000069px;font-variant:normal;font-weight:normal;writing-mode:lr-tb;fill:#666;fill-opacity:1;fill-rule:nonzero;stroke:none;font-family:Arimo;-inkscape-font-specification:Arimo">M</tspan></text>
<text transform="translate(85.5625,19)" id="text10047"><tspan x="0" y="0" id="tspan10049" style="font-size:18.78000069px;font-variant:normal;font-weight:normal;writing-mode:lr-tb;fill:#666;fill-opacity:1;fill-rule:nonzero;stroke:none;font-family:Arimo;-inkscape-font-specification:Arimo">u</tspan></text>
<text transform="translate(95.984375,19)" id="text10051"><tspan x="0" y="0" id="tspan10053" style="font-size:18.78000069px;font-variant:normal;font-weight:normal;writing-mode:lr-tb;fill:#666;fill-opacity:1;fill-rule:nonzero;stroke:none;font-family:Arimo;-inkscape-font-specification:Arimo">s</tspan></text>
<text transform="translate(105.35937,19)" id="text10055"><tspan x="0" y="0" id="tspan10057" style="font-size:18.78000069px;font-variant:normal;font-weight:normal;writing-mode:lr-tb;fill:#666;fill-opacity:1;fill-rule:nonzero;stroke:none;font-family:Arimo;-inkscape-font-specification:Arimo">t</tspan></text>
<text transform="translate(110.5625,19)" id="text10059"><tspan x="0" y="0" id="tspan10061" style="font-size:18.78000069px;font-variant:normal;font-weight:normal;writing-mode:lr-tb;fill:#666;fill-opacity:1;fill-rule:nonzero;stroke:none;font-family:Arimo;-inkscape-font-specification:Arimo">e</tspan></text>
<text transform="translate(120.98438,19)" id="text10063"><tspan x="0" y="0" id="tspan10065" style="font-size:18.78000069px;font-variant:normal;font-weight:normal;writing-mode:lr-tb;fill:#666;fill-opacity:1;fill-rule:nonzero;stroke:none;font-family:Arimo;-inkscape-font-specification:Arimo">r</tspan></text>
<text transform="translate(127.21875,19)" id="text10067"><tspan x="0" y="0" id="tspan10069" style="font-size:18.78000069px;font-variant:normal;font-weight:normal;writing-mode:lr-tb;fill:#666;fill-opacity:1;fill-rule:nonzero;stroke:none;font-family:Arimo;-inkscape-font-specification:Arimo">m</tspan></text>
<text transform="translate(142.84375,19)" id="text10071"><tspan x="0" y="0" id="tspan10073" style="font-size:18.78000069px;font-variant:normal;font-weight:normal;writing-mode:lr-tb;fill:#666;fill-opacity:1;fill-rule:nonzero;stroke:none;font-family:Arimo;-inkscape-font-specification:Arimo">a</tspan></text>
<text transform="translate(153.26562,19)" id="text10075"><tspan x="0" y="0" id="tspan10077" style="font-size:18.78000069px;font-variant:normal;font-weight:normal;writing-mode:lr-tb;fill:#666;fill-opacity:1;fill-rule:nonzero;stroke:none;font-family:Arimo;-inkscape-font-specification:Arimo">n</tspan></text>
</g><g transform="matrix(0.75,0,0,0.75,156.75,117)" id="g10079"><text transform="translate(0,14)" id="text10081"><tspan x="0" y="0" id="tspan10083" style="font-size:13.40999985px;font-variant:normal;font-weight:normal;writing-mode:lr-tb;fill:#666;fill-opacity:1;fill-rule:nonzero;stroke:none;font-family:Roboto;-inkscape-font-specification:Roboto-Regular">H</tspan></text>
<text transform="translate(9.5625,14)" id="text10085"><tspan x="0" y="0" id="tspan10087" style="font-size:13.40999985px;font-variant:normal;font-weight:normal;writing-mode:lr-tb;fill:#666;fill-opacity:1;fill-rule:nonzero;stroke:none;font-family:Roboto;-inkscape-font-specification:Roboto-Regular">a</tspan></text>
<text transform="translate(16.921875,14)" id="text10089"><tspan x="0" y="0" id="tspan10091" style="font-size:13.40999985px;font-variant:normal;font-weight:normal;writing-mode:lr-tb;fill:#666;fill-opacity:1;fill-rule:nonzero;stroke:none;font-family:Roboto;-inkscape-font-specification:Roboto-Regular">u</tspan></text>
<text transform="translate(24.53125,14)" id="text10093"><tspan x="0" y="0" id="tspan10095" style="font-size:13.40999985px;font-variant:normal;font-weight:normal;writing-mode:lr-tb;fill:#666;fill-opacity:1;fill-rule:nonzero;stroke:none;font-family:Roboto;-inkscape-font-specification:Roboto-Regular">p</tspan></text>
<text transform="translate(32.140625,14)" id="text10097"><tspan x="0" y="0" id="tspan10099" style="font-size:13.40999985px;font-variant:normal;font-weight:normal;writing-mode:lr-tb;fill:#666;fill-opacity:1;fill-rule:nonzero;stroke:none;font-family:Roboto;-inkscape-font-specification:Roboto-Regular">t</tspan></text>
<text transform="translate(36.765625,14)" id="text10101"><tspan x="0" y="0" id="tspan10103" style="font-size:13.40999985px;font-variant:normal;font-weight:normal;writing-mode:lr-tb;fill:#666;fill-opacity:1;fill-rule:nonzero;stroke:none;font-family:Roboto;-inkscape-font-specification:Roboto-Regular">s</tspan></text>
<text transform="translate(43.765625,14)" id="text10105"><tspan x="0" y="0" id="tspan10107" style="font-size:13.40999985px;font-variant:normal;font-weight:normal;writing-mode:lr-tb;fill:#666;fill-opacity:1;fill-rule:nonzero;stroke:none;font-family:Roboto;-inkscape-font-specification:Roboto-Regular">t</tspan></text>
<text transform="translate(48.390625,14)" id="text10109"><tspan x="0" y="0" id="tspan10111" style="font-size:13.40999985px;font-variant:normal;font-weight:normal;writing-mode:lr-tb;fill:#666;fill-opacity:1;fill-rule:nonzero;stroke:none;font-family:Roboto;-inkscape-font-specification:Roboto-Regular">r</tspan></text>
<text transform="translate(52.984375,14)" id="text10113"><tspan x="0" y="0" id="tspan10115" style="font-size:13.40999985px;font-variant:normal;font-weight:normal;writing-mode:lr-tb;fill:#666;fill-opacity:1;fill-rule:nonzero;stroke:none;font-family:Roboto;-inkscape-font-specification:Roboto-Regular">.</tspan></text>
<text transform="translate(59.890625,14)" id="text10117"><tspan x="0" y="0" id="tspan10119" style="font-size:13.40999985px;font-variant:normal;font-weight:normal;writing-mode:lr-tb;fill:#666;fill-opacity:1;fill-rule:nonzero;stroke:none;font-family:Roboto;-inkscape-font-specification:Roboto-Regular">4</tspan></text>
<text transform="translate(67.4375,14)" id="text10121"><tspan x="0" y="0" id="tspan10123" style="font-size:13.40999985px;font-variant:normal;font-weight:normal;writing-mode:lr-tb;fill:#666;fill-opacity:1;fill-rule:nonzero;stroke:none;font-family:Roboto;-inkscape-font-specification:Roboto-Regular">2</tspan></text>
<text transform="translate(0,32)" id="text10125"><tspan x="0" y="0" id="tspan10127" style="font-size:13.40999985px;font-variant:normal;font-weight:normal;writing-mode:lr-tb;fill:#666;fill-opacity:1;fill-rule:nonzero;stroke:none;font-family:Roboto;-inkscape-font-specification:Roboto-Regular">4</tspan></text>
<text transform="translate(7.546875,32)" id="text10129"><tspan x="0" y="0" id="tspan10131" style="font-size:13.40999985px;font-variant:normal;font-weight:normal;writing-mode:lr-tb;fill:#666;fill-opacity:1;fill-rule:nonzero;stroke:none;font-family:Roboto;-inkscape-font-specification:Roboto-Regular">2</tspan></text>
<text transform="translate(15.09375,32)" id="text10133"><tspan x="0" y="0" id="tspan10135" style="font-size:13.40999985px;font-variant:normal;font-weight:normal;writing-mode:lr-tb;fill:#666;fill-opacity:1;fill-rule:nonzero;stroke:none;font-family:Roboto;-inkscape-font-specification:Roboto-Regular">4</tspan></text>
<text transform="translate(22.640625,32)" id="text10137"><tspan x="0" y="0" id="tspan10139" style="font-size:13.40999985px;font-variant:normal;font-weight:normal;writing-mode:lr-tb;fill:#666;fill-opacity:1;fill-rule:nonzero;stroke:none;font-family:Roboto;-inkscape-font-specification:Roboto-Regular">2</tspan></text>
<text transform="translate(30.1875,32)" id="text10141"><tspan x="0" y="0" id="tspan10143" style="font-size:13.40999985px;font-variant:normal;font-weight:normal;writing-mode:lr-tb;fill:#666;fill-opacity:1;fill-rule:nonzero;stroke:none;font-family:Roboto;-inkscape-font-specification:Roboto-Regular">4</tspan></text>
<text transform="translate(37.734375,32)" id="text10145"><tspan x="0" y="0" id="tspan10147" style="font-size:13.40999985px;font-variant:normal;font-weight:normal;writing-mode:lr-tb;fill:#666;fill-opacity:1;fill-rule:nonzero;stroke:none;font-family:Roboto;-inkscape-font-specification:Roboto-Regular">2</tspan></text>
<text transform="translate(48.609375,32)" id="text10149"><tspan x="0" y="0" id="tspan10151" style="font-size:13.40999985px;font-variant:normal;font-weight:normal;writing-mode:lr-tb;fill:#666;fill-opacity:1;fill-rule:nonzero;stroke:none;font-family:Roboto;-inkscape-font-specification:Roboto-Regular">H</tspan></text>
<text transform="translate(58.171875,32)" id="text10153"><tspan x="0" y="0" id="tspan10155" style="font-size:13.40999985px;font-variant:normal;font-weight:normal;writing-mode:lr-tb;fill:#666;fill-opacity:1;fill-rule:nonzero;stroke:none;font-family:Roboto;-inkscape-font-specification:Roboto-Regular">a</tspan></text>
<text transform="translate(65.53125,32)" id="text10157"><tspan x="0" y="0" id="tspan10159" style="font-size:13.40999985px;font-variant:normal;font-weight:normal;writing-mode:lr-tb;fill:#666;fill-opacity:1;fill-rule:nonzero;stroke:none;font-family:Roboto;-inkscape-font-specification:Roboto-Regular">u</tspan></text>
<text transform="translate(73.140625,32)" id="text10161"><tspan x="0" y="0" id="tspan10163" style="font-size:13.40999985px;font-variant:normal;font-weight:normal;writing-mode:lr-tb;fill:#666;fill-opacity:1;fill-rule:nonzero;stroke:none;font-family:Roboto;-inkscape-font-specification:Roboto-Regular">p</tspan></text>
<text transform="translate(80.75,32)" id="text10165"><tspan x="0" y="0" id="tspan10167" style="font-size:13.40999985px;font-variant:normal;font-weight:normal;writing-mode:lr-tb;fill:#666;fill-opacity:1;fill-rule:nonzero;stroke:none;font-family:Roboto;-inkscape-font-specification:Roboto-Regular">t</tspan></text>
<text transform="translate(85.375,32)" id="text10169"><tspan x="0" y="0" id="tspan10171" style="font-size:13.40999985px;font-variant:normal;font-weight:normal;writing-mode:lr-tb;fill:#666;fill-opacity:1;fill-rule:nonzero;stroke:none;font-family:Roboto;-inkscape-font-specification:Roboto-Regular">s</tspan></text>
<text transform="translate(92.375,32)" id="text10173"><tspan x="0" y="0" id="tspan10175" style="font-size:13.40999985px;font-variant:normal;font-weight:normal;writing-mode:lr-tb;fill:#666;fill-opacity:1;fill-rule:nonzero;stroke:none;font-family:Roboto;-inkscape-font-specification:Roboto-Regular">t</tspan></text>
<text transform="translate(97,32)" id="text10177"><tspan x="0" y="0" id="tspan10179" style="font-size:13.40999985px;font-variant:normal;font-weight:normal;writing-mode:lr-tb;fill:#666;fill-opacity:1;fill-rule:nonzero;stroke:none;font-family:Roboto;-inkscape-font-specification:Roboto-Regular">a</tspan></text>
<text transform="translate(104.35937,32)" id="text10181"><tspan x="0" y="0" id="tspan10183" style="font-size:13.40999985px;font-variant:normal;font-weight:normal;writing-mode:lr-tb;fill:#666;fill-opacity:1;fill-rule:nonzero;stroke:none;font-family:Roboto;-inkscape-font-specification:Roboto-Regular">d</tspan></text>
<text transform="translate(111.96875,32)" id="text10185"><tspan x="0" y="0" id="tspan10187" style="font-size:13.40999985px;font-variant:normal;font-weight:normal;writing-mode:lr-tb;fill:#666;fill-opacity:1;fill-rule:nonzero;stroke:none;font-family:Roboto;-inkscape-font-specification:Roboto-Regular">t</tspan></text>
</g><g transform="matrix(0.75,0,0,0.75,83.25,168)" id="g10189"><text transform="translate(0,20)" id="text10191"><tspan x="0" y="0" id="tspan10193" style="font-size:18.78000069px;font-variant:normal;font-weight:normal;writing-mode:lr-tb;fill:#666;fill-opacity:1;fill-rule:nonzero;stroke:none;font-family:Roboto;-inkscape-font-specification:Roboto-Regular">A</tspan></text>
<text transform="translate(12.140625,20)" id="text10195"><tspan x="0" y="0" id="tspan10197" style="font-size:18.78000069px;font-variant:normal;font-weight:normal;writing-mode:lr-tb;fill:#666;fill-opacity:1;fill-rule:nonzero;stroke:none;font-family:Roboto;-inkscape-font-specification:Roboto-Regular">n</tspan></text>
<text transform="translate(22.796875,20)" id="text10199"><tspan x="0" y="0" id="tspan10201" style="font-size:18.78000069px;font-variant:normal;font-weight:normal;writing-mode:lr-tb;fill:#666;fill-opacity:1;fill-rule:nonzero;stroke:none;font-family:Roboto;-inkscape-font-specification:Roboto-Regular">g</tspan></text>
<text transform="translate(33.453125,20)" id="text10203"><tspan x="0" y="0" id="tspan10205" style="font-size:18.78000069px;font-variant:normal;font-weight:normal;writing-mode:lr-tb;fill:#666;fill-opacity:1;fill-rule:nonzero;stroke:none;font-family:Roboto;-inkscape-font-specification:Roboto-Regular">e</tspan></text>
<text transform="translate(43.375,20)" id="text10207"><tspan x="0" y="0" id="tspan10209" style="font-size:18.78000069px;font-variant:normal;font-weight:normal;writing-mode:lr-tb;fill:#666;fill-opacity:1;fill-rule:nonzero;stroke:none;font-family:Roboto;-inkscape-font-specification:Roboto-Regular">b</tspan></text>
<text transform="translate(54.03125,20)" id="text10211"><tspan x="0" y="0" id="tspan10213" style="font-size:18.78000069px;font-variant:normal;font-weight:normal;writing-mode:lr-tb;fill:#666;fill-opacity:1;fill-rule:nonzero;stroke:none;font-family:Roboto;-inkscape-font-specification:Roboto-Regular">o</tspan></text>
<text transform="translate(64.6875,20)" id="text10215"><tspan x="0" y="0" id="tspan10217" style="font-size:18.78000069px;font-variant:normal;font-weight:normal;writing-mode:lr-tb;fill:#666;fill-opacity:1;fill-rule:nonzero;stroke:none;font-family:Roboto;-inkscape-font-specification:Roboto-Regular">t</tspan></text>
</g><g transform="matrix(0.75,0,0,0.75,83.25,193.5)" id="g10219"><text transform="translate(0,20)" id="text10221"><tspan x="0" y="0" id="tspan10223" style="font-size:18.78000069px;font-variant:normal;font-weight:normal;writing-mode:lr-tb;fill:#666;fill-opacity:1;fill-rule:nonzero;stroke:none;font-family:Roboto;-inkscape-font-specification:Roboto-Regular">A</tspan></text>
<text transform="translate(12.140625,20)" id="text10225"><tspan x="0" y="0" id="tspan10227" style="font-size:18.78000069px;font-variant:normal;font-weight:normal;writing-mode:lr-tb;fill:#666;fill-opacity:1;fill-rule:nonzero;stroke:none;font-family:Roboto;-inkscape-font-specification:Roboto-Regular">n</tspan></text>
<text transform="translate(22.796875,20)" id="text10229"><tspan x="0" y="0" id="tspan10231" style="font-size:18.78000069px;font-variant:normal;font-weight:normal;writing-mode:lr-tb;fill:#666;fill-opacity:1;fill-rule:nonzero;stroke:none;font-family:Roboto;-inkscape-font-specification:Roboto-Regular">t</tspan></text>
<text transform="translate(29.28125,20)" id="text10233"><tspan x="0" y="0" id="tspan10235" style="font-size:18.78000069px;font-variant:normal;font-weight:normal;writing-mode:lr-tb;fill:#666;fill-opacity:1;fill-rule:nonzero;stroke:none;font-family:Roboto;-inkscape-font-specification:Roboto-Regular">r</tspan></text>
<text transform="translate(35.703125,20)" id="text10237"><tspan x="0" y="0" id="tspan10239" style="font-size:18.78000069px;font-variant:normal;font-weight:normal;writing-mode:lr-tb;fill:#666;fill-opacity:1;fill-rule:nonzero;stroke:none;font-family:Roboto;-inkscape-font-specification:Roboto-Regular">a</tspan></text>
<text transform="translate(46.015625,20)" id="text10241"><tspan x="0" y="0" id="tspan10243" style="font-size:18.78000069px;font-variant:normal;font-weight:normal;writing-mode:lr-tb;fill:#666;fill-opacity:1;fill-rule:nonzero;stroke:none;font-family:Roboto;-inkscape-font-specification:Roboto-Regular">g</tspan></text>
</g><g transform="matrix(0.75,0,0,0.75,83.25,216.75)" id="g10245"><text transform="translate(0,20)" id="text10247"><tspan x="0" y="0" id="tspan10249" style="font-size:18.78000069px;font-variant:normal;font-weight:normal;writing-mode:lr-tb;fill:#666;fill-opacity:1;fill-rule:nonzero;stroke:none;font-family:Roboto;-inkscape-font-specification:Roboto-Regular">V</tspan></text>
<text transform="translate(11.859375,20)" id="text10251"><tspan x="0" y="0" id="tspan10253" style="font-size:18.78000069px;font-variant:normal;font-weight:normal;writing-mode:lr-tb;fill:#666;fill-opacity:1;fill-rule:nonzero;stroke:none;font-family:Roboto;-inkscape-font-specification:Roboto-Regular">e</tspan></text>
<text transform="translate(21.78125,20)" id="text10255"><tspan x="0" y="0" id="tspan10257" style="font-size:18.78000069px;font-variant:normal;font-weight:normal;writing-mode:lr-tb;fill:#666;fill-opacity:1;fill-rule:nonzero;stroke:none;font-family:Roboto;-inkscape-font-specification:Roboto-Regular">r</tspan></text>
<text transform="translate(28.203125,20)" id="text10259"><tspan x="0" y="0" id="tspan10261" style="font-size:18.78000069px;font-variant:normal;font-weight:normal;writing-mode:lr-tb;fill:#666;fill-opacity:1;fill-rule:nonzero;stroke:none;font-family:Roboto;-inkscape-font-specification:Roboto-Regular">t</tspan></text>
<text transform="translate(34.6875,20)" id="text10263"><tspan x="0" y="0" id="tspan10265" style="font-size:18.78000069px;font-variant:normal;font-weight:normal;writing-mode:lr-tb;fill:#666;fill-opacity:1;fill-rule:nonzero;stroke:none;font-family:Roboto;-inkscape-font-specification:Roboto-Regular">r</tspan></text>
<text transform="translate(41.109375,20)" id="text10267"><tspan x="0" y="0" id="tspan10269" style="font-size:18.78000069px;font-variant:normal;font-weight:normal;writing-mode:lr-tb;fill:#666;fill-opacity:1;fill-rule:nonzero;stroke:none;font-family:Roboto;-inkscape-font-specification:Roboto-Regular">a</tspan></text>
<text transform="translate(51.421875,20)" id="text10271"><tspan x="0" y="0" id="tspan10273" style="font-size:18.78000069px;font-variant:normal;font-weight:normal;writing-mode:lr-tb;fill:#666;fill-opacity:1;fill-rule:nonzero;stroke:none;font-family:Roboto;-inkscape-font-specification:Roboto-Regular">g</tspan></text>
</g><g transform="matrix(0.75,0,0,0.75,83.25,241.5)" id="g10275"><text transform="translate(0,20)" id="text10277"><tspan x="0" y="0" id="tspan10279" style="font-size:18.78000069px;font-variant:normal;font-weight:normal;writing-mode:lr-tb;fill:#666;fill-opacity:1;fill-rule:nonzero;stroke:none;font-family:Roboto;-inkscape-font-specification:Roboto-Regular">S</tspan></text>
<text transform="translate(11.6875,20)" id="text10281"><tspan x="0" y="0" id="tspan10283" style="font-size:18.78000069px;font-variant:normal;font-weight:normal;writing-mode:lr-tb;fill:#666;fill-opacity:1;fill-rule:nonzero;stroke:none;font-family:Roboto;-inkscape-font-specification:Roboto-Regular">c</tspan></text>
<text transform="translate(21.640625,20)" id="text10285"><tspan x="0" y="0" id="tspan10287" style="font-size:18.78000069px;font-variant:normal;font-weight:normal;writing-mode:lr-tb;fill:#666;fill-opacity:1;fill-rule:nonzero;stroke:none;font-family:Roboto;-inkscape-font-specification:Roboto-Regular">h</tspan></text>
<text transform="translate(32.296875,20)" id="text10289"><tspan x="0" y="0" id="tspan10291" style="font-size:18.78000069px;font-variant:normal;font-weight:normal;writing-mode:lr-tb;fill:#666;fill-opacity:1;fill-rule:nonzero;stroke:none;font-family:Roboto;-inkscape-font-specification:Roboto-Regular">a</tspan></text>
<text transform="translate(42.609375,20)" id="text10293"><tspan x="0" y="0" id="tspan10295" style="font-size:18.78000069px;font-variant:normal;font-weight:normal;writing-mode:lr-tb;fill:#666;fill-opacity:1;fill-rule:nonzero;stroke:none;font-family:Roboto;-inkscape-font-specification:Roboto-Regular">d</tspan></text>
<text transform="translate(53.265625,20)" id="text10297"><tspan x="0" y="0" id="tspan10299" style="font-size:18.78000069px;font-variant:normal;font-weight:normal;writing-mode:lr-tb;fill:#666;fill-opacity:1;fill-rule:nonzero;stroke:none;font-family:Roboto;-inkscape-font-specification:Roboto-Regular">e</tspan></text>
<text transform="translate(63.1875,20)" id="text10301"><tspan x="0" y="0" id="tspan10303" style="font-size:18.78000069px;font-variant:normal;font-weight:normal;writing-mode:lr-tb;fill:#666;fill-opacity:1;fill-rule:nonzero;stroke:none;font-family:Roboto;-inkscape-font-specification:Roboto-Regular">n</tspan></text>
</g></g></g><g id="g10305"><g clip-path="url(#clipPath10309)" id="g10307"><g transform="matrix(0.45374906,0,0,0.43955511,312.04929,186.43956)" id="g10313"><path d="m 476.22299,21.901001 c -7.18799,0 -8.72699,-4.886 -10.51401,-10.547 C 464.02701,6.0320001 462.12701,0 454.32101,0 c -0.021,0 -0.045,0.016 -0.062,0.018 C 454.233,0.013 454.216,0 454.189,0 c -7.80301,0 -9.706,6.0320001 -11.38501,11.354 -1.75699,5.563999 -3.28901,10.374001 -10.18,10.526001 -6.89499,-0.152 -8.427,-4.962 -10.18399,-10.526 C 420.767,6.0320001 418.85999,0 411.06201,0 c -0.026,0 -0.045,0.016 -0.069,0.018 C 410.97101,0.013 410.948,0 410.927,0 c -7.802,0 -9.70498,6.0320001 -11.384,11.354 -1.76199,5.563999 -3.29001,10.374001 -10.18601,10.526001 -0.023,-9.99e-4 -0.054,-0.005 -0.082,-0.006 l 0,2.225999 c 0.027,-9.99e-4 0.059,-0.002 0.082,-0.003 0.11701,0.002 0.219,0.014 0.335,0.014 0.073,0 0.14001,-0.028 0.20098,-0.042 8.056,-0.422001 10.02601,-6.576999 11.753,-12.048 1.66101,-5.2670003 3.09799,-9.8120004 9.27499,-9.8120004 0.021,0 0.045,-0.015 0.062,-0.016 0.024,9.999e-4 0.043,0.016 0.069,0.016 6.177,0 7.61402,4.5450001 9.272,9.8120004 1.72901,5.468 3.69101,11.625999 11.749,12.048 0.068,0.014 0.134,0.042 0.203,0.042 0.116,0 0.22299,-0.012 0.33301,-0.014 0.116,0.002 0.224,0.014 0.33401,0.014 0.074,0 0.14002,-0.028 0.202,-0.042 8.06,-0.422001 10.02499,-6.576999 11.75201,-12.048 1.66101,-5.2670003 3.10199,-9.8120004 9.276,-9.8120004 0.023,0 0.044,-0.015 0.069,-0.016 0.021,9.999e-4 0.038,0.016 0.062,0.016 6.17999,0 7.61401,4.5450001 9.276,9.8120004 1.785,5.665001 3.81201,12.09 12.621,12.09 0.608,0 1.104,-0.492001 1.104,-1.104999 0.025,-0.610001 -0.46902,-1.105 -1.08203,-1.105 z" id="path10315" style="fill:#666;fill-opacity:1;fill-rule:nonzero;stroke:none" /><path d="M 76.345001,11.354 C 74.664001,6.0320001 72.760002,0 64.958,0 64.936,0 64.916,0.016 64.894,0.018 64.870003,0.013 64.849998,0 64.825996,0 57.02,0 55.119999,6.0320001 53.438,11.354 51.681,16.917999 50.146,21.728001 43.257999,21.880001 36.365997,21.728001 34.834,16.918001 33.077,11.353001 31.402,6.0320001 29.497999,0 21.697001,0 c -0.023,0 -0.042,0.016 -0.066,0.018 C 21.607,0.013 21.587,0 21.563,0 13.761,0 11.856999,6.0320001 10.177,11.354 8.4219999,16.919001 6.888,21.728001 0,21.881001 l 0,2.218 c 0.113,0.002 0.214,0.014 0.33200002,0.014 0.072,0 0.13599997,-0.028 0.20300001,-0.042 C 8.592,23.649 10.556,17.494001 12.285,12.023001 c 1.661,-5.2670005 3.097,-9.8120006 9.271999,-9.8120006 0.023,0 0.044,-0.013 0.067,-0.016 0.022,0.003 0.042,0.016 0.064,0.016 6.182001,0 7.611999,4.5450001 9.272001,9.8120006 1.729,5.469999 3.696999,11.626001 11.753998,12.048 0.065,0.014 0.129002,0.042 0.201,0.042 0.117001,0 0.221001,-0.012 0.334999,-0.014 0.113999,0.002 0.219002,0.014 0.334,0.014 0.072,0 0.136001,-0.028 0.202999,-0.042 8.056999,-0.422001 10.021,-6.577 11.75,-12.048 1.660999,-5.2670005 3.097,-9.8120006 9.275001,-9.8120006 0.021,0 0.045,-0.015 0.063,-0.016 0.023,9.999e-4 0.042,0.016 0.065,0.016 6.180001,0 7.612999,4.5450001 9.272004,9.8120006 1.728996,5.471 3.694999,11.626001 11.751999,12.048 0.066,0.014 0.132003,0.042 0.200996,0.042 0.103996,0 0.197998,-0.009 0.301002,-0.013 l 0,-2.220001 C 79.629997,21.709 78.098999,16.910999 76.345001,11.354 z" id="path10317" style="fill:#666;fill-opacity:1;fill-rule:nonzero;stroke:none" /><path d="M 379.18301,11.354 C 377.50601,6.0320001 375.60101,0 367.79999,0 c -0.025,0 -0.044,0.016 -0.069,0.018 C 367.70901,0.013 367.689,0 367.664,0 c -7.80701,0 -9.70499,6.0320001 -11.38901,11.354 -1.75698,5.563999 -3.289,10.374001 -10.181,10.526001 -6.889,-0.152 -8.42199,-4.962 -10.178,-10.526 C 334.23801,6.0320001 332.34,0 324.53201,0 c -0.021,0 -0.044,0.016 -0.064,0.018 C 324.444,0.013 324.42801,0 324.401,0 c -7.79999,0 -9.70401,6.0320001 -11.384,11.354 -1.75699,5.563999 -3.29099,10.374001 -10.17999,10.526001 -6.89402,-0.152 -8.422,-4.962 -10.185,-10.526 C 290.978,6.0320001 289.07001,0 281.27499,0 c -0.021,0 -0.044,0.016 -0.064,0.018 -0.028,-0.005 -0.049,-0.018 -0.072,-0.018 -7.79999,0 -9.70401,6.0320001 -11.38501,11.354 -1.75699,5.563999 -3.29199,10.374001 -10.17999,10.526001 -6.892,-0.152 -8.422,-4.962 -10.183,-10.526 C 247.717,6.0320001 245.811,0 238.01199,0 c -0.021,0 -0.044,0.016 -0.064,0.018 C 237.92,0.013 237.89999,0 237.87601,0 c -7.802,0 -9.705,6.0320001 -11.38401,11.354 -1.761,5.563999 -3.291,10.374001 -10.18299,10.526001 -6.889,-0.152 -8.422,-4.962 -10.18001,-10.526 C 204.453,6.0320001 202.55,0 194.74699,0 c -0.023,0 -0.042,0.016 -0.065,0.018 -0.025,-0.005 -0.045,-0.018 -0.069,-0.018 -7.805,0 -9.706,6.0320001 -11.388,11.354 -1.75701,5.563999 -3.291,10.374001 -10.181,10.526001 -6.888,-0.152 -8.422,-4.962 -10.18,-10.526 C 161.19,6.0320001 159.28599,0 151.48399,0 c -0.021,0 -0.042,0.016 -0.062,0.018 -0.028,-0.005 -0.048,-0.018 -0.072,-0.018 -7.80201,0 -9.706,6.0320001 -11.38401,11.354 -1.75799,5.563999 -3.291,10.374001 -10.17999,10.526001 -6.895,-0.152 -8.422,-4.962 -10.184,-10.526 C 117.927,6.0320001 116.023,0 108.222,0 108.201,0 108.18,0.016 108.16,0.018 108.133,0.013 108.111,0 108.087,0 c -7.801,0 -9.704004,6.0320001 -11.383005,11.354 -1.757004,5.565001 -3.291001,10.375 -10.184998,10.527001 -0.014,0 -0.021,-0.002 -0.033,-0.002 l 0,2.219999 c 0.012,0 0.021,-9.99e-4 0.033,-9.99e-4 0.113999,0.002 0.222,0.014 0.334,0.014 0.072,0 0.139,-0.028 0.203003,-0.042 8.060997,-0.422002 10.023002,-6.578 11.750999,-12.048002 C 100.468,6.7549992 101.907,2.2099991 108.081,2.2099991 c 0.021,0 0.044,-0.013 0.066,-0.014 0.021,0.001 0.042,0.014 0.063,0.014 6.183,0 7.61499,4.5450001 9.276,9.8119999 1.72899,5.471001 3.692,11.626 11.752,12.048001 0.062,0.014 0.12899,0.042 0.19999,0.042 0.11501,0 0.221,-0.012 0.33701,-0.014 0.10899,0.002 0.218,0.014 0.33299,0.014 0.068,0 0.135,-0.028 0.202,-0.042 8.058,-0.422001 10.02099,-6.577 11.75,-12.048001 1.65899,-5.2669998 3.098,-9.8119999 9.27299,-9.8119999 0.023,0 0.044,-0.013 0.068,-0.014 0.021,0.001 0.042,0.014 0.062,0.014 6.18601,0 7.614,4.5450001 9.275,9.8119999 1.72799,5.471001 3.695,11.626 11.75199,12.048001 0.064,0.014 0.129,0.042 0.20101,0.042 0.117,0 0.22,-0.012 0.336,-0.014 0.11099,0.002 0.218,0.014 0.33299,0.014 0.07,0 0.136,-0.028 0.20399,-0.042 8.056,-0.422001 10.021,-6.577999 11.75,-12.048001 1.659,-5.2669998 3.096,-9.8119999 9.271,-9.8119999 0.024,0 0.045,-0.013 0.068,-0.014 0.022,0.001 0.042,0.014 0.064,0.014 6.18401,0 7.612,4.5450001 9.27299,9.8119999 1.72901,5.471001 3.696,11.626 11.752,12.05 0.068,0.012 0.129,0.042 0.20101,0.042 0.11799,0 0.22,-0.014 0.336,-0.016 0.11399,0.002 0.218,0.016 0.334,0.016 0.072,0 0.13499,-0.03 0.203,-0.042 8.056,-0.424 10.02099,-6.579001 11.75,-12.050001 1.66099,-5.2669998 3.09599,-9.8119999 9.274,-9.8119999 0.021,0 0.044,-0.013 0.065,-0.014 0.023,9.999e-4 0.044,0.014 0.068,0.014 6.17999,0 7.60899,4.5450001 9.27099,9.8119999 1.72901,5.471 3.694,11.626001 11.75099,12.050001 0.067,0.012 0.129,0.042 0.20099,0.042 0.11701,0 0.22299,-0.014 0.33499,-0.016 0.11402,0.002 0.219,0.016 0.33701,0.016 0.069,0 0.13501,-0.03 0.20001,-0.042 8.05899,-0.424 10.02201,-6.579001 11.75,-12.050001 1.66101,-5.2669998 3.09799,-9.8119999 9.275,-9.8119999 0.021,0 0.045,-0.013 0.065,-0.014 0.023,9.999e-4 0.044,0.014 0.067,0.014 6.17899,0 7.60999,4.5450001 9.271,9.8119999 1.729,5.470001 3.694,11.626001 11.75201,12.048002 0.066,0.014 0.13001,0.042 0.20099,0.042 0.11701,0 0.22199,-0.012 0.335,-0.014 0.11499,0.002 0.21899,0.014 0.337,0.014 0.068,0 0.134,-0.028 0.20001,-0.042 8.05899,-0.422001 10.021,-6.577 11.75,-12.048001 1.66001,-5.2669998 3.09699,-9.8119999 9.27301,-9.8119999 0.025,0 0.045,-0.013 0.064,-0.014 0.022,0.001 0.044,0.014 0.066,0.014 6.17999,0 7.61401,4.5450001 9.27499,9.8119999 1.72901,5.471001 3.69,11.626 11.74701,12.048001 0.068,0.014 0.133,0.042 0.20599,0.042 0.11301,0 0.219,-0.012 0.33201,-0.014 0.11499,0.002 0.22,0.014 0.33499,0.014 0.071,0 0.13598,-0.028 0.199,-0.042 8.05899,-0.422001 10.025,-6.577 11.754,-12.048001 1.66,-5.2669998 3.095,-9.8119999 9.27301,-9.8119999 0.025,0 0.045,-0.013 0.064,-0.014 0.022,0.001 0.045,0.014 0.067,0.014 6.181,0 7.61402,4.5450001 9.27399,9.8119999 1.729,5.471001 3.69198,11.626 11.74798,12.048001 0.069,0.014 0.13401,0.042 0.206,0.042 0.087,0 0.16699,-0.006 0.25,-0.011 l 0,-2.226 C 382.465,21.686001 380.93301,16.898001 379.18301,11.354 z" id="path10319" style="fill:#666;fill-opacity:1;fill-rule:nonzero;stroke:none" /></g></g></g><g id="g10321"><g clip-path="url(#clipPath10325)" id="g10323"><g transform="matrix(0.45374906,0,0,0.43955511,311.29929,235.18956)" id="g10329"><path d="m 476.22299,21.901001 c -7.18799,0 -8.72699,-4.886 -10.51401,-10.547 C 464.02701,6.0320001 462.12701,0 454.32101,0 c -0.021,0 -0.045,0.016 -0.062,0.018 C 454.233,0.013 454.216,0 454.189,0 c -7.80301,0 -9.706,6.0320001 -11.38501,11.354 -1.75699,5.563999 -3.28901,10.374001 -10.18,10.526001 -6.89499,-0.152 -8.427,-4.962 -10.18399,-10.526 C 420.767,6.0320001 418.85999,0 411.06201,0 c -0.026,0 -0.045,0.016 -0.069,0.018 C 410.97101,0.013 410.948,0 410.927,0 c -7.802,0 -9.70498,6.0320001 -11.384,11.354 -1.76199,5.563999 -3.29001,10.374001 -10.18601,10.526001 -0.023,-9.99e-4 -0.054,-0.005 -0.082,-0.006 l 0,2.225999 c 0.027,-9.99e-4 0.059,-0.002 0.082,-0.003 0.11701,0.002 0.219,0.014 0.335,0.014 0.073,0 0.14001,-0.028 0.20098,-0.042 8.056,-0.422001 10.02601,-6.576999 11.753,-12.048 1.66101,-5.2670003 3.09799,-9.8120004 9.27499,-9.8120004 0.021,0 0.045,-0.015 0.062,-0.016 0.024,9.999e-4 0.043,0.016 0.069,0.016 6.177,0 7.61402,4.5450001 9.272,9.8120004 1.72901,5.468 3.69101,11.625999 11.749,12.048 0.068,0.014 0.134,0.042 0.203,0.042 0.116,0 0.22299,-0.012 0.33301,-0.014 0.116,0.002 0.224,0.014 0.33401,0.014 0.074,0 0.14002,-0.028 0.202,-0.042 8.06,-0.422001 10.02499,-6.576999 11.75201,-12.048 1.66101,-5.2670003 3.10199,-9.8120004 9.276,-9.8120004 0.023,0 0.044,-0.015 0.069,-0.016 0.021,9.999e-4 0.038,0.016 0.062,0.016 6.17999,0 7.61401,4.5450001 9.276,9.8120004 1.785,5.665001 3.81201,12.09 12.621,12.09 0.608,0 1.104,-0.492001 1.104,-1.104999 0.025,-0.610001 -0.46902,-1.105 -1.08203,-1.105 z" id="path10331" style="fill:#666;fill-opacity:1;fill-rule:nonzero;stroke:none" /><path d="M 76.345001,11.354 C 74.664001,6.0320001 72.760002,0 64.958,0 64.936,0 64.916,0.016 64.894,0.018 64.870003,0.013 64.849998,0 64.825996,0 57.02,0 55.119999,6.0320001 53.438,11.354 51.681,16.917999 50.146,21.728001 43.257999,21.880001 36.365997,21.728001 34.834,16.918001 33.077,11.353001 31.402,6.0320001 29.497999,0 21.697001,0 c -0.023,0 -0.042,0.016 -0.066,0.018 C 21.607,0.013 21.587,0 21.563,0 13.761,0 11.856999,6.0320001 10.177,11.354 8.4219999,16.919001 6.888,21.728001 0,21.881001 l 0,2.218 c 0.113,0.002 0.214,0.014 0.33200002,0.014 0.072,0 0.13599997,-0.028 0.20300001,-0.042 C 8.592,23.649 10.556,17.494001 12.285,12.023001 c 1.661,-5.2670005 3.097,-9.8120006 9.271999,-9.8120006 0.023,0 0.044,-0.013 0.067,-0.016 0.022,0.003 0.042,0.016 0.064,0.016 6.182001,0 7.611999,4.5450001 9.272001,9.8120006 1.729,5.469999 3.696999,11.626001 11.753998,12.048 0.065,0.014 0.129002,0.042 0.201,0.042 0.117001,0 0.221001,-0.012 0.334999,-0.014 0.113999,0.002 0.219002,0.014 0.334,0.014 0.072,0 0.136001,-0.028 0.202999,-0.042 8.056999,-0.422001 10.021,-6.577 11.75,-12.048 1.660999,-5.2670005 3.097,-9.8120006 9.275001,-9.8120006 0.021,0 0.045,-0.015 0.063,-0.016 0.023,9.999e-4 0.042,0.016 0.065,0.016 6.180001,0 7.612999,4.5450001 9.272004,9.8120006 1.728996,5.471 3.694999,11.626001 11.751999,12.048 0.066,0.014 0.132003,0.042 0.200996,0.042 0.103996,0 0.197998,-0.009 0.301002,-0.013 l 0,-2.220001 C 79.629997,21.709 78.098999,16.910999 76.345001,11.354 z" id="path10333" style="fill:#666;fill-opacity:1;fill-rule:nonzero;stroke:none" /><path d="M 379.18301,11.354 C 377.50601,6.0320001 375.60101,0 367.79999,0 c -0.025,0 -0.044,0.016 -0.069,0.018 C 367.70901,0.013 367.689,0 367.664,0 c -7.80701,0 -9.70499,6.0320001 -11.38901,11.354 -1.75698,5.563999 -3.289,10.374001 -10.181,10.526001 -6.889,-0.152 -8.42199,-4.962 -10.178,-10.526 C 334.23801,6.0320001 332.34,0 324.53201,0 c -0.021,0 -0.044,0.016 -0.064,0.018 C 324.444,0.013 324.42801,0 324.401,0 c -7.79999,0 -9.70401,6.0320001 -11.384,11.354 -1.75699,5.563999 -3.29099,10.374001 -10.17999,10.526001 -6.89402,-0.152 -8.422,-4.962 -10.185,-10.526 C 290.978,6.0320001 289.07001,0 281.27499,0 c -0.021,0 -0.044,0.016 -0.064,0.018 -0.028,-0.005 -0.049,-0.018 -0.072,-0.018 -7.79999,0 -9.70401,6.0320001 -11.38501,11.354 -1.75699,5.563999 -3.29199,10.374001 -10.17999,10.526001 -6.892,-0.152 -8.422,-4.962 -10.183,-10.526 C 247.717,6.0320001 245.811,0 238.01199,0 c -0.021,0 -0.044,0.016 -0.064,0.018 C 237.92,0.013 237.89999,0 237.87601,0 c -7.802,0 -9.705,6.0320001 -11.38401,11.354 -1.761,5.563999 -3.291,10.374001 -10.18299,10.526001 -6.889,-0.152 -8.422,-4.962 -10.18001,-10.526 C 204.453,6.0320001 202.55,0 194.74699,0 c -0.023,0 -0.042,0.016 -0.065,0.018 -0.025,-0.005 -0.045,-0.018 -0.069,-0.018 -7.805,0 -9.706,6.0320001 -11.388,11.354 -1.75701,5.563999 -3.291,10.374001 -10.181,10.526001 -6.888,-0.152 -8.422,-4.962 -10.18,-10.526 C 161.19,6.0320001 159.28599,0 151.48399,0 c -0.021,0 -0.042,0.016 -0.062,0.018 -0.028,-0.005 -0.048,-0.018 -0.072,-0.018 -7.80201,0 -9.706,6.0320001 -11.38401,11.354 -1.75799,5.563999 -3.291,10.374001 -10.17999,10.526001 -6.895,-0.152 -8.422,-4.962 -10.184,-10.526 C 117.927,6.0320001 116.023,0 108.222,0 108.201,0 108.18,0.016 108.16,0.018 108.133,0.013 108.111,0 108.087,0 c -7.801,0 -9.704004,6.0320001 -11.383005,11.354 -1.757004,5.565001 -3.291001,10.375 -10.184998,10.527001 -0.014,0 -0.021,-0.002 -0.033,-0.002 l 0,2.219999 c 0.012,0 0.021,-9.99e-4 0.033,-9.99e-4 0.113999,0.002 0.222,0.014 0.334,0.014 0.072,0 0.139,-0.028 0.203003,-0.042 8.060997,-0.422002 10.023002,-6.578 11.750999,-12.048002 C 100.468,6.7549992 101.907,2.2099991 108.081,2.2099991 c 0.021,0 0.044,-0.013 0.066,-0.014 0.021,0.001 0.042,0.014 0.063,0.014 6.183,0 7.61499,4.5450001 9.276,9.8119999 1.72899,5.471001 3.692,11.626 11.752,12.048001 0.062,0.014 0.12899,0.042 0.19999,0.042 0.11501,0 0.221,-0.012 0.33701,-0.014 0.10899,0.002 0.218,0.014 0.33299,0.014 0.068,0 0.135,-0.028 0.202,-0.042 8.058,-0.422001 10.02099,-6.577 11.75,-12.048001 1.65899,-5.2669998 3.098,-9.8119999 9.27299,-9.8119999 0.023,0 0.044,-0.013 0.068,-0.014 0.021,0.001 0.042,0.014 0.062,0.014 6.18601,0 7.614,4.5450001 9.275,9.8119999 1.72799,5.471001 3.695,11.626 11.75199,12.048001 0.064,0.014 0.129,0.042 0.20101,0.042 0.117,0 0.22,-0.012 0.336,-0.014 0.11099,0.002 0.218,0.014 0.33299,0.014 0.07,0 0.136,-0.028 0.20399,-0.042 8.056,-0.422001 10.021,-6.577999 11.75,-12.048001 1.659,-5.2669998 3.096,-9.8119999 9.271,-9.8119999 0.024,0 0.045,-0.013 0.068,-0.014 0.022,0.001 0.042,0.014 0.064,0.014 6.18401,0 7.612,4.5450001 9.27299,9.8119999 1.72901,5.471001 3.696,11.626 11.752,12.05 0.068,0.012 0.129,0.042 0.20101,0.042 0.11799,0 0.22,-0.014 0.336,-0.016 0.11399,0.002 0.218,0.016 0.334,0.016 0.072,0 0.13499,-0.03 0.203,-0.042 8.056,-0.424 10.02099,-6.579001 11.75,-12.050001 1.66099,-5.2669998 3.09599,-9.8119999 9.274,-9.8119999 0.021,0 0.044,-0.013 0.065,-0.014 0.023,9.999e-4 0.044,0.014 0.068,0.014 6.17999,0 7.60899,4.5450001 9.27099,9.8119999 1.72901,5.471 3.694,11.626001 11.75099,12.050001 0.067,0.012 0.129,0.042 0.20099,0.042 0.11701,0 0.22299,-0.014 0.33499,-0.016 0.11402,0.002 0.219,0.016 0.33701,0.016 0.069,0 0.13501,-0.03 0.20001,-0.042 8.05899,-0.424 10.02201,-6.579001 11.75,-12.050001 1.66101,-5.2669998 3.09799,-9.8119999 9.275,-9.8119999 0.021,0 0.045,-0.013 0.065,-0.014 0.023,9.999e-4 0.044,0.014 0.067,0.014 6.17899,0 7.60999,4.5450001 9.271,9.8119999 1.729,5.470001 3.694,11.626001 11.75201,12.048002 0.066,0.014 0.13001,0.042 0.20099,0.042 0.11701,0 0.22199,-0.012 0.335,-0.014 0.11499,0.002 0.21899,0.014 0.337,0.014 0.068,0 0.134,-0.028 0.20001,-0.042 8.05899,-0.422001 10.021,-6.577 11.75,-12.048001 1.66001,-5.2669998 3.09699,-9.8119999 9.27301,-9.8119999 0.025,0 0.045,-0.013 0.064,-0.014 0.022,0.001 0.044,0.014 0.066,0.014 6.17999,0 7.61401,4.5450001 9.27499,9.8119999 1.72901,5.471001 3.69,11.626 11.74701,12.048001 0.068,0.014 0.133,0.042 0.20599,0.042 0.11301,0 0.219,-0.012 0.33201,-0.014 0.11499,0.002 0.22,0.014 0.33499,0.014 0.071,0 0.13598,-0.028 0.199,-0.042 8.05899,-0.422001 10.025,-6.577 11.754,-12.048001 1.66,-5.2669998 3.095,-9.8119999 9.27301,-9.8119999 0.025,0 0.045,-0.013 0.064,-0.014 0.022,0.001 0.045,0.014 0.067,0.014 6.181,0 7.61402,4.5450001 9.27399,9.8119999 1.729,5.471001 3.69198,11.626 11.74798,12.048001 0.069,0.014 0.13401,0.042 0.206,0.042 0.087,0 0.16699,-0.006 0.25,-0.011 l 0,-2.226 C 382.465,21.686001 380.93301,16.898001 379.18301,11.354 z" id="path10335" style="fill:#666;fill-opacity:1;fill-rule:nonzero;stroke:none" /></g></g></g><g id="g10337"><g clip-path="url(#clipPath10341)" id="g10339"><g transform="matrix(0.45512268,0,0,0.46885878,312.01828,205.21886)" id="g10345"><path d="M 76.345001,11.354 C 74.664001,6.0320001 72.760002,0 64.958,0 64.936,0 64.916,0.016 64.894,0.018 64.870003,0.013 64.849998,0 64.825996,0 57.02,0 55.119999,6.0320001 53.438,11.354 51.681,16.917999 50.146,21.728001 43.257999,21.880001 36.365997,21.728001 34.834,16.918001 33.077,11.353001 31.402,6.0320001 29.497999,0 21.697001,0 c -0.023,0 -0.042,0.016 -0.066,0.018 C 21.607,0.013 21.587,0 21.563,0 13.761,0 11.856999,6.0320001 10.177,11.354 8.4219999,16.919001 6.888,21.728001 0,21.881001 l 0,2.218 c 0.113,0.002 0.214,0.014 0.33200002,0.014 0.072,0 0.13599997,-0.028 0.20300001,-0.042 C 8.592,23.649 10.556,17.494001 12.285,12.023001 c 1.661,-5.2670005 3.097,-9.8120006 9.271999,-9.8120006 0.023,0 0.044,-0.013 0.067,-0.016 0.022,0.003 0.042,0.016 0.064,0.016 6.182001,0 7.611999,4.5450001 9.272001,9.8120006 1.729,5.469999 3.696999,11.626001 11.753998,12.048 0.065,0.014 0.129002,0.042 0.201,0.042 0.117001,0 0.221001,-0.012 0.334999,-0.014 0.113999,0.002 0.219002,0.014 0.334,0.014 0.072,0 0.136001,-0.028 0.202999,-0.042 8.056999,-0.422001 10.021,-6.577 11.75,-12.048 1.660999,-5.2670005 3.097,-9.8120006 9.275001,-9.8120006 0.021,0 0.045,-0.015 0.063,-0.016 0.023,9.999e-4 0.042,0.016 0.065,0.016 6.180001,0 7.612999,4.5450001 9.272004,9.8120006 1.728996,5.471 3.694999,11.626001 11.751999,12.048 0.066,0.014 0.132003,0.042 0.200996,0.042 0.103996,0 0.197998,-0.009 0.301002,-0.013 l 0,-2.220001 C 79.629997,21.709 78.098999,16.910999 76.345001,11.354 z" id="path10347" style="fill:#666;fill-opacity:1;fill-rule:nonzero;stroke:none" /><path d="M 379.18301,11.354 C 377.50601,6.0320001 375.60101,0 367.79999,0 c -0.025,0 -0.044,0.016 -0.069,0.018 C 367.70901,0.013 367.689,0 367.664,0 c -7.80701,0 -9.70499,6.0320001 -11.38901,11.354 -1.75698,5.563999 -3.289,10.374001 -10.181,10.526001 -6.889,-0.152 -8.42199,-4.962 -10.178,-10.526 C 334.23801,6.0320001 332.34,0 324.53201,0 c -0.021,0 -0.044,0.016 -0.064,0.018 C 324.444,0.013 324.42801,0 324.401,0 c -7.79999,0 -9.70401,6.0320001 -11.384,11.354 -1.75699,5.563999 -3.29099,10.374001 -10.17999,10.526001 -6.89402,-0.152 -8.422,-4.962 -10.185,-10.526 C 290.978,6.0320001 289.07001,0 281.27499,0 c -0.021,0 -0.044,0.016 -0.064,0.018 -0.028,-0.005 -0.049,-0.018 -0.072,-0.018 -7.79999,0 -9.70401,6.0320001 -11.38501,11.354 -1.75699,5.563999 -3.29199,10.374001 -10.17999,10.526001 -6.892,-0.152 -8.422,-4.962 -10.183,-10.526 C 247.717,6.0320001 245.811,0 238.01199,0 c -0.021,0 -0.044,0.016 -0.064,0.018 C 237.92,0.013 237.89999,0 237.87601,0 c -7.802,0 -9.705,6.0320001 -11.38401,11.354 -1.761,5.563999 -3.291,10.374001 -10.18299,10.526001 -6.889,-0.152 -8.422,-4.962 -10.18001,-10.526 C 204.453,6.0320001 202.55,0 194.74699,0 c -0.023,0 -0.042,0.016 -0.065,0.018 -0.025,-0.005 -0.045,-0.018 -0.069,-0.018 -7.805,0 -9.706,6.0320001 -11.388,11.354 -1.75701,5.563999 -3.291,10.374001 -10.181,10.526001 -6.888,-0.152 -8.422,-4.962 -10.18,-10.526 C 161.19,6.0320001 159.28599,0 151.48399,0 c -0.021,0 -0.042,0.016 -0.062,0.018 -0.028,-0.005 -0.048,-0.018 -0.072,-0.018 -7.80201,0 -9.706,6.0320001 -11.38401,11.354 -1.75799,5.563999 -3.291,10.374001 -10.17999,10.526001 -6.895,-0.152 -8.422,-4.962 -10.184,-10.526 C 117.927,6.0320001 116.023,0 108.222,0 108.201,0 108.18,0.016 108.16,0.018 108.133,0.013 108.111,0 108.087,0 c -7.801,0 -9.704004,6.0320001 -11.383005,11.354 -1.757004,5.565001 -3.291001,10.375 -10.184998,10.527001 -0.014,0 -0.021,-0.002 -0.033,-0.002 l 0,2.219999 c 0.012,0 0.021,-9.99e-4 0.033,-9.99e-4 0.113999,0.002 0.222,0.014 0.334,0.014 0.072,0 0.139,-0.028 0.203003,-0.042 8.060997,-0.422002 10.023002,-6.578 11.750999,-12.048002 C 100.468,6.7549992 101.907,2.2099991 108.081,2.2099991 c 0.021,0 0.044,-0.013 0.066,-0.014 0.021,0.001 0.042,0.014 0.063,0.014 6.183,0 7.61499,4.5450001 9.276,9.8119999 1.72899,5.471001 3.692,11.626 11.752,12.048001 0.062,0.014 0.12899,0.042 0.19999,0.042 0.11501,0 0.221,-0.012 0.33701,-0.014 0.10899,0.002 0.218,0.014 0.33299,0.014 0.068,0 0.135,-0.028 0.202,-0.042 8.058,-0.422001 10.02099,-6.577 11.75,-12.048001 1.65899,-5.2669998 3.098,-9.8119999 9.27299,-9.8119999 0.023,0 0.044,-0.013 0.068,-0.014 0.021,0.001 0.042,0.014 0.062,0.014 6.18601,0 7.614,4.5450001 9.275,9.8119999 1.72799,5.471001 3.695,11.626 11.75199,12.048001 0.064,0.014 0.129,0.042 0.20101,0.042 0.117,0 0.22,-0.012 0.336,-0.014 0.11099,0.002 0.218,0.014 0.33299,0.014 0.07,0 0.136,-0.028 0.20399,-0.042 8.056,-0.422001 10.021,-6.577999 11.75,-12.048001 1.659,-5.2669998 3.096,-9.8119999 9.271,-9.8119999 0.024,0 0.045,-0.013 0.068,-0.014 0.022,0.001 0.042,0.014 0.064,0.014 6.18401,0 7.612,4.5450001 9.27299,9.8119999 1.72901,5.471001 3.696,11.626 11.752,12.05 0.068,0.012 0.129,0.042 0.20101,0.042 0.11799,0 0.22,-0.014 0.336,-0.016 0.11399,0.002 0.218,0.016 0.334,0.016 0.072,0 0.13499,-0.03 0.203,-0.042 8.056,-0.424 10.02099,-6.579001 11.75,-12.050001 1.66099,-5.2669998 3.09599,-9.8119999 9.274,-9.8119999 0.021,0 0.044,-0.013 0.065,-0.014 0.023,9.999e-4 0.044,0.014 0.068,0.014 6.17999,0 7.60899,4.5450001 9.27099,9.8119999 1.72901,5.471 3.694,11.626001 11.75099,12.050001 0.067,0.012 0.129,0.042 0.20099,0.042 0.11701,0 0.22299,-0.014 0.33499,-0.016 0.11402,0.002 0.219,0.016 0.33701,0.016 0.069,0 0.13501,-0.03 0.20001,-0.042 8.05899,-0.424 10.02201,-6.579001 11.75,-12.050001 1.66101,-5.2669998 3.09799,-9.8119999 9.275,-9.8119999 0.021,0 0.045,-0.013 0.065,-0.014 0.023,9.999e-4 0.044,0.014 0.067,0.014 6.17899,0 7.60999,4.5450001 9.271,9.8119999 1.729,5.470001 3.694,11.626001 11.75201,12.048002 0.066,0.014 0.13001,0.042 0.20099,0.042 0.11701,0 0.22199,-0.012 0.335,-0.014 0.11499,0.002 0.21899,0.014 0.337,0.014 0.068,0 0.134,-0.028 0.20001,-0.042 8.05899,-0.422001 10.021,-6.577 11.75,-12.048001 1.66001,-5.2669998 3.09699,-9.8119999 9.27301,-9.8119999 0.025,0 0.045,-0.013 0.064,-0.014 0.022,0.001 0.044,0.014 0.066,0.014 6.17999,0 7.61401,4.5450001 9.27499,9.8119999 1.72901,5.471001 3.69,11.626 11.74701,12.048001 0.068,0.014 0.133,0.042 0.20599,0.042 0.11301,0 0.219,-0.012 0.33201,-0.014 0.11499,0.002 0.22,0.014 0.33499,0.014 0.071,0 0.13598,-0.028 0.199,-0.042 8.05899,-0.422001 10.025,-6.577 11.754,-12.048001 1.66,-5.2669998 3.095,-9.8119999 9.27301,-9.8119999 0.025,0 0.045,-0.013 0.064,-0.014 0.022,0.001 0.045,0.014 0.067,0.014 6.181,0 7.61402,4.5450001 9.27399,9.8119999 1.729,5.471001 3.69198,11.626 11.74798,12.048001 0.069,0.014 0.13401,0.042 0.206,0.042 0.087,0 0.16699,-0.006 0.25,-0.011 l 0,-2.226 C 382.465,21.686001 380.93301,16.898001 379.18301,11.354 z" id="path10349" style="fill:#666;fill-opacity:1;fill-rule:nonzero;stroke:none" /></g></g></g><g id="g10351"><g clip-path="url(#clipPath10355)" id="g10353"><g transform="matrix(0.45466483,0,0,0.46885878,312.00854,265.96887)" id="g10359"><path d="M 76.345001,11.354 C 74.664001,6.0320001 72.760002,0 64.958,0 64.936,0 64.916,0.016 64.894,0.018 64.870003,0.013 64.849998,0 64.825996,0 57.02,0 55.119999,6.0320001 53.438,11.354 51.681,16.917999 50.146,21.728001 43.257999,21.880001 36.365997,21.728001 34.834,16.918001 33.077,11.353001 31.402,6.0320001 29.497999,0 21.697001,0 c -0.023,0 -0.042,0.016 -0.066,0.018 C 21.607,0.013 21.587,0 21.563,0 13.761,0 11.856999,6.0320001 10.177,11.354 8.4219999,16.919001 6.888,21.728001 0,21.881001 l 0,2.218 c 0.113,0.002 0.214,0.014 0.33200002,0.014 0.072,0 0.13599997,-0.028 0.20300001,-0.042 C 8.592,23.649 10.556,17.494001 12.285,12.023001 c 1.661,-5.2670005 3.097,-9.8120006 9.271999,-9.8120006 0.023,0 0.044,-0.013 0.067,-0.016 0.022,0.003 0.042,0.016 0.064,0.016 6.182001,0 7.611999,4.5450001 9.272001,9.8120006 1.729,5.469999 3.696999,11.626001 11.753998,12.048 0.065,0.014 0.129002,0.042 0.201,0.042 0.117001,0 0.221001,-0.012 0.334999,-0.014 0.113999,0.002 0.219002,0.014 0.334,0.014 0.072,0 0.136001,-0.028 0.202999,-0.042 8.056999,-0.422001 10.021,-6.577 11.75,-12.048 1.660999,-5.2670005 3.097,-9.8120006 9.275001,-9.8120006 0.021,0 0.045,-0.015 0.063,-0.016 0.023,9.999e-4 0.042,0.016 0.065,0.016 6.180001,0 7.612999,4.5450001 9.272004,9.8120006 1.728996,5.471 3.694999,11.626001 11.751999,12.048 0.066,0.014 0.132003,0.042 0.200996,0.042 0.103996,0 0.197998,-0.009 0.301002,-0.013 l 0,-2.220001 C 79.629997,21.709 78.098999,16.910999 76.345001,11.354 z" id="path10361" style="fill:#666;fill-opacity:1;fill-rule:nonzero;stroke:none" /><path d="M 379.18301,11.354 C 377.50601,6.0320001 375.60101,0 367.79999,0 c -0.025,0 -0.044,0.016 -0.069,0.018 C 367.70901,0.013 367.689,0 367.664,0 c -7.80701,0 -9.70499,6.0320001 -11.38901,11.354 -1.75698,5.563999 -3.289,10.374001 -10.181,10.526001 -6.889,-0.152 -8.42199,-4.962 -10.178,-10.526 C 334.23801,6.0320001 332.34,0 324.53201,0 c -0.021,0 -0.044,0.016 -0.064,0.018 C 324.444,0.013 324.42801,0 324.401,0 c -7.79999,0 -9.70401,6.0320001 -11.384,11.354 -1.75699,5.563999 -3.29099,10.374001 -10.17999,10.526001 -6.89402,-0.152 -8.422,-4.962 -10.185,-10.526 C 290.978,6.0320001 289.07001,0 281.27499,0 c -0.021,0 -0.044,0.016 -0.064,0.018 -0.028,-0.005 -0.049,-0.018 -0.072,-0.018 -7.79999,0 -9.70401,6.0320001 -11.38501,11.354 -1.75699,5.563999 -3.29199,10.374001 -10.17999,10.526001 -6.892,-0.152 -8.422,-4.962 -10.183,-10.526 C 247.717,6.0320001 245.811,0 238.01199,0 c -0.021,0 -0.044,0.016 -0.064,0.018 C 237.92,0.013 237.89999,0 237.87601,0 c -7.802,0 -9.705,6.0320001 -11.38401,11.354 -1.761,5.563999 -3.291,10.374001 -10.18299,10.526001 -6.889,-0.152 -8.422,-4.962 -10.18001,-10.526 C 204.453,6.0320001 202.55,0 194.74699,0 c -0.023,0 -0.042,0.016 -0.065,0.018 -0.025,-0.005 -0.045,-0.018 -0.069,-0.018 -7.805,0 -9.706,6.0320001 -11.388,11.354 -1.75701,5.563999 -3.291,10.374001 -10.181,10.526001 -6.888,-0.152 -8.422,-4.962 -10.18,-10.526 C 161.19,6.0320001 159.28599,0 151.48399,0 c -0.021,0 -0.042,0.016 -0.062,0.018 -0.028,-0.005 -0.048,-0.018 -0.072,-0.018 -7.80201,0 -9.706,6.0320001 -11.38401,11.354 -1.75799,5.563999 -3.291,10.374001 -10.17999,10.526001 -6.895,-0.152 -8.422,-4.962 -10.184,-10.526 C 117.927,6.0320001 116.023,0 108.222,0 108.201,0 108.18,0.016 108.16,0.018 108.133,0.013 108.111,0 108.087,0 c -7.801,0 -9.704004,6.0320001 -11.383005,11.354 -1.757004,5.565001 -3.291001,10.375 -10.184998,10.527001 -0.014,0 -0.021,-0.002 -0.033,-0.002 l 0,2.219999 c 0.012,0 0.021,-9.99e-4 0.033,-9.99e-4 0.113999,0.002 0.222,0.014 0.334,0.014 0.072,0 0.139,-0.028 0.203003,-0.042 8.060997,-0.422002 10.023002,-6.578 11.750999,-12.048002 C 100.468,6.7549992 101.907,2.2099991 108.081,2.2099991 c 0.021,0 0.044,-0.013 0.066,-0.014 0.021,0.001 0.042,0.014 0.063,0.014 6.183,0 7.61499,4.5450001 9.276,9.8119999 1.72899,5.471001 3.692,11.626 11.752,12.048001 0.062,0.014 0.12899,0.042 0.19999,0.042 0.11501,0 0.221,-0.012 0.33701,-0.014 0.10899,0.002 0.218,0.014 0.33299,0.014 0.068,0 0.135,-0.028 0.202,-0.042 8.058,-0.422001 10.02099,-6.577 11.75,-12.048001 1.65899,-5.2669998 3.098,-9.8119999 9.27299,-9.8119999 0.023,0 0.044,-0.013 0.068,-0.014 0.021,0.001 0.042,0.014 0.062,0.014 6.18601,0 7.614,4.5450001 9.275,9.8119999 1.72799,5.471001 3.695,11.626 11.75199,12.048001 0.064,0.014 0.129,0.042 0.20101,0.042 0.117,0 0.22,-0.012 0.336,-0.014 0.11099,0.002 0.218,0.014 0.33299,0.014 0.07,0 0.136,-0.028 0.20399,-0.042 8.056,-0.422001 10.021,-6.577999 11.75,-12.048001 1.659,-5.2669998 3.096,-9.8119999 9.271,-9.8119999 0.024,0 0.045,-0.013 0.068,-0.014 0.022,0.001 0.042,0.014 0.064,0.014 6.18401,0 7.612,4.5450001 9.27299,9.8119999 1.72901,5.471001 3.696,11.626 11.752,12.05 0.068,0.012 0.129,0.042 0.20101,0.042 0.11799,0 0.22,-0.014 0.336,-0.016 0.11399,0.002 0.218,0.016 0.334,0.016 0.072,0 0.13499,-0.03 0.203,-0.042 8.056,-0.424 10.02099,-6.579001 11.75,-12.050001 1.66099,-5.2669998 3.09599,-9.8119999 9.274,-9.8119999 0.021,0 0.044,-0.013 0.065,-0.014 0.023,9.999e-4 0.044,0.014 0.068,0.014 6.17999,0 7.60899,4.5450001 9.27099,9.8119999 1.72901,5.471 3.694,11.626001 11.75099,12.050001 0.067,0.012 0.129,0.042 0.20099,0.042 0.11701,0 0.22299,-0.014 0.33499,-0.016 0.11402,0.002 0.219,0.016 0.33701,0.016 0.069,0 0.13501,-0.03 0.20001,-0.042 8.05899,-0.424 10.02201,-6.579001 11.75,-12.050001 1.66101,-5.2669998 3.09799,-9.8119999 9.275,-9.8119999 0.021,0 0.045,-0.013 0.065,-0.014 0.023,9.999e-4 0.044,0.014 0.067,0.014 6.17899,0 7.60999,4.5450001 9.271,9.8119999 1.729,5.470001 3.694,11.626001 11.75201,12.048002 0.066,0.014 0.13001,0.042 0.20099,0.042 0.11701,0 0.22199,-0.012 0.335,-0.014 0.11499,0.002 0.21899,0.014 0.337,0.014 0.068,0 0.134,-0.028 0.20001,-0.042 8.05899,-0.422001 10.021,-6.577 11.75,-12.048001 1.66001,-5.2669998 3.09699,-9.8119999 9.27301,-9.8119999 0.025,0 0.045,-0.013 0.064,-0.014 0.022,0.001 0.044,0.014 0.066,0.014 6.17999,0 7.61401,4.5450001 9.27499,9.8119999 1.72901,5.471001 3.69,11.626 11.74701,12.048001 0.068,0.014 0.133,0.042 0.20599,0.042 0.11301,0 0.219,-0.012 0.33201,-0.014 0.11499,0.002 0.22,0.014 0.33499,0.014 0.071,0 0.13598,-0.028 0.199,-0.042 8.05899,-0.422001 10.025,-6.577 11.754,-12.048001 1.66,-5.2669998 3.095,-9.8119999 9.27301,-9.8119999 0.025,0 0.045,-0.013 0.064,-0.014 0.022,0.001 0.045,0.014 0.067,0.014 6.181,0 7.61402,4.5450001 9.27399,9.8119999 1.729,5.471001 3.69198,11.626 11.74798,12.048001 0.069,0.014 0.13401,0.042 0.206,0.042 0.087,0 0.16699,-0.006 0.25,-0.011 l 0,-2.226 C 382.465,21.686001 380.93301,16.898001 379.18301,11.354 z" id="path10363" style="fill:#666;fill-opacity:1;fill-rule:nonzero;stroke:none" /></g></g></g><g id="g10365"><g clip-path="url(#clipPath10369)" id="g10367"><g transform="matrix(0.45512268,0,0,0.46885878,312.02228,295.21887)" id="g10373"><path d="M 76.345001,11.354 C 74.664001,6.0320001 72.760002,0 64.958,0 64.936,0 64.916,0.016 64.894,0.018 64.870003,0.013 64.849998,0 64.825996,0 57.02,0 55.119999,6.0320001 53.438,11.354 51.681,16.917999 50.146,21.728001 43.257999,21.880001 36.365997,21.728001 34.834,16.918001 33.077,11.353001 31.402,6.0320001 29.497999,0 21.697001,0 c -0.023,0 -0.042,0.016 -0.066,0.018 C 21.607,0.013 21.587,0 21.563,0 13.761,0 11.856999,6.0320001 10.177,11.354 8.4219999,16.919001 6.888,21.728001 0,21.881001 l 0,2.218 c 0.113,0.002 0.214,0.014 0.33200002,0.014 0.072,0 0.13599997,-0.028 0.20300001,-0.042 C 8.592,23.649 10.556,17.494001 12.285,12.023001 c 1.661,-5.2670005 3.097,-9.8120006 9.271999,-9.8120006 0.023,0 0.044,-0.013 0.067,-0.016 0.022,0.003 0.042,0.016 0.064,0.016 6.182001,0 7.611999,4.5450001 9.272001,9.8120006 1.729,5.469999 3.696999,11.626001 11.753998,12.048 0.065,0.014 0.129002,0.042 0.201,0.042 0.117001,0 0.221001,-0.012 0.334999,-0.014 0.113999,0.002 0.219002,0.014 0.334,0.014 0.072,0 0.136001,-0.028 0.202999,-0.042 8.056999,-0.422001 10.021,-6.577 11.75,-12.048 1.660999,-5.2670005 3.097,-9.8120006 9.275001,-9.8120006 0.021,0 0.045,-0.015 0.063,-0.016 0.023,9.999e-4 0.042,0.016 0.065,0.016 6.180001,0 7.612999,4.5450001 9.272004,9.8120006 1.728996,5.471 3.694999,11.626001 11.751999,12.048 0.066,0.014 0.132003,0.042 0.200996,0.042 0.103996,0 0.197998,-0.009 0.301002,-0.013 l 0,-2.220001 C 79.629997,21.709 78.098999,16.910999 76.345001,11.354 z" id="path10375" style="fill:#666;fill-opacity:1;fill-rule:nonzero;stroke:none" /><path d="M 379.18301,11.354 C 377.50601,6.0320001 375.60101,0 367.79999,0 c -0.025,0 -0.044,0.016 -0.069,0.018 C 367.70901,0.013 367.689,0 367.664,0 c -7.80701,0 -9.70499,6.0320001 -11.38901,11.354 -1.75698,5.563999 -3.289,10.374001 -10.181,10.526001 -6.889,-0.152 -8.42199,-4.962 -10.178,-10.526 C 334.23801,6.0320001 332.34,0 324.53201,0 c -0.021,0 -0.044,0.016 -0.064,0.018 C 324.444,0.013 324.42801,0 324.401,0 c -7.79999,0 -9.70401,6.0320001 -11.384,11.354 -1.75699,5.563999 -3.29099,10.374001 -10.17999,10.526001 -6.89402,-0.152 -8.422,-4.962 -10.185,-10.526 C 290.978,6.0320001 289.07001,0 281.27499,0 c -0.021,0 -0.044,0.016 -0.064,0.018 -0.028,-0.005 -0.049,-0.018 -0.072,-0.018 -7.79999,0 -9.70401,6.0320001 -11.38501,11.354 -1.75699,5.563999 -3.29199,10.374001 -10.17999,10.526001 -6.892,-0.152 -8.422,-4.962 -10.183,-10.526 C 247.717,6.0320001 245.811,0 238.01199,0 c -0.021,0 -0.044,0.016 -0.064,0.018 C 237.92,0.013 237.89999,0 237.87601,0 c -7.802,0 -9.705,6.0320001 -11.38401,11.354 -1.761,5.563999 -3.291,10.374001 -10.18299,10.526001 -6.889,-0.152 -8.422,-4.962 -10.18001,-10.526 C 204.453,6.0320001 202.55,0 194.74699,0 c -0.023,0 -0.042,0.016 -0.065,0.018 -0.025,-0.005 -0.045,-0.018 -0.069,-0.018 -7.805,0 -9.706,6.0320001 -11.388,11.354 -1.75701,5.563999 -3.291,10.374001 -10.181,10.526001 -6.888,-0.152 -8.422,-4.962 -10.18,-10.526 C 161.19,6.0320001 159.28599,0 151.48399,0 c -0.021,0 -0.042,0.016 -0.062,0.018 -0.028,-0.005 -0.048,-0.018 -0.072,-0.018 -7.80201,0 -9.706,6.0320001 -11.38401,11.354 -1.75799,5.563999 -3.291,10.374001 -10.17999,10.526001 -6.895,-0.152 -8.422,-4.962 -10.184,-10.526 C 117.927,6.0320001 116.023,0 108.222,0 108.201,0 108.18,0.016 108.16,0.018 108.133,0.013 108.111,0 108.087,0 c -7.801,0 -9.704004,6.0320001 -11.383005,11.354 -1.757004,5.565001 -3.291001,10.375 -10.184998,10.527001 -0.014,0 -0.021,-0.002 -0.033,-0.002 l 0,2.219999 c 0.012,0 0.021,-9.99e-4 0.033,-9.99e-4 0.113999,0.002 0.222,0.014 0.334,0.014 0.072,0 0.139,-0.028 0.203003,-0.042 8.060997,-0.422002 10.023002,-6.578 11.750999,-12.048002 C 100.468,6.7549992 101.907,2.2099991 108.081,2.2099991 c 0.021,0 0.044,-0.013 0.066,-0.014 0.021,0.001 0.042,0.014 0.063,0.014 6.183,0 7.61499,4.5450001 9.276,9.8119999 1.72899,5.471001 3.692,11.626 11.752,12.048001 0.062,0.014 0.12899,0.042 0.19999,0.042 0.11501,0 0.221,-0.012 0.33701,-0.014 0.10899,0.002 0.218,0.014 0.33299,0.014 0.068,0 0.135,-0.028 0.202,-0.042 8.058,-0.422001 10.02099,-6.577 11.75,-12.048001 1.65899,-5.2669998 3.098,-9.8119999 9.27299,-9.8119999 0.023,0 0.044,-0.013 0.068,-0.014 0.021,0.001 0.042,0.014 0.062,0.014 6.18601,0 7.614,4.5450001 9.275,9.8119999 1.72799,5.471001 3.695,11.626 11.75199,12.048001 0.064,0.014 0.129,0.042 0.20101,0.042 0.117,0 0.22,-0.012 0.336,-0.014 0.11099,0.002 0.218,0.014 0.33299,0.014 0.07,0 0.136,-0.028 0.20399,-0.042 8.056,-0.422001 10.021,-6.577999 11.75,-12.048001 1.659,-5.2669998 3.096,-9.8119999 9.271,-9.8119999 0.024,0 0.045,-0.013 0.068,-0.014 0.022,0.001 0.042,0.014 0.064,0.014 6.18401,0 7.612,4.5450001 9.27299,9.8119999 1.72901,5.471001 3.696,11.626 11.752,12.05 0.068,0.012 0.129,0.042 0.20101,0.042 0.11799,0 0.22,-0.014 0.336,-0.016 0.11399,0.002 0.218,0.016 0.334,0.016 0.072,0 0.13499,-0.03 0.203,-0.042 8.056,-0.424 10.02099,-6.579001 11.75,-12.050001 1.66099,-5.2669998 3.09599,-9.8119999 9.274,-9.8119999 0.021,0 0.044,-0.013 0.065,-0.014 0.023,9.999e-4 0.044,0.014 0.068,0.014 6.17999,0 7.60899,4.5450001 9.27099,9.8119999 1.72901,5.471 3.694,11.626001 11.75099,12.050001 0.067,0.012 0.129,0.042 0.20099,0.042 0.11701,0 0.22299,-0.014 0.33499,-0.016 0.11402,0.002 0.219,0.016 0.33701,0.016 0.069,0 0.13501,-0.03 0.20001,-0.042 8.05899,-0.424 10.02201,-6.579001 11.75,-12.050001 1.66101,-5.2669998 3.09799,-9.8119999 9.275,-9.8119999 0.021,0 0.045,-0.013 0.065,-0.014 0.023,9.999e-4 0.044,0.014 0.067,0.014 6.17899,0 7.60999,4.5450001 9.271,9.8119999 1.729,5.470001 3.694,11.626001 11.75201,12.048002 0.066,0.014 0.13001,0.042 0.20099,0.042 0.11701,0 0.22199,-0.012 0.335,-0.014 0.11499,0.002 0.21899,0.014 0.337,0.014 0.068,0 0.134,-0.028 0.20001,-0.042 8.05899,-0.422001 10.021,-6.577 11.75,-12.048001 1.66001,-5.2669998 3.09699,-9.8119999 9.27301,-9.8119999 0.025,0 0.045,-0.013 0.064,-0.014 0.022,0.001 0.044,0.014 0.066,0.014 6.17999,0 7.61401,4.5450001 9.27499,9.8119999 1.72901,5.471001 3.69,11.626 11.74701,12.048001 0.068,0.014 0.133,0.042 0.20599,0.042 0.11301,0 0.219,-0.012 0.33201,-0.014 0.11499,0.002 0.22,0.014 0.33499,0.014 0.071,0 0.13598,-0.028 0.199,-0.042 8.05899,-0.422001 10.025,-6.577 11.754,-12.048001 1.66,-5.2669998 3.095,-9.8119999 9.27301,-9.8119999 0.025,0 0.045,-0.013 0.064,-0.014 0.022,0.001 0.045,0.014 0.067,0.014 6.181,0 7.61402,4.5450001 9.27399,9.8119999 1.729,5.471001 3.69198,11.626 11.74798,12.048001 0.069,0.014 0.13401,0.042 0.206,0.042 0.087,0 0.16699,-0.006 0.25,-0.011 l 0,-2.226 C 382.465,21.686001 380.93301,16.898001 379.18301,11.354 z" id="path10377" style="fill:#666;fill-opacity:1;fill-rule:nonzero;stroke:none" /></g></g></g><g id="g10379"><g clip-path="url(#clipPath10383)" id="g10381"><g transform="matrix(0.0251549,0,0,0.02586207,213.06102,189.75)" id="g10387"><path d="m 2410,116 c -49.189,0 -75.498,-18.569 -96.637,-33.490997 C 2294.8501,69.441002 2281.4741,60 2251.3259,60 2221.1777,60 2207.803,69.441002 2189.2888,82.509003 2168.1499,97.431 2141.842,116 2092.6521,116 c -49.188,0 -75.495,-18.57 -96.634,-33.490997 C 1977.507,69.441002 1964.131,60 1933.986,60 1903.84,60 1890.465,69.441002 1871.953,82.509003 1850.814,97.431 1824.507,116 1775.318,116 1726.13,116 1699.823,97.43 1678.684,82.509003 1660.173,69.441002 1646.797,60 1616.652,60 c -30.145,0 -43.52,9.441002 -62.031,22.509003 C 1533.483,97.43 1507.176,116 1457.988,116 1408.8001,116 1382.493,97.43 1361.354,82.509003 1342.843,69.441002 1329.467,60 1299.322,60 c -30.145,0 -43.521,9.441002 -62.0329,22.509003 C 1216.151,97.43 1189.843,116 1140.655,116 1091.467,116 1065.16,97.43 1044.022,82.509003 1025.509,69.441002 1012.134,60 981.98901,60 951.84399,60 938.46899,69.441002 919.95703,82.509003 898.81897,97.43 872.51202,116 823.323,116 774.13501,116 747.828,97.43 726.69,82.509003 708.17798,69.441002 694.80298,60 664.65802,60 634.51306,60 621.138,69.441002 602.62604,82.509003 581.48798,97.43 555.17999,116 505.992,116 456.80402,116 430.49701,97.43 409.358,82.509003 390.84698,69.441002 377.47101,60 347.32599,60 317.18198,60 303.80698,69.441002 285.29498,82.509003 264.15701,97.43 237.85001,116 188.66299,116 139.47598,116 113.168,97.43 92.029999,82.509003 73.518997,69.441002 60.144001,60 30,60 13.432,60 0,46.568001 0,30 0,13.431999 13.432,0 30,0 79.188004,0 105.494,18.57 126.632,33.491001 145.144,46.558998 158.519,56 188.66299,56 c 30.144,0 43.519,-9.441002 62.03101,-22.509003 C 271.832,18.57 298.13901,0 347.32599,0 c 49.18799,0 75.496,18.57 96.63299,33.491001 C 462.47198,46.558998 475.84698,56 505.992,56 536.13702,56 549.51202,46.558998 568.02399,33.490997 589.16302,18.57 615.46997,0 664.65802,0 c 49.18805,0 75.495,18.57 96.633,33.491001 C 779.80298,46.558998 793.17902,56 823.323,56 853.46802,56 866.84302,46.558998 885.35602,33.490997 906.49402,18.57 932.80103,0 981.98901,0 1031.177,0 1057.485,18.57 1078.6231,33.491001 1097.135,46.558998 1110.51,56 1140.655,56 c 30.1451,0 43.521,-9.441002 62.033,-22.509003 C 1223.8261,18.57 1250.134,0 1299.322,0 c 49.188,0 75.495,18.57 96.6341,33.491001 C 1414.468,46.558998 1427.844,56 1457.988,56 c 30.1441,0 43.5201,-9.441002 62.031,-22.509003 C 1541.157,18.57 1567.465,0 1616.652,0 c 49.188,0 75.495,18.57 96.634,33.491001 C 1731.798,46.558998 1745.174,56 1775.318,56 c 30.146,0 43.521,-9.441002 62.033,-22.509003 C 1858.49,18.57 1884.798,0 1933.986,0 c 49.188,0 75.495,18.57 96.634,33.491001 C 2049.1321,46.558998 2062.5081,56 2092.6521,56 c 30.147,0 43.5229,-9.441002 62.0371,-22.509003 C 2175.8279,18.57 2202.137,0 2251.3259,0 c 49.189,0 75.4981,18.57 96.637,33.491001 C 2366.4771,46.558998 2379.853,56 2410,56 c 16.5681,0 30,13.431999 30,30 0,16.568 -13.4319,30 -30,30 z" id="path10389" style="fill:#666;fill-opacity:1;fill-rule:nonzero;stroke:none" /></g></g></g><g id="g10391"><g clip-path="url(#clipPath10395)" id="g10393"><g transform="matrix(0.0251549,0,0,0.02586207,212.31102,237.75)" id="g10399"><path d="m 2410,116 c -49.189,0 -75.498,-18.569 -96.637,-33.490997 C 2294.8501,69.441002 2281.4741,60 2251.3259,60 2221.1777,60 2207.803,69.441002 2189.2888,82.509003 2168.1499,97.431 2141.842,116 2092.6521,116 c -49.188,0 -75.495,-18.57 -96.634,-33.490997 C 1977.507,69.441002 1964.131,60 1933.986,60 1903.84,60 1890.465,69.441002 1871.953,82.509003 1850.814,97.431 1824.507,116 1775.318,116 1726.13,116 1699.823,97.43 1678.684,82.509003 1660.173,69.441002 1646.797,60 1616.652,60 c -30.145,0 -43.52,9.441002 -62.031,22.509003 C 1533.483,97.43 1507.176,116 1457.988,116 1408.8001,116 1382.493,97.43 1361.354,82.509003 1342.843,69.441002 1329.467,60 1299.322,60 c -30.145,0 -43.521,9.441002 -62.0329,22.509003 C 1216.151,97.43 1189.843,116 1140.655,116 1091.467,116 1065.16,97.43 1044.022,82.509003 1025.509,69.441002 1012.134,60 981.98901,60 951.84399,60 938.46899,69.441002 919.95703,82.509003 898.81897,97.43 872.51202,116 823.323,116 774.13501,116 747.828,97.43 726.69,82.509003 708.17798,69.441002 694.80298,60 664.65802,60 634.51306,60 621.138,69.441002 602.62604,82.509003 581.48798,97.43 555.17999,116 505.992,116 456.80402,116 430.49701,97.43 409.358,82.509003 390.84698,69.441002 377.47101,60 347.32599,60 317.18198,60 303.80698,69.441002 285.29498,82.509003 264.15701,97.43 237.85001,116 188.66299,116 139.47598,116 113.168,97.43 92.029999,82.509003 73.518997,69.441002 60.144001,60 30,60 13.432,60 0,46.568001 0,30 0,13.431999 13.432,0 30,0 79.188004,0 105.494,18.57 126.632,33.491001 145.144,46.558998 158.519,56 188.66299,56 c 30.144,0 43.519,-9.441002 62.03101,-22.509003 C 271.832,18.57 298.13901,0 347.32599,0 c 49.18799,0 75.496,18.57 96.63299,33.491001 C 462.47198,46.558998 475.84698,56 505.992,56 536.13702,56 549.51202,46.558998 568.02399,33.490997 589.16302,18.57 615.46997,0 664.65802,0 c 49.18805,0 75.495,18.57 96.633,33.491001 C 779.80298,46.558998 793.17902,56 823.323,56 853.46802,56 866.84302,46.558998 885.35602,33.490997 906.49402,18.57 932.80103,0 981.98901,0 1031.177,0 1057.485,18.57 1078.6231,33.491001 1097.135,46.558998 1110.51,56 1140.655,56 c 30.1451,0 43.521,-9.441002 62.033,-22.509003 C 1223.8261,18.57 1250.134,0 1299.322,0 c 49.188,0 75.495,18.57 96.6341,33.491001 C 1414.468,46.558998 1427.844,56 1457.988,56 c 30.1441,0 43.5201,-9.441002 62.031,-22.509003 C 1541.157,18.57 1567.465,0 1616.652,0 c 49.188,0 75.495,18.57 96.634,33.491001 C 1731.798,46.558998 1745.174,56 1775.318,56 c 30.146,0 43.521,-9.441002 62.033,-22.509003 C 1858.49,18.57 1884.798,0 1933.986,0 c 49.188,0 75.495,18.57 96.634,33.491001 C 2049.1321,46.558998 2062.5081,56 2092.6521,56 c 30.147,0 43.5229,-9.441002 62.0371,-22.509003 C 2175.8279,18.57 2202.137,0 2251.3259,0 c 49.189,0 75.4981,18.57 96.637,33.491001 C 2366.4771,46.558998 2379.853,56 2410,56 c 16.5681,0 30,13.431999 30,30 0,16.568 -13.4319,30 -30,30 z" id="path10401" style="fill:#666;fill-opacity:1;fill-rule:nonzero;stroke:none" /></g></g></g><g id="g10403"><g clip-path="url(#clipPath10407)" id="g10405"><g transform="matrix(0.0251549,0,0,0.02586207,213.06102,270)" id="g10411"><path d="m 2410,116 c -49.189,0 -75.498,-18.569 -96.637,-33.490997 C 2294.8501,69.441002 2281.4741,60 2251.3259,60 2221.1777,60 2207.803,69.441002 2189.2888,82.509003 2168.1499,97.431 2141.842,116 2092.6521,116 c -49.188,0 -75.495,-18.57 -96.634,-33.490997 C 1977.507,69.441002 1964.131,60 1933.986,60 1903.84,60 1890.465,69.441002 1871.953,82.509003 1850.814,97.431 1824.507,116 1775.318,116 1726.13,116 1699.823,97.43 1678.684,82.509003 1660.173,69.441002 1646.797,60 1616.652,60 c -30.145,0 -43.52,9.441002 -62.031,22.509003 C 1533.483,97.43 1507.176,116 1457.988,116 1408.8001,116 1382.493,97.43 1361.354,82.509003 1342.843,69.441002 1329.467,60 1299.322,60 c -30.145,0 -43.521,9.441002 -62.0329,22.509003 C 1216.151,97.43 1189.843,116 1140.655,116 1091.467,116 1065.16,97.43 1044.022,82.509003 1025.509,69.441002 1012.134,60 981.98901,60 951.84399,60 938.46899,69.441002 919.95703,82.509003 898.81897,97.43 872.51202,116 823.323,116 774.13501,116 747.828,97.43 726.69,82.509003 708.17798,69.441002 694.80298,60 664.65802,60 634.51306,60 621.138,69.441002 602.62604,82.509003 581.48798,97.43 555.17999,116 505.992,116 456.80402,116 430.49701,97.43 409.358,82.509003 390.84698,69.441002 377.47101,60 347.32599,60 317.18198,60 303.80698,69.441002 285.29498,82.509003 264.15701,97.43 237.85001,116 188.66299,116 139.47598,116 113.168,97.43 92.029999,82.509003 73.518997,69.441002 60.144001,60 30,60 13.432,60 0,46.568001 0,30 0,13.431999 13.432,0 30,0 79.188004,0 105.494,18.57 126.632,33.491001 145.144,46.558998 158.519,56 188.66299,56 c 30.144,0 43.519,-9.441002 62.03101,-22.509003 C 271.832,18.57 298.13901,0 347.32599,0 c 49.18799,0 75.496,18.57 96.63299,33.491001 C 462.47198,46.558998 475.84698,56 505.992,56 536.13702,56 549.51202,46.558998 568.02399,33.490997 589.16302,18.57 615.46997,0 664.65802,0 c 49.18805,0 75.495,18.57 96.633,33.491001 C 779.80298,46.558998 793.17902,56 823.323,56 853.46802,56 866.84302,46.558998 885.35602,33.490997 906.49402,18.57 932.80103,0 981.98901,0 1031.177,0 1057.485,18.57 1078.6231,33.491001 1097.135,46.558998 1110.51,56 1140.655,56 c 30.1451,0 43.521,-9.441002 62.033,-22.509003 C 1223.8261,18.57 1250.134,0 1299.322,0 c 49.188,0 75.495,18.57 96.6341,33.491001 C 1414.468,46.558998 1427.844,56 1457.988,56 c 30.1441,0 43.5201,-9.441002 62.031,-22.509003 C 1541.157,18.57 1567.465,0 1616.652,0 c 49.188,0 75.495,18.57 96.634,33.491001 C 1731.798,46.558998 1745.174,56 1775.318,56 c 30.146,0 43.521,-9.441002 62.033,-22.509003 C 1858.49,18.57 1884.798,0 1933.986,0 c 49.188,0 75.495,18.57 96.634,33.491001 C 2049.1321,46.558998 2062.5081,56 2092.6521,56 c 30.147,0 43.5229,-9.441002 62.0371,-22.509003 C 2175.8279,18.57 2202.137,0 2251.3259,0 c 49.189,0 75.4981,18.57 96.637,33.491001 C 2366.4771,46.558998 2379.853,56 2410,56 c 16.5681,0 30,13.431999 30,30 0,16.568 -13.4319,30 -30,30 z" id="path10413" style="fill:#666;fill-opacity:1;fill-rule:nonzero;stroke:none" /></g></g></g><g id="g10415"><g clip-path="url(#clipPath10419)" id="g10417"><g transform="matrix(0.0251549,0,0,0.02586207,213.06102,298.5)" id="g10423"><path d="m 2410,116 c -49.189,0 -75.498,-18.569 -96.637,-33.490997 C 2294.8501,69.441002 2281.4741,60 2251.3259,60 2221.1777,60 2207.803,69.441002 2189.2888,82.509003 2168.1499,97.431 2141.842,116 2092.6521,116 c -49.188,0 -75.495,-18.57 -96.634,-33.490997 C 1977.507,69.441002 1964.131,60 1933.986,60 1903.84,60 1890.465,69.441002 1871.953,82.509003 1850.814,97.431 1824.507,116 1775.318,116 1726.13,116 1699.823,97.43 1678.684,82.509003 1660.173,69.441002 1646.797,60 1616.652,60 c -30.145,0 -43.52,9.441002 -62.031,22.509003 C 1533.483,97.43 1507.176,116 1457.988,116 1408.8001,116 1382.493,97.43 1361.354,82.509003 1342.843,69.441002 1329.467,60 1299.322,60 c -30.145,0 -43.521,9.441002 -62.0329,22.509003 C 1216.151,97.43 1189.843,116 1140.655,116 1091.467,116 1065.16,97.43 1044.022,82.509003 1025.509,69.441002 1012.134,60 981.98901,60 951.84399,60 938.46899,69.441002 919.95703,82.509003 898.81897,97.43 872.51202,116 823.323,116 774.13501,116 747.828,97.43 726.69,82.509003 708.17798,69.441002 694.80298,60 664.65802,60 634.51306,60 621.138,69.441002 602.62604,82.509003 581.48798,97.43 555.17999,116 505.992,116 456.80402,116 430.49701,97.43 409.358,82.509003 390.84698,69.441002 377.47101,60 347.32599,60 317.18198,60 303.80698,69.441002 285.29498,82.509003 264.15701,97.43 237.85001,116 188.66299,116 139.47598,116 113.168,97.43 92.029999,82.509003 73.518997,69.441002 60.144001,60 30,60 13.432,60 0,46.568001 0,30 0,13.431999 13.432,0 30,0 79.188004,0 105.494,18.57 126.632,33.491001 145.144,46.558998 158.519,56 188.66299,56 c 30.144,0 43.519,-9.441002 62.03101,-22.509003 C 271.832,18.57 298.13901,0 347.32599,0 c 49.18799,0 75.496,18.57 96.63299,33.491001 C 462.47198,46.558998 475.84698,56 505.992,56 536.13702,56 549.51202,46.558998 568.02399,33.490997 589.16302,18.57 615.46997,0 664.65802,0 c 49.18805,0 75.495,18.57 96.633,33.491001 C 779.80298,46.558998 793.17902,56 823.323,56 853.46802,56 866.84302,46.558998 885.35602,33.490997 906.49402,18.57 932.80103,0 981.98901,0 1031.177,0 1057.485,18.57 1078.6231,33.491001 1097.135,46.558998 1110.51,56 1140.655,56 c 30.1451,0 43.521,-9.441002 62.033,-22.509003 C 1223.8261,18.57 1250.134,0 1299.322,0 c 49.188,0 75.495,18.57 96.6341,33.491001 C 1414.468,46.558998 1427.844,56 1457.988,56 c 30.1441,0 43.5201,-9.441002 62.031,-22.509003 C 1541.157,18.57 1567.465,0 1616.652,0 c 49.188,0 75.495,18.57 96.634,33.491001 C 1731.798,46.558998 1745.174,56 1775.318,56 c 30.146,0 43.521,-9.441002 62.033,-22.509003 C 1858.49,18.57 1884.798,0 1933.986,0 c 49.188,0 75.495,18.57 96.634,33.491001 C 2049.1321,46.558998 2062.5081,56 2092.6521,56 c 30.147,0 43.5229,-9.441002 62.0371,-22.509003 C 2175.8279,18.57 2202.137,0 2251.3259,0 c 49.189,0 75.4981,18.57 96.637,33.491001 C 2366.4771,46.558998 2379.853,56 2410,56 c 16.5681,0 30,13.431999 30,30 0,16.568 -13.4319,30 -30,30 z" id="path10425" style="fill:#666;fill-opacity:1;fill-rule:nonzero;stroke:none" /></g></g></g><g id="g10427"><g clip-path="url(#clipPath10431)" id="g10429"><g transform="matrix(0.27160072,0,0,0.26723534,123.4267,441.26724)" id="g10435"><path d="m 480,0 -11,0 0,33 31,0 0,-13 C 500,9 491,0 480,0 z" id="path10437" style="fill:#99e265;fill-opacity:1;fill-rule:nonzero;stroke:none" /></g><g transform="matrix(0.27160072,0,0,-1.566025e-4,123.4267,449.82394)" id="g10439"><path d="m 469,33 31,0 0,438 -31,0 0,-438 z" id="path10441" style="fill:#99e265;fill-opacity:1;fill-rule:nonzero;stroke:none" /></g><g transform="matrix(0.06771255,0,0,-1.566025e-4,219.32185,449.82394)" id="g10443"><path d="m 31,33 438,0 0,438 -438,0 0,-438 z" id="path10445" style="fill:#99e265;fill-opacity:1;fill-rule:nonzero;stroke:none" /></g><g transform="matrix(0.06771255,0,0,0.26723534,219.32185,441.26724)" id="g10447"><path d="M 31,0 469,0 469,33 31,33 31,0 z" id="path10449" style="fill:#99e265;fill-opacity:1;fill-rule:nonzero;stroke:none" /></g><g transform="matrix(0.27160072,0,0,0.26723534,213.27293,441.26724)" id="g10451"><path d="M 20,0 C 9,0 0,9 0,20 L 0,33 31,33 31,0 20,0 z" id="path10453" style="fill:#99e265;fill-opacity:1;fill-rule:nonzero;stroke:none" /></g><g transform="matrix(0.27160072,0,0,-1.566025e-4,213.27293,449.82394)" id="g10455"><path d="M 0,33 31,33 31,471 0,471 0,33 z" id="path10457" style="fill:#99e265;fill-opacity:1;fill-rule:nonzero;stroke:none" /></g><g transform="matrix(0.06771255,0,0,0.26723534,219.32185,323.61508)" id="g10459"><path d="m 31,471 438,0 0,29 -438,0 0,-29 z" id="path10461" style="fill:#99e265;fill-opacity:1;fill-rule:nonzero;stroke:none" /></g><g transform="matrix(0.27160072,0,0,0.26723534,213.27293,323.61508)" id="g10463"><path d="m 0,471 0,9 c 0,11 9,20 20,20 l 11,0 0,-29 -31,0 z" id="path10465" style="fill:#99e265;fill-opacity:1;fill-rule:nonzero;stroke:none" /></g><g transform="matrix(0.27160072,0,0,0.26723534,123.4267,323.61508)" id="g10467"><path d="m 480,500 c 11,0 20,-9 20,-20 l 0,-9 -31,0 0,29 11,0 z" id="path10469" style="fill:#99e265;fill-opacity:1;fill-rule:nonzero;stroke:none" /></g></g></g><g id="g10471"><g clip-path="url(#clipPath10475)" id="g10473"><g transform="matrix(0.27160072,0,0,0.26723534,175.17673,441.26724)" id="g10479"><path d="m 480,0 -11,0 0,33 31,0 0,-13 C 500,9 491,0 480,0 z" id="path10481" style="fill:#99e265;fill-opacity:1;fill-rule:nonzero;stroke:none" /></g><g transform="matrix(0.27160072,0,0,-1.566025e-4,175.17673,449.82394)" id="g10483"><path d="m 469,33 31,0 0,438 -31,0 0,-438 z" id="path10485" style="fill:#99e265;fill-opacity:1;fill-rule:nonzero;stroke:none" /></g><g transform="matrix(0.06771255,0,0,-1.566025e-4,271.07187,449.82394)" id="g10487"><path d="m 31,33 438,0 0,438 -438,0 0,-438 z" id="path10489" style="fill:#99e265;fill-opacity:1;fill-rule:nonzero;stroke:none" /></g><g transform="matrix(0.06771255,0,0,0.26723534,271.07187,441.26724)" id="g10491"><path d="M 31,0 469,0 469,33 31,33 31,0 z" id="path10493" style="fill:#99e265;fill-opacity:1;fill-rule:nonzero;stroke:none" /></g><g transform="matrix(0.27160072,0,0,0.26723534,265.02295,441.26724)" id="g10495"><path d="M 20,0 C 9,0 0,9 0,20 L 0,33 31,33 31,0 20,0 z" id="path10497" style="fill:#99e265;fill-opacity:1;fill-rule:nonzero;stroke:none" /></g><g transform="matrix(0.27160072,0,0,-1.566025e-4,265.02295,449.82394)" id="g10499"><path d="M 0,33 31,33 31,471 0,471 0,33 z" id="path10501" style="fill:#99e265;fill-opacity:1;fill-rule:nonzero;stroke:none" /></g><g transform="matrix(0.06771255,0,0,0.26723534,271.07187,323.61508)" id="g10503"><path d="m 31,471 438,0 0,29 -438,0 0,-29 z" id="path10505" style="fill:#99e265;fill-opacity:1;fill-rule:nonzero;stroke:none" /></g><g transform="matrix(0.27160072,0,0,0.26723534,265.02295,323.61508)" id="g10507"><path d="m 0,471 0,9 c 0,11 9,20 20,20 l 11,0 0,-29 -31,0 z" id="path10509" style="fill:#99e265;fill-opacity:1;fill-rule:nonzero;stroke:none" /></g><g transform="matrix(0.27160072,0,0,0.26723534,175.17673,323.61508)" id="g10511"><path d="m 480,500 c 11,0 20,-9 20,-20 l 0,-9 -31,0 0,29 11,0 z" id="path10513" style="fill:#99e265;fill-opacity:1;fill-rule:nonzero;stroke:none" /></g></g></g><g id="g10515"><g clip-path="url(#clipPath10519)" id="g10517"><g transform="matrix(0.27160072,0,0,0.26723534,230.67673,442.76724)" id="g10523"><path d="m 480,0 -11,0 0,33 31,0 0,-13 C 500,9 491,0 480,0 z" id="path10525" style="fill:#99e265;fill-opacity:1;fill-rule:nonzero;stroke:none" /></g><g transform="matrix(0.27160072,0,0,-1.566025e-4,230.67673,451.32394)" id="g10527"><path d="m 469,33 31,0 0,438 -31,0 0,-438 z" id="path10529" style="fill:#99e265;fill-opacity:1;fill-rule:nonzero;stroke:none" /></g><g transform="matrix(0.06771255,0,0,-1.566025e-4,326.57187,451.32394)" id="g10531"><path d="m 31,33 438,0 0,438 -438,0 0,-438 z" id="path10533" style="fill:#99e265;fill-opacity:1;fill-rule:nonzero;stroke:none" /></g><g transform="matrix(0.06771255,0,0,0.26723534,326.57187,442.76724)" id="g10535"><path d="M 31,0 469,0 469,33 31,33 31,0 z" id="path10537" style="fill:#99e265;fill-opacity:1;fill-rule:nonzero;stroke:none" /></g><g transform="matrix(0.27160072,0,0,0.26723534,320.52295,442.76724)" id="g10539"><path d="M 20,0 C 9,0 0,9 0,20 L 0,33 31,33 31,0 20,0 z" id="path10541" style="fill:#99e265;fill-opacity:1;fill-rule:nonzero;stroke:none" /></g><g transform="matrix(0.27160072,0,0,-1.566025e-4,320.52295,451.32394)" id="g10543"><path d="M 0,33 31,33 31,471 0,471 0,33 z" id="path10545" style="fill:#99e265;fill-opacity:1;fill-rule:nonzero;stroke:none" /></g><g transform="matrix(0.06771255,0,0,0.26723534,326.57187,325.11508)" id="g10547"><path d="m 31,471 438,0 0,29 -438,0 0,-29 z" id="path10549" style="fill:#99e265;fill-opacity:1;fill-rule:nonzero;stroke:none" /></g><g transform="matrix(0.27160072,0,0,0.26723534,320.52295,325.11508)" id="g10551"><path d="m 0,471 0,9 c 0,11 9,20 20,20 l 11,0 0,-29 -31,0 z" id="path10553" style="fill:#99e265;fill-opacity:1;fill-rule:nonzero;stroke:none" /></g><g transform="matrix(0.27160072,0,0,0.26723534,230.67673,325.11508)" id="g10555"><path d="m 480,500 c 11,0 20,-9 20,-20 l 0,-9 -31,0 0,29 11,0 z" id="path10557" style="fill:#99e265;fill-opacity:1;fill-rule:nonzero;stroke:none" /></g></g></g></g></svg>