<?xml version="1.0" encoding="UTF-8" standalone="no"?>
<!-- Created with Inkscape (http://www.inkscape.org/) -->

<svg xmlns:dc="http://purl.org/dc/elements/1.1/" xmlns:cc="http://creativecommons.org/ns#" xmlns:rdf="http://www.w3.org/1999/02/22-rdf-syntax-ns#" xmlns:svg="http://www.w3.org/2000/svg" xmlns="http://www.w3.org/2000/svg" version="1.1" width="743.75" height="1052.3622" id="svg3013" xml:space="preserve"><metadata id="metadata3019"><rdf:RDF><cc:Work rdf:about=""><dc:format>image/svg+xml</dc:format><dc:type rdf:resource="http://purl.org/dc/dcmitype/StillImage" /><dc:title></dc:title></cc:Work></rdf:RDF></metadata><defs id="defs3017"><clipPath id="clipPath3027"><path d="m 0,0 595,0 0,842.29218 -595,0 L 0,0 z" id="path3029" /></clipPath><clipPath id="clipPath3039"><path d="M 595,841.54285 595,0 0,0 l 0,841.54285 595,0 z" id="path3041" /></clipPath><clipPath id="clipPath3051"><path d="m 0,18.734257 0,513.318663 481.84512,0 0,-513.318663 -481.84512,0 z" id="path3053" /></clipPath><clipPath id="clipPath4355"><rect width="144.40561" height="145.74271" x="331.59808" y="-229.31076" transform="scale(1,-1)" id="rect4357" style="fill:#d45500" /></clipPath></defs><g transform="scale(1.25,1.25)" id="g3021"><g id="g3047"><g clip-path="url(#clipPath3051)" id="g3049"><g transform="matrix(1.0266373,0,0,1.0266373,-31.473551,18.734257)" id="g3055"><path d="m 51,13 -1,341 2,12 198.2,129 148.8,-97 51,-33 0.5,-358.6999998 -398.599998,0 L 51,13 z" id="path3057" style="fill:#009b31;fill-opacity:1;fill-rule:nonzero;stroke:none" /><path d="m 51.900002,6.3000002 398.600008,0 0,110.5999998 -398.600008,0 0,-110.5999998 z" id="path3059" style="fill:#009b31;fill-opacity:1;fill-rule:nonzero;stroke:none" /><path d="m 387.89999,404.70001 -51.69998,37.09998 0,-326.19999 51.69998,0 0,289.10001 z" id="path3061" style="fill:white;fill-opacity:1;fill-rule:nonzero;stroke:none" /><path d="M 276.60001,478.79999 250.2,495 l -25.30001,-16.20001 0,-363.19999 51.70002,0 0,363.19999 z" id="path3063" style="fill:white;fill-opacity:1;fill-rule:nonzero;stroke:none" /><path d="m 163.2,441.79999 -51.7,-35 0,-291.19999 51.7,0 0,326.19999 z" id="path3065" style="fill:white;fill-opacity:1;fill-rule:nonzero;stroke:none" /><path d="M 251.10001,22.700001 263.29999,47.599998 291,51.5 l -20.10001,19.400002 4.80002,27.5 L 251.10001,85.5 226.39999,98.400002 231.2,70.900002 211.2,51.5 238.89999,47.599998 251.10001,22.700001 z" id="path3067" style="fill:white;fill-opacity:1;fill-rule:nonzero;stroke:none" /><path d="m 365.20001,22.700001 12.4,24.899997 27.5,3.900002 -19.80002,19.400002 4.5,27.5 L 365.20001,85.5 340.5,98.400002 l 4.79999,-27.5 L 325.5,51.5 353,47.599998 365.20001,22.700001 z" id="path3069" style="fill:white;fill-opacity:1;fill-rule:nonzero;stroke:none" /><path d="m 137,22.700001 12.2,24.899997 27.5,3.900002 -19.9,19.400002 4.80001,27.5 L 137,85.5 l -24.7,12.900002 4.6,-27.5 L 97.099998,51.5 124.6,47.599998 137,22.700001 z" id="path3071" style="fill:white;fill-opacity:1;fill-rule:nonzero;stroke:none" /><path d="m 250,500 c -0.89999,0 -1.7,-0.20001 -2.39999,-0.70001 L 48,368.20001 C 46.700001,367.30002 46,366 46,364.5 L 46,4.4000001 C 46,2 48,0 50.400002,0 L 449.60001,0 C 452,0 454,2 454,4.4000001 l 0,360.2000099 c 0,1.5 -0.70001,2.79998 -2,3.70001 L 252.39999,499.29999 C 251.7,499.79999 250.89999,500 250,500 z M 54.799999,362.10001 250,490.39999 445.20001,362.09998 l 0,-353.3999802 -390.400011,0 0,353.4000102 z" id="path3073" style="fill:#36353f;fill-opacity:1;fill-rule:nonzero;stroke:none" /><path d="m 445.20001,122.2 -392.600012,0 c -2.400001,0 -4.400001,-2 -4.400001,-4.4 0,-2.40001 2,-4.40001 4.400001,-4.40001 l 392.700022,0 c 2.39999,0 4.39999,2 4.39999,4.40001 -0.1,2.4 -2.1,4.4 -4.5,4.4 z" id="path3075" style="fill:#36353f;fill-opacity:1;fill-rule:nonzero;stroke:none" /></g></g></g><g transform="matrix(1.9788687,0,0,-1.9909577,58.748333,624.08781)" id="g4333"><path d="m 463.70473,211.34444 0,9.354 -97.12,0 0,-0.002 c -0.052,0 -0.111,0.002 -0.162,0.002 -6.991,0 -19.625,0 -30.291,-4.076 0,0 2.323,-6.127 2.353,-11.924 0.024,-5.131 -2.346,-10.932 -2.346,-10.932 0,0 0,-44.09 0,-49.064 0,-2.172 0.811,-3.353 2.275,-4.021 2.686,-1.226 5.863,-2.127 9.014,-3.34 2.099,-0.808 4.424,0.917 5.974,3.639 4.488,7.881 9.235,17.556 9.235,17.556 0,0 4.932,2.659 7.258,7.679 2.135,4.605 1.841,7.401 1.841,7.401 16.446,-23.933 16.673,-56.771 16.673,-56.771 0,0 -18.211,4.166 -27.541,6.334 -6.074,1.41 -13.229,3.114 -16.55,3.114 -4.329,0 -7.983,-2.776 -8.118,-6.749 -0.068,-2.026 1.129,-5.572 3.266,-11.39 2.259,-6.1471 2.561,-6.8069 5.395,-15.024095 l 14.474,0 -3.182,12.683195 c 11.211,-3.6371 15.43,-9.126895 27.606,-12.683195 l 79.945,0 0,40.535095 c 0,0 -2.451,4.545 -6.166,11.057 l 6.167,0 0,9.354 -11.604,0 c -1.409,2.378 -2.888,4.834 -4.407,7.301 l 16.011,0 0,9.354 -21.949,0 c -1.179,1.791 -2.355,3.533 -3.511,5.191 -0.497,0.712 -0.999,1.41 -1.5,2.11 l 26.96,0 0,9.355 -34.058,0 c -2.071,2.565 -4.157,5.005 -6.243,7.301 l 40.301,0 0,9.354 -49.74,0 c -3.393,2.973 -6.715,5.443 -9.902,7.302 l 59.642,0 z m -0.015,-174.675795 0,20.2957 -14.662,0 0,-4.7707 7.129,0 0,-13.7992 c -0.631,-0.8059 -2.414,-1.611 -4.656,-1.611 -8.567,0 -10.35,8.1079 -10.35,17.652 0,5.2891 0,15.6961 8.051,15.6961 5.519,0 5.807,-4.8879 5.978,-7.2449 l 8.164,0 c 0,7.5898 -5.519,11.0386 -14.142,11.0386 -12.248,0 -15.984,-8.4507 -15.984,-20.1226 0,-11.6141 5.173,-20.8141 17.65,-20.8141 5.463,0 9.832,1.8981 12.822,3.6801 z m -42.435,-3.0473 0,39.6719 -6.153,0 0,-29.4367 -0.115,0 -15.352,29.4367 -8.22,0 0,-39.6719 6.15,0 0,30.875 0.115,0 16.1,-30.875 7.475,0 z m -42.895,13.5121 0,26.1598 -7.531,0 0,-26.1598 c 0,-6.2101 -0.805,-10.35 -6.901,-10.35 -5.75,0 -6.726,4.1399 -6.726,10.35 l 0,26.1598 -7.531,0 0,-26.1598 c 0,-7.0718 1.494,-14.1449 14.257,-14.1449 12.938,0 14.432,7.0731 14.432,14.1449 z m -48.183,15.236 c 0,-5.807 -3.795,-7.1871 -9.143,-7.1871 l -1.494,0 0,13.914 1.494,0 c 4.658,0 9.143,-0.4027 9.143,-6.7269 z m 9.14,-28.7481 -2.242,10.5223 c -0.977,4.5988 -1.781,8.3938 -7.647,9.4859 l 0,0.1149 c 3.565,0.9199 8.28,3.048 8.28,9.1992 0,9.0277 -7.877,10.3496 -16.674,10.3496 l -9.025,0 0,-39.6719 7.531,0 0,17.3641 2.357,0 c 5.922,0 7.072,-2.6449 8.451,-9.8891 l 1.438,-7.475 7.531,0 z m -38.582,0 0,4.7731 -16.154,0 0,13.6262 14.832,0 0,4.5418 -14.832,0 0,12.189 15.638,0 0,4.5418 -23.171,0 0,-39.6719 23.687,0 z m -37.144,0 0,39.6719 -7.532,0 0,-16.6156 -13.799,0 0,16.6156 -7.532,0 0,-39.6719 7.532,0 0,18.5141 13.799,0 0,-18.5141 7.532,0 z m -38.525,28.8629 c 0,6.9571 -4.542,11.441 -13.914,11.441 -12.017,0 -16.214,-9.1988 -16.214,-19.7207 0,-11.2109 4.772,-21.216 17.306,-21.216 4.772,0 8.682,1.4957 11.212,2.4731 l 0,6.209 c -1.438,-1.0922 -4.83,-3.909 -9.832,-3.909 -10.579,0 -10.752,13.1078 -10.752,17.7078 0,5.2898 1.15,14.6621 7.82,14.6621 4.829,0 5.807,-4.543 5.807,-7.6473 l 8.567,0 z m -42.031,-28.8629 0,39.6719 -7.531,0 0,-39.6719 7.531,0 z m -18.286,11.1551 c 0,12.3031 -19.376,12.7629 -19.376,20.525 0,2.4731 2.242,4.082 5.405,4.082 4.599,0 9.544,-2.0121 10.924,-2.7019 l 0,6.1519 c -1.495,0.2872 -5.692,1.0918 -9.889,1.0918 -8.567,0 -13.397,-3.8519 -13.397,-10.2328 0,-12.5351 18.801,-12.3621 18.801,-21.332 0,-3.7371 -3.68,-4.8289 -6.209,-4.8289 -4.485,0 -8.912,2.357 -11.959,4.2539 l 0,-7.0129 c 1.437,-0.4039 5.98,-1.784 10.752,-1.784 8.509,0 14.948,3.1629 14.948,11.7879 z m -44.045,17.593 c 0,-5.807 -3.794,-7.1871 -9.141,-7.1871 l -1.495,0 0,13.914 1.495,0 c 4.657,0 9.141,-0.4027 9.141,-6.7269 z m 9.142,-28.7481 -2.242,10.5223 c -0.977,4.5988 -1.782,8.3938 -7.647,9.4859 l 0,0.1149 c 3.565,0.9199 8.28,3.048 8.28,9.1992 0,9.0277 -7.877,10.3496 -16.674,10.3496 l -9.027,0 0,-39.6719 7.532,0 0,17.3641 2.357,0 c 5.922,0 7.072,-2.6449 8.452,-9.8891 l 1.438,-7.475 7.531,0 z m -38.581597,0 0,4.7731 -16.1563,0 0,13.6262 14.8336,0 0,4.5418 -14.8336,0 0,12.189 15.6387,0 0,4.5418 -23.1703,0 0,-39.6719 23.6879,0 z m -31.9707,39.6719 -6.6695,0 -10.2914,-30.5879 -0.1153,0 -10.1191,30.5879 -7.8196,0 13.5114,-39.6719 7.7625,0 13.741,39.6719 z m 140.829297,147.394195 -36.893,0.003 -25.514,-70.866 -25.515,70.85 -36.844397,0.013 51.019397,-127.549995 22.696,0 51.051,127.549995 z m -93.589,-127.549995 -11.334497,28.336995 -36.8566,0 0,99.213 -34.0137,0 0,-127.549995 82.204797,0 z m 209.764,0 -34.014,0 0,56.686995 -22.676,-56.686995 -34.009,0 -0.011,56.686995 -22.668,-56.686995 -34.005,0 51.052,127.560995 33.972,0 0,-70.874 28.396,70.874 33.963,0 0,-127.560995" transform="translate(-316.89009,11.365256)" clip-path="url(#clipPath4355)" id="path4337" style="fill:#2fae42;fill-opacity:1;fill-rule:nonzero;stroke:none" /></g></g></svg>