<?xml version="1.0" encoding="UTF-8" standalone="no"?>
<!-- Created with Inkscape (http://www.inkscape.org/) -->

<svg xmlns:dc="http://purl.org/dc/elements/1.1/" xmlns:cc="http://creativecommons.org/ns#" xmlns:rdf="http://www.w3.org/1999/02/22-rdf-syntax-ns#" xmlns:svg="http://www.w3.org/2000/svg" xmlns="http://www.w3.org/2000/svg" version="1.1" width="743.75" height="1052.3622" id="svg4172" xml:space="preserve"><metadata id="metadata4178"><rdf:RDF><cc:Work rdf:about=""><dc:format>image/svg+xml</dc:format><dc:type rdf:resource="http://purl.org/dc/dcmitype/StillImage" /><dc:title></dc:title></cc:Work></rdf:RDF></metadata><defs id="defs4176"><clipPath id="clipPath4186"><path d="m 0,0 595,0 0,842.29218 -595,0 L 0,0 z" id="path4188" /></clipPath><clipPath id="clipPath4198"><path d="M 595,841.54285 595,0 0,0 l 0,841.54285 595,0 z" id="path4200" /></clipPath><clipPath id="clipPath4210"><path d="m 512.56927,47.959698 -461.61209,0 0,340.214102 461.61209,0 0,-340.214102 z" id="path4212" /></clipPath><clipPath id="clipPath4226"><path d="m 379.55603,115.02834 -145.37782,0 0,179.84886 145.37782,0 0,-179.84886 z" id="path4228" /></clipPath><clipPath id="clipPath4250"><path d="m 234,548 146,0 0,180 -146,0 0,-180 z" id="path4252" /></clipPath><linearGradient x1="438.00021" y1="-646.44067" x2="555.16241" y2="-646.44067" id="linearGradient4254" gradientUnits="userSpaceOnUse" gradientTransform="matrix(0,0.4308677,-0.42982915,0,-27.403259,441.99188)" spreadMethod="pad"><stop id="stop4256" style="stop-color:white;stop-opacity:0" offset="0" /><stop id="stop4258" style="stop-color:white;stop-opacity:1" offset="1" /></linearGradient><linearGradient x1="438.00021" y1="-646.44067" x2="555.16241" y2="-646.44067" id="linearGradient4260" gradientUnits="userSpaceOnUse" gradientTransform="matrix(0,0.4308677,-0.42982915,0,-27.403259,441.99188)" spreadMethod="pad"><stop id="stop4262" style="stop-color:black;stop-opacity:1" offset="0" /><stop id="stop4264" style="stop-color:black;stop-opacity:1" offset="1" /></linearGradient><pattern id="pattern4266" height="180" width="146" y="0" x="0" patternUnits="userSpaceOnUse"><defs id="defs4268"><mask id="_mask0" height="1" width="1" y="0" x="0" maskUnits="userSpaceOnUse"><g id="g4271"><g id="g4273" clip-path="url(#clipPath4250)"><path id="path4275" style="fill:url(#linearGradient4254);fill-opacity:1;fill-rule:evenodd;stroke:none" d="m 234,548 146,0 0,180 -146,0 0,-180 z" /></g></g></mask></defs><g id="g4277" /><g id="g4279" mask="url(#_mask0)"><path id="path4281" style="fill:url(#linearGradient4260);fill-opacity:1;fill-rule:evenodd;stroke:none" d="m 234,548 146,0 0,180 -146,0 0,-180 z" /></g></pattern></defs><g transform="scale(1.25,1.25)" id="g4180"><g id="g4206"><g clip-path="url(#clipPath4210)" id="g4208"><g transform="matrix(0.76934665,0,0,0.76979703,50.959236,47.959698)" id="g4214"><path d="m 562.849,199.506 c 1.435,-4.221 2.54498,-8.622 3.24499,-13.18001 6.47901,-42.112 -22.40301,-81.5 -64.51501,-87.981004 -20.42499,-3.142998 -40.19699,2.054004 -55.896,13.022004 -8.63199,-45.746003 -45.19299,-83.213998 -93.82901,-90.694001 -46.37799,-7.139 -90.50799,15.031998 -113.56199,52.701996 -11.265,-11.491001 -26.194,-19.567002 -43.325,-22.208 -40.87,-6.288002 -79.181,20.746002 -87.322,60.847005 -1.549,-0.323 -3.105,-0.615 -4.699,-0.86001 -47.969997,-7.38199 -92.843998,25.52501 -100.225994,73.498 -5.738,37.27299 12.859,72.66699 43.939999,90.07098 -4.432,58.28201 36.690998,111.051 95.436995,120.09201 26.25701,4.04401 51.78101,-1.336 73.183,-13.57998 14.991,11.647 33.041,19.794 53.10201,22.96398 -7.84601,21.986 -46.506,24.61802 -75.31301,34.22699 41.329,8.05301 97.67101,4.79401 121.13402,-36.112 30.862,-7.56201 57.495,-27.61099 73.305,-55.27099 6.984,3.578 14.64498,6.13199 22.832,7.39099 26.67898,4.104 52.229,-6.36499 68.58999,-25.474 8.948,5.87299 19.25901,9.983 30.53202,11.72199 42.10501,6.47799 81.49398,-22.40601 87.97403,-64.51899 C 602.21301,245.07001 587.70599,215.481 562.849,199.506 z M 234.882,185.24001 c -0.485,0.24 -0.979,0.483 -1.466,0.738 0.433,-0.37199 0.869,-0.726 1.28799,-1.099 0.058,0.11899 0.11701,0.24099 0.17801,0.361 z" id="path4216" style="fill:#009b31;fill-opacity:1;fill-rule:nonzero;stroke:none" /><path d="m 562.849,181.855 c 1.435,-4.224 2.54498,-8.622 3.24499,-13.183 6.47901,-42.108 -22.40301,-81.502002 -64.51501,-87.980006 -20.42499,-3.144997 -40.19699,2.054001 -55.896,13.022003 C 437.05197,47.970997 400.49097,10.501 351.85498,3.0209961 305.47397,-4.116004 261.34698,18.054996 238.29298,55.720997 227.03,44.230999 212.10001,36.152 194.97,33.514 154.10001,27.226999 115.788,54.254997 107.647,94.361 106.098,94.038002 104.543,93.744003 102.94801,93.5 54.977001,86.120003 10.103,119.027 2.721,167 -3.017,204.27299 15.58,239.67 46.660999,257.06799 42.229,315.353 83.352005,368.12299 142.09799,377.16 c 26.25701,4.04502 51.78101,-1.333 73.183,-13.57199 14.991,11.64801 33.041,19.79102 53.10201,22.961 -7.84601,21.98599 -23.99201,39.702 -52.80401,49.31 30.45301,2.48401 75.153,-10.289 98.62002,-51.19101 30.863,-7.57501 57.49499,-27.621 73.302,-55.272 6.987,3.578 14.64599,6.12899 22.832,7.38501 26.68301,4.104 52.23199,-6.36701 68.59399,-25.46701 8.94602,5.86898 19.258,9.979 30.52899,11.71099 42.10797,6.482 81.49604,-22.39801 87.97699,-64.51199 4.78003,-31.093 -9.72699,-60.683 -34.58398,-76.658 z" id="path4218" style="fill:white;fill-opacity:1;fill-rule:nonzero;stroke:none" /><path d="m 223.03,437.84399 c -2.573,0 -5.127,-0.10199 -7.59,-0.302 l -8.24699,-0.67199 7.852,-2.61701 c 25.288,-8.42801 42.45002,-24.02701 51.042,-46.37299 -18.50301,-3.25601 -36.05701,-10.92599 -50.946,-22.26599 -17.062,9.53202 -36.312,14.569 -55.75301,14.569 -5.83301,0 -11.735,-0.457 -17.545,-1.354 C 113.11301,374.414 87.374001,359.42401 69.364006,336.633 51.680008,314.24298 43.010006,286.366 44.901009,258.01599 13.047008,239.668 -4.5489922,203.13399 1.0510101,166.74399 4.3240099,145.46899 15.14801,126.08099 31.52301,112.15298 47.73,98.365997 68.313004,90.774002 89.478996,90.774002 c 4.563004,0 9.184998,0.353996 13.728994,1.054001 1.015,0.155998 2.05101,0.335998 3.138,0.544998 8.054,-35.712002 40.083,-61.458 76.802,-61.458 4.01801,0 8.079,0.312 12.08001,0.927999 16.26899,2.505 31.002,9.814001 42.757,21.185999 C 258.89999,20.264 295.69901,0 334.54501,0 340.38602,0 346.29703,0.45300001 352.112,1.349 399.228,8.5979996 436.996,44.43 446.84601,90.892998 459.69,82.514999 474.474,78.097 489.77701,78.097 c 4.01098,0 8.069,0.310997 12.06201,0.926003 20.81003,3.203003 39.13199,14.316002 51.58401,31.299007 12.45301,16.979 17.54603,37.79499 14.34498,58.608 -0.62403,4.069 -1.59998,8.17599 -2.90503,12.222 25.48602,16.979 38.90399,47.298 34.237,77.616 -2.87903,18.72198 -12.40302,35.77999 -26.81202,48.039 -14.263,12.13101 -32.37298,18.81201 -50.99401,18.81201 -0.002,0 -0.002,0 -0.006,0 -4.02099,0 -8.091,-0.31201 -12.09298,-0.92999 -10.72901,-1.646 -20.80701,-5.40101 -29.96201,-11.17002 -14.62399,16.43399 -35.453,25.82999 -57.384,25.82999 -3.91599,0 -7.87799,-0.30801 -11.77701,-0.90399 -7.621,-1.17002 -14.98001,-3.47101 -21.90399,-6.836 -15.957,27.047 -42.397,46.84399 -72.86401,54.51901 C 293.091,424.24301 253.133,437.84399 223.03,437.84399 z m -7.605,-76.289 0.896,0.693 c 15.173,11.789 33.268,19.613 52.32701,22.626 l 2.017,0.319 -0.68701,1.92002 c -7.81501,21.902 -23.22901,37.79901 -45.868,47.341 29.19,-0.323 67.47002,-13.75201 88.62499,-50.63602 l 0.35998,-0.62899 0.70599,-0.17402 c 30.38199,-7.453 56.70899,-27.31201 72.23301,-54.47201 l 0.80499,-1.401 1.43799,0.73401 c 7.02099,3.596 14.526,6.02099 22.31799,7.22299 3.729,0.56799 7.51999,0.862 11.26199,0.862 21.43201,0 41.76599,-9.39002 55.78601,-25.76099 l 0.969,-1.13101 1.246,0.81601 c 9.07401,5.95401 19.12,9.80899 29.858,11.45499 3.83301,0.59201 7.72901,0.89099 11.57703,0.89099 0,0 0.004,0 0.006,0 17.81897,0 35.14801,-6.392 48.80298,-18.004 13.78998,-11.729 22.89697,-28.06201 25.65997,-45.979 4.52503,-29.43401 -8.74798,-58.85801 -33.82599,-74.97501 l -1.11102,-0.71401 0.42499,-1.251 c 1.448,-4.263 2.51703,-8.601 3.17602,-12.896 3.06202,-19.92 -1.81201,-39.84401 -13.729,-56.097 -11.91602,-16.252997 -29.45203,-26.892996 -49.371,-29.956 -3.823,-0.587997 -7.70801,-0.888 -11.547,-0.888 -15.45599,0 -30.366,4.710998 -43.12201,13.624 l -2.146,1.499001 -0.484,-2.571999 C 435.29001,47.750999 398.14801,11.849 351.60001,4.6890001 c -5.64801,-0.871 -11.38901,-1.312 -17.05899,-1.312 -38.38501,0 -74.71302,20.3950009 -94.80701,53.2239979 l -1.132,1.848999 -1.517,-1.548 c -11.47701,-11.709 -26.129,-19.217999 -42.376,-21.719998 -3.83,-0.59 -7.723,-0.889 -11.563,-0.889 -35.68199,0 -66.734,25.402001 -73.841,60.400002 l -0.339,1.666 L 107.3,96.010002 c -1.646,-0.346001 -3.154,-0.621002 -4.607,-0.846001 -4.374999,-0.670997 -8.822997,-1.013999 -13.212997,-1.013999 -20.362999,0 -40.167999,7.304998 -55.766998,20.570998 -15.761,13.39899 -26.1720008,32.055 -29.3199996,52.52601 -5.4440003,35.36 11.8749996,70.858 43.0940016,88.33499 l 0.941002,0.52301 -0.08,1.078 c -2.118,27.86802 6.288002,55.33402 23.669998,77.336 17.473999,22.12299 42.453003,36.668 70.337003,40.95499 5.642,0.871 11.368,1.31201 17.02899,1.31201 19.228,0 38.267,-5.07599 55.05701,-14.681 l 0.98399,-0.55002 z" id="path4220" style="fill:#009b31;fill-opacity:1;fill-rule:nonzero;stroke:none" /></g></g></g><g id="g4222"><g clip-path="url(#clipPath4226)" id="g4224"><g transform="matrix(0,-0.4308677,0.42982915,0,233.70642,330.89743)" id="g4230"><path d="m 484.168,190.38901 -55.66,0 0,-16.72901 -73.73999,0 0,16.736 -55.641,0 c -15.39599,0 -20.43798,10.104 -11.20999,22.39399 l 86.98297,116.29 c 9.22602,12.31698 24.31101,12.324 33.50101,0 l 86.99799,-116.29001 c 9.211,-12.30698 4.14901,-22.40097 -11.23099,-22.40097 z" id="path4232" style="fill:#009b31;fill-opacity:1;fill-rule:nonzero;stroke:none" /></g><g transform="matrix(0,-0.4308677,0.42925438,0,234.23607,330.89743)" id="g4234"><path d="m 354.76801,100.66 73.73999,0 0,73 -73.73999,0 0,-73 z" id="path4236" style="fill:#009b31;fill-opacity:1;fill-rule:nonzero;stroke:none" /></g><g transform="matrix(0,-0.4308677,0.42982915,0,234.60803,294.44193)" id="g4238"><path d="m 0,0 34.532001,0 0,73.738998 L 0,73.738998 0,0 z" id="path4240" style="fill:#009b31;fill-opacity:1;fill-rule:nonzero;stroke:none" /></g><g transform="matrix(0,-0.28403538,0.42982915,0,234.60803,290.04642)" id="g4242"><path d="M 32.869999,0 275.28,0 l 0,73.738998 -242.410001,0 0,-73.738998 z" id="path4244" style="fill:#009b31;fill-opacity:1;fill-rule:nonzero;stroke:none" /></g><g transform="matrix(0,-0.4308677,0.42982915,0,234.60803,330.89743)" id="g4246"><path d="m 275.28101,0 82.13599,0 0,73.738998 -82.13599,0 0,-73.738998 z" id="path4248" style="fill:#009b31;fill-opacity:1;fill-rule:nonzero;stroke:none" /><path d="m 275.28101,0 0,73.739998 117.16198,0 L 351.73999,0 275.28101,0 z" id="path4283" style="fill:url(#pattern4266);fill-opacity:1;fill-rule:nonzero;stroke:none" /><path d="m 428.508,73.725998 0.11898,0 c 0,-0.448998 0,-0.960999 0,-1.610001 0,-1.649002 -0.051,-3.253997 -0.11898,-4.833999 l 0,-0.846001 -0.043,0 C 425.522,12.713 380.79999,0 354.48801,0 350.59,0 338.38699,0 338.38699,0 c 0,0 16.5,6.9089999 16.5,35.249001 0,6.584999 0,21.990997 0,31.187995 l -0.11898,0 0,34.224004 73.73999,0 0,-26.935002 z" id="path4285" style="fill:#009b31;fill-opacity:1;fill-rule:nonzero;stroke:none" /></g></g></g></g></svg>